<svg xmlns="http://www.w3.org/2000/svg" id="freepik_stories-stem-cell-research" class="animated" version="1.1" viewBox="0 0 750 500">
  <style>
    svg#freepik_stories-stem-cell-research:not(.animated) .animable{opacity:0}@keyframes slideRight{0%{opacity:0;transform:translateX(30px)}100%{opacity:1;transform:translateX(0)}}@keyframes wind{0%{transform:rotate( 0deg )}25%{transform:rotate( 1deg )}75%{transform:rotate( -1deg )}}@keyframes slideLeft{0%{opacity:0;transform:translateX(-30px)}100%{opacity:1;transform:translateX(0)}}.animator-hidden{display:none}
  </style>
  <g id="freepik--Syringe--inject-40" class="animable" style="animation:1s 1 forwards cubic-bezier(.36,-0.01,.5,1.38) slideRight,1.5s Infinite linear wind;animation-delay:0s,1s">
    <path id="eltktilh8y6rf" fill="#FFF" d="M646.48 236.54h-4.55l-.57-10.63h5.68l-.56 10.63z" class="animable" style="animation:1s 1 forwards cubic-bezier(.36,-0.01,.5,1.38) slideRight;animation-delay:0s" transform-origin="644.2px 231.225px"/>
    <path id="ellgxckj37rvc" fill="#263238" d="M646.48 237h-4.55a.5.5 0 0 1-.5-.48l-.57-10.62a.47.47 0 0 1 .14-.37.48.48 0 0 1 .36-.16H647a.52.52 0 0 1 .37.16.5.5 0 0 1 .13.37l-.5 10.66a.5.5 0 0 1-.52.44Zm-4.08-1h3.6l.52-9.63h-4.63Z" class="animable" opacity="0" style="animation:1s 1 forwards cubic-bezier(.36,-0.01,.5,1.38) slideRight;animation-delay:0.03225806451612903s" transform-origin="644.18px 231.185px"/>
    <path id="el2sar2uj9wih" fill="#FFF" d="M636.42 218.33h15.57v8.12h-15.57z" class="animable" opacity="0" style="animation:1s 1 forwards cubic-bezier(.36,-0.01,.5,1.38) slideRight;animation-delay:0.06451612903225806s" transform-origin="644.205px 222.39px"/>
    <path id="eljxff39i8008" fill="#263238" d="M652 227h-15.58a.5.5 0 0 1-.5-.5v-8.13a.5.5 0 0 1 .5-.5H652a.5.5 0 0 1 .5.5v8.13a.51.51 0 0 1-.5.5Zm-15.07-1h14.57v-7.13h-14.58Z" class="animable" opacity="0" style="animation:1s 1 forwards cubic-bezier(.36,-0.01,.5,1.38) slideRight;animation-delay:0.0967741935483871s" transform-origin="644.21px 222.435px"/>
    <path id="el58y7513or28" fill="#FFF" d="M631.34 116.77h25.73v101.56h-25.73z" class="animable" opacity="0" style="animation:1s 1 forwards cubic-bezier(.36,-0.01,.5,1.38) slideRight;animation-delay:0.12903225806451613s" transform-origin="644.205px 167.55px"/>
    <path id="elt6trpcw9q5h" fill="#263238" d="M657.07 218.83h-25.73a.5.5 0 0 1-.5-.5V116.77a.5.5 0 0 1 .5-.5h25.73a.5.5 0 0 1 .5.5v101.56a.5.5 0 0 1-.5.5Zm-25.23-1h24.73V117.27h-24.73Z" class="animable" opacity="0" style="animation:1s 1 forwards cubic-bezier(.36,-0.01,.5,1.38) slideRight;animation-delay:0.16129032258064516s" transform-origin="644.205px 167.55px"/>
    <path id="elqqhqrp8pfn" fill="#FFF" d="M633.16 80.52h22.09v68.9h-22.09z" class="animable" opacity="0" style="animation:1s 1 forwards cubic-bezier(.36,-0.01,.5,1.38) slideRight;animation-delay:0.1935483870967742s" transform-origin="644.205px 114.97px"/>
    <path id="eltga8dfv321i" fill="#263238" d="M655.25 149.93h-22.09a.5.5 0 0 1-.5-.5V80.52a.5.5 0 0 1 .5-.5h22.09a.51.51 0 0 1 .5.5v68.91a.51.51 0 0 1-.5.5Zm-21.59-1h21.09V81h-21.09Z" class="animable" opacity="0" style="animation:1s 1 forwards cubic-bezier(.36,-0.01,.5,1.38) slideRight;animation-delay:0.22580645161290322s" transform-origin="644.205px 114.975px"/>
    <path id="elhq8wyi29lyk" fill="#FFF" d="M638.21 80.52h11.99v68.9h-11.99z" class="animable" opacity="0" style="animation:1s 1 forwards cubic-bezier(.36,-0.01,.5,1.38) slideRight;animation-delay:0.25806451612903225s" transform-origin="644.205px 114.97px"/>
    <path id="el7gfo3lonwnk" fill="#263238" d="M650.2 149.93h-12a.5.5 0 0 1-.5-.5V80.52a.5.5 0 0 1 .5-.5h12a.51.51 0 0 1 .5.5v68.91a.51.51 0 0 1-.5.5Zm-11.49-1h11V81h-11Z" class="animable" opacity="0" style="animation:1s 1 forwards cubic-bezier(.36,-0.01,.5,1.38) slideRight;animation-delay:0.29032258064516125s" transform-origin="644.2px 114.975px"/>
    <path id="elnwrhktl2wsp" fill="#263238" d="M650.2 140.23h-17.04v9.2h22.09v-9.2h-5.05z" class="animable" opacity="0" style="animation:1s 1 forwards cubic-bezier(.36,-0.01,.5,1.38) slideRight;animation-delay:0.3225806451612903s" transform-origin="644.205px 144.83px"/>
    <path id="elvs9ewarnork" fill="#263238" d="M655.25 149.93h-22.09a.5.5 0 0 1-.5-.5v-9.2a.5.5 0 0 1 .5-.5h22.09a.5.5 0 0 1 .5.5v9.2a.51.51 0 0 1-.5.5Zm-21.59-1h21.09v-8.2h-21.09Z" class="animable" opacity="0" style="animation:1s 1 forwards cubic-bezier(.36,-0.01,.5,1.38) slideRight;animation-delay:0.3548387096774194s" transform-origin="644.205px 144.83px"/>
    <path id="eltv6fxwkeghp" fill="#92E3A9" d="M633.2 150.54h22v66.01h-22z" class="animable" opacity="0" style="animation:1s 1 forwards cubic-bezier(.36,-0.01,.5,1.38) slideRight;animation-delay:0.3870967741935484s" transform-origin="644.2px 183.545px"/>
    <path id="eln99ndftp90r" fill="#263238" d="M655.2 217.05h-22a.5.5 0 0 1-.5-.5v-66a.5.5 0 0 1 .5-.5h22a.5.5 0 0 1 .5.5v66a.5.5 0 0 1-.5.5Zm-21.5-1h21V151h-21Z" class="animable" opacity="0" style="animation:1s 1 forwards cubic-bezier(.36,-0.01,.5,1.38) slideRight;animation-delay:0.4193548387096774s" transform-origin="644.2px 183.55px"/>
    <path id="el732si8qkwi9" fill="#263238" d="M644.09 295.86a.5.5 0 0 1-.5-.5V237a.5.5 0 0 1 .5-.5.5.5 0 0 1 .5.5v58.33a.51.51 0 0 1-.5.53Z" class="animable" opacity="0" style="animation:1s 1 forwards cubic-bezier(.36,-0.01,.5,1.38) slideRight;animation-delay:0.45161290322580644s" transform-origin="644.09px 266.18px"/>
    <path id="el633ytrep12h" fill="#FFF" d="M623.87 113.5h40.66v4.88h-40.66z" class="animable" opacity="0" style="animation:1s 1 forwards cubic-bezier(.36,-0.01,.5,1.38) slideRight;animation-delay:0.4838709677419355s" transform-origin="644.2px 115.94px"/>
    <path id="els4s3kn8a0y9" fill="#263238" d="M664.53 118.88h-40.66a.5.5 0 0 1-.5-.5v-4.88a.5.5 0 0 1 .5-.5h40.66a.5.5 0 0 1 .5.5v4.88a.5.5 0 0 1-.5.5Zm-40.16-1H664V114h-39.63Z" class="animable" opacity="0" style="animation:1s 1 forwards cubic-bezier(.36,-0.01,.5,1.38) slideRight;animation-delay:0.5161290322580645s" transform-origin="644.2px 115.94px"/>
    <path id="elyo9kucliz8o" fill="#263238" d="M640.33 141.56H635a.5.5 0 0 1 0-1h5.33a.5.5 0 0 1 0 1Z" class="animable" opacity="0" style="animation:1s 1 forwards cubic-bezier(.36,-0.01,.5,1.38) slideRight;animation-delay:0.5483870967741935s" transform-origin="637.665px 141.06px"/>
    <path id="elyxp867c6qhh" fill="#263238" d="M640.33 156.66H635a.5.5 0 0 1-.5-.5.5.5 0 0 1 .5-.5h5.33a.5.5 0 0 1 .5.5.5.5 0 0 1-.5.5Z" class="animable" opacity="0" style="animation:1s 1 forwards cubic-bezier(.36,-0.01,.5,1.38) slideRight;animation-delay:0.5806451612903225s" transform-origin="637.665px 156.16px"/>
    <path id="el7aedejtx5ff" fill="#263238" d="M640.33 161.7H635a.5.5 0 0 1-.5-.5.5.5 0 0 1 .5-.5h5.33a.5.5 0 0 1 .5.5.5.5 0 0 1-.5.5Z" class="animable" opacity="0" style="animation:1s 1 forwards cubic-bezier(.36,-0.01,.5,1.38) slideRight;animation-delay:0.6129032258064516s" transform-origin="637.665px 161.2px"/>
    <path id="eldgprfrxjumt" fill="#263238" d="M640.33 166.73H635a.5.5 0 0 1 0-1h5.33a.5.5 0 0 1 0 1Z" class="animable" opacity="0" style="animation:1s 1 forwards cubic-bezier(.36,-0.01,.5,1.38) slideRight;animation-delay:0.6451612903225806s" transform-origin="637.665px 166.23px"/>
    <path id="elrrqwovxxxb" fill="#263238" d="M640.33 171.77H635a.5.5 0 0 1-.5-.5.5.5 0 0 1 .5-.5h5.33a.5.5 0 0 1 .5.5.5.5 0 0 1-.5.5Z" class="animable" opacity="0" style="animation:1s 1 forwards cubic-bezier(.36,-0.01,.5,1.38) slideRight;animation-delay:0.6774193548387096s" transform-origin="637.665px 171.27px"/>
    <path id="elnbyp1qjl1il" fill="#263238" d="M640.33 176.8H635a.5.5 0 0 1 0-1h5.33a.5.5 0 0 1 0 1Z" class="animable" opacity="0" style="animation:1s 1 forwards cubic-bezier(.36,-0.01,.5,1.38) slideRight;animation-delay:0.7096774193548387s" transform-origin="637.665px 176.3px"/>
    <path id="elllvygdzj9bs" fill="#263238" d="M640.33 181.83H635a.5.5 0 0 1-.5-.5.5.5 0 0 1 .5-.5h5.33a.5.5 0 0 1 .5.5.5.5 0 0 1-.5.5Z" class="animable" opacity="0" style="animation:1s 1 forwards cubic-bezier(.36,-0.01,.5,1.38) slideRight;animation-delay:0.7419354838709677s" transform-origin="637.665px 181.33px"/>
    <path id="el60vdfakuxoh" fill="#263238" d="M640.33 186.87H635a.5.5 0 0 1-.5-.5.5.5 0 0 1 .5-.5h5.33a.5.5 0 0 1 .5.5.5.5 0 0 1-.5.5Z" class="animable" opacity="0" style="animation:1s 1 forwards cubic-bezier(.36,-0.01,.5,1.38) slideRight;animation-delay:0.7741935483870968s" transform-origin="637.665px 186.37px"/>
    <path id="ellndf2blg0pc" fill="#263238" d="M640.33 191.9H635a.5.5 0 0 1 0-1h5.33a.5.5 0 0 1 0 1Z" class="animable" opacity="0" style="animation:1s 1 forwards cubic-bezier(.36,-0.01,.5,1.38) slideRight;animation-delay:0.8064516129032258s" transform-origin="637.665px 191.4px"/>
    <path id="elwpwmumslw3" fill="#263238" d="M640.33 196.94H635a.5.5 0 0 1-.5-.5.5.5 0 0 1 .5-.5h5.33a.5.5 0 0 1 .5.5.5.5 0 0 1-.5.5Z" class="animable" opacity="0" style="animation:1s 1 forwards cubic-bezier(.36,-0.01,.5,1.38) slideRight;animation-delay:0.8387096774193548s" transform-origin="637.665px 196.44px"/>
    <path id="el7a0u246utqh" fill="#263238" d="M640.33 202H635a.5.5 0 0 1 0-1h5.33a.5.5 0 0 1 0 1Z" class="animable" opacity="0" style="animation:1s 1 forwards cubic-bezier(.36,-0.01,.5,1.38) slideRight;animation-delay:0.8709677419354839s" transform-origin="637.665px 201.5px"/>
    <path id="elplbumaqxi19" fill="#263238" d="M640.33 207H635a.5.5 0 0 1-.5-.5.5.5 0 0 1 .5-.5h5.33a.5.5 0 0 1 .5.5.5.5 0 0 1-.5.5Z" class="animable" opacity="0" style="animation:1s 1 forwards cubic-bezier(.36,-0.01,.5,1.38) slideRight;animation-delay:0.9032258064516129s" transform-origin="637.665px 206.5px"/>
    <path id="eldjzia7bsxqp" fill="#FFF" d="M625.08 78.09h38.24v4.07h-38.24z" class="animable" opacity="0" style="animation:1s 1 forwards cubic-bezier(.36,-0.01,.5,1.38) slideRight;animation-delay:0.9354838709677419s" transform-origin="644.2px 80.125px"/>
    <path id="elh013cvl3378" fill="#263238" d="M663.32 82.66h-38.24a.51.51 0 0 1-.5-.5v-4.07a.5.5 0 0 1 .5-.5h38.24a.5.5 0 0 1 .5.5v4.07a.5.5 0 0 1-.5.5Zm-37.74-1h37.24v-3.07h-37.24Z" class="animable" opacity="0" style="animation:1s 1 forwards cubic-bezier(.36,-0.01,.5,1.38) slideRight;animation-delay:0.967741935483871s" transform-origin="644.2px 80.125px"/>
  </g>
  <g id="freepik--Microscope--inject-40" class="animable animator-active" style="animation:1s 1 forwards cubic-bezier(.36,-0.01,.5,1.38) slideRight,1.5s Infinite linear wind;animation-delay:0s,1s">
    <path id="el1xmfl4e8eqz" fill="#FFF" d="M524.68 386.06h15.06v13.09h-15.06z" class="animable" style="animation:1s 1 forwards cubic-bezier(.36,-0.01,.5,1.38) slideRight;animation-delay:0s" transform-origin="532.21px 392.605px"/>
    <path id="elmo96b3z1uin" fill="#263238" d="M539.74 399.65h-15.06a.5.5 0 0 1-.5-.5v-13.09a.5.5 0 0 1 .5-.5h15.06a.5.5 0 0 1 .5.5v13.09a.5.5 0 0 1-.5.5Zm-14.56-1h14.06v-12.09h-14.06Z" class="animable" opacity="0" style="animation:1s 1 forwards cubic-bezier(.36,-0.01,.5,1.38) slideRight;animation-delay:0.03333333333333333s" transform-origin="532.21px 392.605px"/>
    <path id="el8khl8lwdrb5" fill="#92E3A9" d="M538.36 299.63v15.46a41 41 0 0 1 17.11 4.28A26.47 26.47 0 0 1 569.58 343v31.84a17.78 17.78 0 0 1-17.77 17.78h-27.39v7.65h49.74a7.66 7.66 0 0 0 7.66-7.65v-64.14a26.63 26.63 0 0 0-8.55-19.62c-17.7-16.23-34.91-9.23-34.91-9.23Z" class="animable" opacity="0" style="animation:1s 1 forwards cubic-bezier(.36,-0.01,.5,1.38) slideRight;animation-delay:0.06666666666666667s" transform-origin="553.12px 349.199px"/>
    <path id="eluq55jbrwyyp" fill="#263238" d="M574.16 400.72h-49.74a.5.5 0 0 1-.5-.5v-7.65a.5.5 0 0 1 .5-.5h27.39a17.3 17.3 0 0 0 17.27-17.28V343a25.84 25.84 0 0 0-13.83-23.14 41 41 0 0 0-16.92-4.22.49.49 0 0 1-.47-.5v-15.51a.49.49 0 0 1 .31-.46c.17-.08 17.71-6.94 35.44 9.32a27.19 27.19 0 0 1 8.71 20v64.09a8.17 8.17 0 0 1-8.16 8.14Zm-49.24-1h49.24a7.16 7.16 0 0 0 7.16-7.15v-64.09a26.16 26.16 0 0 0-8.39-19.25c-16-14.64-31.68-10.07-34.07-9.25v14.64a41.66 41.66 0 0 1 16.84 4.3 26.85 26.85 0 0 1 14.38 24v31.84a18.3 18.3 0 0 1-18.27 18.28h-26.89Z" class="animable" opacity="0" style="animation:1s 1 forwards cubic-bezier(.36,-0.01,.5,1.38) slideRight;animation-delay:0.1s" transform-origin="553.12px 349.193px"/>
    <path id="eluveclzep84" fill="#FFF" d="M526.07 258.88h12.29v56.21h-12.29z" class="animable" opacity="0" style="animation:1s 1 forwards cubic-bezier(.36,-0.01,.5,1.38) slideRight;animation-delay:0.13333333333333333s" transform-origin="532.215px 286.985px"/>
    <path id="elo17p8owpwsf" fill="#263238" d="M538.35 315.59h-12.28a.5.5 0 0 1-.5-.5v-56.21a.5.5 0 0 1 .5-.5h12.28a.5.5 0 0 1 .5.5v56.21a.5.5 0 0 1-.5.5Zm-11.78-1h11.28v-55.21h-11.28Z" class="animable" opacity="0" style="animation:1s 1 forwards cubic-bezier(.36,-0.01,.5,1.38) slideRight;animation-delay:0.16666666666666666s" transform-origin="532.21px 286.985px"/>
    <path id="elcnlisigsnl7" fill="#FFF" d="M524.68 274.54h15.06v56.21h-15.06z" class="animable" opacity="0" style="animation:1s 1 forwards cubic-bezier(.36,-0.01,.5,1.38) slideRight;animation-delay:0.2s" transform-origin="532.21px 302.645px"/>
    <path id="elqkxzniw0f1" fill="#263238" d="M539.74 331.25h-15.06a.5.5 0 0 1-.5-.5v-56.21a.5.5 0 0 1 .5-.5h15.06a.5.5 0 0 1 .5.5v56.21a.5.5 0 0 1-.5.5Zm-14.56-1h14.06V275h-14.06Z" class="animable" opacity="0" style="animation:1s 1 forwards cubic-bezier(.36,-0.01,.5,1.38) slideRight;animation-delay:0.23333333333333334s" transform-origin="532.21px 302.645px"/>
    <path id="el4cwny8vbqsj" fill="#263238" d="M524.68 257.21h15.06v4.57h-15.06z" class="animable" opacity="0" style="animation:1s 1 forwards cubic-bezier(.36,-0.01,.5,1.38) slideRight;animation-delay:0.26666666666666666s" transform-origin="532.21px 259.495px"/>
    <path id="elq11e47o593" fill="#263238" d="M539.74 262.28h-15.06a.5.5 0 0 1-.5-.5v-4.57a.5.5 0 0 1 .5-.5h15.06a.5.5 0 0 1 .5.5v4.57a.5.5 0 0 1-.5.5Zm-14.56-1h14.06v-3.57h-14.06Z" class="animable" opacity="0" style="animation:1s 1 forwards cubic-bezier(.36,-0.01,.5,1.38) slideRight;animation-delay:0.3s" transform-origin="532.21px 259.495px"/>
    <path id="elm9cazlx80xk" fill="#263238" d="M516.34 384.56h31.75v2.81h-31.75z" class="animable" opacity="0" style="animation:1s 1 forwards cubic-bezier(.36,-0.01,.5,1.38) slideRight;animation-delay:0.3333333333333333s" transform-origin="532.215px 385.965px"/>
    <path id="eldyor1nf3tw4" fill="#263238" d="M548.09 387.87h-31.75a.5.5 0 0 1-.5-.5v-2.81a.5.5 0 0 1 .5-.5h31.75a.51.51 0 0 1 .5.5v2.81a.5.5 0 0 1-.5.5Zm-31.25-1h30.75v-1.81h-30.75Z" class="animable" opacity="0" style="animation:1s 1 forwards cubic-bezier(.36,-0.01,.5,1.38) slideRight;animation-delay:0.36666666666666664s" transform-origin="532.215px 385.965px"/>
    <path id="ellzwg0qrujfl" fill="#FFF" d="M522.58 286.94h19.26v64.7h-19.26z" class="animable" opacity="0" style="animation:1s 1 forwards cubic-bezier(.36,-0.01,.5,1.38) slideRight;animation-delay:0.4s" transform-origin="532.21px 319.29px"/>
    <path id="elpdmrqoyb2j" fill="#263238" d="M541.84 352.13h-19.26a.5.5 0 0 1-.5-.5v-64.69a.5.5 0 0 1 .5-.5h19.26a.5.5 0 0 1 .5.5v64.69a.5.5 0 0 1-.5.5Zm-18.76-1h18.26v-63.69h-18.26Z" class="animable" opacity="0" style="animation:1s 1 forwards cubic-bezier(.36,-0.01,.5,1.38) slideRight;animation-delay:0.43333333333333335s" transform-origin="532.21px 319.285px"/>
    <path id="el82uxdc8mi5a" fill="#263238" d="M522.58 290.2h19.26v64.7h-19.26z" class="animable" opacity="0" style="animation:1s 1 forwards cubic-bezier(.36,-0.01,.5,1.38) slideRight;animation-delay:0.4666666666666667s" transform-origin="532.21px 322.55px"/>
    <path id="elnn06605u2b" fill="#263238" d="M541.84 355.4h-19.26a.51.51 0 0 1-.5-.5v-64.7a.5.5 0 0 1 .5-.5h19.26a.5.5 0 0 1 .5.5v64.7a.5.5 0 0 1-.5.5Zm-18.76-1h18.26v-63.7h-18.26Z" class="animable" opacity="0" style="animation:1s 1 forwards cubic-bezier(.36,-0.01,.5,1.38) slideRight;animation-delay:0.5s" transform-origin="532.21px 322.55px"/>
    <path id="el4f6jlanpw1v" fill="#FFF" d="M539.91 363.37h-15.4l-1.93-8.16h19.26l-1.93 8.16z" class="animable" opacity="0" style="animation:1s 1 forwards cubic-bezier(.36,-0.01,.5,1.38) slideRight;animation-delay:0.5333333333333333s" transform-origin="532.21px 359.29px"/>
    <path id="eleq0d3t0816" fill="#263238" d="M539.91 363.87h-15.4a.51.51 0 0 1-.49-.39l-1.92-8.15a.5.5 0 0 1 .48-.62h19.26a.49.49 0 0 1 .39.19.51.51 0 0 1 .1.43l-1.93 8.15a.5.5 0 0 1-.49.39Zm-15-1h14.62l1.69-7.16h-18Z" class="animable" opacity="0" style="animation:1s 1 forwards cubic-bezier(.36,-0.01,.5,1.38) slideRight;animation-delay:0.5666666666666667s" transform-origin="532.214px 359.29px"/>
    <path id="elb2acfkxrsgs" fill="#FFF" d="M528.21 363.24h8.01v11.15h-8.01z" class="animable" opacity="0" style="animation:1s 1 forwards cubic-bezier(.36,-0.01,.5,1.38) slideRight;animation-delay:0.6s" transform-origin="532.215px 368.815px"/>
    <path id="ellbixuq0dfio" fill="#263238" d="M536.22 374.89h-8a.5.5 0 0 1-.5-.5v-11.15a.5.5 0 0 1 .5-.5h8a.51.51 0 0 1 .5.5v11.15a.5.5 0 0 1-.5.5Zm-7.51-1h7v-10.15h-7Z" class="animable" opacity="0" style="animation:1s 1 forwards cubic-bezier(.36,-0.01,.5,1.38) slideRight;animation-delay:0.6333333333333333s" transform-origin="532.22px 368.815px"/>
    <path id="elgocebc74q3u" fill="#263238" d="M542.22 316.78a12 12 0 1 1 12-12 12 12 0 0 1-12 12Zm0-23a11 11 0 1 0 11 11 11 11 0 0 0-11-11.04Z" class="animable" opacity="0" style="animation:1s 1 forwards cubic-bezier(.36,-0.01,.5,1.38) slideRight;animation-delay:0.7s" transform-origin="542.22px 304.78px"/>
    <path id="elxxylp7tlko" fill="#263238" d="M542.22 314.51a9.75 9.75 0 1 1 9.75-9.75 9.76 9.76 0 0 1-9.75 9.75Zm0-18.5a8.75 8.75 0 1 0 8.75 8.75 8.76 8.76 0 0 0-8.75-8.76Z" class="animable" opacity="0" style="animation:1s 1 forwards cubic-bezier(.36,-0.01,.5,1.38) slideRight;animation-delay:0.7666666666666666s" transform-origin="542.22px 304.76px"/>
    <path id="elrk0b2ahnep" fill="#263238" d="M555.78 395h-.09a7.1 7.1 0 0 0-13.23 3.59l.3 15.15h22.66Z" class="animable" opacity="0" style="animation:1s 1 forwards cubic-bezier(.36,-0.01,.5,1.38) slideRight;animation-delay:0.8s" transform-origin="553.94px 402.611px"/>
    <path id="elt5bf0jeg9x" fill="#263238" d="M565.42 414.23h-22.66a.51.51 0 0 1-.5-.49l-.3-15.15a7.6 7.6 0 0 1 14-4 .48.48 0 0 1 .23.19l9.63 18.77a.48.48 0 0 1 0 .49.49.49 0 0 1-.4.19Zm-22.17-1h21.35l-9.14-17.8a.46.46 0 0 1-.2-.19 6.6 6.6 0 0 0-12.3 3.34Z" class="animable" opacity="0" style="animation:1s 1 forwards cubic-bezier(.36,-0.01,.5,1.38) slideRight;animation-delay:0.8333333333333334s" transform-origin="553.924px 402.659px"/>
    <path id="elaowm2tor1w8" fill="#FFF" d="M554.16 398.58a4.6 4.6 0 1 0-4.6 4.6 4.6 4.6 0 0 0 4.6-4.6Z" class="animable" opacity="0" style="animation:1s 1 forwards cubic-bezier(.36,-0.01,.5,1.38) slideRight;animation-delay:0.8666666666666667s" transform-origin="549.56px 398.58px"/>
    <path id="elpyeca789z0q" fill="#263238" d="M549.56 403.68a5.1 5.1 0 1 1 5.1-5.1 5.11 5.11 0 0 1-5.1 5.1Zm0-9.2a4.1 4.1 0 1 0 4.1 4.1 4.11 4.11 0 0 0-4.1-4.1Z" class="animable" opacity="0" style="animation:1s 1 forwards cubic-bezier(.36,-0.01,.5,1.38) slideRight;animation-delay:0.9s" transform-origin="549.56px 398.58px"/>
    <path id="el7icuqn66fir" fill="#263238" d="M604.88 422.33H501.47l2-3.08a10.77 10.77 0 0 1 9.07-4.95h81.3a10.79 10.79 0 0 1 9.07 4.95Z" class="animable" opacity="0" style="animation:1s 1 forwards cubic-bezier(.36,-0.01,.5,1.38) slideRight;animation-delay:0.9333333333333333s" transform-origin="553.175px 418.315px"/>
    <path id="elt5i0cnmthhd" fill="#263238" d="M604.88 422.83H501.47a.51.51 0 0 1-.44-.26.52.52 0 0 1 0-.51l2-3.08a11.23 11.23 0 0 1 9.49-5.18h81.3a11.26 11.26 0 0 1 9.49 5.18l2 3.08a.5.5 0 0 1-.42.77Zm-102.49-1H604l-1.49-2.31a10.25 10.25 0 0 0-8.65-4.72h-81.3a10.22 10.22 0 0 0-8.65 4.72Z" class="animable" opacity="0" style="animation:1s 1 forwards cubic-bezier(.36,-0.01,.5,1.38) slideRight;animation-delay:0.9666666666666667s" transform-origin="553.176px 418.315px"/>
  </g>
  <g id="freepik--Chromosome--inject-40" class="animable" style="animation:1s 1 forwards cubic-bezier(.36,-0.01,.5,1.38) slideLeft,1.5s Infinite linear wind;animation-delay:0s,1s">
    <path id="eliql1okh28h" fill="#FFF" d="M210.54 286.4c5-2.87 10-6.92 12-11.13 3.09-6.7 2.59-31.15 2.36-38.49a5.2 5.2 0 0 0-10.4.33c.43 13.88 0 30.78-1.4 33.8-.52 1.14-2.55 3.33-6.54 5.77a32.5 32.5 0 0 1-7.05 3.36 32.72 32.72 0 0 1-7-3.36c-4-2.44-6-4.63-6.54-5.77-1.38-3-1.84-19.92-1.4-33.8a5.2 5.2 0 0 0-10.4-.33c-.23 7.34-.73 31.79 2.36 38.49 1.94 4.21 7 8.26 12 11.13-5.33 4.57-10.51 11.09-12.24 17-3 10-2.19 53.19-2.09 58.07a5.2 5.2 0 0 0 5.2 5.1h.1a5.2 5.2 0 0 0 5.1-5.3c-.36-17.85-.22-48.54 1.66-54.93s10-13.25 13.32-15.07c3.37 1.82 11.45 8.73 13.32 15.07s2 37.08 1.67 54.93a5.19 5.19 0 0 0 5.09 5.3h.11a5.21 5.21 0 0 0 5.2-5.1c.1-4.88.87-48.05-2.09-58.07-1.83-5.91-7.01-12.4-12.34-17Z" class="animable" style="animation:1s 1 forwards cubic-bezier(.36,-0.01,.5,1.38) slideLeft;animation-delay:0s" transform-origin="199.563px 299.156px"/>
    <path id="el98fr0bk41j" fill="#263238" d="M219.67 367h-.12a5.7 5.7 0 0 1-5.58-5.81c.36-17.82.22-48.44-1.65-54.77s-9.7-12.83-12.84-14.64c-3.13 1.81-11 8.37-12.84 14.64s-2 36.95-1.64 54.77a5.7 5.7 0 0 1-5.59 5.81h-.11a5.73 5.73 0 0 1-5.7-5.59c-.1-4.89-.87-48.13 2.11-58.22 1.84-6.25 7.24-12.64 11.87-16.73-5.69-3.35-9.89-7.34-11.58-11-3.14-6.8-2.63-31.35-2.4-38.71a5.7 5.7 0 0 1 11.4.35c-.43 13.54 0 30.67 1.35 33.59.4.86 2.19 3 6.35 5.54a33 33 0 0 0 6.78 3.27 32.81 32.81 0 0 0 6.79-3.27c4.16-2.54 5.95-4.68 6.35-5.55 1.32-2.91 1.77-20 1.35-33.58a5.7 5.7 0 0 1 5.52-5.87 5.7 5.7 0 0 1 5.88 5.52c.23 7.36.73 31.91-2.4 38.71-1.69 3.66-5.89 7.65-11.58 11 4.63 4.09 10 10.48 11.87 16.73 3 10.09 2.2 53.33 2.11 58.22a5.73 5.73 0 0 1-5.7 5.59ZM179.3 232.25a4.71 4.71 0 0 0-4.7 4.55c-.23 7.31-.74 31.66 2.31 38.26 1.66 3.61 6 7.58 11.77 10.91a.5.5 0 0 1 .08.81c-4.63 4-10.24 10.44-12.09 16.71-2.94 9.95-2.17 53-2.07 57.92a4.7 4.7 0 1 0 9.4-.18c-.36-17.88-.22-48.64 1.68-55.08 1.86-6.27 9.82-13.34 13.57-15.37a.49.49 0 0 1 .47 0c3.75 2 11.71 9.1 13.56 15.37 1.9 6.44 2.05 37.2 1.69 55.08a4.7 4.7 0 0 0 4.6 4.79 4.75 4.75 0 0 0 4.79-4.61c.09-4.88.87-48-2.07-57.92-1.85-6.27-7.46-12.74-12.09-16.71a.48.48 0 0 1-.17-.42.51.51 0 0 1 .25-.39c5.81-3.33 10.1-7.3 11.77-10.91 3-6.6 2.53-30.95 2.31-38.26a4.7 4.7 0 0 0-9.4.29c.43 13.88 0 30.84-1.44 34-.59 1.26-2.66 3.49-6.74 6a33.31 33.31 0 0 1-7.17 3.41.42.42 0 0 1-.27 0 33.32 33.32 0 0 1-7.18-3.41c-4.07-2.5-6.15-4.73-6.73-6-1.45-3.19-1.88-20.15-1.44-34a4.7 4.7 0 0 0-4.55-4.84Z" class="animable" opacity="0" style="animation:1s 1 forwards cubic-bezier(.36,-0.01,.5,1.38) slideLeft;animation-delay:0.041666666666666664s" transform-origin="199.484px 299.113px"/>
    <path id="eltcqgh41unhl" fill="#92E3A9" d="M184.34 345.38h-10.4v3.76h10.4c.01-1.24 0-2.49 0-3.76Z" class="animable" opacity="0" style="animation:1s 1 forwards cubic-bezier(.36,-0.01,.5,1.38) slideLeft;animation-delay:0.08333333333333333s" transform-origin="179.142px 347.26px"/>
    <path id="elp8dx8p6l0c" fill="#263238" d="M184.35 349.64H174a.51.51 0 0 1-.5-.5v-3.76a.51.51 0 0 1 .5-.5h10.4a.5.5 0 0 1 .5.5v3.75a.51.51 0 0 1-.14.36.53.53 0 0 1-.41.15Zm-9.9-1h9.4v-2.76h-9.4c-.01.95 0 1.87 0 2.76Z" class="animable" opacity="0" style="animation:1s 1 forwards cubic-bezier(.36,-0.01,.5,1.38) slideLeft;animation-delay:0.125s" transform-origin="179.2px 347.261px"/>
    <path id="elo6z9p4soi1j" fill="#92E3A9" d="M184.37 242.58H174c-.06 3.51-.08 7.82 0 12.2h10.42c-.09-3.87-.1-8.07-.05-12.2Z" class="animable" opacity="0" style="animation:1s 1 forwards cubic-bezier(.36,-0.01,.5,1.38) slideLeft;animation-delay:0.16666666666666666s" transform-origin="179.184px 248.68px"/>
    <path id="elpu46wqrp89" fill="#263238" d="M184.42 255.28H174a.48.48 0 0 1-.5-.48c-.09-3.74-.1-7.85 0-12.23a.49.49 0 0 1 .5-.49h10.4a.48.48 0 0 1 .36.15.47.47 0 0 1 .14.36c-.05 4.14 0 8.35 0 12.18a.51.51 0 0 1-.14.36.48.48 0 0 1-.34.15Zm-9.94-1h9.43c-.08-3.54-.09-7.4 0-11.2h-9.41c-.1 3.99-.09 7.75-.02 11.2Z" class="animable" opacity="0" style="animation:1s 1 forwards cubic-bezier(.36,-0.01,.5,1.38) slideLeft;animation-delay:0.20833333333333331s" transform-origin="179.165px 248.68px"/>
    <path id="elw4rla0ia0i9" fill="#92E3A9" d="M174.93 311.58c-.12 1.33-.23 2.74-.32 4.23H185c.1-1.54.21-3 .33-4.23Z" class="animable" opacity="0" style="animation:1s 1 forwards cubic-bezier(.36,-0.01,.5,1.38) slideLeft;animation-delay:0.25s" transform-origin="179.97px 313.695px"/>
    <path id="elalpo6hg307c" fill="#263238" d="M185 316.31h-10.4a.51.51 0 0 1-.5-.53c.1-1.49.2-2.91.32-4.24a.5.5 0 0 1 .5-.46h10.41a.5.5 0 0 1 .37.17.52.52 0 0 1 .13.38c-.12 1.22-.23 2.64-.33 4.21a.5.5 0 0 1-.5.47Zm-9.87-1h9.4c.08-1.17.16-2.25.25-3.23h-9.4c-.08 1.03-.16 2.11-.24 3.23Z" class="animable" opacity="0" style="animation:1s 1 forwards cubic-bezier(.36,-0.01,.5,1.38) slideLeft;animation-delay:0.29166666666666663s" transform-origin="179.965px 313.695px"/>
    <path id="elpcrb0y6xfv9" fill="#92E3A9" d="M214.63 248.68H225v-4.69h-10.39c.02 1.57.02 3.14.02 4.69Z" class="animable" opacity="0" style="animation:1s 1 forwards cubic-bezier(.36,-0.01,.5,1.38) slideLeft;animation-delay:0.3333333333333333s" transform-origin="219.805px 246.335px"/>
    <path id="els80jkxq4pur" fill="#263238" d="M225 249.18h-10.37a.52.52 0 0 1-.36-.14.54.54 0 0 1-.14-.36v-4.69a.51.51 0 0 1 .5-.5H225a.5.5 0 0 1 .5.49v4.7a.5.5 0 0 1-.5.5Zm-9.91-1h9.41v-3.69h-9.4c.03 1.23.03 2.51.03 3.69Z" class="animable" opacity="0" style="animation:1s 1 forwards cubic-bezier(.36,-0.01,.5,1.38) slideLeft;animation-delay:0.375s" transform-origin="219.815px 246.335px"/>
    <path id="el0x1bziyetd4h" fill="#92E3A9" d="M174.15 326.6h10.41c0-.63 0-1.25.05-1.87h-10.4Z" class="animable" opacity="0" style="animation:1s 1 forwards cubic-bezier(.36,-0.01,.5,1.38) slideLeft;animation-delay:0.41666666666666663s" transform-origin="179.38px 325.665px"/>
    <path id="eleffu0f6tmgc" fill="#263238" d="M184.56 327.1h-10.41a.5.5 0 0 1-.5-.51l.06-1.88a.5.5 0 0 1 .5-.48h10.4a.48.48 0 0 1 .36.15.46.46 0 0 1 .14.36l-.05 1.88a.5.5 0 0 1-.5.48Zm-9.89-1h9.4v-.87h-9.41Z" class="animable" opacity="0" style="animation:1s 1 forwards cubic-bezier(.36,-0.01,.5,1.38) slideLeft;animation-delay:0.4583333333333333s" transform-origin="179.38px 325.665px"/>
    <path id="elbbwihc38sh" fill="#92E3A9" d="M212.91 271.21h10.75c.09-.45.17-.91.24-1.4h-10.49a6.36 6.36 0 0 1-.34 1.1 2.19 2.19 0 0 1-.16.3Z" class="animable" opacity="0" style="animation:1s 1 forwards cubic-bezier(.36,-0.01,.5,1.38) slideLeft;animation-delay:0.5s" transform-origin="218.405px 270.51px"/>
    <path id="elb5ghx1bwup" fill="#263238" d="M223.66 271.71h-10.75a.49.49 0 0 1-.43-.75l.14-.26a5.52 5.52 0 0 0 .3-1 .5.5 0 0 1 .49-.38h10.49a.49.49 0 0 1 .38.17.49.49 0 0 1 .12.4c-.08.5-.16 1-.25 1.43a.49.49 0 0 1-.49.39Zm-10-1h9.57c0-.13 0-.27.07-.4h-9.5c-.04.14-.08.28-.12.4Z" class="animable" opacity="0" style="animation:1s 1 forwards cubic-bezier(.36,-0.01,.5,1.38) slideLeft;animation-delay:0.5416666666666666s" transform-origin="218.405px 270.515px"/>
    <path id="elocyblv9hfah" fill="#92E3A9" d="M224.91 330.83H214.5c.06 2.76.09 5.6.11 8.45H225c0-2.76 0-5.61-.09-8.45Z" class="animable" opacity="0" style="animation:1s 1 forwards cubic-bezier(.36,-0.01,.5,1.38) slideLeft;animation-delay:0.5833333333333333s" transform-origin="219.75px 335.055px"/>
    <path id="el158tveopyvg" fill="#263238" d="M225 339.78h-10.39a.5.5 0 0 1-.5-.5c0-2.84-.05-5.68-.11-8.44a.48.48 0 0 1 .15-.36.47.47 0 0 1 .35-.15h10.41a.49.49 0 0 1 .5.49c.06 2.84.09 5.69.11 8.46a.51.51 0 0 1-.15.35.47.47 0 0 1-.37.15Zm-9.92-1h9.41c0-2.44 0-4.95-.09-7.45H215c.06 2.44.09 4.94.1 7.45Z" class="animable" opacity="0" style="animation:1s 1 forwards cubic-bezier(.36,-0.01,.5,1.38) slideLeft;animation-delay:0.625s" transform-origin="219.76px 335.055px"/>
    <path id="el9cyliyagz1j" fill="#92E3A9" d="M225 354.3h-10.4v3.29H225v-3.29Z" class="animable" opacity="0" style="animation:1s 1 forwards cubic-bezier(.36,-0.01,.5,1.38) slideLeft;animation-delay:0.6666666666666666s" transform-origin="219.8px 355.945px"/>
    <path id="elw24cccrvkzq" fill="#263238" d="M224.93 358.09h-10.4a.51.51 0 0 1-.5-.51v-3.29a.51.51 0 0 1 .5-.49H225a.49.49 0 0 1 .36.15.51.51 0 0 1 .14.36v3.28a.5.5 0 0 1-.57.5Zm-9.89-1h9.4v-2.29h-9.4c.02.78.01 1.54-.04 2.29Z" class="animable" opacity="0" style="animation:1s 1 forwards cubic-bezier(.36,-0.01,.5,1.38) slideLeft;animation-delay:0.7083333333333333s" transform-origin="219.765px 355.947px"/>
    <path id="elt4i3pnmhefn" fill="#92E3A9" d="M224.58 320h-10.4c0 .77.07 1.55.1 2.35h10.4c-.03-.76-.06-1.55-.1-2.35Z" class="animable" opacity="0" style="animation:1s 1 forwards cubic-bezier(.36,-0.01,.5,1.38) slideLeft;animation-delay:0.75s" transform-origin="219.43px 321.175px"/>
    <path id="el5oaumxerl19" fill="#263238" d="M224.68 322.88h-10.4a.5.5 0 0 1-.5-.48c0-.8-.06-1.58-.1-2.34a.55.55 0 0 1 .14-.37.5.5 0 0 1 .36-.16h10.4a.5.5 0 0 1 .5.48c0 .77.07 1.56.1 2.35a.55.55 0 0 1-.14.37.51.51 0 0 1-.36.15Zm-9.92-1h9.4l-.06-1.35h-9.4Z" class="animable" opacity="0" style="animation:1s 1 forwards cubic-bezier(.36,-0.01,.5,1.38) slideLeft;animation-delay:0.7916666666666666s" transform-origin="219.43px 321.205px"/>
    <path id="eltrmlgx1px" fill="#92E3A9" d="M214.25 262.3h10.41c.12-1.83.2-3.73.26-5.64H214.5c-.07 2.02-.15 3.91-.25 5.64Z" class="animable" opacity="0" style="animation:1s 1 forwards cubic-bezier(.36,-0.01,.5,1.38) slideLeft;animation-delay:0.8333333333333333s" transform-origin="219.585px 259.48px"/>
    <path id="elrbqsetol0vp" fill="#263238" d="M224.66 262.79h-10.41a.51.51 0 0 1-.37-.15.52.52 0 0 1-.13-.38c.1-1.7.18-3.59.25-5.61a.5.5 0 0 1 .5-.49h10.42a.51.51 0 0 1 .36.15.55.55 0 0 1 .14.37c-.06 2-.15 3.92-.26 5.65a.5.5 0 0 1-.5.46Zm-9.88-1h9.41c.09-1.43.16-3 .21-4.63H215c-.07 1.65-.14 3.2-.22 4.63Z" class="animable" opacity="0" style="animation:1s 1 forwards cubic-bezier(.36,-0.01,.5,1.38) slideLeft;animation-delay:0.875s" transform-origin="219.584px 259.475px"/>
    <path id="elle2f4xddlpo" fill="#92E3A9" d="M184.81 263.7H174.4q.06.72.12 1.41h10.41q-.06-.67-.12-1.41Z" class="animable" opacity="0" style="animation:1s 1 forwards cubic-bezier(.36,-0.01,.5,1.38) slideLeft;animation-delay:0.9166666666666666s" transform-origin="179.665px 264.405px"/>
    <path id="elkh5yw8hgon" fill="#263238" d="M184.93 265.61h-10.41a.5.5 0 0 1-.5-.45c0-.47-.08-.94-.11-1.42a.5.5 0 0 1 .49-.54h10.41a.5.5 0 0 1 .5.47c0 .48.08.95.11 1.4a.47.47 0 0 1-.12.38.52.52 0 0 1-.37.16Zm-10-1h9.4v-.41h-9.41c.08.14.08.28.08.41Z" class="animable" opacity="0" style="animation:1s 1 forwards cubic-bezier(.36,-0.01,.5,1.38) slideLeft;animation-delay:0.9583333333333333s" transform-origin="179.666px 264.405px"/>
  </g>
  <g id="freepik--Tubes--inject-40" class="animable" style="animation:1s 1 forwards cubic-bezier(.36,-0.01,.5,1.38) slideLeft,1.5s Infinite linear wind;animation-delay:0s,1s">
    <path id="elzfynavtuxx" fill="#FFF" d="M175.73 140v58.4a8.41 8.41 0 0 0 16.82 0V140Z" class="animable" style="animation:1s 1 forwards cubic-bezier(.36,-0.01,.5,1.38) slideLeft;animation-delay:0s" transform-origin="184.14px 173.399px"/>
    <path id="elumom5xuxuha" fill="#263238" d="M184.14 207.3a8.92 8.92 0 0 1-8.91-8.91V140a.5.5 0 0 1 .5-.5h16.82a.5.5 0 0 1 .5.5v58.4a8.92 8.92 0 0 1-8.91 8.9Zm-7.91-66.81v57.9a7.91 7.91 0 0 0 15.82 0v-57.9Z" class="animable" opacity="0" style="animation:1s 1 forwards cubic-bezier(.36,-0.01,.5,1.38) slideLeft;animation-delay:0.08333333333333333s" transform-origin="184.14px 173.4px"/>
    <path id="elcw7xv2n4609" fill="#92E3A9" d="M184.14 203.8a5.41 5.41 0 0 1-5.41-5.41V157.7h10.82v40.69a5.42 5.42 0 0 1-5.41 5.41Z" class="animable" opacity="0" style="animation:1s 1 forwards cubic-bezier(.36,-0.01,.5,1.38) slideLeft;animation-delay:0.16666666666666666s" transform-origin="184.14px 180.75px"/>
    <path id="elj7keow8c80o" fill="#263238" d="M184.14 204.3a5.92 5.92 0 0 1-5.91-5.91v-40.68a.5.5 0 0 1 .5-.5h10.82a.5.5 0 0 1 .5.5v40.68a5.92 5.92 0 0 1-5.91 5.91Zm-4.91-46.09v40.18a4.91 4.91 0 0 0 9.82 0v-40.18Z" class="animable" opacity="0" style="animation:1s 1 forwards cubic-bezier(.36,-0.01,.5,1.38) slideLeft;animation-delay:0.25s" transform-origin="184.14px 180.755px"/>
    <path id="elvpis17xvy6b" fill="#FFF" d="M172.18 136.24h23.91v3.75h-23.91z" class="animable" opacity="0" style="animation:1s 1 forwards cubic-bezier(.36,-0.01,.5,1.38) slideLeft;animation-delay:0.3333333333333333s" transform-origin="184.135px 138.115px"/>
    <path id="el1kvufdgjyvo" fill="#263238" d="M196.09 140.49h-23.91a.5.5 0 0 1-.5-.5v-3.75a.5.5 0 0 1 .5-.5h23.91a.5.5 0 0 1 .5.5V140a.5.5 0 0 1-.5.49Zm-23.41-1h22.91v-2.75h-22.91Z" class="animable" opacity="0" style="animation:1s 1 forwards cubic-bezier(.36,-0.01,.5,1.38) slideLeft;animation-delay:0.41666666666666663s" transform-origin="184.135px 138.115px"/>
    <path id="elglay7ys14zf" fill="#FFF" d="M206 140v58.4a8.41 8.41 0 0 0 16.82 0V140Z" class="animable" opacity="0" style="animation:1s 1 forwards cubic-bezier(.36,-0.01,.5,1.38) slideLeft;animation-delay:0.5s" transform-origin="214.41px 173.405px"/>
    <path id="el2x667qkh8i4" fill="#263238" d="M214.43 207.3a8.92 8.92 0 0 1-8.91-8.91V140a.5.5 0 0 1 .5-.5h16.82a.5.5 0 0 1 .5.5v58.4a8.92 8.92 0 0 1-8.91 8.9Zm-7.91-66.81v57.9a7.91 7.91 0 0 0 15.82 0v-57.9Z" class="animable" opacity="0" style="animation:1s 1 forwards cubic-bezier(.36,-0.01,.5,1.38) slideLeft;animation-delay:0.5833333333333333s" transform-origin="214.43px 173.4px"/>
    <path id="el1mqgxs3f49c" fill="#92E3A9" d="M214.43 203.8a5.42 5.42 0 0 1-5.41-5.41v-19.91h10.83v19.91a5.42 5.42 0 0 1-5.42 5.41Z" class="animable" opacity="0" style="animation:1s 1 forwards cubic-bezier(.36,-0.01,.5,1.38) slideLeft;animation-delay:0.6666666666666666s" transform-origin="214.435px 191.14px"/>
    <path id="elfjkz8w0peae" fill="#263238" d="M214.43 204.3a5.92 5.92 0 0 1-5.91-5.91v-19.91a.5.5 0 0 1 .5-.5h10.82a.5.5 0 0 1 .5.5v19.91a5.92 5.92 0 0 1-5.91 5.91Zm-4.91-25.3v19.41a4.91 4.91 0 0 0 9.82 0V179Z" class="animable" opacity="0" style="animation:1s 1 forwards cubic-bezier(.36,-0.01,.5,1.38) slideLeft;animation-delay:0.75s" transform-origin="214.43px 191.14px"/>
    <path id="el162ms9a4m8n" fill="#FFF" d="M202.48 136.24h23.91v3.75h-23.91z" class="animable" opacity="0" style="animation:1s 1 forwards cubic-bezier(.36,-0.01,.5,1.38) slideLeft;animation-delay:0.8333333333333333s" transform-origin="214.435px 138.115px"/>
    <path id="eljg7npejyjxo" fill="#263238" d="M226.39 140.49h-23.91a.5.5 0 0 1-.5-.5v-3.75a.5.5 0 0 1 .5-.5h23.91a.5.5 0 0 1 .5.5V140a.5.5 0 0 1-.5.49Zm-23.41-1h22.91v-2.75H203Z" class="animable" opacity="0" style="animation:1s 1 forwards cubic-bezier(.36,-0.01,.5,1.38) slideLeft;animation-delay:0.9166666666666666s" transform-origin="214.435px 138.115px"/>
  </g>
  <g id="freepik--Character--inject-40" class="animable">
    <path id="elk0wgad0h7f" fill="#92E3A9" d="M295.3 118.57s-.41-11.9-.41-12.51 3.69-9.23 4.72-11.9-.19-3.66-.15-10.14c0-6.84 2.39-17-1.28-16.59-5.51.69-5.77 8.58-5.77 10.63s-2.44 4.2-3.26 5.84-5.95 1.23-7.39.41-9.6.41-13.9-1.85-8.95-5-11.82-5a4.59 4.59 0 0 1-4-2.34s-4.1-.21-6.15 2.46a6.49 6.49 0 0 0-.21 7.39c1 1.43-.61 5.54 3.29 11.69a53.89 53.89 0 0 0 11.89 12.93c2.67 2 7.19 6.56 7.8 7s3.9 8.41 3.9 8.41Z" class="animable" transform-origin="272.426px 96.209px"/>
    <path id="elgiyfxrsfkm" fill="#263238" d="M272.53 125.43a.5.5 0 0 1-.46-.31 70.76 70.76 0 0 0-3.75-8.21c-.22-.14-.87-.75-2.09-1.9-1.72-1.6-4.06-3.81-5.7-5.07a54.33 54.33 0 0 1-12-13 17.84 17.84 0 0 1-2.91-9.57 4.81 4.81 0 0 0-.35-2.1 7 7 0 0 1 .21-8c2.19-2.85 6.4-2.67 6.58-2.66a.49.49 0 0 1 .42.28 4.06 4.06 0 0 0 3.52 2.03c2.54 0 6.15 1.94 10 4l2.09 1.08c2.58 1.35 6.73 1.4 9.76 1.44 2.24 0 3.54.06 4.16.42a10.1 10.1 0 0 0 5.74.4 1.51 1.51 0 0 0 .95-.6 12.77 12.77 0 0 1 1.3-1.92c.9-1.18 1.91-2.52 1.91-3.7 0-3.11.6-10.42 6.21-11.12a1.79 1.79 0 0 1 1.57.49c1.46 1.41 1.1 5.54.67 10.32-.19 2.14-.39 4.35-.4 6.27a41.09 41.09 0 0 0 .38 5.94 7.84 7.84 0 0 1-.26 4.38c-.37.94-1.06 2.61-1.8 4.42-1.19 2.88-2.82 6.83-2.89 7.33s.41 12.35.41 12.47a.48.48 0 0 1-.36.49l-22.78 6.36a.3.3 0 0 1-.13.04Zm-20.81-49.85c-.9 0-3.89.21-5.47 2.27a6 6 0 0 0-.19 6.79 5 5 0 0 1 .54 2.63 16.91 16.91 0 0 0 2.76 9.08 53.19 53.19 0 0 0 11.78 12.8c1.68 1.29 4 3.51 5.77 5.13.93.87 1.8 1.69 2 1.82.59.4 2.42 4.6 3.91 8.23l22-6.13c-.07-2.1-.4-11.58-.4-12.14s.74-2.29 3-7.68c.75-1.8 1.43-3.47 1.79-4.4a6.82 6.82 0 0 0 .21-3.89A42.61 42.61 0 0 1 299 84c0-2 .21-4.19.41-6.35.35-4 .75-8.44-.37-9.51a.87.87 0 0 0-.76-.22c-4.81.6-5.33 7.29-5.33 10.13 0 1.52-1.12 3-2.11 4.3a12.45 12.45 0 0 0-1.21 1.76 2.38 2.38 0 0 1-1.63 1.13 10.8 10.8 0 0 1-6.53-.49 13.4 13.4 0 0 0-3.67-.29c-3.13 0-7.42-.09-10.22-1.56l-2.08-1.11c-3.55-1.9-7.21-3.87-9.5-3.87a5.05 5.05 0 0 1-4.28-2.34Z" class="animable" transform-origin="272.428px 96.1614px"/>
    <path id="elrjx45sytm6c" fill="#92E3A9" d="m264.77 83.48-5.68-2.84a23.65 23.65 0 0 1 .09-5.68c.46-1.74 1.28-3.94-.37-4.39s-3.84 3-3.84 3-1.56 3.21-1.84 3.94-1.83 3.39-1.65 4.12 3.3 5.59 3.3 5.59" class="animable" transform-origin="258.118px 78.8748px"/>
    <path id="elmp0ivdaydp" fill="#263238" d="M254.78 87.74a.51.51 0 0 1-.42-.23 54 54 0 0 1-3.36-5.74c-.16-.65.39-1.83 1.2-3.43.21-.43.39-.78.47-1 .27-.74 1.78-3.85 1.85-4 .27-.44 2.48-3.82 4.43-3.29A1.81 1.81 0 0 1 260.3 72a9.82 9.82 0 0 1-.48 2.5l-.16.57a21.65 21.65 0 0 0-.1 5.23L265 83a.5.5 0 1 1-.44.89l-5.69-2.84a.52.52 0 0 1-.27-.4 23.84 23.84 0 0 1 .11-5.85l.16-.58a9.83 9.83 0 0 0 .43-2.22c0-.71-.3-.89-.62-1-.89-.25-2.46 1.49-3.29 2.81s-1.53 3.19-1.79 3.89c-.08.23-.28.62-.51 1.09a11 11 0 0 0-1.09 2.75 59 59 0 0 0 3.2 5.46.5.5 0 0 1-.42.77Z" class="animable" transform-origin="258.153px 78.8819px"/>
    <path id="elayg009yr71q" fill="#92E3A9" d="M248.37 73.86s3-4.21 5-4 2 2.57 1.56 3.76-3.21 5.86-3.21 5.86 1.28 4.22 1.74 5.23" class="animable" transform-origin="251.768px 77.2812px"/>
    <path id="elwdbwel2f7ti" fill="#263238" d="M253.5 85.18a.49.49 0 0 1-.45-.3c-.47-1-1.72-5.11-1.77-5.28a.51.51 0 0 1 .05-.4s2.73-4.65 3.17-5.79a3.12 3.12 0 0 0-.08-2.47 1.3 1.3 0 0 0-1.06-.61c-1.27-.14-3.48 2.29-4.58 3.83a.51.51 0 0 1-.7.11.5.5 0 0 1-.12-.7c.33-.45 3.26-4.43 5.49-4.23a2.3 2.3 0 0 1 1.82 1.07 4.08 4.08 0 0 1 .16 3.36c-.42 1.09-2.6 4.84-3.13 5.75.27.86 1.27 4.11 1.66 5a.5.5 0 0 1-.25.66.54.54 0 0 1-.21 0Z" class="animable" transform-origin="251.792px 77.2615px"/>
    <path id="el23x2i1srzc5" fill="#92E3A9" d="M244.39 92s-2.46-9.44-2.46-10.26 2.26-9.44 4.93-10.26 2.25 2.46 2 3.7-.82 4.92-1 7 5.75 8.41 5.75 8.41" class="animable" transform-origin="247.77px 81.675px"/>
    <path id="eltag85xisfmb" fill="#263238" d="M244.39 92.45a.5.5 0 0 1-.48-.38c-.41-1.58-2.48-9.54-2.48-10.38s2.18-9.78 5.28-10.74a2.07 2.07 0 0 1 2.09.27c.74.65.94 2 .6 4-.2 1.21-.82 4.9-1 6.94-.13 1.33 3.37 5.63 5.61 8a.5.5 0 0 1 0 .71.5.5 0 0 1-.71 0c-1-1.09-6.09-6.63-5.88-8.8s.83-5.79 1-7c.38-2.23-.06-2.89-.27-3.07a1.19 1.19 0 0 0-1.14-.06c-2.29.71-4.56 8.91-4.57 9.78 0 .59 1.51 6.53 2.45 10.13a.5.5 0 0 1-.36.61Z" class="animable" transform-origin="247.794px 81.621px"/>
    <path id="elggye2nglica" fill="#263238" d="M278.27 107.58a.54.54 0 0 1-.35-.14 9.72 9.72 0 0 1-1.12-10.22 62.45 62.45 0 0 1 3.31-6 .5.5 0 0 1 .84.56 59.65 59.65 0 0 0-3.26 5.89 8.65 8.65 0 0 0 .94 9.07.51.51 0 0 1 0 .71.54.54 0 0 1-.36.13Z" class="animable" transform-origin="278.437px 99.2889px"/>
    <path id="elng5mbvmz5v" fill="#FFF" d="M248.52 77.34h50.67v13.6h-50.67z" class="animable" transform-origin="273.855px 84.14px"/>
    <path id="elbyeouewyrd5" fill="#263238" d="M299.2 91.43h-50.67a.5.5 0 0 1-.5-.5V77.34a.5.5 0 0 1 .5-.5h50.67a.5.5 0 0 1 .5.5v13.59a.5.5 0 0 1-.5.5Zm-50.17-1h49.67V77.84H249Z" class="animable" transform-origin="273.865px 84.135px"/>
    <path id="ellkg8n6tg8j9" fill="#FFF" d="M248.52 77.34h9.54v13.6h-9.54z" class="animable" transform-origin="253.29px 84.14px"/>
    <path id="ellgb76b84d3" fill="#263238" d="M258.06 91.43h-9.53a.5.5 0 0 1-.5-.5V77.34a.5.5 0 0 1 .5-.5h9.53a.5.5 0 0 1 .5.5v13.59a.5.5 0 0 1-.5.5Zm-9-1h8.53V77.84H249Z" class="animable" transform-origin="253.295px 84.135px"/>
    <path id="elu8arys5dn0i" fill="#92E3A9" d="M259.81 84.31h37.54v4.31h-37.54z" class="animable" transform-origin="278.58px 86.465px"/>
    <path id="elheyqw7mh47h" fill="#263238" d="M297.35 89.12h-37.54a.5.5 0 0 1-.5-.5v-4.31a.5.5 0 0 1 .5-.5h37.54a.5.5 0 0 1 .5.5v4.31a.5.5 0 0 1-.5.5Zm-37-1h36.54v-3.31h-36.58Z" class="animable" transform-origin="278.58px 86.465px"/>
    <path id="elva1xh33qelf" fill="#92E3A9" d="M255.78 104.21s-13-8.4-13-9.76 2.65-14.86 3.09-16.91 5-4.43 5.31-.16-.81 12.47-.81 12.47 7 5.69 8.67 6.5" class="animable" transform-origin="250.91px 89.6052px"/>
    <path id="elyh938j50f0s" fill="#263238" d="M255.78 104.71a.53.53 0 0 1-.27-.08c-4.94-3.2-13.24-8.76-13.24-10.18s2.73-15.27 3.1-17a4.33 4.33 0 0 1 4-2.93c.62 0 2.08.4 2.26 2.84.28 3.87-.58 10.79-.78 12.28a99.36 99.36 0 0 0 8.36 6.27.5.5 0 1 1-.44.9c-1.66-.83-8.47-6.33-8.76-6.56a.53.53 0 0 1-.19-.46c0-.08 1.12-8.19.81-12.36-.08-1.22-.53-1.86-1.33-1.91a3.34 3.34 0 0 0-3 2.13c-.45 2.11-3.08 15.53-3.08 16.81.32.86 6.75 5.44 12.78 9.34a.5.5 0 0 1 .15.69.51.51 0 0 1-.37.22Z" class="animable" transform-origin="250.881px 89.615px"/>
    <path id="elqlhzisd8p4" fill="#FFF" d="M332.07 420.45s-.36-20.49-3.66-50.86 13.91-118.2 13.91-118.2-24.52-13.54-30.74-17.94-32.94-34.39-34-37.69-13.21-71.36-9.58-72.45 28.18-7 28.18-7 4 11.35 4.39 12.44 16.47 46.85 23.42 49 21.23 8.78 25.25 10.25 10.25 1.46 15.74 1.83 20.86 2.56 20.86 2.56 25.61 2.56 36.22 6.59 30.74 24.15 36.23 32.2 22.69 43.55 23.79 60S469.3 374 469.3 374l5.12 48.67" class="animable" transform-origin="374.734px 269.49px"/>
    <path id="elygw36z7fy3j" fill="#263238" d="M474.42 423.15a.49.49 0 0 1-.49-.45L468.8 374a.76.76 0 0 1 0-.15c.14-.67 13.88-66.36 12.8-82.57-1.1-16.53-18.25-51.78-23.7-59.77-5.56-8.16-25.73-28.12-36-32-10.43-4-35.85-6.53-36.1-6.55s-15.44-2.2-20.85-2.56c-1.11-.08-2.26-.14-3.41-.2-4.52-.23-9.18-.47-12.46-1.66-1.49-.54-4.38-1.78-7.72-3.22-5.85-2.51-13.13-5.64-17.51-7-7.29-2.31-23.59-48.89-23.74-49.36-.32-1-3.51-9.94-4.24-12-3.32.8-24.38 5.84-27.72 6.84-2.76 2.61 8.39 67.45 9.85 71.82 1 3 27.64 33.06 33.85 37.45s30.44 17.76 30.69 17.9a.5.5 0 0 1 .25.53c-.17.88-17.15 88.1-13.9 118s3.66 50.71 3.66 50.91a.49.49 0 0 1-.49.51.48.48 0 0 1-.51-.49c0-.2-.4-20.82-3.65-50.82-3.16-29.12 12.65-111.83 13.84-118-2.9-1.61-24.68-13.7-30.47-17.79s-33-34.23-34.22-37.94-12.5-67.31-9.78-72.54a1 1 0 0 1 .6-.55c3.63-1.09 27.2-6.72 28.2-7a.5.5 0 0 1 .59.32c.16.46 4 11.36 4.39 12.45 1.93 5.77 16.95 46.77 23.1 48.71 4.43 1.4 11.73 4.54 17.6 7.06 3.33 1.43 6.21 2.67 7.67 3.2 3.14 1.14 7.73 1.37 12.17 1.6 1.16.06 2.31.12 3.43.2 5.44.36 20.74 2.54 20.9 2.56s25.78 2.62 36.33 6.62S453 222.52 458.74 231c5.48 8 22.76 43.58 23.87 60.26 1.08 16.22-12 79.11-12.8 82.76l5.11 48.6a.5.5 0 0 1-.44.55Z" class="animable" transform-origin="374.761px 269.473px"/>
    <path id="elpvyvo87nq1" fill="#263238" d="M402 246.15a.5.5 0 0 1-.49-.44.5.5 0 0 1 .43-.56 153.06 153.06 0 0 0 27.88-7.24.5.5 0 0 1 .34.94 154 154 0 0 1-28.16 7.29Z" class="animable" transform-origin="415.991px 242.017px"/>
    <path id="eljvh3kw6pban" fill="#263238" d="M394.42 244.8a.49.49 0 0 1-.49-.42c-1.08-6.46.72-19.51.8-20.06a.51.51 0 0 1 .57-.43.5.5 0 0 1 .42.57c0 .13-1.86 13.45-.81 19.76a.49.49 0 0 1-.41.57Z" class="animable" transform-origin="394.656px 234.343px"/>
    <path id="el0bepiowwizin" fill="#263238" d="M414.87 246.15a.49.49 0 0 1-.49-.41.49.49 0 0 1 .4-.58c.18 0 17.74-3.25 22.73-5.88a.5.5 0 0 1 .47.89c-5.13 2.7-22.29 5.84-23 6Z" class="animable" transform-origin="426.309px 242.696px"/>
    <path id="el652fgw9bwvj" fill="#263238" d="M333 218.24a.51.51 0 0 1-.48-.37l-1.32-4.77a.5.5 0 1 1 1-.27l1.32 4.77a.51.51 0 0 1-.35.62Z" class="animable" transform-origin="332.359px 215.343px"/>
    <path id="elp5un89kucgi" fill="#263238" d="M342.32 251.89a.5.5 0 0 1-.48-.37l-8.21-29.72a.5.5 0 0 1 .35-.62.5.5 0 0 1 .61.35l7.14 25.86-.64-30.76a.5.5 0 0 1 .49-.51.51.51 0 0 1 .5.49l.73 34.77a.51.51 0 0 1-.43.5Z" class="animable" transform-origin="338.21px 234.005px"/>
    <path id="eld26p8i7rpre" fill="#263238" d="M297.31 192.24a.5.5 0 0 1-.16-1c9.61-3.2 18.32-15.78 18.41-15.91a.5.5 0 1 1 .82.57c-.36.53-9 13-18.92 16.29Z" class="animable" transform-origin="306.606px 183.67px"/>
    <path id="el1uyquojj6n2" fill="#263238" d="M294.38 200.29a.5.5 0 0 1-.2-1 41.4 41.4 0 0 0 4.65-2.35.49.49 0 0 1 .68.18.5.5 0 0 1-.17.68 40.28 40.28 0 0 1-4.77 2.41.43.43 0 0 1-.19.08Z" class="animable" transform-origin="296.675px 198.585px"/>
    <path id="elms35qe6ue3h" fill="#263238" d="M302.28 195.85a.49.49 0 0 1-.41-.21.51.51 0 0 1 .12-.7 57.84 57.84 0 0 0 12.11-11.55.5.5 0 0 1 .81.59 58.63 58.63 0 0 1-12.34 11.78.52.52 0 0 1-.29.09Z" class="animable" transform-origin="308.393px 189.518px"/>
    <path id="elqmuqzxl6zc" fill="#263238" d="M382.21 285.92h-.12a.5.5 0 0 1-.37-.61c2.9-12 11.65-33.16 11.73-33.37a.5.5 0 0 1 .93.38c-.09.21-8.8 21.33-11.69 33.23a.49.49 0 0 1-.48.37Z" class="animable" transform-origin="388.061px 268.774px"/>
    <path id="elpqfvxtrhgoq" fill="#263238" d="M374.89 410.71a.51.51 0 0 1-.5-.45s-.26-2.52-.64-6.62a.51.51 0 0 1 .45-.55.52.52 0 0 1 .55.45c.38 4.1.63 6.61.63 6.62a.49.49 0 0 1-.44.54Z" class="animable" transform-origin="374.565px 406.899px"/>
    <path id="el0pycy7k00s8" fill="#263238" d="M373.91 400.38a.51.51 0 0 1-.5-.46c-.62-7-1.15-13.75-1.58-20.05-1.09-15.95.35-42.25.36-42.51a.49.49 0 0 1 .53-.48.5.5 0 0 1 .47.53c0 .26-1.45 26.5-.37 42.39.43 6.29 1 13 1.59 20a.5.5 0 0 1-.45.54Z" class="animable" transform-origin="372.917px 368.629px"/>
    <path id="elmp84rzi6e9" fill="#FFF" d="M418.39 139.77s-6.37 1.82-7.65 5.27a27.48 27.48 0 0 1-5.28 8.74c-1.64 1.64-10.92 3.1-12.38 5.65s-8.74 12.92-11.29 22.21-.36 14 1.1 16.2 7.82 8.38 10.37 9.47 5.83 2.19 5.83 2.19 2 13.1 1.64 16.56-5.46 18-3.64 18.21 21.12-11.65 31-16.39 14.2-6 14.2-6l10.2-1.82a12.35 12.35 0 0 0 4-7.65c.73-5.1-4.19-4.73-8.92-16.39s-3.1-42.05-11.11-49.15-14.2-9.84-14.2-9.84Z" class="animable" transform-origin="418.59px 190.651px"/>
    <path id="el0u6b8fwbo7ge" fill="#263238" d="M397.11 244.77H397a.83.83 0 0 1-.6-.36c-.73-1.08.31-5.1 2.11-11.6a62.54 62.54 0 0 0 1.68-6.8c.32-3.07-1.29-14.16-1.59-16.14-.86-.29-3.48-1.2-5.57-2.1-2.78-1.19-9.18-7.52-10.6-9.65-2.69-4-3.08-9.62-1.16-16.61 2.12-7.71 7.49-16.21 10.08-20.3.56-.89 1-1.58 1.26-2 .94-1.64 4.35-2.74 7.66-3.8 2.06-.66 4.19-1.34 4.8-1.95a27 27 0 0 0 5.16-8.56c1.28-3.47 7.09-5.32 7.9-5.56l3.75-2.68a.48.48 0 0 1 .49 0c.26.11 6.36 2.84 14.34 9.91 4.88 4.33 6.24 16.71 7.56 28.67.91 8.22 1.76 16 3.67 20.68a33.87 33.87 0 0 0 6.48 10.56c1.73 2 2.87 3.33 2.48 6.08a12.73 12.73 0 0 1-4.2 8 .55.55 0 0 1-.22.1l-10.19 1.82s-4.41 1.31-14.07 6c-4.4 2.11-10.81 5.72-16.48 8.9-9.2 5.06-13.46 7.39-14.63 7.39Zm.16-.93Zm25-106.23-3.59 2.56a.55.55 0 0 1-.15.08c-.07 0-6.15 1.79-7.32 5a28.3 28.3 0 0 1-5.39 8.92c-.78.78-2.83 1.43-5.21 2.19-2.83.91-6.35 2-7.09 3.35-.27.45-.71 1.16-1.29 2.07-2.55 4-7.88 12.46-10 20-1.84 6.7-1.5 12 1 15.8 1.45 2.16 7.78 8.26 10.16 9.28s5.76 2.16 5.79 2.17a.47.47 0 0 1 .33.4c.09.54 2 13.21 1.65 16.7a62.85 62.85 0 0 1-1.71 7c-1 3.62-2.68 9.62-2.29 10.69 1.26-.19 8-4 14.06-7.4 5.68-3.19 12.11-6.81 16.53-8.94 9.76-4.69 14.1-6 14.28-6l10.12-1.81a12.17 12.17 0 0 0 3.73-7.25c.32-2.3-.59-3.36-2.25-5.28a35 35 0 0 1-6.64-10.85c-2-4.82-2.83-12.65-3.74-20.94-1.3-11.78-2.65-24-7.24-28a64.34 64.34 0 0 0-13.74-9.74Zm-3.88 2.16Z" class="animable" transform-origin="418.524px 190.681px"/>
    <path id="elvbs9eso8a3d" fill="#263238" d="m399.09 209.5 13.92-.59-12.48 10.35-1.44-9.76z" class="animable" transform-origin="406.05px 214.085px"/>
    <path id="el04acfsnvqc34" fill="#263238" d="M400.53 219.76a.57.57 0 0 1-.18 0 .49.49 0 0 1-.31-.4l-1.44-9.76a.46.46 0 0 1 .1-.39.51.51 0 0 1 .37-.18l13.92-.59a.5.5 0 0 1 .49.32.48.48 0 0 1-.15.56l-12.48 10.36a.52.52 0 0 1-.32.08Zm-.86-9.79 1.23 8.34 10.65-8.84Z" class="animable" transform-origin="406.053px 214.103px"/>
    <path id="elmkaruy4xvad" fill="#92E3A9" d="M382.89 197.84c1.45 2.19 7.82 8.38 10.37 9.47s5.83 2.19 5.83 2.19l9.65-2.73s3.09-1.46 9.65-.55a92.59 92.59 0 0 0 14.38.55l-1.45-1.83s-20.4.37-22.58-1.27-2.55-4-.91-8.74 7.1-16.38 7.1-16.38l21.12 10-1.28-3.1a164.44 164.44 0 0 1-19.48-9.65c-8.37-5.09-22.21-16.38-22.21-16.38-1.45 2.55-8.74 12.92-11.29 22.21s-.36 14.03 1.1 16.21Z" class="animable" transform-origin="408.334px 184.46px"/>
    <path id="elbxk6w4fkfzu" fill="#263238" d="M399.09 210a.45.45 0 0 1-.16 0s-3.32-1.11-5.86-2.2c-2.78-1.19-9.18-7.52-10.6-9.65-2.69-4-3.08-9.62-1.16-16.61 2.12-7.71 7.49-16.21 10.08-20.3.56-.89 1-1.58 1.26-2a.47.47 0 0 1 .34-.24.5.5 0 0 1 .41.1c.14.11 13.9 11.33 22.15 16.35A164 164 0 0 0 435 185a.5.5 0 0 1 .28.27l1.27 3.1a.5.5 0 0 1-.67.64l-20.67-9.8c-1 2.2-5.44 11.76-6.87 15.88-1.74 5-1 6.87.74 8.18 1.49 1.12 14.45 1.32 22.27 1.17a.54.54 0 0 1 .4.19l1.45 1.82a.49.49 0 0 1-.36.81 92.23 92.23 0 0 1-14.48-.55c-6.29-.87-9.34.49-9.37.51l-9.76 2.78Zm-15.79-12.43c1.45 2.16 7.78 8.26 10.16 9.28 2.2.94 5 1.9 5.64 2.12l9.5-2.69c.06 0 3.23-1.48 9.86-.56a88.94 88.94 0 0 0 13.3.58l-.68-.85c-3 .05-20.45.26-22.64-1.38-2.46-1.84-2.76-4.45-1.08-9.3s7.06-16.32 7.12-16.44a.51.51 0 0 1 .28-.26.55.55 0 0 1 .38 0l19.95 9.46-.7-1.7a166.5 166.5 0 0 1-19.39-9.59c-7.46-4.54-19.36-14.08-21.81-16.06-.26.42-.59.95-1 1.57-2.55 4-7.88 12.46-10 20-1.84 6.7-1.5 12 1 15.8Z" class="animable" transform-origin="408.349px 184.499px"/>
    <path id="elah42sayjj09" fill="#263238" d="M410 179.38a.59.59 0 0 1-.23 0c-.81-.41-1.85-1-3.09-1.68a.49.49 0 0 1-.19-.68.5.5 0 0 1 .68-.19c1.23.7 2.26 1.26 3.05 1.65a.5.5 0 0 1 .22.68.49.49 0 0 1-.44.22Z" class="animable" transform-origin="408.46px 178.079px"/>
    <path id="el03zp9b3x6x4o" fill="#263238" d="M404 176a.59.59 0 0 1-.25-.07c-6.3-3.73-14.09-8.7-14.17-8.75a.5.5 0 1 1 .54-.84c.08 0 7.86 5 14.14 8.72a.51.51 0 0 1 .18.69.52.52 0 0 1-.44.25Z" class="animable" transform-origin="396.917px 171.123px"/>
    <path id="elfjmsnrhdjab" fill="#263238" d="M406.76 190.46h-.16c-.58-.2-14.45-4.84-18.49-7.36a.51.51 0 0 1-.16-.69.5.5 0 0 1 .69-.15c3.94 2.45 18.14 7.2 18.28 7.25a.5.5 0 0 1-.16 1Z" class="animable" transform-origin="397.611px 186.348px"/>
    <path id="elh2y1wh1wois" fill="#263238" d="M401.57 202.81a34.19 34.19 0 0 1-3.78-.2.49.49 0 0 1-.44-.55.49.49 0 0 1 .55-.44 34.93 34.93 0 0 0 4.57.18.53.53 0 0 1 .51.49.5.5 0 0 1-.49.51Z" class="animable" transform-origin="400.163px 202.213px"/>
    <path id="el3lrrauel4pc" fill="#263238" d="M394.72 202.15h-.09a32 32 0 0 1-8.76-2.93.5.5 0 1 1 .48-.87 32.06 32.06 0 0 0 8.47 2.82.5.5 0 0 1 .39.59.49.49 0 0 1-.49.39Z" class="animable" transform-origin="390.39px 200.204px"/>
    <path id="el1oka0dzo75e" fill="#92E3A9" d="M418.39 139.77a219.68 219.68 0 0 1 9.83 27.85 94.86 94.86 0 0 1 3.78 31.13c0 1.28-3.64 6.56-3.27 9.29s8.55 8.37 10 11.29 4.37 5.64 5.83 5.82 9.28 3.1 17.29-1.45 7.83-8 6.37-12.93-3.09-6.55-2.54-8 4.18.18 13.65-10.74 6.74-27.68 2.37-39.69-38.6-25.13-43.33-25.67-15.48 6.91-17.85 9.28-2.13 3.82-2.13 3.82Z" class="animable" transform-origin="452.045px 176.44px"/>
    <path id="elsoh4khmni6" fill="#263238" d="M452.09 226.73a28.07 28.07 0 0 1-6.65-.88 8.43 8.43 0 0 0-.9-.2c-1.73-.22-4.75-3.18-6.21-6.1-.61-1.22-2.63-3.09-4.58-4.9-2.7-2.5-5.25-4.86-5.48-6.54-.25-1.86 1.1-4.58 2.18-6.78a11.75 11.75 0 0 0 1.09-2.58v-.63a97.36 97.36 0 0 0-3.83-30.36 220.62 220.62 0 0 0-9.78-27.76.57.57 0 0 1 0-.14c0-.18-.14-1.77 2.33-4.24 2.21-2.22 13.2-10 18.25-9.43 4.16.48 39.23 13.57 43.75 26 3.57 9.82 8 28.11-2.46 40.19-6.78 7.82-10.66 9.29-12.52 10-.67.26-1 .38-1.05.59-.23.63.11 1.4.73 2.81a38.48 38.48 0 0 1 1.83 4.88c1.45 4.89 1.83 8.71-6.6 13.5a20.08 20.08 0 0 1-10.1 2.57Zm-33.2-87.08a226.27 226.27 0 0 1 9.81 27.83 98.34 98.34 0 0 1 3.86 30.69v.58a9.43 9.43 0 0 1-1.19 3c-1 2-2.29 4.64-2.09 6.19.18 1.33 2.83 3.79 5.17 5.95 2.11 2 4.11 3.8 4.8 5.18 1.37 2.75 4.19 5.4 5.44 5.56a9.19 9.19 0 0 1 1 .21c2.53.61 9.24 2.22 16-1.61 7.82-4.44 7.53-7.63 6.14-12.35a38 38 0 0 0-1.79-4.75c-.71-1.6-1.13-2.56-.75-3.58.24-.63.82-.85 1.63-1.16 1.78-.68 5.49-2.09 12.11-9.73 10.13-11.69 5.78-29.57 2.28-39.19-4.24-11.66-37.63-24.74-42.92-25.35-4.41-.51-14.94 6.65-17.43 9.14-1.89 1.89-2.06 3.11-2.07 3.39Z" class="animable" transform-origin="452.121px 176.446px"/>
    <path id="eloo4lhl3to8b" fill="#263238" d="M422.76 144.27a.5.5 0 0 1-.39-.18.52.52 0 0 1 .07-.71c.13-.1 3-2.44 5.29-3a.5.5 0 0 1 .61.37.49.49 0 0 1-.36.6 17.48 17.48 0 0 0-4.91 2.82.51.51 0 0 1-.31.1Z" class="animable" transform-origin="425.309px 142.317px"/>
    <path id="el0pz6ujjsxn49" fill="#263238" d="M427.49 148.28a.5.5 0 0 1 0-1l4.37-.37a.5.5 0 1 1 .08 1l-4.37.36Z" class="animable" transform-origin="429.697px 147.594px"/>
    <path id="elgckhi21zxkw" fill="#263238" d="M427.67 158.84a.5.5 0 0 1-.09-1 34.78 34.78 0 0 0 4.42-1 .5.5 0 0 1 .45.89 37.8 37.8 0 0 1-4.68 1.14Z" class="animable" transform-origin="429.908px 157.836px"/>
    <path id="elh4ygmpih13d" fill="#263238" d="M430.41 169.21a.5.5 0 0 1-.16-1 16.23 16.23 0 0 1 4.52-.75.5.5 0 0 1 .5.5.5.5 0 0 1-.5.5 15.41 15.41 0 0 0-4.21.7.39.39 0 0 1-.15.05Z" class="animable" transform-origin="432.547px 168.338px"/>
    <path id="elh8px0lwkt6a" fill="#263238" d="M433.86 177.77a.5.5 0 0 1 0-1c.51 0 3.06-.43 4.65-.72a.5.5 0 1 1 .18 1c-.42.06-4.07.72-4.83.72Z" class="animable" transform-origin="436.234px 176.906px"/>
    <path id="ell0kv149ob3h" fill="#263238" d="M438.6 187.6h-4.74a.5.5 0 0 1-.5-.5.51.51 0 0 1 .5-.5h4.74a.51.51 0 0 1 .5.5.5.5 0 0 1-.5.5Z" class="animable" transform-origin="436.23px 187.1px"/>
    <path id="el5nbydejug1e" fill="#263238" d="M435.35 199.39a4.58 4.58 0 0 1-1.89-.37.5.5 0 0 1-.23-.67.51.51 0 0 1 .67-.23 4.62 4.62 0 0 0 3.93-.36.5.5 0 0 1 .67.22.52.52 0 0 1-.22.68 6.56 6.56 0 0 1-2.93.73Z" class="animable" transform-origin="435.865px 198.549px"/>
    <path id="elsr0nsy6b2v" fill="#263238" d="M434.75 208.65a8.11 8.11 0 0 1-4.64-1.3.5.5 0 0 1 .59-.8 7.82 7.82 0 0 0 5.46 1c3.66-.54 8.67-1.29 12.09 0a.51.51 0 0 1-.37.94c-3.16-1.24-8-.51-11.57 0a9.59 9.59 0 0 1-1.56.16Z" class="animable" transform-origin="439.229px 207.568px"/>
    <path id="elz6xujnnumm" fill="#263238" d="M456.62 219.65a.5.5 0 0 1-.41-.22c-3.16-4.56-11.36-8.16-11.44-8.2a.5.5 0 1 1 .4-.92c.35.15 8.54 3.76 11.86 8.55a.51.51 0 0 1-.12.7.52.52 0 0 1-.29.09Z" class="animable" transform-origin="450.793px 214.959px"/>
    <path id="el4rmqp41v8kw" fill="#263238" d="M466.64 196a.54.54 0 0 1-.21 0 16.59 16.59 0 0 0-3-.68.5.5 0 1 1 .17-1 19.35 19.35 0 0 1 3.25.75.49.49 0 0 1 .25.66.49.49 0 0 1-.46.27Z" class="animable" transform-origin="465.077px 195.162px"/>
    <path id="elp7jcust0mb8" fill="#263238" d="M440.42 197.8a.5.5 0 0 1-.22-1 56.23 56.23 0 0 1 8.27-3.31c2.7-.77 8.93-.12 11.49.2a.49.49 0 0 1 .43.56.5.5 0 0 1-.56.43c-5.19-.64-9.33-.73-11.08-.23a56.43 56.43 0 0 0-8.11 3.25.59.59 0 0 1-.22.1Z" class="animable" transform-origin="450.097px 195.47px"/>
    <path id="el8s7mr1ekcbv" fill="#263238" d="M456.83 199.27a78 78 0 0 1-11-.93.5.5 0 0 1 .16-1c.1 0 10 1.61 15.85.55a.5.5 0 0 1 .18 1 29.82 29.82 0 0 1-5.19.38Z" class="animable" transform-origin="453.921px 198.304px"/>
    <path id="elx0a4mimbayn" fill="#263238" d="M437.32 171.22a.48.48 0 0 1-.41-.23.49.49 0 0 1 .14-.69c.09-.06 9.23-6.07 15.76-8.43a.5.5 0 0 1 .64.3.49.49 0 0 1-.3.64c-6.42 2.32-15.46 8.26-15.55 8.32a.49.49 0 0 1-.28.09Z" class="animable" transform-origin="445.153px 166.53px"/>
    <path id="elk9wi690v3nn" fill="#263238" d="M469.69 161.5a.49.49 0 0 1-.36-.15.5.5 0 0 1 0-.71 19.08 19.08 0 0 0 2.52-2.76.49.49 0 0 1 .69-.14.5.5 0 0 1 .15.69 19.77 19.77 0 0 1-2.67 2.94.48.48 0 0 1-.33.13Z" class="animable" transform-origin="470.976px 159.577px"/>
    <path id="el5008e1oqunb" fill="#263238" d="M449.23 170.83a35.08 35.08 0 0 1-6.18-.53.51.51 0 0 1-.39-.59.49.49 0 0 1 .59-.39c.11 0 11.71 2.25 19.09-3 1.38-1 2.68-2 3.85-2.91a.49.49 0 0 1 .7.07.48.48 0 0 1-.07.7c-1.19 1-2.5 2-3.9 3-4.21 2.95-9.59 3.65-13.69 3.65Z" class="animable" transform-origin="454.831px 167.062px"/>
    <path id="elortglkahq1e" fill="#263238" d="M471 149.55h-.16s-3.18-1-7.09-2.16a.49.49 0 0 1-.34-.62.5.5 0 0 1 .62-.34c3.93 1.14 7.09 2.15 7.12 2.16a.5.5 0 0 1 .32.63.49.49 0 0 1-.47.33Z" class="animable" transform-origin="467.441px 147.98px"/>
    <path id="elglx2dgm28fj" fill="#263238" d="M434.41 149.55a.49.49 0 0 1-.45-.28.5.5 0 0 1 .23-.67c.42-.2 10.31-5 14.17-5.51 1.52-.21 5.32.49 11.3 2.1a.5.5 0 0 1 .35.61.48.48 0 0 1-.61.35c-7.29-2-9.94-2.21-10.9-2.07-3.7.53-13.77 5.37-13.87 5.42a.59.59 0 0 1-.22.05Z" class="animable" transform-origin="446.968px 146.302px"/>
    <path id="elpmf5m6yw74" fill="#263238" d="M452.8 149a111.87 111.87 0 0 0-11.59 0 .48.48 0 0 1-.53-.47.5.5 0 0 1 .47-.53 111 111 0 0 1 11.71 0 .5.5 0 0 1 0 1Z" class="animable" transform-origin="447.02px 148.424px"/>
    <path id="elg523hlw3ew8" fill="#263238" d="M413.88 160.15c-.86 1.43-2.15 2.23-2.89 1.78s-.64-2 .23-3.39 2.15-2.23 2.89-1.78.64 1.96-.23 3.39Z" class="animable" transform-origin="412.55px 159.347px"/>
    <path id="ela1myiolsde7" fill="#263238" d="m430.05 171.46-9.29-12.75a42.56 42.56 0 0 0-10.39-10.21c-5.14-4.34-5.93-3.95-6.41-3.72a12.12 12.12 0 0 0-3.89 6 4.93 4.93 0 0 0 .65 4.25.91.91 0 0 0 .74.38 1 1 0 0 0 .53-.17c.4-.3.83-.21.53-.62a4.83 4.83 0 0 1-.76-3.08 11.07 11.07 0 0 1 2.86-5 27.68 27.68 0 0 1 4 2.87 45 45 0 0 0-3.47 6.23c-.93 2.42-1.63 5.31.25 8.44a6.59 6.59 0 0 0 4.39 3.18 6 6 0 0 0 1.09.1 6.81 6.81 0 0 0 4.23-1.57 28.94 28.94 0 0 0 4.91-5l8.55 11.73a.89.89 0 0 0 1.27.2.91.91 0 0 0 .21-1.26Zm-16-7.1a4.5 4.5 0 0 1-7-1.21c-1.47-2.46-.93-4.75-.11-6.86a42 42 0 0 1 3.22-5.78 42.33 42.33 0 0 1 8.83 8.74 27.58 27.58 0 0 1-4.99 5.11Z" class="animable" transform-origin="415.033px 158.778px"/>
    <path id="elvtlk4fgtmr8" fill="#263238" d="M419.66 156.29a.5.5 0 0 1-.48-.37c-1.84-6.53-5.29-6-5.44-6a.49.49 0 0 1-.57-.41.5.5 0 0 1 .4-.58c.18 0 4.47-.72 6.57 6.73a.5.5 0 0 1-.34.62Z" class="animable" transform-origin="416.661px 152.601px"/>
    <path id="elhny65jzoorv" fill="#92E3A9" d="M372.39 293.17s-25.78-8.16-35.87-10.31-11.39 0-12.46 1.07-12.67 13.53-14 16.11-2.79 12.89-1.72 14.18 1.72 2.57 4.08-.65a49.1 49.1 0 0 0 4.3-7.52s-.43 12.46.21 15a9.5 9.5 0 0 0 2.58 4.3l.86 1.71s-1.29 1.94-.86 3.23 3.65 2.57 6.23.21a65 65 0 0 1 8-5.58 37.18 37.18 0 0 0 8.16-4.08c3.22-2.37 12-7.74 12-7.74l10.31 3.65 11.4-22.75Z" class="animable" transform-origin="341.79px 306.879px"/>
    <path id="elkq8n7kkcm3a" fill="#263238" d="M322.56 332.36a4.72 4.72 0 0 1-1.23-.16 3.1 3.1 0 0 1-2.25-1.72c-.41-1.22.39-2.78.76-3.4l-.7-1.39a10 10 0 0 1-2.65-4.48c-.49-1.94-.39-9.1-.3-12.86a42.2 42.2 0 0 1-3.32 5.52c-1.14 1.54-2 2.21-2.77 2.22s-1.36-.64-1.88-1.27l-.22-.28c-1.36-1.63.46-12.35 1.65-14.72 1.35-2.7 13-15.2 14.06-16.24l.18-.19c1.18-1.24 3-3.1 12.73-1 9.93 2.11 35.25 10.11 35.91 10.32l3.21.85a.54.54 0 0 1 .33.28.5.5 0 0 1 0 .43L364.67 317a.5.5 0 0 1-.61.25L354 313.69c-1.33.82-8.89 5.46-11.79 7.59a36.74 36.74 0 0 1-8.24 4.13 64.06 64.06 0 0 0-7.82 5.5 5.27 5.27 0 0 1-3.59 1.45Zm-5.8-26.81h.11a.5.5 0 0 1 .39.5c0 .13-.42 12.42.2 14.9a8.88 8.88 0 0 0 2.42 4 .57.57 0 0 1 .12.15l.86 1.72a.52.52 0 0 1 0 .5c-.32.48-1.09 1.92-.81 2.79a2.24 2.24 0 0 0 1.56 1.06 4.09 4.09 0 0 0 3.86-1.06 64.12 64.12 0 0 1 8-5.64h.09a36.36 36.36 0 0 0 8-4c3.2-2.35 12-7.7 12.07-7.75a.48.48 0 0 1 .42-.05l9.9 3.5 10.91-21.82-2.63-.7c-.26-.08-25.87-8.18-35.83-10.29-9.22-2-10.83-.28-11.79.73l-.21.21c-1.36 1.36-12.66 13.57-13.86 16-1.34 2.68-2.64 12.61-1.78 13.64l.23.29c.4.49.78.89 1.07.9s.9-.32 2-1.81a49.42 49.42 0 0 0 4.24-7.43.51.51 0 0 1 .46-.34Z" class="animable" transform-origin="341.818px 306.9px"/>
    <path id="elhio56lyg787" fill="#263238" d="M316.76 306.55a.39.39 0 0 1-.15 0 .5.5 0 0 1-.33-.62l1.07-3.44a.59.59 0 0 1 .11-.19l12.68-13.75a.5.5 0 0 1 .7 0 .5.5 0 0 1 0 .71l-12.59 13.66-1 3.33a.48.48 0 0 1-.49.3Z" class="animable" transform-origin="323.624px 297.482px"/>
    <path id="elkbpq2fjiulm" fill="#263238" d="M319.55 325.89h-.12a.5.5 0 0 1-.36-.61l4.08-16.32a.45.45 0 0 1 .14-.24l12.89-12a.49.49 0 0 1 .7 0 .5.5 0 0 1 0 .71l-12.78 11.93-4 16.18a.51.51 0 0 1-.55.35Z" class="animable" transform-origin="328.041px 311.234px"/>
    <path id="elshuxraf2kna" fill="#263238" d="M320.41 327.6a.5.5 0 0 1-.31-.1.51.51 0 0 1-.08-.71c.41-.52 10.12-12.7 11-13.57s4.8-4.18 5-4.33a.51.51 0 0 1 .71.06.51.51 0 0 1-.06.71s-4.08 3.43-4.91 4.27c-.67.66-7.43 9.11-10.92 13.49a.5.5 0 0 1-.43.18Z" class="animable" transform-origin="328.379px 318.188px"/>
    <path id="el73v2309pews" fill="#FFF" d="M431.61 263.46s-6.95 9.52-8.05 12.81-5.49 32.57-5.49 32.57l-44.28-18.3-13.54 30s35.5 28.18 52.7 36.59 36.59 18.67 40.25 17.2 19-30.37 22-46.47 8-35.5 4.75-51.23-15.37-28.91-20.86-32.21" class="animable" transform-origin="420.629px 309.446px"/>
    <path id="el935650plbv8" fill="#263238" d="M452.29 375c-4.16 0-14.88-5.16-31.24-13.27l-8.32-4.12c-17.06-8.34-52.44-36.37-52.79-36.65a.51.51 0 0 1-.15-.6l13.54-30a.5.5 0 0 1 .65-.26l43.69 18.05c.66-4.39 4.39-28.95 5.41-32 1.11-3.33 7.84-12.55 8.12-12.94a.49.49 0 0 1 .7-.11.5.5 0 0 1 .11.7c-.07.09-6.92 9.49-8 12.67s-5.42 32.19-5.47 32.48a.49.49 0 0 1-.25.37.5.5 0 0 1-.43 0l-43.83-18.11-13.16 29.19c3.51 2.77 36.18 28.41 52.3 36.3 2.74 1.34 5.54 2.73 8.33 4.11 14.09 7 28.65 14.21 31.51 13.07 3.43-1.37 18.68-29.76 21.65-46.1.49-2.7 1-5.48 1.61-8.33 2.75-13.92 5.88-29.7 3.15-42.71-3.25-15.57-15.23-28.64-20.62-31.88a.48.48 0 0 1-.17-.68.5.5 0 0 1 .68-.18c5.52 3.31 17.77 16.67 21.09 32.53 2.77 13.21-.38 29.1-3.15 43.12-.56 2.84-1.11 5.62-1.6 8.31-2.88 15.82-18.08 45.17-22.27 46.85a3.08 3.08 0 0 1-1.09.19Z" class="animable" transform-origin="420.611px 309.467px"/>
    <path id="elaiyj6h41it" fill="#263238" d="M448.08 322.88a.5.5 0 0 1-.39-.18 23.61 23.61 0 0 0-3.49-3.42.51.51 0 0 1-.08-.71.52.52 0 0 1 .71-.07 24.53 24.53 0 0 1 3.63 3.56.5.5 0 0 1-.07.71.51.51 0 0 1-.31.11Z" class="animable" transform-origin="446.294px 320.636px"/>
    <path id="eldf5vx4ud1x" fill="#263238" d="M441.18 317.05a.56.56 0 0 1-.27-.08c-8.66-5.32-19.51-6.89-19.62-6.9a.5.5 0 0 1-.42-.57.48.48 0 0 1 .56-.42c.11 0 11.16 1.61 20 7a.5.5 0 0 1-.26.93Z" class="animable" transform-origin="431.27px 313.061px"/>
    <path id="el0q0c8c7w9tm" fill="#263238" d="M440.39 326.9a.51.51 0 0 1-.4-.2c-5-6.79-14-12.25-14.13-12.31a.5.5 0 0 1 .52-.86c.09.06 9.29 5.63 14.41 12.58a.5.5 0 0 1-.1.7.55.55 0 0 1-.3.09Z" class="animable" transform-origin="433.254px 320.179px"/>
  </g>
  <defs>
    <filter id="active" height="200%">
      <feMorphology in="SourceAlpha" operator="dilate" radius="2" result="DILATED"/>
      <feFlood flood-color="#32DFEC" flood-opacity="1" result="PINK"/>
      <feComposite in="PINK" in2="DILATED" operator="in" result="OUTLINE"/>
      <feMerge>
        <feMergeNode in="OUTLINE"/>
        <feMergeNode in="SourceGraphic"/>
      </feMerge>
    </filter>
    <filter id="hover" height="200%">
      <feMorphology in="SourceAlpha" operator="dilate" radius="2" result="DILATED"/>
      <feFlood flood-color="red" flood-opacity=".5" result="PINK"/>
      <feComposite in="PINK" in2="DILATED" operator="in" result="OUTLINE"/>
      <feMerge>
        <feMergeNode in="OUTLINE"/>
        <feMergeNode in="SourceGraphic"/>
      </feMerge>
      <feColorMatrix values="0 0 0 0 0 0 1 0 0 0 0 0 0 0 0 0 0 0 1 0"/>
    </filter>
  </defs>
</svg>
