<svg xmlns="http://www.w3.org/2000/svg" id="freepik_stories-wallet" class="animated" version="1.1" viewBox="0 0 500 500">
  <style>
    svg#freepik_stories-wallet:not(.animated) .animable{opacity:0}@keyframes fadeIn{0%{opacity:0}100%{opacity:1}}.animator-hidden{display:none}
  </style>
  <g id="freepik--background-complete--inject-1" class="animable animator-hidden">
    <path id="elzbuy8g52e1q" fill="#EBEBEB" d="M0 382.4h500v.25H0z" class="animable" transform-origin="250px 382.525px"/>
    <path id="eltehepk9tbcm" fill="#EBEBEB" d="M150.04 388.78h23.18v.25h-23.18z" class="animable" transform-origin="161.63px 388.905px"/>
    <path id="el59nrn698qy4" fill="#EBEBEB" d="M402.1 394.14h56.67v.25H402.1z" class="animable" transform-origin="430.435px 394.265px"/>
    <path id="elv8tclvar9le" fill="#EBEBEB" d="M42.72 394.14h56.67v.25H42.72z" class="animable" transform-origin="71.055px 394.265px"/>
    <path id="elsj7ry6q2sy" fill="#EBEBEB" d="M237 337.8H43.91a5.71 5.71 0 0 1-5.7-5.71V60.66a5.71 5.71 0 0 1 5.7-5.66H237a5.71 5.71 0 0 1 5.71 5.71v271.38a5.71 5.71 0 0 1-5.71 5.71ZM43.91 55.2a5.46 5.46 0 0 0-5.45 5.46v271.43a5.46 5.46 0 0 0 5.45 5.46H237a5.48 5.48 0 0 0 5.46-5.46V60.66A5.48 5.48 0 0 0 237 55.2Z" class="animable" transform-origin="140.46px 196.4px"/>
    <path id="elwxs1aaa49qc" fill="#EBEBEB" d="M453.31 337.8h-193.1a5.73 5.73 0 0 1-5.71-5.71V60.66a5.72 5.72 0 0 1 5.71-5.66h193.1a5.71 5.71 0 0 1 5.69 5.66v271.43a5.7 5.7 0 0 1-5.69 5.71ZM260.21 55.2a5.48 5.48 0 0 0-5.46 5.46v271.43a5.48 5.48 0 0 0 5.46 5.46h193.1a5.48 5.48 0 0 0 5.46-5.46V60.66a5.48 5.48 0 0 0-5.46-5.46Z" class="animable" transform-origin="356.75px 196.4px"/>
    <path id="el19wxci545c9" fill="#E6E6E6" d="M291.98 303.03h23.09v79.91h-23.09z" class="animable" transform-origin="303.525px 342.985px"/>
    <path id="el4ptkzgz8k3b" fill="#E6E6E6" d="M275.63 303.03h23.09v79.91h-23.09z" class="animable" transform-origin="287.175px 342.985px"/>
    <path id="elz2mnzhblpf" fill="#F0F0F0" d="M294.34 382.94h4.38v-12.48h-8.99l4.61 12.48z" class="animable" transform-origin="294.225px 376.7px"/>
    <path id="elh1c8v2lzmf6" fill="#E6E6E6" d="M159.56 303.03h23.09v79.91h-23.09z" class="animable" transform-origin="171.105px 342.985px"/>
    <path id="elen0gj47et6h" fill="#F0F0F0" d="M178.83 303.03h119.9v73.77h-119.9z" class="animable" transform-origin="238.78px 339.915px"/>
    <path id="el3nfxqnjn2o2" fill="#E0E0E0" d="M291.26 360.2h-47a4.59 4.59 0 0 1-4.57-4.57v-44.91a4.57 4.57 0 0 1 4.57-4.56h46.95a4.57 4.57 0 0 1 4.57 4.56v44.91a4.59 4.59 0 0 1-4.52 4.57Zm-47-53a3.56 3.56 0 0 0-3.56 3.54v44.91a3.56 3.56 0 0 0 3.52 3.6h47a3.56 3.56 0 0 0 3.58-3.53v-45a3.54 3.54 0 0 0-3.55-3.54Z" class="animable" transform-origin="267.735px 333.18px"/>
    <path id="elym0uurers1m" fill="#E0E0E0" d="M233.24 360.2h-47a4.59 4.59 0 0 1-4.57-4.57v-44.91a4.57 4.57 0 0 1 4.57-4.56h47a4.57 4.57 0 0 1 4.57 4.56v44.91a4.58 4.58 0 0 1-4.57 4.57Zm-47-53a3.54 3.54 0 0 0-3.55 3.54v44.91a3.55 3.55 0 0 0 3.55 3.55h47a3.57 3.57 0 0 0 3.56-3.55v-44.93a3.56 3.56 0 0 0-3.56-3.54Z" class="animable" transform-origin="209.74px 333.18px"/>
    <path id="elfv23gfe43a" fill="#FAFAFA" d="M228.88 320.35a4.41 4.41 0 1 1 4.41-4.42 4.42 4.42 0 0 1-4.41 4.42Z" class="animable" transform-origin="228.88px 315.94px"/>
    <path id="eltwwm0an6hp" fill="#FAFAFA" d="M248.66 320.35a4.41 4.41 0 1 1 4.38-4.44v.09a4.4 4.4 0 0 1-4.38 4.35Z" class="animable" transform-origin="248.63px 315.94px"/>
    <path id="el6fvnnhawbfb" fill="#F0F0F0" d="M183.21 382.94h-4.39v-12.48h8.99l-4.6 12.48z" class="animable" transform-origin="183.315px 376.7px"/>
    <path id="elg57022phtz" fill="#E6E6E6" d="M152.21 303.03h23.09v79.91h-23.09z" class="animable" transform-origin="163.755px 342.985px"/>
    <path id="elcx3jngbp7s" fill="#F0F0F0" d="M170.91 382.94h4.39v-12.48h-8.99l4.6 12.48z" class="animable" transform-origin="170.805px 376.7px"/>
    <path id="elvyc38ihewv" fill="#F0F0F0" d="M55.4 303.03h119.9v73.77H55.4z" class="animable" transform-origin="115.35px 339.915px"/>
    <path id="elgxw4g3u38no" fill="#E0E0E0" d="M167.83 360.2h-47a4.57 4.57 0 0 1-4.57-4.57v-44.91a4.57 4.57 0 0 1 4.57-4.56h46.95a4.57 4.57 0 0 1 4.57 4.56v44.91a4.57 4.57 0 0 1-4.52 4.57Zm-47-53a3.54 3.54 0 0 0-3.55 3.54v44.91a3.56 3.56 0 0 0 3.52 3.6h47a3.57 3.57 0 0 0 3.59-3.53v-45a3.56 3.56 0 0 0-3.55-3.54Z" class="animable" transform-origin="144.305px 333.18px"/>
    <path id="elp80ppjss5eq" fill="#E0E0E0" d="M109.81 360.2H62.87a4.57 4.57 0 0 1-4.57-4.57v-44.91a4.56 4.56 0 0 1 4.57-4.56h46.94a4.56 4.56 0 0 1 4.57 4.56v44.91a4.58 4.58 0 0 1-4.57 4.57Zm-46.94-53a3.54 3.54 0 0 0-3.56 3.54v44.91a3.56 3.56 0 0 0 3.52 3.6h47a3.55 3.55 0 0 0 3.56-3.55v-45a3.54 3.54 0 0 0-3.56-3.54Z" class="animable" transform-origin="86.34px 333.18px"/>
    <path id="elc7q5omtwui" fill="#FAFAFA" d="M105.46 320.35a4.41 4.41 0 1 1 4.4-4.42 4.4 4.4 0 0 1-4.4 4.42Z" class="animable" transform-origin="105.45px 315.94px"/>
    <path id="elhgpx4yt60dw" fill="#FAFAFA" d="M125.24 320.35a4.41 4.41 0 1 1 4.38-4.44v.09a4.4 4.4 0 0 1-4.38 4.35Z" class="animable" transform-origin="125.21px 315.94px"/>
    <path id="elj138jua62n" fill="#F0F0F0" d="M59.78 382.94H55.4v-12.48h8.98l-4.6 12.48z" class="animable" transform-origin="59.89px 376.7px"/>
    <path id="elqyg8zn6ke7i" fill="#EBEBEB" d="M224.32 81.52h42.96v42.96h-42.96z" class="animable" transform-origin="245.8px 103px"/>
    <path id="elu8w1nd9z9cs" fill="#E0E0E0" d="M267.29 81.53h1.9v42.96h-1.9z" class="animable" transform-origin="268.24px 103.01px"/>
    <path id="elcsxzey7tfbr" fill="#FFF" d="M230.15 87.35h31.32v31.32h-31.32z" class="animable" transform-origin="245.81px 103.01px"/>
    <path id="el7b6h8wubqck" fill="#F5F5F5" d="M251.05 108.24a7.41 7.41 0 0 1-10.49 0 7.42 7.42 0 0 1 0-10.48 7.43 7.43 0 0 1 10.49 0 7.42 7.42 0 0 1 0 10.48Z" class="animable" transform-origin="245.805px 103.004px"/>
    <path id="elsofoo1mpyps" fill="#EBEBEB" d="M174.83 136.76h50.37v50.37h-50.37z" class="animable" transform-origin="200.015px 161.945px"/>
    <path id="ell6kpyqgknk" fill="#E0E0E0" d="M225.2 136.77h2.23v50.37h-2.23z" class="animable" transform-origin="226.315px 161.955px"/>
    <path id="elwday3rii3v" fill="#FFF" d="M181.66 143.59h36.72v36.72h-36.72z" class="animable" transform-origin="200.02px 161.95px"/>
    <path id="elr52jy8l59rl" fill="#F5F5F5" d="M192.18 154.11h15.66v15.66h-15.66z" class="animable" transform-origin="200.01px 161.94px"/>
    <path id="el4d7dfn8cbun" fill="#E6E6E6" d="M423.23 120.56h27.27v6.37h-27.27z" class="animable" transform-origin="436.865px 123.745px"/>
    <path id="eldo7dmano5o5" fill="#F5F5F5" d="M310.35 120.56h112.88v6.37H310.35z" class="animable" transform-origin="366.79px 123.745px"/>
    <path id="ely7mx1184h8n" fill="#E0E0E0" d="M342.71 86.74h31.78v33.83h-31.78z" class="animable" transform-origin="358.6px 103.655px"/>
    <path id="elexd7a0kc8d8" fill="#F0F0F0" d="M334.57 86.74h8.14v33.83h-8.14z" class="animable" transform-origin="338.64px 103.655px"/>
    <path id="elpjo5y05ieh" fill="#E6E6E6" d="M358.95 81.52h23.87v39.04h-23.87z" class="animable" transform-origin="370.885px 101.04px"/>
    <path id="elgpq4w4cwrm" fill="#F0F0F0" d="M352.06 81.52h6.9v39.04h-6.9z" class="animable" transform-origin="355.51px 101.04px"/>
    <path id="elt8zm6zpvczb" fill="#F0F0F0" d="M365.99 86.74h20.13v33.83h-20.13z" class="animable" transform-origin="376.055px 103.655px"/>
    <path id="elrqcgeoajhwc" fill="#FAFAFA" d="M361.39 86.74h4.6v33.83h-4.6z" class="animable" transform-origin="363.69px 103.655px"/>
    <path id="elka77obogab" fill="#E6E6E6" d="M382.46 92.46h26.4v28.1h-26.4z" class="animable" transform-origin="395.66px 106.51px"/>
    <path id="elo7701lgcet" fill="#FAFAFA" d="M375.7 92.46h6.76v28.1h-6.76z" class="animable" transform-origin="379.08px 106.51px"/>
    <path id="elwkue5g0s3dt" fill="#E6E6E6" d="M395.95 88.13h19.83v32.44h-19.83z" class="animable" transform-origin="405.865px 104.35px"/>
    <path id="el2kfve6bga94" fill="#F0F0F0" d="M390.22 88.13h5.73v32.44h-5.73z" class="animable" transform-origin="393.085px 104.35px"/>
    <path id="elfft4re8ygdn" fill="#F0F0F0" d="M401.79 92.46h19.26v28.1h-19.26z" class="animable" transform-origin="411.42px 106.51px"/>
    <path id="ellwvviiyzzap" fill="#FAFAFA" d="M397.97 92.46h3.82v28.1h-3.82z" class="animable" transform-origin="399.88px 106.51px"/>
    <path id="elwu1unutq2e" fill="#E6E6E6" d="M407.09 309.42c8.54-11.16 28.87-15.31 35.9-22.35 9.2-9.23 9.16-23.08 1.32-28.08-6.8-4.34-29.36 25-31.89 28.3-8.75 11.29-11.28 19.66-12.92 27.77.19-6.89.37-13.23.52-18.11.47-15.93 1.06-21.06 1.34-22.63 1-.78 2.06-1.67 2.7-2.15 5.46-4.07 17.56-8.92 23.61-14.83 8.84-8.64 7.41-19 1.21-22.83-6.47-4-17.93 5.49-24 14.92s-3.48 18.47-5.18 26.24c-.36 1.54-.73 7.37-1.07 15.46a32 32 0 0 0-12.34-19.95c-8.37-6.68-15.6-14.82-22.5-13.77s-3.15 11.82 2.27 19.38c4.86 6.73 28.85 13.45 32.38 18.86-.42 11-.79 24.85-1.05 37.79-1.89-6.68-.59-7.24-8.34-17.5-4.6-6.08-23.5-13.6-25.74-9.4s1.17 12.08 8.3 17.61c5.75 4.46 18.46 4.45 21.47 7.22.69.64 3 3.12 4.26 4.55-.31 15.78-.44 29.71-.29 34.47l1.24.05c-.06-1.23.08-9.26.33-19.89 3.1-5.65 24-9 30.41-14.84 6.74-6.15 11.58-13.33 8.69-18.14-2.41-4-21.38 1.44-29.15 8.08-5.14 4.42-8.28 9.15-9.72 15.49.17-7.24.38-15 .57-22.35 1.58-1.79 5.11-6.02 7.67-9.37Z" class="animable" transform-origin="405.046px 302.005px"/>
    <path id="elvbrp0z5y3x" fill="#F0F0F0" d="M408.91 382.73h-21.66c-1.19 0-2.21-1.54-2.44-3.68l-1.54-14h29.61l-1.53 14c-.25 2.14-1.26 3.68-2.44 3.68Z" class="animable" transform-origin="398.075px 373.89px"/>
    <path id="el2vlt2km3awg" fill="#F0F0F0" d="M413.5 370.46h-30.85c-.74 0-1.36-1-1.44-2.38l-.63-10.36c-.1-1.59.57-3 1.44-3h32.12c.86 0 1.53 1.39 1.43 3l-.63 10.36c-.07 1.36-.7 2.38-1.44 2.38Z" class="animable" transform-origin="398.075px 362.59px"/>
    <g id="freepik--Shadow--inject-62--inject-1" class="animable">
      <ellipse id="freepik--path--inject-62--inject-1" cx="250" cy="416.24" fill="#F5F5F5" class="animable" rx="193.89" ry="11.32" transform-origin="250px 416.24px"/>
    </g>
  </g>
  <g id="freepik--Coins--inject-1" class="animable animator-active" style="animation:1s 1 forwards linear fadeIn;animation-delay:0s">
    <path id="el3vz6ddzofa" fill="#FFC100" d="M214.49 155.68c-2.21 5.37-15.22 5-28.85-.62s-22.9-14.53-20.69-19.9c.52-1.24 2-5.89 3.48-6.53 5.08-2.15 14.75 2.68 25.22 7 9.75 4 20.9 6.61 22.63 11.9 1.04 3.22-1.16 6.62-1.79 8.15Z" class="animable" style="animation:1s 1 forwards linear fadeIn;animation-delay:0s" transform-origin="190.59px 143.801px"/>
    <g id="elh40vcp05d4c" opacity="0" style="animation:1s 1 forwards linear fadeIn;animation-delay:0.037037037037037035s">
      <path id="eluuoa88lwttb" d="M216.28 147.53c.83 4.21-1 6.23-1.79 8.15s-3.1 3.18-6.33 3.62a11.35 11.35 0 0 1-1.22.14 33.4 33.4 0 0 1-7.41-.39c-.35 0-.7-.11-1.06-.17a58.91 58.91 0 0 1-8.47-2.18l-1-.34c-1.11-.39-2.25-.82-3.39-1.29s-2.22-1-3.29-1.47l-.92-.44a59.56 59.56 0 0 1-7.27-4.26l-.82-.58a32.65 32.65 0 0 1-5.53-4.94c-.25-.28-.48-.55-.7-.83-2.15-2.72-3-5.32-2.15-7.39.56-1.33 1.76-5.88 3.48-6.54a11.93 11.93 0 0 1 6.47 0l1 .24c5 1.28 11.3 4.13 17.73 6.78 7.58 3.13 16.55 6.38 20.95 10.13a10 10 0 0 1 .75.7 9 9 0 0 1 .97 1.06Z" class="animable" opacity=".2" transform-origin="190.548px 143.835px"/>
    </g>
    <g id="eliliz1oe9f7d" opacity="0" style="animation:1s 1 forwards linear fadeIn;animation-delay:0.07407407407407407s">
      <g id="elwh3dv5956m8" class="animable" opacity=".2">
        <path id="elbv2cl3gt10q" d="m176.38 128-.46.84-8.12 14.53c-.25-.28-.48-.55-.7-.83l7.8-13.94.61-1.08Z" class="animable" transform-origin="171.74px 135.445px"/>
      </g>
    </g>
    <g id="elc64lq8w8lqj" opacity="0" style="animation:1s 1 forwards linear fadeIn;animation-delay:0.1111111111111111s">
      <g id="elsxvkj1dmbi" class="animable" opacity=".2">
        <path id="el5fvuyiz7vzj" d="m182.52 133.93-8.37 15-.82-.58 8.32-14.88Z" class="animable" transform-origin="177.925px 141.2px"/>
      </g>
    </g>
    <g id="elx4ii42a07o" opacity="0" style="animation:1s 1 forwards linear fadeIn;animation-delay:0.14814814814814814s">
      <g id="el29fwai30lh" class="animable" opacity=".2">
        <path id="el21q3q2p6kbb" d="M197.91 142.53 190 156.7l-1-.34 8-14.36Z" class="animable" transform-origin="193.455px 149.35px"/>
      </g>
    </g>
    <g id="elpcokyhivvrr" opacity="0" style="animation:1s 1 forwards linear fadeIn;animation-delay:0.18518518518518517s">
      <g id="elsdd5dh3sbib" class="animable" opacity=".2">
        <path id="elzdbuig10e" d="m190.75 138.53-8.41 15.07-.92-.44 8.46-15.16Z" class="animable" transform-origin="186.085px 145.8px"/>
      </g>
    </g>
    <g id="elppncuavpz8l" opacity="0" style="animation:1s 1 forwards linear fadeIn;animation-delay:0.2222222222222222s">
      <g id="elv6h5rcabdfs" class="animable" opacity=".2">
        <path id="elf0dipom6v8i" d="m207.24 145.27-7.71 13.78c-.35 0-.7-.11-1.06-.17l7.89-14.11Z" class="animable" transform-origin="202.855px 151.91px"/>
      </g>
    </g>
    <path id="elzhtzo48f2jp" fill="#FFC100" d="M216.22 151c-2.21 5.37-15.06 5.16-28.7-.47s-22.9-14.53-20.68-19.9 15.06-5.15 28.7.47 22.89 14.5 20.68 19.9Z" class="animable" opacity="0" style="animation:1s 1 forwards linear fadeIn;animation-delay:0.25925925925925924s" transform-origin="191.529px 140.817px"/>
    <g id="el7xhqg641e1j" opacity="0" style="animation:1s 1 forwards linear fadeIn;animation-delay:0.2962962962962963s">
      <path id="el6crc118ls6g" fill="#FFF" d="M211.58 149.05c-1.56 3.79-11.58 3.26-22.37-1.19s-18.27-11.14-16.71-14.93 11.58-3.26 22.38 1.19 18.27 11.14 16.7 14.93Z" class="animable" opacity=".2" transform-origin="192.041px 140.99px"/>
    </g>
    <path id="el4ov9f2v12om" fill="#FFC100" d="M283.41 107.14c3.56 4.59-3.22 15.7-14.89 24.73s-24 12.63-27.55 8c-.82-1.06-4.14-4.61-3.94-6.27.67-5.47 9.66-11.45 18.62-18.39 8.34-6.46 16.13-14.84 21.58-13.71 3.31.73 5.17 4.34 6.18 5.64Z" class="animable" opacity="0" style="animation:1s 1 forwards linear fadeIn;animation-delay:0.3333333333333333s" transform-origin="260.69px 121.644px"/>
    <g id="eldyw96y3cedk" opacity="0" style="animation:1s 1 forwards linear fadeIn;animation-delay:0.37037037037037035s">
      <path id="elsmhzcu3fkf" d="M277.23 101.54c4.07 1.38 4.91 4 6.18 5.6s1.22 4.27 0 7.3c-.14.37-.31.74-.49 1.12a33.12 33.12 0 0 1-4 6.24c-.21.28-.44.55-.67.83a58.73 58.73 0 0 1-6.12 6.28l-.77.67a65.958 65.958 0 0 1-5.72 4.42c-.27.2-.56.39-.83.58a58.57 58.57 0 0 1-7.32 4.18c-.31.16-.61.29-.9.43a33 33 0 0 1-7.05 2.34c-.36.08-.71.14-1.06.19-3.43.51-6.11 0-7.48-1.81-.88-1.14-4.23-4.45-3.94-6.26a11.79 11.79 0 0 1 3.21-5.63c.22-.25.46-.5.71-.76 3.61-3.74 9.2-7.75 14.7-12 6.49-5 13.77-11.19 19.2-13.13a10.2 10.2 0 0 1 1-.31 9.43 9.43 0 0 1 1.35-.28Z" class="animable" opacity=".2" transform-origin="260.693px 121.724px"/>
    </g>
    <g id="el1s733lb2ow" opacity="0" style="animation:1s 1 forwards linear fadeIn;animation-delay:0.4074074074074074s">
      <g id="eloet8udittpf" class="animable" opacity=".2">
        <path id="elmg8v82snzgn" d="m240.45 126.44.5.82 8.56 14.27c-.36.08-.71.14-1.06.19L240.24 128l-.64-1Z" class="animable" transform-origin="244.555px 134.08px"/>
      </g>
    </g>
    <g id="elbc1d6ypu2cf" opacity="0" style="animation:1s 1 forwards linear fadeIn;animation-delay:0.4444444444444444s">
      <g id="elk3day9l8pee" class="animable" opacity=".2">
        <path id="elsl12yrwimhb" d="m248.64 124.06 8.82 14.7c-.31.16-.61.29-.9.43l-8.78-14.62Z" class="animable" transform-origin="252.62px 131.625px"/>
      </g>
    </g>
    <g id="eloohh5ya0wnk" opacity="0" style="animation:1s 1 forwards linear fadeIn;animation-delay:0.48148148148148145s">
      <g id="el15wzaxnn1pc" class="animable" opacity=".2">
        <path id="elcxy3xl7glca" d="m263.75 115 8.35 13.92-.77.67-8.44-14.08Z" class="animable" transform-origin="267.495px 122.295px"/>
      </g>
    </g>
    <g id="elp0547qs0z3h" opacity="0" style="animation:1s 1 forwards linear fadeIn;animation-delay:0.5185185185185185s">
      <g id="elmcgjbirfzvd" class="animable" opacity=".2">
        <path id="elvzn4ee26cor" d="m256.73 119.21 8.88 14.79c-.27.2-.56.39-.83.58l-8.92-14.86Z" class="animable" transform-origin="260.735px 126.895px"/>
      </g>
    </g>
    <g id="el8buye9ed6ob" opacity="0" style="animation:1s 1 forwards linear fadeIn;animation-delay:0.5555555555555556s">
      <g id="el4rc1sdfxtcm" class="animable" opacity=".2">
        <path id="els2h0nteuac" d="m270.77 108.25 8.12 13.55c-.21.28-.44.55-.67.83l-8.31-13.86Z" class="animable" transform-origin="274.4px 115.44px"/>
      </g>
    </g>
    <g id="el249thamx86g" opacity="0" style="animation:1s 1 forwards linear fadeIn;animation-delay:0.5925925925925926s">
      <ellipse id="el81515clonbt" cx="259.06" cy="119.65" fill="#FFC100" class="animable" rx="26.71" ry="10.51" transform="rotate(-37.76)" transform-origin="259.06px 119.65px"/>
    </g>
    <g id="el4gybfrtsbj9" opacity="0" style="animation:1s 1 forwards linear fadeIn;animation-delay:0.6296296296296295s">
      <ellipse id="el4dnhng393bk" cx="259.5" cy="119.31" fill="#FFF" class="animable" opacity=".2" rx="21.14" ry="7.43" transform="rotate(-37.76)" transform-origin="259.5px 119.31px"/>
    </g>
    <path id="elsf44oq1bcn" fill="#FFC100" d="M235.14 85.64C234 92.22 219.24 95 202.52 92s-29.33-10.73-28.16-17.31c.27-1.53.74-7.1 2.31-8.21 5.19-3.66 17.25-.6 30.09 1.68 12 2.13 25.13 2.3 28.38 7.83 1.97 3.4.33 7.77 0 9.65Z" class="animable" opacity="0" style="animation:1s 1 forwards linear fadeIn;animation-delay:0.6666666666666666s" transform-origin="205.189px 78.9936px"/>
    <g id="elc3zxm3k2cei" opacity="0" style="animation:1s 1 forwards linear fadeIn;animation-delay:0.7037037037037037s">
      <path id="elbifhvmgotz" d="M235.14 76c2 4.54.41 7.25 0 9.61s-2.7 4.33-6.22 5.63c-.43.17-.88.31-1.34.45a38.69 38.69 0 0 1-8.44 1.39c-.41 0-.81 0-1.23.07a68.73 68.73 0 0 1-10.08-.37l-1.17-.15c-1.35-.17-2.74-.37-4.13-.62s-2.74-.53-4.07-.84c-.38-.08-.76-.18-1.14-.27a66.94 66.94 0 0 1-9.22-3c-.37-.14-.72-.3-1.07-.44a38.07 38.07 0 0 1-7.44-4.21c-.35-.25-.67-.5-1-.76-3.1-2.53-4.69-5.25-4.24-7.78.3-1.64.54-7 2.3-8.21s4.28-1.59 7.28-1.6h1.2c6 .2 13.73 1.87 21.62 3.27 9.3 1.66 20.19 3.11 26.05 6.25a11 11 0 0 1 1 .6 10.64 10.64 0 0 1 1.34.98Z" class="animable" opacity=".2" transform-origin="205.201px 79.0482px"/>
    </g>
    <g id="elc0lbaf531tp" opacity="0" style="animation:1s 1 forwards linear fadeIn;animation-delay:0.7407407407407407s">
      <g id="elzs8olhaqecj" class="animable" opacity=".2">
        <path id="elfr7vt63nssu" d="m185.46 63.88-.32 1.05-5.56 18.34c-.35-.25-.67-.5-1-.76l5.34-17.59.42-1.37Z" class="animable" transform-origin="182.02px 73.41px"/>
      </g>
    </g>
    <g id="el2n7d7g2fxg7" opacity="0" style="animation:1s 1 forwards linear fadeIn;animation-delay:0.7777777777777777s">
      <g id="elhjlqec3y6g" class="animable" opacity=".2">
        <path id="elknu49w33fj" d="m193.82 69-5.73 18.89c-.37-.14-.72-.3-1.07-.44l5.7-18.8Z" class="animable" transform-origin="190.42px 78.27px"/>
      </g>
    </g>
    <g id="elxdmfby5gwph" opacity="0" style="animation:1s 1 forwards linear fadeIn;animation-delay:0.8148148148148148s">
      <g id="eldjdo6zmrgfc" class="animable" opacity=".2">
        <path id="el19pb3j5s41j" d="m213.25 74.92-5.43 17.89-1.17-.15 5.49-18.08Z" class="animable" transform-origin="209.95px 83.695px"/>
      </g>
    </g>
    <g id="elliccryr9smj" opacity="0" style="animation:1s 1 forwards linear fadeIn;animation-delay:0.8518518518518519s">
      <g id="eljlop8n7itwp" class="animable" opacity=".2">
        <path id="elf3z451gl65q" d="m204.22 72.18-5.77 19c-.38-.08-.76-.18-1.14-.27l5.8-19.09Z" class="animable" transform-origin="200.765px 81.5px"/>
      </g>
    </g>
    <g id="elso085ne46br" opacity="0" style="animation:1s 1 forwards linear fadeIn;animation-delay:0.8888888888888888s">
      <g id="elwp0pooyn2y" class="animable" opacity=".2">
        <path id="elnwo9vozbcva" d="m224.42 75.7-5.29 17.41c-.41 0-.81 0-1.23.07l5.41-17.81Z" class="animable" transform-origin="221.16px 84.275px"/>
      </g>
    </g>
    <g id="el3bggi87p3sn" opacity="0" style="animation:1s 1 forwards linear fadeIn;animation-delay:0.9259259259259258s">
      <ellipse id="el03gsy17w5fu" cx="205.64" cy="74.52" fill="#FFC100" class="animable" rx="12.1" ry="30.76" transform="rotate(-79.91)" transform-origin="205.64px 74.52px"/>
    </g>
    <g id="elgwrv0lnzw2t" opacity="0" style="animation:1s 1 forwards linear fadeIn;animation-delay:0.9629629629629629s">
      <ellipse id="elwttu43pw77" cx="206.27" cy="74.63" fill="#FFF" class="animable" opacity=".2" rx="8.55" ry="24.34" transform="rotate(-79.91)" transform-origin="206.27px 74.63px"/>
    </g>
  </g>
  <g id="freepik--Wallet--inject-1" class="animable animator-hidden">
    <path id="elsui3jazdx1p" fill="#FFC100" d="m322.44 253.63-102.91 6a30.32 30.32 0 0 0-10.53 2.56l-111.78 50a9.36 9.36 0 0 0-5.4 10.46L110.29 410a9.45 9.45 0 0 0 13.5 6.38l110.33-55.08L336 357.89a8.83 8.83 0 0 0 8.49-10.18l-13.63-83.64c-.71-4.32-3.99-10.57-8.42-10.44Z" class="animable" transform-origin="218.111px 335.515px"/>
    <g id="elda7z7p1p1dc">
      <path id="el66srfc9cgjm" d="m322.44 253.63-102.91 6a30.32 30.32 0 0 0-10.53 2.56l-111.78 50a9.36 9.36 0 0 0-5.4 10.46L110.29 410a9.45 9.45 0 0 0 13.5 6.38l110.33-55.08L336 357.89a8.83 8.83 0 0 0 8.49-10.18l-13.63-83.64c-.71-4.32-3.99-10.57-8.42-10.44Z" class="animable" opacity=".1" transform-origin="218.111px 335.515px"/>
    </g>
    <g id="elgcfbardl3od">
      <path id="el6ow2at3v8i5" fill="#FFC100" d="M100.6 202.73h73.45v142.99H100.6z" class="animable" transform="rotate(-42.67)" transform-origin="137.325px 274.225px"/>
    </g>
    <g id="ellfpak45grbi">
      <path id="el5ybo2xcul46" fill="#FAFAFA" d="m212.78 301.9-54.01 49.78-96.9-105.13 35.44-32.67 18.57-17.12 3.09 3.36 93.81 101.78z" class="animable" opacity=".5" transform-origin="137.325px 274.22px"/>
    </g>
    <g id="el6cpxh7l22je">
      <path id="el2hgqitspubp" fill="none" stroke="#FFC100" stroke-miterlimit="10" d="M105.32 207.45h64.81V341.2h-64.81z" class="animable" transform="rotate(-42.67)" transform-origin="137.725px 274.325px"/>
    </g>
    <g id="els8hcx2z4zf8">
      <ellipse id="elmsm68k7k0y8" cx="137" cy="273.55" fill="#FFC100" class="animable" rx="13.46" ry="16.88" transform="rotate(-42.67)" transform-origin="137px 273.55px"/>
    </g>
    <g id="el5s6wohg1vzo">
      <path id="elwwptls1ew3f" d="m158.2 309.01-19.19 6.63-41.7-101.76 18.57-17.12 3.09 3.36 39.23 108.89z" class="animable" opacity=".1" transform-origin="127.755px 256.2px"/>
    </g>
    <g id="el5sxpyr65q5a">
      <path id="el3ifcv4g1am7" fill="#FFC100" d="M115.05 163.81h73.45V306.8h-73.45z" class="animable" transform="rotate(-19.93)" transform-origin="151.775px 235.305px"/>
    </g>
    <g id="el6c5ej1erw2">
      <path id="el1szsehfvmlb" fill="#FAFAFA" d="M115.05 163.81h73.45V306.8h-73.45z" class="animable" opacity=".5" transform="rotate(-19.93)" transform-origin="151.775px 235.305px"/>
    </g>
    <g id="elqvgtiqr6td">
      <path id="eli4lz978i0gi" fill="none" stroke="#FFC100" stroke-miterlimit="10" d="M119.69 168.68h64.81v133.75h-64.81z" class="animable" transform="rotate(-19.93)" transform-origin="152.095px 235.555px"/>
    </g>
    <g id="elp30czawqjf">
      <ellipse id="elkojzyn5mn4i" cx="151.74" cy="234.56" fill="#FFC100" class="animable" rx="13.46" ry="16.88" transform="rotate(-19.93)" transform-origin="151.74px 234.56px"/>
    </g>
    <path id="ell1yeufcwcpp" fill="#FFC100" d="m323.11 257.18-101.5 5.72a29.06 29.06 0 0 0-10.41 2.55l-110.14 49.72a9.35 9.35 0 0 0-5.3 10.44L114.23 413a9.35 9.35 0 0 0 13.34 6.41l108.7-54.77 100.48-3.18a8.75 8.75 0 0 0 8.36-10.15l-13.67-83.63c-.71-4.36-3.95-10.62-8.33-10.5Z" class="animable" transform-origin="220.392px 338.791px"/>
    <g id="el6vw5rqwb0q3">
      <path id="el7ck2qq9vy3a" fill="none" stroke="#000" stroke-linecap="round" stroke-linejoin="round" stroke-width="2" d="m225.74 278.2 87.09-5.36" class="animable" opacity=".2" transform-origin="269.285px 275.52px"/>
    </g>
    <g id="eltbp4u3h4kf">
      <path id="elx02oawjcyl" fill="none" stroke="#000" stroke-linecap="round" stroke-linejoin="round" stroke-width="2" d="m215.31 280.45 15.91 73.08" class="animable" opacity=".2" transform-origin="223.265px 316.99px"/>
    </g>
    <g id="eln3owyls7omf">
      <path id="el89gosetn7bt" fill="#FAFAFA" d="m109.23 346.43 11.22 56.21s8.6-22.3-11.22-56.21Z" class="animable" opacity=".2" transform-origin="115.768px 374.535px"/>
    </g>
    <g id="elg071n8oyfxt">
      <path id="el7hnh4xt8a3q" fill="#FAFAFA" d="M110.7 347.09c.39 1 99.66-41.6 99.66-41.6a52.24 52.24 0 0 1-27.36 47.4c-29.88 16.75-72.3-5.8-72.3-5.8Z" class="animable" opacity=".2" transform-origin="160.54px 332.285px"/>
    </g>
    <circle id="elot34xhvvr9" cx="176.64" cy="344.45" r="4.3" fill="#FFC100" class="animable" transform-origin="176.64px 344.45px"/>
    <g id="el41f24umet6h">
      <path id="elqg7dekzi9x" d="M210.41 305.49s12.31 18.53 9.33 50.09" class="animable" opacity=".2" transform-origin="215.308px 330.535px"/>
    </g>
    <g id="elif1gmd92odm">
      <g id="elfxc4gfkcva" class="animable" opacity=".2">
        <path id="elf50u9nmm3t6" fill="none" stroke="#FAFAFA" stroke-linecap="round" stroke-linejoin="round" d="m104.48 324.35 2.29-1.01" class="animable" transform-origin="105.625px 323.845px"/>
        <path id="el3tyl1t0i9hz" fill="none" stroke="#FAFAFA" stroke-dasharray="5.198 5.198" stroke-linecap="round" stroke-linejoin="round" d="m111.52 321.24 92.7-40.98" class="animable" transform-origin="157.87px 300.75px"/>
        <path id="el1vx2krdm6ry" fill="none" stroke="#FAFAFA" stroke-linecap="round" stroke-linejoin="round" d="m206.6 279.21 2.28-1.01" class="animable" transform-origin="207.74px 278.705px"/>
      </g>
    </g>
    <g id="el28gj12astkch">
      <path id="elmfxfu52o4t" fill="none" stroke="#000" stroke-linecap="round" stroke-linejoin="round" stroke-width="2" d="m228.66 294.63 87.09-5.37" class="animable" opacity=".2" transform-origin="272.205px 291.945px"/>
    </g>
    <g id="elgu3e8iyfe2v">
      <path id="el88e3t63i608" fill="none" stroke="#000" stroke-linecap="round" stroke-linejoin="round" stroke-width="2" d="m232.58 315.12 87.09-5.37" class="animable" opacity=".2" transform-origin="276.125px 312.435px"/>
    </g>
  </g>
  <g id="freepik--Character--inject-1" class="animable animator-hidden">
    <path id="elaax987qd8ep" fill="#B97964" d="M300.58 169.56s-2.19 23.33-10.86 25.34a26.16 26.16 0 0 1-16-1.6l-7.05-5.42-3.44 12s3.76 5.11 11.61 1.57c0 0 14 6.16 21.74 0s10.22-23.06 10.22-23.06Z" class="animable" transform-origin="285.015px 186.874px"/>
    <path id="elv9lwwr1t32m" fill="#263238" d="M307.55 158.26s-6.05-10.31-3.3-29 18.42-21 24.47-19.65 11 7.16 15.12 18.22 5.64 13.94 12.51 12 25.15-8 30.24-2.61a12.64 12.64 0 0 1 3.43 11.4s25.43-6.18 23.23 16.5-38.9 43.85-73.81 21.44-31.89-28.3-31.89-28.3Z" class="animable" transform-origin="358.459px 152.695px"/>
    <path id="elv83szsnp7z" fill="#263238" d="M307.27 213.15s-6.91 59.43-6.68 87.3S310.72 394 310.72 394h12.21s-1.61-52.52-1.38-70.49 3.45-47.7 3.45-47.7 3.91 26.72 8.52 36.16 30.18 42.85 47.92 53.22l8.29-7.61s-18.43-22.8-25.34-34.09S351.27 309 348.73 288s1.85-54.59-5.52-74.86Z" class="animable" transform-origin="345.157px 303.57px"/>
    <g id="el0s0kct9b37v">
      <path id="elvhv4hxhxau" d="m325 275.81-5.31-37.67s-4.19 22.64 4.06 50.29Z" class="animable" opacity=".2" transform-origin="321.813px 263.285px"/>
    </g>
    <path id="el10kz43jy3mgk" fill="#B97964" d="m313.23 397.33.41 11.67 8.19.68.41-1.09v-12.08l-9.01.82z" class="animable" transform-origin="317.735px 403.095px"/>
    <path id="el1la540dfeao" fill="#FFC100" d="m309.34 392.89.75 4.37 14.06.34.89-5.25-15.7.54z" class="animable" transform-origin="317.19px 394.975px"/>
    <path id="eltl0pccfp1km" fill="#FFC100" d="m377.59 366 13.03-12.14 2.87 4.57-11.19 10.24-4.71-2.67z" class="animable" transform-origin="385.54px 361.265px"/>
    <path id="elaf6ex8v7rst" fill="#B97964" d="m383.87 366 8.6 7.24 5.52-6.49-7.06-7.3-7.06 6.55z" class="animable" transform-origin="390.93px 366.345px"/>
    <path id="elvsfyczf20hk" fill="#263238" d="m399.66 366.25 5.2 3.2a1.91 1.91 0 0 1 .43 2.89c-3.77 4.26-13.4 15.08-14.36 15.84-1.19 1-2.63-.68-3-2.18 0 0 2.73-3.62 3-5.94a42.48 42.48 0 0 0 0-5.38 1.77 1.77 0 0 1 .42-1.23l5.81-6.82a1.92 1.92 0 0 1 2.5-.38Z" class="animable" transform-origin="396.849px 377.215px"/>
    <path id="el3df9n06tsgy" fill="#263238" d="m323.83 410 1.08 6a1.91 1.91 0 0 1-1.87 2.25c-5.69 0-20.17.06-21.38-.14-1.51-.25-1.24-2.41-.35-3.67 0 0 4.51-.38 6.4-1.75a43.19 43.19 0 0 0 4-3.56 1.79 1.79 0 0 1 1.2-.51l8.95-.21a1.93 1.93 0 0 1 1.97 1.59Z" class="animable" transform-origin="312.763px 413.334px"/>
    <path id="elnxe6lk592x" fill="#FFC100" d="m344.52 180.19 12.48-8.76s-3.32-13.28-8.24-13.94-29.34-5.31-44.87 0c0 0-5.58 1.59-7.3 17.26l6.64 2.12s2.38 29.34 3.85 33.86h35.44s.4-25.23 2-30.54Z" class="animable" transform-origin="326.795px 182.853px"/>
    <path id="elab0e3w98adv" fill="#B97964" d="M347.21 178.3s4.73 13.5 5.57 20.76c0 0-11.24-4.48-14.14-6.53l-2.2-7.9L329 181l-2.21 6 6.21 7.7s16.93 15.84 25.51 12.22-3.39-34.14-3.39-34.14Z" class="animable" transform-origin="344.198px 190.119px"/>
    <path id="elpmvl9gkpug8" fill="#B97964" d="M315.46 119.19s-4.33 8.64-4 15.67 3.88 9.9 10.63 10.89c0 0 2.88 9-4.68 9.91-.58.07-.78 2.36-.74 2.73.2 1.46 1.65 2.26 3 2.6a20.3 20.3 0 0 0 4.33.48 10.09 10.09 0 0 0 8.07-3.59c.16-.19 1.68-2.13 1.68-2.13s-3.61-1.79-2.34-13.51a9.73 9.73 0 0 0 3.78-4.68 5.88 5.88 0 0 0 2.88-3.52c.54-2.34-1.53-5.58-5.31-2.34 0 0-7.12-3.6-9.82-16.21a12.63 12.63 0 0 1-7.48 3.7Z" class="animable" transform-origin="324.798px 138.483px"/>
    <path id="eljx515ihxarj" fill="#A24E3F" d="m317.49 132.94.61-4.62-3.27 3.62a3.22 3.22 0 0 0 2.66 1Z" class="animable" transform-origin="316.465px 130.638px"/>
    <path id="eledd0prbu9ed" fill="none" stroke="#222221" stroke-linecap="round" stroke-linejoin="round" stroke-width=".75" d="M319.39 136.32s3.45.53 5.11-1.68" class="animable" transform-origin="321.945px 135.508px"/>
    <path id="eli5wh3zcvkq" fill="none" stroke="#222221" stroke-linecap="round" stroke-linejoin="round" d="M322.84 121.85a4.52 4.52 0 0 1 4.47 1.19" class="animable" transform-origin="325.075px 122.359px"/>
    <path id="el3gn06rp8bie" fill="none" stroke="#222221" stroke-linecap="round" stroke-linejoin="round" d="M316.87 120.85s-2-.31-2.89.82" class="animable" transform-origin="315.425px 121.241px"/>
    <path id="eloe42ejeycw" fill="#222221" d="M324.23 127.93c-.09.7-.54 1.21-1 1.15s-.77-.67-.68-1.37.54-1.21 1-1.15.77.67.68 1.37Z" class="animable" transform-origin="323.39px 127.82px"/>
    <g id="ellaa1x3dmwwq">
      <ellipse id="elhlu3extff38" cx="315.43" cy="126.29" fill="#222221" class="animable" rx="1.27" ry=".85" transform="rotate(-82.6)" transform-origin="315.43px 126.29px"/>
    </g>
    <path id="elemlxto3zs5k" fill="#222221" d="m323.56 126.56-1.58-.69a1 1 0 0 0 1.58.69Z" class="animable" transform-origin="322.77px 126.31px"/>
    <path id="elfm6ua5bvb2m" fill="#222221" d="m315.72 125.08-1.58-.69a1 1 0 0 0 1.58.69Z" class="animable" transform-origin="314.93px 124.83px"/>
    <path id="elsvr470ojlqi" fill="#FFC100" d="M305.84 209.17v4.17l38.4.32-1.03-4.96-37.37.47z" class="animable" transform-origin="325.04px 211.18px"/>
    <g id="elovt9ne7638n">
      <path id="els4svbox2au" fill="#FFF" d="M305.84 209.17v4.17l38.4.32-1.03-4.96-37.37.47z" class="animable" opacity=".4" transform-origin="325.04px 211.18px"/>
    </g>
  </g>
  <g id="freepik--Card--inject-1" class="animable animator-hidden">
    <path id="elc1xpbteob7u" fill="#FFC100" d="m306.31 188.93-21.12 73.46a12.8 12.8 0 0 1-11 9.22 13.06 13.06 0 0 1-4.82-.44L229 259.56a12.83 12.83 0 0 1-8.78-15.85l21.13-73.48a12.82 12.82 0 0 1 15.84-8.76l40.4 11.6a12.82 12.82 0 0 1 8.72 15.86Z" class="animable" transform-origin="263.27px 216.322px"/>
    <g id="eleqe0lg1w9rj">
      <path id="el7ewtnj75zti" d="m306.31 188.93-21.12 73.46a12.8 12.8 0 0 1-11 9.22 13.06 13.06 0 0 1-4.82-.44L229 259.56a12.83 12.83 0 0 1-8.78-15.85l21.13-73.48a12.82 12.82 0 0 1 15.84-8.76l40.4 11.6a12.82 12.82 0 0 1 8.72 15.86Z" class="animable" opacity=".2" transform-origin="263.27px 216.322px"/>
    </g>
    <path id="eldqwzi79g2fo" fill="#FFC100" d="m302.8 189.8-21.12 73.47a12.77 12.77 0 0 1-7.51 8.34 13.06 13.06 0 0 1-4.82-.44L229 259.56a12.83 12.83 0 0 1-8.78-15.85l21.13-73.48a12.74 12.74 0 0 1 7.51-8.32 12.65 12.65 0 0 1 4.82.44L294 174a12.82 12.82 0 0 1 8.8 15.8Z" class="animable" transform-origin="261.504px 216.757px"/>
    <g id="elzivzkv5ws1">
      <path id="elj698girbmhc" fill="#FAFAFA" d="m302.8 189.8-21.12 73.47a12.77 12.77 0 0 1-7.51 8.34 13.06 13.06 0 0 1-4.82-.44L229 259.56a12.83 12.83 0 0 1-8.78-15.85l21.13-73.48a12.74 12.74 0 0 1 7.51-8.32 12.65 12.65 0 0 1 4.82.44L294 174a12.82 12.82 0 0 1 8.8 15.8Z" class="animable" opacity=".5" transform-origin="261.504px 216.757px"/>
    </g>
    <g id="eljrmclyy1uo">
      <path id="elv5niff3gaz" fill="#FAFAFA" d="M233.85 194.35h4.49v57.34h-4.49z" class="animable" transform="rotate(15.74)" transform-origin="236.095px 223.02px"/>
    </g>
    <path id="elc66wy4hdm" fill="#FAFAFA" d="m236.67 252.99-4.32-1.25 15.55-55.17 4.31 1.24-15.54 55.18z" class="animable" transform-origin="242.28px 224.78px"/>
    <path id="elkau1jfb6vf7" fill="#FAFAFA" d="m242.95 254.79-4.32-1.24 15.55-55.17 4.32 1.24-15.55 55.17z" class="animable" transform-origin="248.565px 226.585px"/>
    <g id="elz5v903ofze">
      <path id="elkkhbql0alyf" d="M271.48 205.16h4.49v57.34h-4.49z" class="animable" opacity=".5" transform="rotate(15.74)" transform-origin="273.725px 233.83px"/>
    </g>
    <path id="elaex3nlulzni" fill="#FAFAFA" d="m283.1 191.25-2.1 7.49-2.56-.72a4.87 4.87 0 0 1-3.36-6l1.4-5 5.17 1.48a2.2 2.2 0 0 1 1.45 2.75Z" class="animable" transform-origin="279.049px 192.88px"/>
    <path id="ell069y83w5ge" fill="#FAFAFA" d="m281.87 187.58-5.17-1.48 1.55-5.48a4.86 4.86 0 0 1 6-3.36l2.66.75-2.32 8.07a2.17 2.17 0 0 1-2.72 1.5Z" class="animable" transform-origin="281.805px 182.375px"/>
    <path id="elgiu1f3gay6c" fill="#FAFAFA" d="m286.77 190 5.2 1.49-1.38 4.89a4.84 4.84 0 0 1-6 3.36l-2.7-.76 2.15-7.48a2.19 2.19 0 0 1 2.73-1.5Z" class="animable" transform-origin="286.93px 194.919px"/>
    <path id="el6nkkjtbrxec" fill="#FAFAFA" d="m293.81 185-1.57 5.56-5.2-1.49a2.2 2.2 0 0 1-1.5-2.71l2.32-8.07 2.59.73a4.85 4.85 0 0 1 3.36 5.98Z" class="animable" transform-origin="289.724px 184.425px"/>
  </g>
  <defs>
    <filter id="active" height="200%">
      <feMorphology in="SourceAlpha" operator="dilate" radius="2" result="DILATED"/>
      <feFlood flood-color="#32DFEC" flood-opacity="1" result="PINK"/>
      <feComposite in="PINK" in2="DILATED" operator="in" result="OUTLINE"/>
      <feMerge>
        <feMergeNode in="OUTLINE"/>
        <feMergeNode in="SourceGraphic"/>
      </feMerge>
    </filter>
    <filter id="hover" height="200%">
      <feMorphology in="SourceAlpha" operator="dilate" radius="2" result="DILATED"/>
      <feFlood flood-color="red" flood-opacity=".5" result="PINK"/>
      <feComposite in="PINK" in2="DILATED" operator="in" result="OUTLINE"/>
      <feMerge>
        <feMergeNode in="OUTLINE"/>
        <feMergeNode in="SourceGraphic"/>
      </feMerge>
      <feColorMatrix values="0 0 0 0 0 0 1 0 0 0 0 0 0 0 0 0 0 0 1 0"/>
    </filter>
  </defs>
</svg>
