<svg xmlns="http://www.w3.org/2000/svg" id="freepik_stories-laboratory" class="animated" version="1.1" viewBox="0 0 500 500">
  <style>
    svg#freepik_stories-laboratory:not(.animated) .animable{opacity:0}@keyframes fadeIn{0%{opacity:0}100%{opacity:1}}@keyframes wind{0%{transform:rotate( 0deg )}25%{transform:rotate( 1deg )}75%{transform:rotate( -1deg )}}@keyframes slideLeft{0%{opacity:0;transform:translateX(-30px)}100%{opacity:1;transform:translateX(0)}}@keyframes slideRight{0%{opacity:0;transform:translateX(30px)}100%{opacity:1;transform:translateX(0)}}.animator-hidden{display:none}
  </style>
  <g id="freepik--Floor--inject-80" class="animable">
    <path id="eletpirr0njhw" fill="#263238" d="M479.24 479.76c0 .15-103.09.27-230.23.27s-230.25-.12-230.25-.27 103.07-.26 230.25-.26 230.23.12 230.23.26Z" class="animable" transform-origin="249px 479.765px"/>
  </g>
  <g id="freepik--Flasks--inject-80" class="animable animator-active" style="animation:1s 1 forwards cubic-bezier(.36,-0.01,.5,1.38) fadeIn,1.5s Infinite linear wind;animation-delay:0s,1s">
    <path id="elkywkgnfzecr" fill="#F5F5F5" d="M217.94 233.43v1.37h1.9v12.43l-7.49 16.65a2.85 2.85 0 0 0 2.59 4h14.9a2.84 2.84 0 0 0 2.59-4l-7.78-17.18v-11.82h1.83v-1.45Z" class="animable" style="animation:1s 1 forwards cubic-bezier(.36,-0.01,.5,1.38) fadeIn;animation-delay:0s" transform-origin="222.393px 250.655px"/>
    <path id="elgbx4gyi76rm" fill="#263238" d="M217.94 233.43h8.59v1.56h-1.88l.06-.06v11.82c1.64 3.62 3.45 7.6 5.38 11.84l1.46 3.22.75 1.65a6 6 0 0 1 .35.86 3 3 0 0 1 .12.94 3 3 0 0 1-.68 1.75 2.89 2.89 0 0 1-1.62 1l-.24.05H230a3.89 3.89 0 0 1-.48 0h-14.21a4 4 0 0 1-1.23-.13 3 3 0 0 1-1.8-1.57 2.92 2.92 0 0 1-.05-2.35c.31-.71.63-1.4.94-2.09l6.61-14.64v-12.43h-1.92v-1.4 1.35h1.94v12.43c-1.89 4.2-4.12 9.16-6.58 14.66-.31.69-.63 1.39-.93 2.09a2.73 2.73 0 0 0 1.74 3.67 3.48 3.48 0 0 0 1.17.12h14.21a3.65 3.65 0 0 0 .47 0h.45a2.71 2.71 0 0 0 1.52-.92 2.85 2.85 0 0 0 .63-1.64 2.91 2.91 0 0 0-.11-.88 7.25 7.25 0 0 0-.34-.83l-.75-1.65-1.46-3.23-5.36-11.85v-11.88h1.89l-.06.06v-1.45h.06-8.54Z" class="animable" opacity="0" style="animation:1s 1 forwards cubic-bezier(.36,-0.01,.5,1.38) fadeIn;animation-delay:0.0196078431372549s" transform-origin="222.389px 250.749px"/>
    <path id="el3c517cvquur" fill="#528C43" d="M215.08 260.51a2.49 2.49 0 0 1 2.5-1.51 14.2 14.2 0 0 0 2.43.18 10.87 10.87 0 0 0 3.88-1.65c1.26-.66 2.82-1.11 4.06-.43l3.15 6.26a2.17 2.17 0 0 1-1.95 3.15h-13.32a2.18 2.18 0 0 1-2-3Z" class="animable" opacity="0" style="animation:1s 1 forwards cubic-bezier(.36,-0.01,.5,1.38) fadeIn;animation-delay:0.0392156862745098s" transform-origin="222.502px 261.636px"/>
    <path id="el8my900v2p3q" fill="#FAFAFA" d="M227.72 258.38a6.39 6.39 0 0 0-1.55.85c-.45.33-.94.77-1.52 1.22a5.08 5.08 0 0 1-2.15 1.08 6.3 6.3 0 0 1-2.4-.14c-.72-.17-1.35-.36-1.89-.5l-1.27-.35a2.32 2.32 0 0 1-.45-.16l.47.08 1.28.3c.54.13 1.18.3 1.9.45a6 6 0 0 0 2.33.13 4.93 4.93 0 0 0 2.07-1c.58-.44 1.09-.87 1.55-1.19a4.89 4.89 0 0 1 1.16-.63c.15-.06.27-.07.35-.1Z" class="animable" opacity="0" style="animation:1s 1 forwards cubic-bezier(.36,-0.01,.5,1.38) fadeIn;animation-delay:0.058823529411764705s" transform-origin="222.105px 259.983px"/>
    <path id="el8dboo21gu08" fill="#528C43" d="M229.22 275.69a6.38 6.38 0 0 0-3.59-4.55 1 1 0 0 0-1 0 1.09 1.09 0 0 0-.26.81c-.06 1.37-.11 2.73-.17 4.1a2.8 2.8 0 0 0-.74-1.45 1 1 0 0 0-1.43.16c-.19.39 0 .85.17 1.26a3.78 3.78 0 0 1-1 4c-.75.67-1.75 1-2.54 1.64a4.13 4.13 0 0 0 1.76 7.25h2.7c1.56 0 3.39-1.54 4.37-2.76a12.4 12.4 0 0 0 2-4.42 12.75 12.75 0 0 0-.27-6.04Z" class="animable" opacity="0" style="animation:1s 1 forwards cubic-bezier(.36,-0.01,.5,1.38) fadeIn;animation-delay:0.0784313725490196s" transform-origin="223.432px 279.958px"/>
    <path id="el7kmy4yd5bxc" fill="#528C43" d="M220.72 288.91a3.92 3.92 0 0 1-1.81-3.18 3.53 3.53 0 0 1 1.52-2.58c.9-.64 2.18-.7 2.95-1.51a9.07 9.07 0 0 0 1.1-2.28 1.34 1.34 0 0 1 1.14-.85c.59.05.92.72 1 1.3.37 1.65.55 3.9 0 5.11-.72 1.53-1.65 3.42-3.59 4" class="animable" opacity="0" style="animation:1s 1 forwards cubic-bezier(.36,-0.01,.5,1.38) fadeIn;animation-delay:0.11764705882352941s" transform-origin="222.939px 283.715px"/>
    <path id="elovtzcanv3en" fill="#528C43" d="M227.25 275.15a.75.75 0 0 0-.47-.23h-.13a.69.69 0 0 0-.71.77.67.67 0 0 0 .52.58.81.81 0 0 0 .76-.23.74.74 0 0 0 .21-.41.64.64 0 0 0-.18-.48Z" class="animable" opacity="0" style="animation:1s 1 forwards cubic-bezier(.36,-0.01,.5,1.38) fadeIn;animation-delay:0.13725490196078433s" transform-origin="226.683px 275.604px"/>
    <path id="el4dr1wrjpumg" fill="#455A64" d="M220.52 288.64h3.78v9.43h-3.78z" class="animable" opacity="0" style="animation:1s 1 forwards cubic-bezier(.36,-0.01,.5,1.38) fadeIn;animation-delay:0.1568627450980392s" transform-origin="222.41px 293.355px"/>
    <path id="elhzlzskzdni" fill="#263238" d="M215.19 301.76a2.52 2.52 0 0 1 2.52-2.52h9.43a2.52 2.52 0 0 1 2.52 2.52h-14.47Z" class="animable" opacity="0" style="animation:1s 1 forwards cubic-bezier(.36,-0.01,.5,1.38) fadeIn;animation-delay:0.1764705882352941s" transform-origin="222.425px 300.5px"/>
    <path id="ele7vx1kph76" fill="#455A64" d="M227.14 299.24h-9.63a1.34 1.34 0 0 1 1.33-1.33h7a1.33 1.33 0 0 1 1.33 1.33Z" class="animable" opacity="0" style="animation:1s 1 forwards cubic-bezier(.36,-0.01,.5,1.38) fadeIn;animation-delay:0.19607843137254902s" transform-origin="222.34px 298.575px"/>
    <path id="el31pd64r52ar" fill="#263238" d="M240 237.76c0 .05-5.63.09-12.58.09s-12.59 0-12.59-.09 5.64-.1 12.59-.1 12.58.05 12.58.1Z" class="animable" opacity="0" style="animation:1s 1 forwards cubic-bezier(.36,-0.01,.5,1.38) fadeIn;animation-delay:0.21568627450980393s" transform-origin="227.415px 237.755px"/>
    <path id="elnvclpexzeun" fill="#263238" d="M240.62 301.07c-.06 0-.1-15.23-.1-34s0-34 .1-34 .09 15.22.09 34-.04 34-.09 34Z" class="animable" opacity="0" style="animation:1s 1 forwards cubic-bezier(.36,-0.01,.5,1.38) fadeIn;animation-delay:0.23529411764705882s" transform-origin="240.615px 267.07px"/>
    <path id="el1mgveprbqub" fill="#263238" d="M244.38 301.65a3.76 3.76 0 0 0-3.76-3.77 3.77 3.77 0 0 0-3.77 3.77Z" class="animable" opacity="0" style="animation:1s 1 forwards cubic-bezier(.36,-0.01,.5,1.38) fadeIn;animation-delay:0.2549019607843137s" transform-origin="240.615px 299.765px"/>
    <path id="el7kep3sw7ass" fill="#455A64" d="M240.62 235.87a1.89 1.89 0 0 0-1.89 1.89 1.89 1.89 0 0 0 1.89 1.88Z" class="animable" opacity="0" style="animation:1s 1 forwards cubic-bezier(.36,-0.01,.5,1.38) fadeIn;animation-delay:0.27450980392156865s" transform-origin="239.675px 237.755px"/>
    <path id="eltnpup5npoac" fill="#F5F5F5" d="M272.53 271.59a.79.79 0 0 0 .79.82h.75v20a2.28 2.28 0 0 0 2.29 2.29 2.29 2.29 0 0 0 2.29-2.29v-19.98h.71a.81.81 0 0 0 .81-.81.8.8 0 0 0-.8-.8h-6.05a.8.8 0 0 0-.79.77Z" class="animable" opacity="0" style="animation:1s 1 forwards cubic-bezier(.36,-0.01,.5,1.38) fadeIn;animation-delay:0.29411764705882354s" transform-origin="276.35px 282.76px"/>
    <path id="elf8ivpas1kgk" fill="#263238" d="M272.53 271.59a.5.5 0 0 1 0-.18.83.83 0 0 1 .31-.46.86.86 0 0 1 .38-.14h6.01a1 1 0 0 1 .53.1.87.87 0 0 1 .06 1.5 1 1 0 0 1-.6.14h-.6l.08-.07v19.9a2.54 2.54 0 0 1-.07.61 2.26 2.26 0 0 1-.58 1.06 2.3 2.3 0 0 1-1 .64 2.36 2.36 0 0 1-1.18.07 2.31 2.31 0 0 1-1.06-.5 2.44 2.44 0 0 1-.69-.93 2.68 2.68 0 0 1-.17-1.12v-19.77h-.88a.78.78 0 0 1-.53-.34.7.7 0 0 1-.13-.49.94.94 0 0 0 .16.47.73.73 0 0 0 .51.31h.87v19.77a2.47 2.47 0 0 0 .17 1 2.21 2.21 0 0 0 .63.86 2.35 2.35 0 0 0 1 .46 2.24 2.24 0 0 0 1.09-.07 2.18 2.18 0 0 0 .94-.59 2.23 2.23 0 0 0 .53-1 5.5 5.5 0 0 0 .06-1.16v-19.37h.68a.85.85 0 0 0 .52-.12.75.75 0 0 0 .28-.9.8.8 0 0 0-.33-.37.85.85 0 0 0-.47-.09h-6a.71.71 0 0 0-.37.13.84.84 0 0 0-.31.42 1.32 1.32 0 0 1 .16.23Z" class="animable" opacity="0" style="animation:1s 1 forwards cubic-bezier(.36,-0.01,.5,1.38) fadeIn;animation-delay:0.3137254901960784s" transform-origin="276.295px 282.805px"/>
    <path id="el8lg88hlwnf5" fill="#528C43" d="M276.33 293.92a1.72 1.72 0 0 1-1.71-1.72v-13.29H278v13.29a1.71 1.71 0 0 1-1.67 1.72Z" class="animable" opacity="0" style="animation:1s 1 forwards cubic-bezier(.36,-0.01,.5,1.38) fadeIn;animation-delay:0.3333333333333333s" transform-origin="276.31px 286.415px"/>
    <path id="elcm7yjyxeixk" fill="#263238" d="M278 272.47a8.47 8.47 0 0 1-1.74.09 8.33 8.33 0 0 1-1.73-.09 7.23 7.23 0 0 1 1.73-.1 7.35 7.35 0 0 1 1.74.1Z" class="animable" opacity="0" style="animation:1s 1 forwards cubic-bezier(.36,-0.01,.5,1.38) fadeIn;animation-delay:0.3529411764705882s" transform-origin="276.265px 272.464px"/>
    <path id="elfwfwyzc6k2m" fill="#528C43" d="M274.62 278.91a.61.61 0 0 1 .5-.52 2.34 2.34 0 0 1 .87.05l1.68.24a.56.56 0 0 1 .31.12c.08.08.1.24 0 .3" class="animable" opacity="0" style="animation:1s 1 forwards cubic-bezier(.36,-0.01,.5,1.38) fadeIn;animation-delay:0.37254901960784315s" transform-origin="276.334px 278.735px"/>
    <path id="el6lnlpx77pen" fill="#F5F5F5" d="M284.35 271.59a.8.8 0 0 0 .79.82h.75v20a2.28 2.28 0 0 0 2.29 2.29 2.29 2.29 0 0 0 2.29-2.29v-19.98h.71a.81.81 0 0 0 .81-.81.8.8 0 0 0-.8-.8h-6.05a.8.8 0 0 0-.79.77Z" class="animable" opacity="0" style="animation:1s 1 forwards cubic-bezier(.36,-0.01,.5,1.38) fadeIn;animation-delay:0.43137254901960786s" transform-origin="288.17px 282.76px"/>
    <path id="el9sgplg007zn" fill="#263238" d="M284.35 271.59a.5.5 0 0 1 0-.18.83.83 0 0 1 .31-.46.86.86 0 0 1 .38-.14h6.01a1 1 0 0 1 .53.1.87.87 0 0 1 .06 1.5 1 1 0 0 1-.6.14h-.59l.07-.07v19.9a2.54 2.54 0 0 1-.07.61 2.24 2.24 0 0 1-.57 1.06 2.39 2.39 0 0 1-1 .64 2.38 2.38 0 0 1-2.24-.43 2.32 2.32 0 0 1-.68-.93 2.69 2.69 0 0 1-.18-1.12v-19.77h-.88a.79.79 0 0 1-.66-.83.94.94 0 0 0 .16.47.73.73 0 0 0 .51.31h.87c0 2.11 0 5.87.05 10.69v9.08a2.47 2.47 0 0 0 .17 1 2.17 2.17 0 0 0 1.61 1.32 2.25 2.25 0 0 0 1.09-.07 2.14 2.14 0 0 0 .93-.59 2.23 2.23 0 0 0 .53-1 5.5 5.5 0 0 0 .06-1.16v-19.37h.68a.84.84 0 0 0 .52-.12.74.74 0 0 0 0-1.27.85.85 0 0 0-.47-.09h-6a.71.71 0 0 0-.37.13.84.84 0 0 0-.31.42 1.32 1.32 0 0 1 .08.23Z" class="animable" opacity="0" style="animation:1s 1 forwards cubic-bezier(.36,-0.01,.5,1.38) fadeIn;animation-delay:0.45098039215686275s" transform-origin="288.139px 282.805px"/>
    <path id="el4bzopipoaj2" fill="#528C43" d="M288.15 293.92a1.72 1.72 0 0 1-1.71-1.72v-13.29h3.42v13.29a1.71 1.71 0 0 1-1.71 1.72Z" class="animable" opacity="0" style="animation:1s 1 forwards cubic-bezier(.36,-0.01,.5,1.38) fadeIn;animation-delay:0.47058823529411764s" transform-origin="288.15px 286.415px"/>
    <ellipse id="el24x03i86ity" cx="288.03" cy="272.47" fill="#263238" class="animable" opacity="0" rx="1.73" ry=".1" style="animation:1s 1 forwards cubic-bezier(.36,-0.01,.5,1.38) fadeIn;animation-delay:0.49019607843137253s" transform-origin="288.03px 272.47px"/>
    <path id="elxjcq80lssns" fill="#528C43" d="M286.44 278.91a.61.61 0 0 1 .5-.52 2.34 2.34 0 0 1 .87.05l1.68.24a.56.56 0 0 1 .31.12.19.19 0 0 1 0 .3" class="animable" opacity="0" style="animation:1s 1 forwards cubic-bezier(.36,-0.01,.5,1.38) fadeIn;animation-delay:0.5098039215686274s" transform-origin="288.157px 278.735px"/>
    <path id="elqkrp4s79fhn" fill="#263238" d="M264.5 270.83c.06 0 .1 6.81.1 15.21s0 15.21-.1 15.21-.09-6.81-.09-15.21.04-15.21.09-15.21Z" class="animable" opacity="0" style="animation:1s 1 forwards cubic-bezier(.36,-0.01,.5,1.38) fadeIn;animation-delay:0.6078431372549019s" transform-origin="264.505px 286.04px"/>
    <path id="elxexdp9wwbv8" fill="#263238" d="M308.84 270.86c.05 0 .1 6.81.1 15.21s-.05 15.21-.1 15.21-.1-6.8-.1-15.21.05-15.21.1-15.21Z" class="animable" opacity="0" style="animation:1s 1 forwards cubic-bezier(.36,-0.01,.5,1.38) fadeIn;animation-delay:0.6274509803921569s" transform-origin="308.84px 286.07px"/>
    <path id="elobs2cln8i0g" fill="#263238" d="M308.88 276.21c0 .05-10 .1-22.31.1s-22.32-.05-22.32-.1 10-.09 22.32-.09 22.31.04 22.31.09Z" class="animable" opacity="0" style="animation:1s 1 forwards cubic-bezier(.36,-0.01,.5,1.38) fadeIn;animation-delay:0.6470588235294118s" transform-origin="286.565px 276.215px"/>
    <path id="el1r3ghmf049e" fill="#263238" d="M268.27 301.65a3.77 3.77 0 0 0-3.77-3.77 3.76 3.76 0 0 0-3.76 3.77Z" class="animable" opacity="0" style="animation:1s 1 forwards cubic-bezier(.36,-0.01,.5,1.38) fadeIn;animation-delay:0.6666666666666666s" transform-origin="264.505px 299.765px"/>
    <path id="elfjdx16q89hv" fill="#263238" d="M312.61 301.76a3.76 3.76 0 0 0-3.77-3.76 3.76 3.76 0 0 0-3.77 3.76Z" class="animable" opacity="0" style="animation:1s 1 forwards cubic-bezier(.36,-0.01,.5,1.38) fadeIn;animation-delay:0.6862745098039216s" transform-origin="308.84px 299.88px"/>
    <path id="elhby59grxn09" fill="#455A64" d="M264.25 278.53a1.89 1.89 0 0 0 1.89-1.89 1.89 1.89 0 0 0-1.89-1.88Z" class="animable" opacity="0" style="animation:1s 1 forwards cubic-bezier(.36,-0.01,.5,1.38) fadeIn;animation-delay:0.7058823529411764s" transform-origin="265.195px 276.645px"/>
    <path id="elp6wx6xp7ti9" fill="#455A64" d="M308.88 274.76a1.88 1.88 0 0 0-1.88 1.88 1.89 1.89 0 0 0 1.88 1.89Z" class="animable" opacity="0" style="animation:1s 1 forwards cubic-bezier(.36,-0.01,.5,1.38) fadeIn;animation-delay:0.7254901960784313s" transform-origin="307.94px 276.645px"/>
    <path id="elkp6uqjd5xb" fill="#263238" d="M296.65 265.29h-32.64a5.43 5.43 0 0 0-1.47.35 5.35 5.35 0 0 0-.7.31 6.4 6.4 0 0 0-.64.42 5.26 5.26 0 0 0-1.13 1.08 5.93 5.93 0 0 0-.8 1.36 6.39 6.39 0 0 0-.4 1.56c-.08 1.08 0 2.2-.08 3.34a11.92 11.92 0 0 1-.82 3.34 11.28 11.28 0 0 1-8.12 6.62 11.55 11.55 0 0 1-3.76.09A11.17 11.17 0 0 1 236.5 273v-43.33a7 7 0 0 0-7.33-7 6.89 6.89 0 0 0-4.48 1.87 7.24 7.24 0 0 0-1.4 1.79 7.35 7.35 0 0 0-.72 2 9.76 9.76 0 0 0-.14 2v11.22-11.22a10.76 10.76 0 0 1 .13-2 7.75 7.75 0 0 1 .73-2.05 7.41 7.41 0 0 1 1.42-1.82 7.05 7.05 0 0 1 4.55-1.92 7.19 7.19 0 0 1 7.5 7.16v43.36a11 11 0 0 0 9.43 10.66 11.48 11.48 0 0 0 3.7-.09 11.24 11.24 0 0 0 3.39-1.3 11.11 11.11 0 0 0 4.59-5.2 11.66 11.66 0 0 0 .82-3.3c.1-1.12 0-2.23.09-3.34a5.89 5.89 0 0 1 1.23-3 5.8 5.8 0 0 1 1.16-1.11 6.9 6.9 0 0 1 .67-.43 6.58 6.58 0 0 1 .72-.32 6.08 6.08 0 0 1 1.5-.36h32.66Z" class="animable" opacity="0" style="animation:1s 1 forwards cubic-bezier(.36,-0.01,.5,1.38) fadeIn;animation-delay:0.7450980392156863s" transform-origin="259.572px 253.203px"/>
    <path id="elu9vt3up7xt" fill="#263238" d="M276.2 265.29a25.48 25.48 0 0 1 0 4.51 28.3 28.3 0 0 1 0-4.51Z" class="animable" opacity="0" style="animation:1s 1 forwards cubic-bezier(.36,-0.01,.5,1.38) fadeIn;animation-delay:0.7647058823529411s" transform-origin="276.205px 267.545px"/>
    <path id="elw54giydi07f" fill="#263238" d="M287.39 265.29a28.3 28.3 0 0 1 0 4.51 25.48 25.48 0 0 1 0-4.51Z" class="animable" opacity="0" style="animation:1s 1 forwards cubic-bezier(.36,-0.01,.5,1.38) fadeIn;animation-delay:0.7843137254901961s" transform-origin="287.385px 267.545px"/>
    <path id="elvyaszmheh3f" fill="#F5F5F5" d="m186 224.49 2.22 2.43a3.71 3.71 0 0 1 .82 3.56L180.63 259a5.4 5.4 0 0 0 5.19 6.93h15.79a5.73 5.73 0 0 0 5.47-7.41l-8.76-28.31a3.72 3.72 0 0 1 .88-3.68l2-2.06Z" class="animable" opacity="0" style="animation:1s 1 forwards cubic-bezier(.36,-0.01,.5,1.38) fadeIn;animation-delay:0.803921568627451s" transform-origin="193.87px 245.2px"/>
    <path id="elbw99v08uq3e" fill="#263238" d="m186 224.49 15.22-.06h.15l-.1.11-1.52 1.56c-.25.28-.53.54-.76.84a3.63 3.63 0 0 0-.54 1 3.74 3.74 0 0 0 0 2.34c.25.79.5 1.61.76 2.44l3.34 10.77c1.19 3.84 2.46 7.91 3.77 12.16.17.53.33 1.07.5 1.6.08.27.17.54.25.81a7.66 7.66 0 0 1 .23.82 6.27 6.27 0 0 1 .16 1.73l-.06.43v.22l-.05.21-.11.42-.15.42a5.79 5.79 0 0 1-5.57 3.73h-15.69a5.52 5.52 0 0 1-5.51-5.71c0-.24.05-.48.07-.71s.11-.46.17-.69l.39-1.32c.25-.87.51-1.73.76-2.58l1.46-4.95 2.62-8.88c.8-2.71 1.53-5.16 2.16-7.32.32-1.07.62-2.08.9-3 .06-.23.13-.46.19-.68a5 5 0 0 0 .08-.66 3.72 3.72 0 0 0-.16-1.22 4 4 0 0 0-.48-1 8.26 8.26 0 0 0-.64-.76l-1-1.15-.84-.94.88.94 1 1.12a7.13 7.13 0 0 1 .64.75 3.69 3.69 0 0 1 .67 2.25 3.16 3.16 0 0 1-.08.68c-.05.23-.12.45-.19.69q-.41 1.38-.87 3l-2.14 7.33c-.8 2.72-1.67 5.69-2.6 8.89q-.7 2.38-1.45 4.94c-.25.85-.5 1.72-.76 2.59a11.23 11.23 0 0 0-.61 2.67 5.34 5.34 0 0 0 5.33 5.52h15.63a5.58 5.58 0 0 0 5.39-3.61l.15-.4.1-.41.05-.21v-.63a6.15 6.15 0 0 0-.15-1.66 8.19 8.19 0 0 0-.23-.81c-.08-.27-.17-.54-.25-.81-.17-.54-.33-1.07-.49-1.6-1.32-4.25-2.57-8.33-3.76-12.17s-2.3-7.45-3.32-10.78c-.26-.83-.51-1.64-.75-2.44a3.74 3.74 0 0 1 0-2.43 3.92 3.92 0 0 1 .56-1.05 10.47 10.47 0 0 1 .78-.84l1.52-1.56v.11Z" class="animable" opacity="0" style="animation:1s 1 forwards cubic-bezier(.36,-0.01,.5,1.38) fadeIn;animation-delay:0.8235294117647058s" transform-origin="193.892px 245.236px"/>
    <path id="elbtzh1w9nkuo" fill="#263238" d="M175.64 300.14s-.09-16.3-.09-36.4 0-36.41.09-36.41.1 16.3.1 36.41-.04 36.4-.1 36.4Z" class="animable" opacity="0" style="animation:1s 1 forwards cubic-bezier(.36,-0.01,.5,1.38) fadeIn;animation-delay:0.8431372549019608s" transform-origin="175.645px 263.735px"/>
    <path id="eldrfq2itzopw" fill="#263238" d="M208.5 231.7c0 .06-7.09.1-15.85.1s-15.85 0-15.85-.1 7.1-.09 15.85-.09 15.85.04 15.85.09Z" class="animable" opacity="0" style="animation:1s 1 forwards cubic-bezier(.36,-0.01,.5,1.38) fadeIn;animation-delay:0.8627450980392157s" transform-origin="192.65px 231.705px"/>
    <path id="elnmqooc6bvob" fill="#528C43" d="M200.91 242.1a9.71 9.71 0 0 1-4.73-.1c-1.48-.41-2.85-1.17-4.31-1.66a5.73 5.73 0 0 0-4.49 0l-5 18.17a4.6 4.6 0 0 0 4.43 5.82H201a4.59 4.59 0 0 0 4.43-5.8Z" class="animable" opacity="0" style="animation:1s 1 forwards cubic-bezier(.36,-0.01,.5,1.38) fadeIn;animation-delay:0.8823529411764706s" transform-origin="193.904px 252.106px"/>
    <path id="eljx77t0arcb" fill="#263238" d="M179.41 301.76a3.76 3.76 0 0 0-3.77-3.76 3.76 3.76 0 0 0-3.76 3.76Z" class="animable" opacity="0" style="animation:1s 1 forwards cubic-bezier(.36,-0.01,.5,1.38) fadeIn;animation-delay:0.9019607843137255s" transform-origin="175.645px 299.88px"/>
    <path id="eldqsap20iups" fill="#455A64" d="M175.64 234.29a2.39 2.39 0 0 0 2.39-2.38 2.39 2.39 0 0 0-2.39-2.39Z" class="animable" opacity="0" style="animation:1s 1 forwards cubic-bezier(.36,-0.01,.5,1.38) fadeIn;animation-delay:0.9215686274509803s" transform-origin="176.835px 231.905px"/>
    <path id="el2jiid81i9pe" fill="#263238" d="M200.94 224.79a3.3 3.3 0 0 1-.54.28 6.09 6.09 0 0 1-.65.29c-.26.1-.55.23-.89.33a11.28 11.28 0 0 1-1.1.32c-.4.12-.83.19-1.29.28a18.64 18.64 0 0 1-3 .24 17.24 17.24 0 0 1-3-.32c-.45-.1-.89-.18-1.28-.31a10.79 10.79 0 0 1-1.09-.35c-.34-.11-.62-.24-.88-.35a7 7 0 0 1-.65-.3 5 5 0 0 1-.53-.3 3.67 3.67 0 0 1 .57.23 6.48 6.48 0 0 0 .65.27 8.76 8.76 0 0 0 .88.32 11 11 0 0 0 1.09.33c.39.12.82.2 1.27.29a19.38 19.38 0 0 0 3 .3 20.9 20.9 0 0 0 3-.22c.46-.09.89-.15 1.28-.26s.77-.2 1.1-.3.63-.21.89-.3l.66-.25a4.86 4.86 0 0 1 .51-.22Z" class="animable" opacity="0" style="animation:1s 1 forwards cubic-bezier(.36,-0.01,.5,1.38) fadeIn;animation-delay:0.9411764705882353s" transform-origin="193.49px 225.565px"/>
    <path id="eldd2edj0g3s7" fill="#FAFAFA" d="M200.42 244.74a2.9 2.9 0 0 1-.47.23c-.31.13-.77.31-1.34.51a8.85 8.85 0 0 1-2.1.42 5.59 5.59 0 0 1-1.27-.09 7.18 7.18 0 0 1-1.3-.4c-.86-.37-1.62-.8-2.35-1.12a6.16 6.16 0 0 0-2-.57 3.72 3.72 0 0 0-1.39.12 4.61 4.61 0 0 1-.49.18s0 0 .11-.07l.35-.18a3.5 3.5 0 0 1 1.43-.19 6.36 6.36 0 0 1 2.07.54c.74.32 1.51.76 2.35 1.11a7.15 7.15 0 0 0 1.27.4 5.71 5.71 0 0 0 1.22.09 8.93 8.93 0 0 0 2.07-.37l1.35-.45a2.66 2.66 0 0 1 .49-.16Z" class="animable" opacity="0" style="animation:1s 1 forwards cubic-bezier(.36,-0.01,.5,1.38) fadeIn;animation-delay:0.9803921568627451s" transform-origin="194.065px 244.738px"/>
  </g>
  <g id="freepik--character-2--inject-80" class="animable" style="animation:1s 1 forwards cubic-bezier(.36,-0.01,.5,1.38) slideLeft;animation-delay:0s">
    <path id="elh57fwhdp7v7" fill="#455A64" d="m312.66 443.14-4.22 35.56 7.91-.28 3.69-35.28h-7.38z" class="animable" style="animation:1s 1 forwards cubic-bezier(.36,-0.01,.5,1.38) slideLeft;animation-delay:0s" transform-origin="314.24px 460.92px"/>
    <path id="el7ot6u23gl3" fill="#455A64" d="m345.52 443-1.49 35.84 7.9-.28.97-35.56h-7.38z" class="animable" opacity="0" style="animation:1s 1 forwards cubic-bezier(.36,-0.01,.5,1.38) slideLeft;animation-delay:0.01020408163265306s" transform-origin="348.465px 460.92px"/>
    <path id="eld7jv548iovj" fill="#455A64" d="m381.57 443.14 4.22 35.56-7.91-.28-3.68-35.28h7.37z" class="animable" opacity="0" style="animation:1s 1 forwards cubic-bezier(.36,-0.01,.5,1.38) slideLeft;animation-delay:0.02040816326530612s" transform-origin="379.995px 460.92px"/>
    <path id="eluiykx5wgu0e" fill="#455A64" d="M314.24 457.88h68.19v4.81h-68.19z" class="animable" opacity="0" style="animation:1s 1 forwards cubic-bezier(.36,-0.01,.5,1.38) slideLeft;animation-delay:0.030612244897959183s" transform-origin="348.335px 460.285px"/>
    <path id="elgakjst85pbf" fill="#528C43" d="m320.75 430.94.7 18.42s-18.39 6.52-18.59 9.94l35.68.3.07-28.75Z" class="animable" opacity="0" style="animation:1s 1 forwards cubic-bezier(.36,-0.01,.5,1.38) slideLeft;animation-delay:0.04081632653061224s" transform-origin="320.735px 445.225px"/>
    <path id="elf26vhjlhpuw" fill="#E0E0E0" d="M332.27 447.85a1.47 1.47 0 0 1 1 1.68 1.41 1.41 0 0 1-1.65 1 1.54 1.54 0 0 1-1.07-1.78 1.47 1.47 0 0 1 1.84-.87" class="animable" opacity="0" style="animation:1s 1 forwards cubic-bezier(.36,-0.01,.5,1.38) slideLeft;animation-delay:0.0510204081632653s" transform-origin="331.908px 449.182px"/>
    <path id="elnoh0f62053k" fill="#263238" d="M338.54 459.59v-2.29l-34.63.41a2.71 2.71 0 0 0-1.23 1.78Z" class="animable" opacity="0" style="animation:1s 1 forwards cubic-bezier(.36,-0.01,.5,1.38) slideLeft;animation-delay:0.061224489795918366s" transform-origin="320.61px 458.445px"/>
    <path id="elq24bz0ish2" fill="#263238" d="M321.13 449.48c0 .17.89.25 1.75.82s1.33 1.3 1.49 1.23-.1-1.09-1.16-1.75-2.12-.46-2.08-.3Z" class="animable" opacity="0" style="animation:1s 1 forwards cubic-bezier(.36,-0.01,.5,1.38) slideLeft;animation-delay:0.07142857142857142s" transform-origin="322.771px 450.428px"/>
    <path id="el65p1i673l3i" fill="#263238" d="M317.36 451.05c0 .17.72.47 1.32 1.21s.77 1.53.95 1.52.28-1-.48-1.91-1.79-.99-1.79-.82Z" class="animable" opacity="0" style="animation:1s 1 forwards cubic-bezier(.36,-0.01,.5,1.38) slideLeft;animation-delay:0.08163265306122448s" transform-origin="318.559px 452.379px"/>
    <path id="eltzhkrvzloun" fill="#263238" d="M315.22 455.58c.16 0 .4-.84-.05-1.81s-1.28-1.34-1.35-1.19.43.66.79 1.45.44 1.53.61 1.55Z" class="animable" opacity="0" style="animation:1s 1 forwards cubic-bezier(.36,-0.01,.5,1.38) slideLeft;animation-delay:0.09183673469387754s" transform-origin="314.621px 454.064px"/>
    <path id="elj0cmfh8zqtr" fill="#263238" d="M321.44 445.23c.07.16.88-.08 1.87 0s1.77.38 1.86.23-.65-.78-1.82-.84-2 .47-1.91.61Z" class="animable" opacity="0" style="animation:1s 1 forwards cubic-bezier(.36,-0.01,.5,1.38) slideLeft;animation-delay:0.1020408163265306s" transform-origin="323.305px 445.058px"/>
    <path id="elr9ta25oz3ns" fill="#263238" d="M320.79 441.26a3.28 3.28 0 0 0 1.8 0 7.88 7.88 0 0 0 2.92-1.14 1.94 1.94 0 0 0 .54-.42.76.76 0 0 0 .08-.94 1 1 0 0 0-.77-.4 2.32 2.32 0 0 0-.68.1 6.42 6.42 0 0 0-1.12.39 6.54 6.54 0 0 0-1.66 1.09c-.83.78-1.11 1.44-1 1.47s.48-.49 1.33-1.14a7.69 7.69 0 0 1 1.61-.91 6.51 6.51 0 0 1 1-.32c.38-.1.71-.1.81.07s0 .09 0 .2a2.43 2.43 0 0 1-.4.31 10.5 10.5 0 0 1-.95.55 10.61 10.61 0 0 1-1.75.67 13.35 13.35 0 0 0-1.76.42Z" class="animable" opacity="0" style="animation:1s 1 forwards cubic-bezier(.36,-0.01,.5,1.38) slideLeft;animation-delay:0.11224489795918366s" transform-origin="323.523px 439.886px"/>
    <path id="el8jbt2q7fs1o" fill="#528C43" d="m389.42 451.07-.71 18.42s18.4 6.53 18.6 9.94l-35.68.3-.07-28.73Z" class="animable" opacity="0" style="animation:1s 1 forwards cubic-bezier(.36,-0.01,.5,1.38) slideLeft;animation-delay:0.13265306122448978s" transform-origin="389.435px 465.365px"/>
    <path id="el9votzlcgqwv" fill="#E0E0E0" d="M377.9 468a1.48 1.48 0 0 0-1 1.68 1.43 1.43 0 0 0 1.66 1 1.55 1.55 0 0 0 1.07-1.78 1.46 1.46 0 0 0-1.84-.88" class="animable" opacity="0" style="animation:1s 1 forwards cubic-bezier(.36,-0.01,.5,1.38) slideLeft;animation-delay:0.14285714285714285s" transform-origin="378.267px 469.326px"/>
    <path id="elpqqjlkkqck" fill="#263238" d="M371.63 479.73v-2.29l34.63.41a2.71 2.71 0 0 1 1.23 1.77Z" class="animable" opacity="0" style="animation:1s 1 forwards cubic-bezier(.36,-0.01,.5,1.38) slideLeft;animation-delay:0.1530612244897959s" transform-origin="389.56px 478.585px"/>
    <path id="eljd25t1u4s7" fill="#263238" d="M389 469.61c0 .18-.89.25-1.75.82s-1.33 1.3-1.5 1.23.11-1.09 1.17-1.75 2.16-.46 2.08-.3Z" class="animable" opacity="0" style="animation:1s 1 forwards cubic-bezier(.36,-0.01,.5,1.38) slideLeft;animation-delay:0.16326530612244897s" transform-origin="387.354px 470.558px"/>
    <path id="elqa31me9egni" fill="#263238" d="M392.81 471.18c0 .17-.72.47-1.32 1.21s-.77 1.53-.95 1.52-.28-1 .48-1.91 1.79-1 1.79-.82Z" class="animable" opacity="0" style="animation:1s 1 forwards cubic-bezier(.36,-0.01,.5,1.38) slideLeft;animation-delay:0.17346938775510204s" transform-origin="391.611px 472.507px"/>
    <path id="elzm533pw8dsm" fill="#263238" d="M395 475.71c-.16 0-.4-.84.05-1.8s1.28-1.35 1.35-1.2-.43.66-.8 1.46-.48 1.52-.6 1.54Z" class="animable" opacity="0" style="animation:1s 1 forwards cubic-bezier(.36,-0.01,.5,1.38) slideLeft;animation-delay:0.18367346938775508s" transform-origin="395.599px 474.194px"/>
    <path id="elstvw7rji8f8" fill="#263238" d="M388.73 465.37c-.07.16-.88-.09-1.87 0s-1.77.37-1.86.22.65-.78 1.82-.84 2 .48 1.91.62Z" class="animable" opacity="0" style="animation:1s 1 forwards cubic-bezier(.36,-0.01,.5,1.38) slideLeft;animation-delay:0.19387755102040816s" transform-origin="386.865px 465.189px"/>
    <path id="elj1a1mutds7" fill="#263238" d="M389.38 461.4a3.35 3.35 0 0 1-1.8 0 8.14 8.14 0 0 1-1.89-.58 8.59 8.59 0 0 1-1-.55 2.44 2.44 0 0 1-.55-.43.76.76 0 0 1-.07-.93.93.93 0 0 1 .77-.4 2.22 2.22 0 0 1 .67.09 6.25 6.25 0 0 1 1.13.39 6.54 6.54 0 0 1 1.66 1.09c.83.78 1.11 1.44 1.05 1.47s-.48-.49-1.33-1.13a6.89 6.89 0 0 0-1.61-.91 7.76 7.76 0 0 0-1-.33c-.38-.1-.71-.1-.81.07s0 .09 0 .2a1.74 1.74 0 0 0 .4.31 10.5 10.5 0 0 0 .95.55 9.78 9.78 0 0 0 1.75.67 10.71 10.71 0 0 1 1.68.42Z" class="animable" opacity="0" style="animation:1s 1 forwards cubic-bezier(.36,-0.01,.5,1.38) slideLeft;animation-delay:0.2040816326530612s" transform-origin="386.662px 460.03px"/>
    <path id="elagd34ed1te" fill="#263238" d="M366.25 463.39h26.56v-20.25l-27.45-.14.89 20.39z" class="animable" opacity="0" style="animation:1s 1 forwards cubic-bezier(.36,-0.01,.5,1.38) slideLeft;animation-delay:0.22448979591836732s" transform-origin="379.085px 453.195px"/>
    <path id="elhba2uk7du1u" fill="#263238" d="M178.68 443.93h10.22v35.8h-10.22z" class="animable" opacity="0" style="animation:1s 1 forwards cubic-bezier(.36,-0.01,.5,1.38) slideLeft;animation-delay:0.2346938775510204s" transform-origin="183.79px 461.83px"/>
    <path id="eltmvcuqhrrr9" fill="#263238" d="M415.14 443.93h10.22v35.8h-10.22z" class="animable" opacity="0" style="animation:1s 1 forwards cubic-bezier(.36,-0.01,.5,1.38) slideLeft;animation-delay:0.24489795918367346s" transform-origin="420.25px 461.83px"/>
    <path id="el6rcou2kyjg" fill="#455A64" d="M171.38 302.88h264.16v141.05H171.38z" class="animable" opacity="0" style="animation:1s 1 forwards cubic-bezier(.36,-0.01,.5,1.38) slideLeft;animation-delay:0.25510204081632654s" transform-origin="303.46px 373.405px"/>
    <path id="elji30qjgaurc" fill="#EBEBEB" d="M157.78 301.92h298.34v8H157.78Z" class="animable" opacity="0" style="animation:1s 1 forwards cubic-bezier(.36,-0.01,.5,1.38) slideLeft;animation-delay:0.26530612244897955s" transform-origin="306.95px 305.92px"/>
    <path id="elwwxzq9nj0y" fill="#263238" d="M157.78 301.92v8l-.06-.06 298.33-.2-.26.26v-8l.26.26-211.18-.11-63.7-.07h-23.39 23.26l63.71-.08 211.37-.1h.26v8.53h-.27L157.78 310h-.06v-6.1c0-1.33.06-1.98.06-1.98Z" class="animable" opacity="0" style="animation:1s 1 forwards cubic-bezier(.36,-0.01,.5,1.38) slideLeft;animation-delay:0.2755102040816326s" transform-origin="307.05px 306.085px"/>
    <path id="el2tel48ymzym" fill="#263238" d="M233.88 384.93a2.47 2.47 0 0 1 .32-.58l1-1.6c.88-1.39 2.18-3.38 3.79-5.83 3.23-4.89 7.77-11.61 12.88-19s9.85-13.92 13.33-18.62c1.74-2.36 3.15-4.26 4.15-5.57l1.15-1.5a4.52 4.52 0 0 1 .43-.5 2.55 2.55 0 0 1-.34.57l-1.08 1.55-4 5.67c-3.4 4.78-8.08 11.39-13.2 18.74s-9.69 14-13 18.87c-1.63 2.38-3 4.32-3.93 5.73l-1.08 1.55a4.16 4.16 0 0 1-.42.52Z" class="animable" opacity="0" style="animation:1s 1 forwards cubic-bezier(.36,-0.01,.5,1.38) slideLeft;animation-delay:0.2857142857142857s" transform-origin="252.405px 358.33px"/>
    <path id="elfmi2xsr2lbn" fill="#263238" d="M229.8 410.17c-.11-.08 12.42-17.73 28-39.42s28.3-39.21 28.42-39.13-12.42 17.73-28 39.43-28.3 39.21-28.42 39.12Z" class="animable" opacity="0" style="animation:1s 1 forwards cubic-bezier(.36,-0.01,.5,1.38) slideLeft;animation-delay:0.29591836734693877s" transform-origin="258.01px 370.895px"/>
    <path id="elaea1xn1plx" fill="#263238" d="M251.9 399.45a5.38 5.38 0 0 1 .59-1.07c.41-.67 1-1.63 1.79-2.8 1.55-2.33 3.76-5.52 6.32-8.95s5-6.45 6.79-8.6c.9-1.07 1.64-1.93 2.17-2.51a5.84 5.84 0 0 1 .86-.87 6.16 6.16 0 0 1-.7 1l-2.05 2.62c-1.72 2.2-4.1 5.25-6.65 8.67s-4.81 6.57-6.43 8.85l-1.93 2.7a5.32 5.32 0 0 1-.76.96Z" class="animable" opacity="0" style="animation:1s 1 forwards cubic-bezier(.36,-0.01,.5,1.38) slideLeft;animation-delay:0.3061224489795918s" transform-origin="261.16px 387.05px"/>
    <path id="elsct9xsi21xn" fill="#B78876" d="m284.95 228.11-3.58 8.45 10.27.87 1.82-5.72-8.51-3.6z" class="animable" opacity="0" style="animation:1s 1 forwards cubic-bezier(.36,-0.01,.5,1.38) slideLeft;animation-delay:0.31632653061224486s" transform-origin="287.415px 232.77px"/>
    <path id="el4p9or1qm6bj" fill="#455A64" d="M292.94 211s6.49-2.61 7.08-2.14a2.8 2.8 0 0 1 .6 2.79 2.85 2.85 0 0 1-1.15 1.43Z" class="animable" opacity="0" style="animation:1s 1 forwards cubic-bezier(.36,-0.01,.5,1.38) slideLeft;animation-delay:0.32653061224489793s" transform-origin="296.852px 210.942px"/>
    <path id="elec8034veltm" fill="#E0E0E0" d="M297.07 208.61s2.65-2.67 9.18-1.65c5.63.89 7.85 4.13 7.8 5.33a18.9 18.9 0 0 1-.72 3.44 18 18 0 0 1-8.86 1.26c-5-.58-7.81-5.15-7.89-5.44a23.62 23.62 0 0 1 .49-2.94Z" class="animable" opacity="0" style="animation:1s 1 forwards cubic-bezier(.36,-0.01,.5,1.38) slideLeft;animation-delay:0.336734693877551s" transform-origin="305.315px 211.913px"/>
    <path id="elwk86063knnk" fill="#263238" d="M297.07 208.61a16.5 16.5 0 0 1-.24 1.7c0 .27-.09.57-.12.9a2.09 2.09 0 0 0 0 .25.32.32 0 0 0 .07.18c.09.15.2.3.31.46a12.85 12.85 0 0 0 1.77 2 10.05 10.05 0 0 0 6.11 2.74 18.06 18.06 0 0 0 8.26-1.29l-.14.16c.05-.18.11-.37.16-.56a20.63 20.63 0 0 0 .49-2.22 5.24 5.24 0 0 0 .06-.54 1.52 1.52 0 0 0-.06-.47 3.75 3.75 0 0 0-.47-.91 8.18 8.18 0 0 0-3.15-2.56 16.26 16.26 0 0 0-6.85-1.48 11.78 11.78 0 0 0-4.66.84 9.33 9.33 0 0 0-1.53.85s.09-.14.32-.33a5.51 5.51 0 0 1 1.13-.7 11.12 11.12 0 0 1 4.74-1 16 16 0 0 1 7.06 1.42 8.56 8.56 0 0 1 3.36 2.7 4 4 0 0 1 .54 1.05 2 2 0 0 1 .09.65 5.7 5.7 0 0 1-.06.58 20.23 20.23 0 0 1-.51 2.28l-.16.58v.11l-.11.05a18 18 0 0 1-8.52 1.3 10.46 10.46 0 0 1-6.32-3 12.55 12.55 0 0 1-1.75-2.06 5 5 0 0 1-.31-.49.6.6 0 0 1-.1-.31v-.28c0-.34.11-.64.16-.91.12-.54.22-1 .29-1.24s.12-.46.14-.45Z" class="animable" opacity="0" style="animation:1s 1 forwards cubic-bezier(.36,-0.01,.5,1.38) slideLeft;animation-delay:0.3469387755102041s" transform-origin="305.4px 212.023px"/>
    <path id="elat4j5oj6u8c" fill="#455A64" d="M303.43 217.14s1.37-1.12 1.29-1.81-5.14-3.22-5.14-3.22-8.67-2.14-9.57-2.28a12.54 12.54 0 0 0-3.52 1.12c-.69.34-.69 2.41-.69 2.41l-1.8 2.58s.6 3.35.77 4.81a19.9 19.9 0 0 0 1 3.7l-1 3.87s1.14 3.74 4.13 4.45a6.44 6.44 0 0 0 4.8-.91l3.19-6.72a1.6 1.6 0 0 0 .78-2.24l2.63-.12a1.37 1.37 0 0 0 1.5-.8 2.7 2.7 0 0 0 .28-1.82 4.87 4.87 0 0 0 2.29-1.11c.63-.75-.94-1.91-.94-1.91Z" class="animable" opacity="0" style="animation:1s 1 forwards cubic-bezier(.36,-0.01,.5,1.38) slideLeft;animation-delay:0.3571428571428571s" transform-origin="294.362px 221.365px"/>
    <path id="eloiwjyxkw82j" fill="#263238" d="M303.16 217.2a34.22 34.22 0 0 1-5.92-1.73c-.81-.28-1.55-.54-2.27-.84a2.3 2.3 0 0 0-.93-.15h-.9a7 7 0 0 1-1.81-.09 5.7 5.7 0 0 1 1.8-.28h.92a2.45 2.45 0 0 1 1.12.15c.65.24 1.45.5 2.24.78a39.88 39.88 0 0 1 5.75 2.16Z" class="animable" opacity="0" style="animation:1s 1 forwards cubic-bezier(.36,-0.01,.5,1.38) slideLeft;animation-delay:0.36734693877551017s" transform-origin="297.245px 215.649px"/>
    <path id="elj75skm1k3pp" fill="#263238" d="M302.08 220.16a3.46 3.46 0 0 1-1.57.08c-1-.07-2.29-.33-3.72-.58s-2.76-.45-3.69-.7a3.82 3.82 0 0 1-1.48-.54 6.38 6.38 0 0 1 1.55.18c.94.15 2.25.3 3.71.54s2.74.58 3.68.73a7.43 7.43 0 0 1 1.52.29Z" class="animable" opacity="0" style="animation:1s 1 forwards cubic-bezier(.36,-0.01,.5,1.38) slideLeft;animation-delay:0.37755102040816324s" transform-origin="296.85px 219.357px"/>
    <path id="el564lgwu8484" fill="#263238" d="M298 223.1a7.53 7.53 0 0 1-6.71-.75c.06-.14 1.47.46 3.32.65s3.31 0 3.39.1Z" class="animable" opacity="0" style="animation:1s 1 forwards cubic-bezier(.36,-0.01,.5,1.38) slideLeft;animation-delay:0.3877551020408163s" transform-origin="294.645px 222.947px"/>
    <path id="eldsdrc4xsz3p" fill="#263238" d="M296.89 225.14a6.43 6.43 0 0 1-3.47 1.5 6.65 6.65 0 0 1-2.72 0c-.7-.17-1-.49-1-.54s.42.11 1.07.18a9.46 9.46 0 0 0 2.56-.14c2-.37 3.49-1.14 3.56-1Z" class="animable" opacity="0" style="animation:1s 1 forwards cubic-bezier(.36,-0.01,.5,1.38) slideLeft;animation-delay:0.39795918367346933s" transform-origin="293.295px 225.952px"/>
    <path id="elrez2laninwf" fill="#263238" d="M313.33 215.73a17.81 17.81 0 0 0-1.67-2.25 12.39 12.39 0 0 0-5.86-3.14 13.2 13.2 0 0 0-6.67-.07 16.55 16.55 0 0 0-2.59 1.09s.18-.23.59-.51a7.5 7.5 0 0 1 1.89-.93 12.53 12.53 0 0 1 6.91-.09 11.9 11.9 0 0 1 6 3.4 7.46 7.46 0 0 1 1.16 1.77 1.9 1.9 0 0 1 .24.73Z" class="animable" opacity="0" style="animation:1s 1 forwards cubic-bezier(.36,-0.01,.5,1.38) slideLeft;animation-delay:0.4081632653061224s" transform-origin="304.935px 212.559px"/>
    <path id="el8jqwta931bf" fill="#E0E0E0" d="m280.54 235-4 9.69S272 256.1 274.3 259.2s4.7 7.33 9.51 7 25.19-7.35 25.19-7.35l13.18-8.36v36.11l-1.56 14.89 64.83.81-.24-29.13.67-11.91 6.12 17.65 3.85 4.72.59 2-2.74 1.26 4.38 14.63s15.82.24 18.8-3.66l.09-.12a16.11 16.11 0 0 0 2.43-14.79l-.85-2.58-11.43-24.25-.33-3.66L398 234a59.37 59.37 0 0 0-5.84-4.93c-1.72-1-16-9.06-16-9.06l-7.63-6.84-25.39 1.57-1.86 2.67s-15.45 1-17.74 1.91-13.42 9.29-13.42 9.29l-2.14 4.06-3.84 1.27-12.17 7.33.34-4.61Z" class="animable" opacity="0" style="animation:1s 1 forwards cubic-bezier(.36,-0.01,.5,1.38) slideLeft;animation-delay:0.4183673469387755s" transform-origin="346.936px 257.735px"/>
    <path id="eljmj46d5und8" fill="#528C43" d="M347.11 215.63a6.79 6.79 0 0 0-3 6.44c.61 4 5.46 26.06 5.46 26.06l4.56 13 5.11-16.1s7.9-13.78 8.6-16.44 2.85-10.74 1.42-12.28-22.15-.68-22.15-.68Z" class="animable" opacity="0" style="animation:1s 1 forwards cubic-bezier(.36,-0.01,.5,1.38) slideLeft;animation-delay:0.42857142857142855s" transform-origin="356.903px 238.26px"/>
    <path id="el0pusxlk4kyk" fill="none" d="m340.07 218.93-4.87 11.22 4.87 1.33-3.1 3.69s12.55 13.14 13.44 13.73-5.32-30-5.32-30" class="animable" opacity="0" style="animation:1s 1 forwards cubic-bezier(.36,-0.01,.5,1.38) slideLeft;animation-delay:0.4387755102040816s" transform-origin="342.849px 233.904px"/>
    <path id="eltml5qeu1kwd" fill="#263238" d="M415.18 280.71c0 .09-1.07-.56-2.91-1a12.51 12.51 0 0 0-13.27 4.36c-1.18 1.5-1.61 2.64-1.7 2.59a2.38 2.38 0 0 1 .26-.8 10.29 10.29 0 0 1 1.14-2 12.22 12.22 0 0 1 13.66-4.55 10.63 10.63 0 0 1 2.12.92 2.56 2.56 0 0 1 .7.48Z" class="animable" opacity="0" style="animation:1s 1 forwards cubic-bezier(.36,-0.01,.5,1.38) slideLeft;animation-delay:0.44897959183673464s" transform-origin="406.24px 282.697px"/>
    <path id="elsa8ntccwhy" fill="#263238" d="M408.09 276.15c0 .09-1-.15-2.59 0a9.59 9.59 0 0 0-5.53 2.46 9 9 0 0 0-2.54 5.46c-.19 1.58 0 2.58-.12 2.59s-.11-.23-.18-.69a9.16 9.16 0 0 1-.07-1.93 8.81 8.81 0 0 1 2.56-5.81 9.24 9.24 0 0 1 5.86-2.45 7.72 7.72 0 0 1 1.93.15c.45.07.69.19.68.22Z" class="animable" opacity="0" style="animation:1s 1 forwards cubic-bezier(.36,-0.01,.5,1.38) slideLeft;animation-delay:0.4591836734693877s" transform-origin="402.564px 281.216px"/>
    <path id="eldp6peewayui" fill="#263238" d="M386.48 251.92a17.31 17.31 0 0 1 0 4.76 30.33 30.33 0 0 1-.52 4.72 17.28 17.28 0 0 1 0-4.76 30.33 30.33 0 0 1 .52-4.72Z" class="animable" opacity="0" style="animation:1s 1 forwards cubic-bezier(.36,-0.01,.5,1.38) slideLeft;animation-delay:0.4693877551020408s" transform-origin="386.22px 256.66px"/>
    <path id="elufesa3m5fhf" fill="#263238" d="M390.5 254.42a16.46 16.46 0 0 1-2.05 3.57 16.77 16.77 0 0 1-2.49 3.27 16.28 16.28 0 0 1 2.04-3.56 16.66 16.66 0 0 1 2.5-3.28Z" class="animable" opacity="0" style="animation:1s 1 forwards cubic-bezier(.36,-0.01,.5,1.38) slideLeft;animation-delay:0.47959183673469385s" transform-origin="388.23px 257.84px"/>
    <path id="el0xumfhholw3" fill="#263238" d="M387.44 244.64a7.27 7.27 0 0 1 .32-2.17 22.63 22.63 0 0 1 1.88-4.95 21.74 21.74 0 0 1 3-4.37 6.76 6.76 0 0 1 1.58-1.51 49.9 49.9 0 0 0-4.09 6.12 50.84 50.84 0 0 0-2.69 6.88Z" class="animable" opacity="0" style="animation:1s 1 forwards cubic-bezier(.36,-0.01,.5,1.38) slideLeft;animation-delay:0.4897959183673469s" transform-origin="390.83px 238.14px"/>
    <path id="elglwowsvbgk9" fill="#263238" d="M320.69 228.48a20.72 20.72 0 0 1 .51 3.24c.25 2 .55 4.8.78 7.88s.36 5.89.37 7.92a18.87 18.87 0 0 1-.1 3.29 22 22 0 0 1-.26-3.28c-.12-2-.29-4.81-.52-7.89s-.46-5.71-.63-7.88a20.55 20.55 0 0 1-.15-3.28Z" class="animable" opacity="0" style="animation:1s 1 forwards cubic-bezier(.36,-0.01,.5,1.38) slideLeft;animation-delay:0.49999999999999994s" transform-origin="321.529px 239.645px"/>
    <path id="el32wplicy20g" fill="#263238" d="M346.61 216s-.17.17-.49.48A6.09 6.09 0 0 0 345 218a6.85 6.85 0 0 0-.68 3 10.53 10.53 0 0 0 .21 1.94c.11.7.23 1.43.35 2.2a246.2 246.2 0 0 0 5.48 24.33l.21.75-.62-.49c-2.06-1.64-4.1-3.48-6.1-5.42-2.62-2.56-5-5.15-7.27-7.68l-.15-.16.14-.17q1.75-2.07 3.4-4l.17.4-7.28-.46h-.3l.11-.27a49.66 49.66 0 0 1 3.78-7.32c1.26-2.1 2.43-3.88 3.4-5.33s1.77-2.57 2.32-3.33l.64-.86a1.69 1.69 0 0 1 .23-.28 1.21 1.21 0 0 1-.18.32l-.58.9-2.28 3.35c-.95 1.47-2.08 3.27-3.31 5.37a51 51 0 0 0-3.68 7.29l-.19-.29 7.28.41h.48l-.31.37-3.38 4.06v-.33c2.23 2.51 4.65 5.09 7.25 7.63 2 1.94 4 3.77 6.06 5.4l-.41.27a222.92 222.92 0 0 1-5.31-24.41l-.32-2.21a10.7 10.7 0 0 1-.17-2 6.91 6.91 0 0 1 .78-3.07 5.53 5.53 0 0 1 1.27-1.54l.4-.31Z" class="animable" opacity="0" style="animation:1s 1 forwards cubic-bezier(.36,-0.01,.5,1.38) slideLeft;animation-delay:0.5102040816326531s" transform-origin="341.565px 232.535px"/>
    <path id="elmb6zulfpvy" fill="#263238" d="M365.83 232.74a1.52 1.52 0 0 1-.11.31l-.4.87c-.36.76-.92 1.86-1.66 3.24-1.43 2.77-3.76 6.57-5.79 11.41l-.31-.3a63 63 0 0 0 11.89-7.27c.88-.71 1.81-1.41 2.57-2.16a2.38 2.38 0 0 0 .72-1.28 2 2 0 0 0-.45-1.34l-3.36-5.22-.31-.49.57.14L375 232l-.25.15a26.65 26.65 0 0 0 .93-9.29c-.09-1.11-.22-2-.31-2.57a6.06 6.06 0 0 1-.13-.91 3.84 3.84 0 0 1 .25.88 23 23 0 0 1 .43 2.58 25.72 25.72 0 0 1-.76 9.42l-.05.19h-.2l-5.83-1.36.27-.35c1.07 1.64 2.19 3.37 3.37 5.16a2.55 2.55 0 0 1 .53 1.69 2.91 2.91 0 0 1-.85 1.58c-.84.82-1.72 1.48-2.63 2.21a60.73 60.73 0 0 1-12 7.32l-.55.26.24-.56a114.3 114.3 0 0 1 6-11.37l1.77-3.16a8.92 8.92 0 0 1 .6-1.13Z" class="animable" opacity="0" style="animation:1s 1 forwards cubic-bezier(.36,-0.01,.5,1.38) slideLeft;animation-delay:0.520408163265306s" transform-origin="366.64px 234.17px"/>
    <path id="eluxhcgyk1iwa" fill="#263238" d="M291.72 240.33a2.9 2.9 0 0 1 .28.89c.15.57.34 1.41.54 2.45a43 43 0 0 1 .86 8.26 13.56 13.56 0 0 1-2.38 7.93 8 8 0 0 1-1.78 1.81 2.61 2.61 0 0 1-.8.47 14.6 14.6 0 0 0 2.28-2.49 14 14 0 0 0 2.16-7.72 54.06 54.06 0 0 0-.7-8.2 28.43 28.43 0 0 1-.46-3.4Z" class="animable" opacity="0" style="animation:1s 1 forwards cubic-bezier(.36,-0.01,.5,1.38) slideLeft;animation-delay:0.5306122448979591s" transform-origin="290.921px 251.235px"/>
    <path id="elld8861elix" fill="#263238" d="M293.48 247.39a6 6 0 0 1 .86 2 15 15 0 0 1-.9 10.43 6.14 6.14 0 0 1-1.19 1.84 18.34 18.34 0 0 0 1.23-14.29Z" class="animable" opacity="0" style="animation:1s 1 forwards cubic-bezier(.36,-0.01,.5,1.38) slideLeft;animation-delay:0.5408163265306122s" transform-origin="293.567px 254.515px"/>
    <path id="elj0vz2usjaj" fill="#263238" d="M322.21 250.49a7 7 0 0 1-2.15-.73 23.2 23.2 0 0 1-4.68-2.87 29 29 0 0 1-4-3.8 7.44 7.44 0 0 1-1.33-1.84c.13-.11 2.28 2.61 5.62 5.23a44.52 44.52 0 0 0 6.54 4.01Z" class="animable" opacity="0" style="animation:1s 1 forwards cubic-bezier(.36,-0.01,.5,1.38) slideLeft;animation-delay:0.5510204081632653s" transform-origin="316.13px 245.868px"/>
    <path id="el2v9dcbmtekp" fill="#263238" d="M399.88 275.83a17.05 17.05 0 0 0-2.68 4.51 16.87 16.87 0 0 0-.7 5.19 3.44 3.44 0 0 1-.33-1.56 9.86 9.86 0 0 1 .54-3.81 9.7 9.7 0 0 1 1.94-3.31c.67-.73 1.19-1.07 1.23-1.02Z" class="animable" opacity="0" style="animation:1s 1 forwards cubic-bezier(.36,-0.01,.5,1.38) slideLeft;animation-delay:0.5612244897959183s" transform-origin="398.017px 280.678px"/>
    <path id="elvjf2d38ypqa" fill="#FAFAFA" d="M365.25 248.46h15.28v4.23h-15.28z" class="animable" opacity="0" style="animation:1s 1 forwards cubic-bezier(.36,-0.01,.5,1.38) slideLeft;animation-delay:0.5714285714285714s" transform-origin="372.89px 250.575px"/>
    <path id="elnh794b5qj0m" fill="#263238" d="M379 250.8a62.22 62.22 0 0 1-11.58 0 64.6 64.6 0 0 1 11.58 0Z" class="animable" opacity="0" style="animation:1s 1 forwards cubic-bezier(.36,-0.01,.5,1.38) slideLeft;animation-delay:0.5816326530612245s" transform-origin="373.21px 250.805px"/>
    <path id="elxzft2u0xd6t" fill="#263238" d="M368.31 198.07a64.88 64.88 0 0 0 3-10.84 22.75 22.75 0 0 0-.75-11.12c-.19-.53-1.84-4.13-2.4-4.08s.59 3.38.38 3.73a19.38 19.38 0 0 0-2.35 11.24 51 51 0 0 0 2.12 11.08" class="animable" opacity="0" style="animation:1s 1 forwards cubic-bezier(.36,-0.01,.5,1.38) slideLeft;animation-delay:0.5918367346938775s" transform-origin="368.891px 185.055px"/>
    <path id="elilro6ngm3ci" fill="#B78876" d="M357.8 229.33a10.69 10.69 0 0 0 10.6-10.56l.45-35c.42-9.4-4.7-17.48-14.11-17.64h-.87a16.82 16.82 0 0 0-16.12 16.15c-.32 8.15-.57 17.16-.33 21.52.48 9 9.56 10.05 9.56 10.05v4.74a10.71 10.71 0 0 0 10.8 10.72Z" class="animable" opacity="0" style="animation:1s 1 forwards cubic-bezier(.36,-0.01,.5,1.38) slideLeft;animation-delay:0.6020408163265306s" transform-origin="353.099px 197.73px"/>
    <path id="elc90i9q4iepd" fill="#995037" d="M347 213.87a21.8 21.8 0 0 0 11.61-4s-2.55 6.9-11.58 6.46Z" class="animable" opacity="0" style="animation:1s 1 forwards cubic-bezier(.36,-0.01,.5,1.38) slideLeft;animation-delay:0.6122448979591836s" transform-origin="352.805px 213.11px"/>
    <path id="elg4zjrso7nul" fill="#263238" d="M340.64 189.13a1.3 1.3 0 0 0 1.3 1.25 1.24 1.24 0 0 0 1.28-1.22 1.3 1.3 0 0 0-1.3-1.25 1.24 1.24 0 0 0-1.28 1.22Z" class="animable" opacity="0" style="animation:1s 1 forwards cubic-bezier(.36,-0.01,.5,1.38) slideLeft;animation-delay:0.6224489795918366s" transform-origin="341.93px 189.145px"/>
    <path id="elr33yboyv0id" fill="#263238" d="M339.83 186.21c.17.16 1.12-.61 2.5-.66s2.44.6 2.58.42-.11-.37-.56-.68a3.57 3.57 0 0 0-2.07-.54 3.41 3.41 0 0 0-2 .73c-.4.34-.53.65-.45.73Z" class="animable" opacity="0" style="animation:1s 1 forwards cubic-bezier(.36,-0.01,.5,1.38) slideLeft;animation-delay:0.6326530612244897s" transform-origin="342.378px 185.489px"/>
    <path id="el4lpt5bp1dzr" fill="#263238" d="M353.4 189.13a1.29 1.29 0 0 0 1.29 1.25 1.23 1.23 0 0 0 1.28-1.22 1.29 1.29 0 0 0-1.29-1.25 1.23 1.23 0 0 0-1.28 1.22Z" class="animable" opacity="0" style="animation:1s 1 forwards cubic-bezier(.36,-0.01,.5,1.38) slideLeft;animation-delay:0.6428571428571428s" transform-origin="354.685px 189.145px"/>
    <path id="el1z8jikacdqo" fill="#263238" d="M353.44 186c.17.16 1.11-.61 2.5-.66s2.43.6 2.58.42-.11-.37-.57-.68a3.55 3.55 0 0 0-2.07-.54 3.44 3.44 0 0 0-2 .73c-.39.31-.52.62-.44.73Z" class="animable" opacity="0" style="animation:1s 1 forwards cubic-bezier(.36,-0.01,.5,1.38) slideLeft;animation-delay:0.6530612244897959s" transform-origin="355.99px 185.279px"/>
    <path id="elynnpph1xwrq" fill="#263238" d="M348.91 196.83a9 9 0 0 0-2.27-.32c-.36 0-.7-.08-.77-.32a1.81 1.81 0 0 1 .2-1.06c.29-.87.61-1.78.93-2.73 1.3-3.9 2.22-7.1 2.06-7.15a47.82 47.82 0 0 0-2.63 7c-.31 1-.61 1.88-.89 2.76a2 2 0 0 0-.13 1.39.91.91 0 0 0 .61.5 2.76 2.76 0 0 0 .6.06 10.31 10.31 0 0 0 2.29-.13Z" class="animable" opacity="0" style="animation:1s 1 forwards cubic-bezier(.36,-0.01,.5,1.38) slideLeft;animation-delay:0.6632653061224489s" transform-origin="347.21px 191.113px"/>
    <path id="elyl54gxsru1" fill="#263238" d="M353.35 180.78c.2.34 1.53-.08 3.17-.19s3 .1 3.16-.27c.07-.18-.22-.49-.81-.75a5.52 5.52 0 0 0-4.82.35c-.55.35-.79.69-.7.86Z" class="animable" opacity="0" style="animation:1s 1 forwards cubic-bezier(.36,-0.01,.5,1.38) slideLeft;animation-delay:0.673469387755102s" transform-origin="356.511px 180.043px"/>
    <path id="elbllgocg88w" fill="#263238" d="M340 183c.3.31 1.42 0 2.77-.1s2.52.14 2.77-.19c.12-.17-.07-.48-.58-.76a4.64 4.64 0 0 0-4.47.23c-.44.29-.59.62-.49.82Z" class="animable" opacity="0" style="animation:1s 1 forwards cubic-bezier(.36,-0.01,.5,1.38) slideLeft;animation-delay:0.6836734693877551s" transform-origin="342.773px 182.309px"/>
    <path id="el8rdzbymfpqm" fill="#B78876" d="M368.39 190.47c.15-.07 6.13-2.09 6.18 4.09s-6.15 5-6.16 4.78-.02-8.87-.02-8.87Z" class="animable" opacity="0" style="animation:1s 1 forwards cubic-bezier(.36,-0.01,.5,1.38) slideLeft;animation-delay:0.6938775510204082s" transform-origin="371.48px 194.837px"/>
    <path id="elg67cnctohqc" fill="#995037" d="M370.27 197s.11.08.29.16a1.11 1.11 0 0 0 .81 0 2.67 2.67 0 0 0 1.21-2.4 3.62 3.62 0 0 0-.32-1.54 1.25 1.25 0 0 0-.82-.82.55.55 0 0 0-.63.3c-.08.18 0 .3-.07.31s-.14-.1-.09-.36a.76.76 0 0 1 .24-.39.84.84 0 0 1 .59-.16 1.52 1.52 0 0 1 1.14.95 3.64 3.64 0 0 1 .39 1.72 2.81 2.81 0 0 1-1.55 2.68 1.11 1.11 0 0 1-1-.16c-.18-.16-.21-.29-.19-.29Z" class="animable" opacity="0" style="animation:1s 1 forwards cubic-bezier(.36,-0.01,.5,1.38) slideLeft;animation-delay:0.7040816326530611s" transform-origin="371.64px 194.8px"/>
    <path id="el0x32mctdzj5q" fill="#263238" d="M341.74 172.06c-1-.55 2-3.79 4.46-4.9 3.71-1.69 9.38-2.73 12.8-1.76 4.12 1.17 7.55 3.22 9.62 7a24.39 24.39 0 0 1 2.74 12.4 7.46 7.46 0 0 1-.87 3.77c-.86 1.37-2.52 2.23-2.45 4.12a2.57 2.57 0 0 1-.64 1.88c-1.13 1.2-2.51.08-3.15-1.06-1.36-2.42-1.51-5.3-1.63-8.08a18 18 0 0 1 .39-5.87c.3-1 .79-2 1-3.05a3.72 3.72 0 0 0-.44-3.08 3.86 3.86 0 0 0-.5-.51 6.44 6.44 0 0 0-6.39-1.21c-3.48 1.23-9.42 3.07-11 1.89a9.5 9.5 0 0 1-2.77-2.8Z" class="animable" opacity="0" style="animation:1s 1 forwards cubic-bezier(.36,-0.01,.5,1.38) slideLeft;animation-delay:0.7142857142857142s" transform-origin="356.464px 180.056px"/>
    <path id="elfzx2fu1ogdj" fill="#263238" d="M352.72 197.57c.08 0 .13.35 0 .88a3.41 3.41 0 0 1-1.11 1.82 5.73 5.73 0 0 1-1.8 1c-.5.18-.82.23-.86.15s.22-.28.65-.56a12.2 12.2 0 0 0 1.58-1.12c1.13-.91 1.34-2.21 1.54-2.17Z" class="animable" opacity="0" style="animation:1s 1 forwards cubic-bezier(.36,-0.01,.5,1.38) slideLeft;animation-delay:0.7244897959183673s" transform-origin="350.873px 199.513px"/>
    <path id="elguwmbyttcz" fill="#263238" d="M329.79 261.75h39.74v3.38h-39.74z" class="animable" opacity="0" style="animation:1s 1 forwards cubic-bezier(.36,-0.01,.5,1.38) slideLeft;animation-delay:0.7346938775510203s" transform-origin="349.66px 263.44px"/>
    <path id="el2ja38qk370b" fill="#455A64" d="M345.69 213.66h1a1.72 1.72 0 0 1 1.72 1.72V219H344v-3.65a1.72 1.72 0 0 1 1.69-1.69Z" class="animable" opacity="0" style="animation:1s 1 forwards cubic-bezier(.36,-0.01,.5,1.38) slideLeft;animation-delay:0.7448979591836734s" transform-origin="346.205px 216.33px"/>
    <path id="elhyjzib65p0c" fill="#455A64" d="M357.35 213.66h1.46a1.51 1.51 0 0 1 1.51 1.51V219h-4.48v-3.86a1.51 1.51 0 0 1 1.51-1.48Z" class="animable" opacity="0" style="animation:1s 1 forwards cubic-bezier(.36,-0.01,.5,1.38) slideLeft;animation-delay:0.7551020408163265s" transform-origin="358.08px 216.33px"/>
    <path id="elkherw2bqh2o" fill="#455A64" d="M362 241.23c0 2.19-4.06 4-9.08 4s-9.08-1.78-9.08-4 4.07-4 9.08-4 9.08 1.82 9.08 4Z" class="animable" opacity="0" style="animation:1s 1 forwards cubic-bezier(.36,-0.01,.5,1.38) slideLeft;animation-delay:0.7653061224489796s" transform-origin="352.92px 241.23px"/>
    <path id="el59s6kijzlxh" fill="#263238" d="M347.04 237.19h11.28v50.71h-11.28z" class="animable" opacity="0" style="animation:1s 1 forwards cubic-bezier(.36,-0.01,.5,1.38) slideLeft;animation-delay:0.7755102040816326s" transform-origin="352.68px 262.545px"/>
    <path id="elj8586bg12ds" fill="#455A64" d="m347.04 237.19-7.52-6.24-.24-10.25 26.36.08.09 10.2-7.41 6.21h-11.28z" class="animable" opacity="0" style="animation:1s 1 forwards cubic-bezier(.36,-0.01,.5,1.38) slideLeft;animation-delay:0.7857142857142857s" transform-origin="352.505px 228.945px"/>
    <path id="el7tz3hovfjfi" fill="#263238" d="M349.82 220.72h-7.22a1.85 1.85 0 0 1 1.86-1.85H348a1.85 1.85 0 0 1 1.86 1.85Z" class="animable" opacity="0" style="animation:1s 1 forwards cubic-bezier(.36,-0.01,.5,1.38) slideLeft;animation-delay:0.7959183673469387s" transform-origin="346.23px 219.795px"/>
    <path id="elf8ejdru0oew" fill="#263238" d="M361.87 220.76h-7.36a1.89 1.89 0 0 1 1.89-1.89h3.6a1.89 1.89 0 0 1 1.89 1.89Z" class="animable" opacity="0" style="animation:1s 1 forwards cubic-bezier(.36,-0.01,.5,1.38) slideLeft;animation-delay:0.8061224489795917s" transform-origin="358.2px 219.815px"/>
    <path id="elhtgq2qo4gp" fill="#263238" d="M365.53 225.07c0 .15-5.85.26-13 .26s-13.06-.11-13.06-.26 5.84-.26 13.06-.26 13 .12 13 .26Z" class="animable" opacity="0" style="animation:1s 1 forwards cubic-bezier(.36,-0.01,.5,1.38) slideLeft;animation-delay:0.8163265306122448s" transform-origin="352.5px 225.07px"/>
    <path id="el60732c9gnzh" fill="#263238" d="M365.73 231c0 .14-5.85.26-13.07.26s-13.07-.12-13.07-.26 5.85-.26 13.07-.26 13.07.09 13.07.26Z" class="animable" opacity="0" style="animation:1s 1 forwards cubic-bezier(.36,-0.01,.5,1.38) slideLeft;animation-delay:0.8265306122448979s" transform-origin="352.66px 231px"/>
    <path id="elawmucf4i7e" fill="#263238" d="M338.01 269.57h5.35v12.42h-5.35z" class="animable" opacity="0" style="animation:1s 1 forwards cubic-bezier(.36,-0.01,.5,1.38) slideLeft;animation-delay:0.836734693877551s" transform-origin="340.685px 275.78px"/>
    <path id="el099dtetbaois" fill="#455A64" d="M343.36 271.13h3.68v9.47h-3.68z" class="animable" opacity="0" style="animation:1s 1 forwards cubic-bezier(.36,-0.01,.5,1.38) slideLeft;animation-delay:0.846938775510204s" transform-origin="345.2px 275.865px"/>
    <path id="elg9hyhndtljg" fill="#455A64" d="M332.95 272.79h5.06v6.5h-5.06z" class="animable" opacity="0" style="animation:1s 1 forwards cubic-bezier(.36,-0.01,.5,1.38) slideLeft;animation-delay:0.8571428571428571s" transform-origin="335.48px 276.04px"/>
    <path id="eldfduhwvid2j" fill="#263238" d="M373.54 298.39h-40.59v-7.1l14.09-3.39h11.28l15.22 3.39v7.1z" class="animable" opacity="0" style="animation:1s 1 forwards cubic-bezier(.36,-0.01,.5,1.38) slideLeft;animation-delay:0.8979591836734693s" transform-origin="353.245px 293.145px"/>
    <path id="elg2o95lw1iz6" fill="#455A64" d="M332.95 298.39h40.59v3.46h-40.59z" class="animable" opacity="0" style="animation:1s 1 forwards cubic-bezier(.36,-0.01,.5,1.38) slideLeft;animation-delay:0.9081632653061223s" transform-origin="353.245px 300.12px"/>
    <path id="el7ii9ml4rz1p" fill="#455A64" d="m372.4 287.9 4.21-3.19 4.28.16 7.51 3 5.46-1s1.61 5.46 2.37 7.93c.9 2.92 1.76 5.89 1.76 5.89l-12.87 4.93-7.86.74s-5.36-1-5.66-1.87a2.33 2.33 0 0 1 .25-1.74 1.94 1.94 0 0 1-1-2c.24-1.3.73-1.91 1-2s2.25-.21 2.25-.21l-3.52-.83s-1.71-.51-1.38-1.93.81-1.42 1.34-1.59 2.7-.44 2.7-.44l-2.89-.17a1.39 1.39 0 0 1-1.28-2.18l.18-.19c1.08-1 5.32-2.45 5.32-2.45-1.45.29-2.26.02-2.17-.86Z" class="animable" opacity="0" style="animation:1s 1 forwards cubic-bezier(.36,-0.01,.5,1.38) slideLeft;animation-delay:0.9183673469387754s" transform-origin="383.404px 295.535px"/>
    <path id="el32w95x4bvg8" fill="#263238" d="M379.63 287.65c0 .15-2.32.55-5.07 1.5s-4.84 2.06-4.92 1.93a19.06 19.06 0 0 1 10-3.43Z" class="animable" opacity="0" style="animation:1s 1 forwards cubic-bezier(.36,-0.01,.5,1.38) slideLeft;animation-delay:0.9285714285714285s" transform-origin="374.64px 289.37px"/>
    <path id="elzvm2k8p4p1j" fill="#263238" d="M376.7 293.72c0 .14-.84.3-1.9.34s-1.91 0-1.92-.17.84-.3 1.9-.35 1.92.03 1.92.18Z" class="animable" opacity="0" style="animation:1s 1 forwards cubic-bezier(.36,-0.01,.5,1.38) slideLeft;animation-delay:0.9387755102040816s" transform-origin="374.79px 293.8px"/>
    <path id="elxcb8jba7frs" fill="#263238" d="M379 299.05a9.6 9.6 0 0 1-4.7.19 9 9 0 0 1-4.4-1.69c.07-.14 2 .79 4.48 1.17s4.62.17 4.62.33Z" class="animable" opacity="0" style="animation:1s 1 forwards cubic-bezier(.36,-0.01,.5,1.38) slideLeft;animation-delay:0.9489795918367346s" transform-origin="374.45px 298.49px"/>
    <path id="elal5rf7cruz" fill="#263238" d="M372.63 298.61s-.15 0-.41.09a1.26 1.26 0 0 0-.91.46 2.13 2.13 0 0 0 0 1.56 7.08 7.08 0 0 0 .79 1.95l-.1-.09a10.72 10.72 0 0 0 1.19.53 11.57 11.57 0 0 0 4.66.79 16.76 16.76 0 0 1 2-.11 5.12 5.12 0 0 1-2 .48 10.42 10.42 0 0 1-4.87-.67 10.67 10.67 0 0 1-1.23-.56h-.07v-.05a6.84 6.84 0 0 1-.79-2.14A2.29 2.29 0 0 1 371 299a1.37 1.37 0 0 1 1.17-.44c.32-.03.46.02.46.05Z" class="animable" opacity="0" style="animation:1s 1 forwards cubic-bezier(.36,-0.01,.5,1.38) slideLeft;animation-delay:0.9591836734693877s" transform-origin="375.298px 301.437px"/>
    <path id="elzvenyfpo57a" fill="#263238" d="M381.62 302.53c-.11-.1.36-.67.28-1.46s-.61-1.27-.53-1.39.24 0 .49.21a1.7 1.7 0 0 1 .56 1.14 1.74 1.74 0 0 1-.35 1.22c-.21.25-.41.33-.45.28Z" class="animable" opacity="0" style="animation:1s 1 forwards cubic-bezier(.36,-0.01,.5,1.38) slideLeft;animation-delay:0.9693877551020408s" transform-origin="381.895px 301.088px"/>
    <path id="el7fbxgschaza" fill="#263238" d="M380.83 296.92c-.14 0 0-.89-.27-1.86s-.91-1.58-.82-1.7 1 .39 1.32 1.54-.06 2.1-.23 2.02Z" class="animable" opacity="0" style="animation:1s 1 forwards cubic-bezier(.36,-0.01,.5,1.38) slideLeft;animation-delay:0.9795918367346939s" transform-origin="380.458px 295.134px"/>
    <path id="elk64qgl53z49" fill="#263238" d="M381.1 291.88c-.09-.1.24-.57.14-1.15s-.58-.9-.52-1 .2-.08.44.06a1.3 1.3 0 0 1 .59.88 1.31 1.31 0 0 1-.25 1c-.18.21-.35.26-.4.21Z" class="animable" opacity="0" style="animation:1s 1 forwards cubic-bezier(.36,-0.01,.5,1.38) slideLeft;animation-delay:0.9897959183673468s" transform-origin="381.241px 290.783px"/>
  </g>
  <g id="freepik--character-1--inject-80" class="animable" style="animation:1s 1 forwards cubic-bezier(.36,-0.01,.5,1.38) slideRight;animation-delay:0s">
    <path id="el7kufjbtumih" fill="#FFBE9D" d="m95.32 122.78-.16 50.94 21.86 1 .63-12.39s7.76 1.55 9.76-5.66c1.28-4.61 1-40.19 1-40.19Z" class="animable" style="animation:1s 1 forwards cubic-bezier(.36,-0.01,.5,1.38) slideRight;animation-delay:0s" transform-origin="111.798px 145.6px"/>
    <path id="elti2s5hdzi3" fill="#263238" d="M131.25 120.1c-3.45 1-4.19 6.61-4.19 6.61l-5.4 11.93c-2.75-2.16-6.45-2-7.14 2.8-.51 3.49 3.83 4.2 3.83 4.2-2.53 4.3-4.24 7.78-7.92 11.87-4 4.43-6.22 4.88-10.54 5h-4.76s-2.33-7.57-6.65-26.5c-4.79-21 20-18.3 24.65-23.66 7.5-8.78 28.97 4.65 18.12 7.75Z" class="animable" opacity="0" style="animation:1s 1 forwards cubic-bezier(.36,-0.01,.5,1.38) slideRight;animation-delay:0.02127659574468085s" transform-origin="111.061px 135.963px"/>
    <path id="elr37hx1yapn9" fill="#263238" d="M88.93 137.94c-4-2.7-4.38-10.27-2-14.81a14.61 14.61 0 0 1 12.4-7.71 6 6 0 0 0 2-.22 5.59 5.59 0 0 0 2.17-2.07c3.6-4.68 7.14-9.27 13.84-9.27a7.61 7.61 0 0 1 4.22 1 6.65 6.65 0 0 1 2.53 3.35 14.27 14.27 0 0 1 3.92-1.41 4.85 4.85 0 0 1 3.94 1 3 3 0 0 1 .61 3.77 4.75 4.75 0 0 1 4.76 4c.36 2.24-2.85 3.81-3.18 4 0 0 1.76 3.68-2.44 5.89-1.68.89-3.88-.18-4.13-.31" class="animable" opacity="0" style="animation:1s 1 forwards cubic-bezier(.36,-0.01,.5,1.38) slideRight;animation-delay:0.0425531914893617s" transform-origin="111.401px 120.894px"/>
    <path id="elepa8yrjrxk6" fill="#455A64" d="M104.89 142.84a10.32 10.32 0 0 1-1.67 7.41c-.15-.07.55-1.63 1-3.67s.51-3.74.67-3.74Z" class="animable" opacity="0" style="animation:1s 1 forwards cubic-bezier(.36,-0.01,.5,1.38) slideRight;animation-delay:0.06382978723404255s" transform-origin="104.107px 146.545px"/>
    <path id="elocfwiuxkbc" fill="#455A64" d="M107.53 140.34a9.23 9.23 0 0 1-.2 3.72 9.36 9.36 0 0 1-1.15 3.55 20.41 20.41 0 0 1 .6-3.65 20 20 0 0 1 .75-3.62Z" class="animable" opacity="0" style="animation:1s 1 forwards cubic-bezier(.36,-0.01,.5,1.38) slideRight;animation-delay:0.0851063829787234s" transform-origin="106.906px 143.975px"/>
    <path id="elnvpgjjr2c3m" fill="#455A64" d="M115.1 131.93c.05.07-.56.53-1.35 1.45a14 14 0 0 0-2.36 4.06 34.35 34.35 0 0 0-1.3 4.58 8 8 0 0 1-.54 1.93 6.72 6.72 0 0 1 .15-2 22.5 22.5 0 0 1 1.18-4.71 11.83 11.83 0 0 1 2.58-4.13 4.25 4.25 0 0 1 1.64-1.18Z" class="animable" opacity="0" style="animation:1s 1 forwards cubic-bezier(.36,-0.01,.5,1.38) slideRight;animation-delay:0.10638297872340426s" transform-origin="112.317px 137.94px"/>
    <path id="elxowxqhwuuyq" fill="#455A64" d="M118.16 126.21c.07 0 .29.49.43 1.38a9.25 9.25 0 0 1-.19 3.47 9 9 0 0 1-1.48 3.16c-.54.72-1 1.06-1 1a19.5 19.5 0 0 0 2-4.31 19 19 0 0 0 .24-4.7Z" class="animable" opacity="0" style="animation:1s 1 forwards cubic-bezier(.36,-0.01,.5,1.38) slideRight;animation-delay:0.1276595744680851s" transform-origin="117.297px 130.718px"/>
    <path id="elr9bizn0743" fill="#455A64" d="M92.08 138.93c-.07.13-.74-.1-1.49-.52s-1.3-.87-1.23-1 .74.1 1.5.52 1.29.87 1.22 1Z" class="animable" opacity="0" style="animation:1s 1 forwards cubic-bezier(.36,-0.01,.5,1.38) slideRight;animation-delay:0.14893617021276595s" transform-origin="90.7201px 138.17px"/>
    <path id="elx403k39w2km" fill="#455A64" d="M102.64 133.49a3.13 3.13 0 0 1-.63 2.22c-.67 1.12-1.58 1.7-1.67 1.58s.59-.84 1.2-1.87.94-1.96 1.1-1.93Z" class="animable" opacity="0" style="animation:1s 1 forwards cubic-bezier(.36,-0.01,.5,1.38) slideRight;animation-delay:0.1702127659574468s" transform-origin="101.494px 135.397px"/>
    <path id="elcky1dggsnld" fill="#455A64" d="M105.88 131.75a4.27 4.27 0 0 1-1 2.65c-.87 1.33-2 2-2.06 1.92a23.84 23.84 0 0 1 1.6-2.23 22.85 22.85 0 0 1 1.46-2.34Z" class="animable" opacity="0" style="animation:1s 1 forwards cubic-bezier(.36,-0.01,.5,1.38) slideRight;animation-delay:0.19148936170212766s" transform-origin="104.35px 134.038px"/>
    <path id="elvqvdmsv7das" fill="#455A64" d="M122 110.42s-.41-.32-1.2-.76a8 8 0 0 0-3.66-1 9.82 9.82 0 0 0-5.37 1.44 13.35 13.35 0 0 0-4.58 5.1 23 23 0 0 0-1.85 4.78l-.09.32-.29-.16a11.08 11.08 0 0 0-4.88-1.25 11.81 11.81 0 0 0-4 .6 17.46 17.46 0 0 0-3.24 1.62 3.71 3.71 0 0 1 .73-.64 10.17 10.17 0 0 1 2.4-1.29 11.41 11.41 0 0 1 4.09-.74 11.2 11.2 0 0 1 5.12 1.23l-.39.17a22.42 22.42 0 0 1 1.89-4.9 13.39 13.39 0 0 1 4.8-5.27 10 10 0 0 1 5.65-1.4 7.75 7.75 0 0 1 3.75 1.15 5.63 5.63 0 0 1 .84.67c.28.22.28.31.28.33Z" class="animable" opacity="0" style="animation:1s 1 forwards cubic-bezier(.36,-0.01,.5,1.38) slideRight;animation-delay:0.2127659574468085s" transform-origin="107.42px 114.683px"/>
    <path id="elgjjuhsv98yj" fill="#455A64" d="M133.51 113.19s.61-.17 1.26.57a2.19 2.19 0 0 1 .5 1.59 2.5 2.5 0 0 1-1.27 1.82 3.62 3.62 0 0 1-2.66.36 7.61 7.61 0 0 1-2.73-1.33 28.69 28.69 0 0 0-2.68-1.83 11.17 11.17 0 0 0-3.23-1.14 13.73 13.73 0 0 0-6.59.45 18.15 18.15 0 0 0-4.87 2.48 50 50 0 0 0-3.89 3.29 6.09 6.09 0 0 1 .87-1.08 20.44 20.44 0 0 1 2.79-2.53 17.44 17.44 0 0 1 4.99-2.64 13.91 13.91 0 0 1 6.85-.51 11.58 11.58 0 0 1 3.39 1.2 26.19 26.19 0 0 1 2.71 1.9 7.32 7.32 0 0 0 2.55 1.29 3.21 3.21 0 0 0 2.35-.25 2.15 2.15 0 0 0 1.16-1.52 2 2 0 0 0-.36-1.42 1.88 1.88 0 0 0-1.14-.7Z" class="animable" opacity="0" style="animation:1s 1 forwards cubic-bezier(.36,-0.01,.5,1.38) slideRight;animation-delay:0.23404255319148937s" transform-origin="121.314px 115.964px"/>
    <path id="elwc0okghmz1m" fill="#528C43" d="m88.89 449.05-1.3 30.69-16.57-.37 1.24-30.75 16.63.43z" class="animable" opacity="0" style="animation:1s 1 forwards cubic-bezier(.36,-0.01,.5,1.38) slideRight;animation-delay:0.2553191489361702s" transform-origin="79.955px 464.18px"/>
    <path id="el0ywcj2ryzsx" fill="#263238" d="M79.46 478.4c-.14 0 .12-6.73.57-15s.94-15 1.08-15-.12 6.72-.58 15-.94 15-1.07 15Z" class="animable" opacity="0" style="animation:1s 1 forwards cubic-bezier(.36,-0.01,.5,1.38) slideRight;animation-delay:0.2765957446808511s" transform-origin="80.285px 463.4px"/>
    <path id="elirodxqa4j5" fill="#263238" d="m87.68 477.62-16.57-.43-.09 2.18 16.57.37.09-2.12z" class="animable" opacity="0" style="animation:1s 1 forwards cubic-bezier(.36,-0.01,.5,1.38) slideRight;animation-delay:0.2978723404255319s" transform-origin="79.35px 478.465px"/>
    <path id="eln7lj1plshej" fill="#263238" d="M71.42 469.54a2.37 2.37 0 0 1 .45-.65 11.88 11.88 0 0 1 1.55-1.51 11.14 11.14 0 0 1 2.76-1.67 8.83 8.83 0 0 1 10.22 2.39 7.33 7.33 0 0 1 1.13 1.9 2.12 2.12 0 0 1 .23.76 17.24 17.24 0 0 0-1.62-2.39 8.84 8.84 0 0 0-6.09-2.83 10.15 10.15 0 0 0-6.41 2.16c-1.44 1.02-2.15 1.9-2.22 1.84Z" class="animable" opacity="0" style="animation:1s 1 forwards cubic-bezier(.36,-0.01,.5,1.38) slideRight;animation-delay:0.3191489361702128s" transform-origin="79.59px 467.875px"/>
    <path id="elevylsaz7k0f" fill="#528C43" d="m152.4 451.45-.71 18.42s18.4 6.53 18.6 9.94l-35.68.3-.07-28.75Z" class="animable" opacity="0" style="animation:1s 1 forwards cubic-bezier(.36,-0.01,.5,1.38) slideRight;animation-delay:0.36170212765957444s" transform-origin="152.415px 465.735px"/>
    <path id="eltyx4et5yee" fill="#E0E0E0" d="M140.88 468.36a1.48 1.48 0 0 0-1 1.68 1.43 1.43 0 0 0 1.66 1 1.55 1.55 0 0 0 1.07-1.78 1.46 1.46 0 0 0-1.84-.88" class="animable" opacity="0" style="animation:1s 1 forwards cubic-bezier(.36,-0.01,.5,1.38) slideRight;animation-delay:0.3829787234042553s" transform-origin="141.247px 469.686px"/>
    <path id="elybcyf11z6l" fill="#263238" d="M134.61 480.11v-2.29l34.63.41a2.71 2.71 0 0 1 1.23 1.77Z" class="animable" opacity="0" style="animation:1s 1 forwards cubic-bezier(.36,-0.01,.5,1.38) slideRight;animation-delay:0.40425531914893614s" transform-origin="152.54px 478.965px"/>
    <path id="elaf5w2jxeqa" fill="#263238" d="M152 470c0 .18-.89.25-1.75.82s-1.33 1.3-1.5 1.23.11-1.09 1.17-1.75 2.14-.47 2.08-.3Z" class="animable" opacity="0" style="animation:1s 1 forwards cubic-bezier(.36,-0.01,.5,1.38) slideRight;animation-delay:0.425531914893617s" transform-origin="150.353px 470.946px"/>
    <path id="el92nkvo7kupu" fill="#263238" d="M155.79 471.56c0 .17-.72.47-1.32 1.21s-.77 1.53-.95 1.52-.28-1 .48-1.91 1.79-.98 1.79-.82Z" class="animable" opacity="0" style="animation:1s 1 forwards cubic-bezier(.36,-0.01,.5,1.38) slideRight;animation-delay:0.44680851063829785s" transform-origin="154.591px 472.891px"/>
    <path id="el6qi3i32k0ah" fill="#263238" d="M157.93 476.09c-.16 0-.4-.84 0-1.8s1.28-1.35 1.35-1.2-.43.66-.8 1.46-.38 1.52-.55 1.54Z" class="animable" opacity="0" style="animation:1s 1 forwards cubic-bezier(.36,-0.01,.5,1.38) slideRight;animation-delay:0.46808510638297873s" transform-origin="158.499px 474.574px"/>
    <path id="el1sonmnyvjig" fill="#263238" d="M151.71 465.74c-.07.16-.88-.08-1.87 0s-1.77.37-1.86.22.65-.78 1.82-.84 2 .49 1.91.62Z" class="animable" opacity="0" style="animation:1s 1 forwards cubic-bezier(.36,-0.01,.5,1.38) slideRight;animation-delay:0.48936170212765956s" transform-origin="149.845px 465.559px"/>
    <path id="elnowr8c0c1w" fill="#263238" d="M152.36 461.78a3.35 3.35 0 0 1-1.8 0 8.14 8.14 0 0 1-1.89-.58 8.59 8.59 0 0 1-1-.55 2.44 2.44 0 0 1-.55-.43.77.77 0 0 1-.07-.94 1 1 0 0 1 .77-.4 2.56 2.56 0 0 1 .67.1 6.25 6.25 0 0 1 1.13.39 6.54 6.54 0 0 1 1.66 1.09c.83.78 1.11 1.44 1.05 1.47s-.48-.49-1.33-1.13a6.89 6.89 0 0 0-1.61-.91 7.76 7.76 0 0 0-1-.33c-.38-.1-.71-.1-.81.07s0 .09 0 .2a1.74 1.74 0 0 0 .4.31 10.5 10.5 0 0 0 .95.55 9.78 9.78 0 0 0 1.75.67 10.71 10.71 0 0 1 1.68.42Z" class="animable" opacity="0" style="animation:1s 1 forwards cubic-bezier(.36,-0.01,.5,1.38) slideRight;animation-delay:0.5106382978723404s" transform-origin="149.641px 460.406px"/>
    <path id="elkzys5sv7hkr" fill="#263238" d="m144.78 289.31 5.59 81.26s4.33 32.7 4.33 43-1.47 49.78-1.47 49.78h-20.07l-20.48-140.48s-2.06-1.76-2.35 0-12 52.06-13.09 60.12c-.89 6.42-8.41 78.68-8.41 78.68l-17.35-.74s-1.63-65.09-.45-86L74.12 303l4.21-20.39 56.73-2.12Z" class="animable" opacity="0" style="animation:1s 1 forwards cubic-bezier(.36,-0.01,.5,1.38) slideRight;animation-delay:0.5531914893617021s" transform-origin="112.651px 371.92px"/>
    <path id="el9w79erqnnz" fill="#455A64" d="M90.77 317.79c0 .19 7.5 1.46 16.82 2.85s16.89 2.36 16.92 2.18-7.5-1.47-16.82-2.86-16.89-2.36-16.92-2.17Z" class="animable" opacity="0" style="animation:1s 1 forwards cubic-bezier(.36,-0.01,.5,1.38) slideRight;animation-delay:0.5744680851063829s" transform-origin="107.64px 320.304px"/>
    <path id="elo1cy7s2zc" fill="#455A64" d="M131.5 378.14c-.1.18 3.33 2.07 7.33 4.75s7.06 5.11 7.19 5-2.77-2.84-6.81-5.53-7.64-4.36-7.71-4.22Z" class="animable" opacity="0" style="animation:1s 1 forwards cubic-bezier(.36,-0.01,.5,1.38) slideRight;animation-delay:0.5957446808510638s" transform-origin="138.761px 383.013px"/>
    <path id="elh5jytaopgi" fill="#455A64" d="M75.1 377.53c0 .21 3.45-.58 7.64.05s7.25 2.29 7.35 2.09-2.91-2.17-7.26-2.77-7.83.48-7.73.63Z" class="animable" opacity="0" style="animation:1s 1 forwards cubic-bezier(.36,-0.01,.5,1.38) slideRight;animation-delay:0.6170212765957447s" transform-origin="82.5952px 378.203px"/>
    <path id="elwyuavv3056" fill="#455A64" d="M44.29 292.91c-.2.61-1.42 3.34-1.42 3.34l-4.5 11.19v15.43a2.13 2.13 0 0 0 3-1.68 49.64 49.64 0 0 0 .52-7.32l7.54 9.13s2.32-1.83.77-4l3.09 1.54a5 5 0 0 0 .77-3.73c-.51-1.92-5.91-7.32-5.91-7.32l9.12-.65s1.55-1.28 0-2.18-7.07-2.19-7.07-2.19a6.86 6.86 0 0 0 4.37-3.6 12 12 0 0 0 .9-6.29Z" class="animable" opacity="0" style="animation:1s 1 forwards cubic-bezier(.36,-0.01,.5,1.38) slideRight;animation-delay:0.6382978723404256s" transform-origin="48.1644px 307.986px"/>
    <path id="eln3dgaap4d" fill="#E0E0E0" d="M193.39 181.68c-2.81-1.88-3.06.76-3.06.76l-16.13 6.83-6.79-3.08s-22.75-10.77-24.11-11.44a4 4 0 0 0-1.87-.28l-18.54-2.81h.47l-5-5.51-18.54-.24-6 .24-2.82 5.51h-1l-21.08 11a26.09 26.09 0 0 0-3.51 1.83 5.93 5.93 0 0 0-.5.37c-2.61 2.24-21.68 62.44-22.05 63.56s-2.62 38.88-2.62 38.88l1.84 7.11a30.06 30.06 0 0 0 14.75.82l2.12-8 3-15.26 4.1-23.97 6.08-20.12.25-1.52c1.57 11 3.49 23.77 3.49 23.77l.07 6.35s-9.3 39.87-9.06 70c.2 24.64-.24 46.18-.24 46.18l90.8-1.21a3.8 3.8 0 0 1 3-4l3.34-.91-23.05-116.69 3.87-46.52.19 1.08s23.43 6.17 27.45 6.44 11.76-1.34 11.76-1.34l17.29-18.14s-5.08-7.82-7.9-9.69Z" class="animable" opacity="0" style="animation:1s 1 forwards cubic-bezier(.36,-0.01,.5,1.38) slideRight;animation-delay:0.6595744680851063s" transform-origin="120.765px 269.285px"/>
    <path id="eli9a0ivllsk9" fill="#263238" d="M127.9 252.89c0 .14-9.64.8-21.54 1.47s-21.57 1.1-21.58.95 9.64-.8 21.55-1.47 21.56-1.1 21.57-.95Z" class="animable" opacity="0" style="animation:1s 1 forwards cubic-bezier(.36,-0.01,.5,1.38) slideRight;animation-delay:0.6808510638297872s" transform-origin="106.34px 254.1px"/>
    <path id="ellaizztd2seq" fill="#263238" d="M96.28 238.37a18.56 18.56 0 0 1 .82 2.42 44.11 44.11 0 0 0 5.3 11 18.92 18.92 0 0 1 1.38 2.14 9.51 9.51 0 0 1-1.68-1.93 32 32 0 0 1-3.2-5.28 33.13 33.13 0 0 1-2.16-5.8 9.57 9.57 0 0 1-.46-2.55Z" class="animable" opacity="0" style="animation:1s 1 forwards cubic-bezier(.36,-0.01,.5,1.38) slideRight;animation-delay:0.7021276595744681s" transform-origin="100.03px 246.15px"/>
    <path id="elp2t9so4zu0f" fill="#263238" d="M103.44 226.73c.15 0 .56 6.21.92 13.9s.53 13.91.39 13.92-.55-6.22-.91-13.9-.54-13.92-.4-13.92Z" class="animable" opacity="0" style="animation:1s 1 forwards cubic-bezier(.36,-0.01,.5,1.38) slideRight;animation-delay:0.7234042553191489s" transform-origin="104.096px 240.64px"/>
    <path id="el8my2c60mqm5" fill="#263238" d="M117.83 234.07a12.72 12.72 0 0 1 0 2.86 54.22 54.22 0 0 1-2.9 13.45 12.69 12.69 0 0 1-1.12 2.62 20.85 20.85 0 0 1 .77-2.74c.51-1.68 1.16-4 1.72-6.63s.93-5 1.16-6.74a21.45 21.45 0 0 1 .37-2.82Z" class="animable" opacity="0" style="animation:1s 1 forwards cubic-bezier(.36,-0.01,.5,1.38) slideRight;animation-delay:0.7446808510638298s" transform-origin="115.86px 243.535px"/>
    <path id="eli409vc6joq7" fill="#263238" d="M186.28 201.45a9.5 9.5 0 0 1-.89 4.84 9.4 9.4 0 0 1-2.82 4 44.41 44.41 0 0 0 2.34-4.24 46 46 0 0 0 1.37-4.6Z" class="animable" opacity="0" style="animation:1s 1 forwards cubic-bezier(.36,-0.01,.5,1.38) slideRight;animation-delay:0.7659574468085106s" transform-origin="184.44px 205.87px"/>
    <path id="eli17rtpt5ro" fill="#263238" d="M143.3 174.75c.06-.13 8.58 3.79 19 8.75s18.87 9.09 18.81 9.22-8.58-3.79-19-8.75-18.88-9.09-18.81-9.22Z" class="animable" opacity="0" style="animation:1s 1 forwards cubic-bezier(.36,-0.01,.5,1.38) slideRight;animation-delay:0.7872340425531915s" transform-origin="162.205px 183.735px"/>
    <path id="el39qy4uvnu5b" fill="#263238" d="M145.42 181.39a3.4 3.4 0 0 1 0 .7c0 .46 0 1.13-.06 2-.08 1.74-.21 4.25-.4 7.34-.38 6.2-1 14.76-1.64 24.21s-1.32 18-1.78 24.19c-.24 3-.43 5.54-.57 7.33-.06.83-.12 1.49-.16 2a3.23 3.23 0 0 1-.09.69 3.4 3.4 0 0 1 0-.7c0-.46 0-1.13.06-2 .08-1.73.21-4.24.4-7.34.38-6.2 1-14.76 1.64-24.21s1.32-17.95 1.78-24.19c.24-3 .43-5.54.57-7.33.06-.82.12-1.49.16-2a3.27 3.27 0 0 1 .09-.69Z" class="animable" opacity="0" style="animation:1s 1 forwards cubic-bezier(.36,-0.01,.5,1.38) slideRight;animation-delay:0.8085106382978723s" transform-origin="143.07px 215.62px"/>
    <path id="el8v57u1xcj7d" fill="#263238" d="M76.54 253.9a3.77 3.77 0 0 1-.14-.61c-.08-.46-.18-1-.31-1.78-.26-1.61-.62-3.83-1-6.54-.85-5.59-2-13.21-3.27-21.62s-2.31-16-3.12-21.65c-.37-2.72-.67-4.95-.89-6.57-.09-.73-.16-1.32-.21-1.78a2.31 2.31 0 0 1 0-.63 3 3 0 0 1 .14.61c.08.46.19 1 .31 1.78.26 1.61.62 3.83 1.05 6.54.85 5.59 2 13.21 3.27 21.63s2.32 16 3.12 21.64c.37 2.72.67 5 .89 6.56.09.74.16 1.33.21 1.79a2.31 2.31 0 0 1-.05.63Z" class="animable" opacity="0" style="animation:1s 1 forwards cubic-bezier(.36,-0.01,.5,1.38) slideRight;animation-delay:0.8297872340425532s" transform-origin="72.0862px 223.31px"/>
    <path id="eljetw0yquuq" fill="#263238" d="M60.94 255.28a42.2 42.2 0 0 1-1.94-6.41 42.85 42.85 0 0 1-1.45-6.54 43.59 43.59 0 0 1 2 6.41 44.35 44.35 0 0 1 1.39 6.54Z" class="animable" opacity="0" style="animation:1s 1 forwards cubic-bezier(.36,-0.01,.5,1.38) slideRight;animation-delay:0.851063829787234s" transform-origin="59.245px 248.805px"/>
    <path id="elgf7b4o0xwn" fill="#263238" d="M126.87 172.16c0 .15-8.54.26-19.08.26s-19.09-.11-19.09-.26 8.55-.26 19.09-.26 19.08.1 19.08.26Z" class="animable" opacity="0" style="animation:1s 1 forwards cubic-bezier(.36,-0.01,.5,1.38) slideRight;animation-delay:0.8723404255319148s" transform-origin="107.785px 172.16px"/>
    <path id="elg4b5rjup3nr" fill="#263238" d="M102.21 289.33c-.15 0 .47-7.06 1.37-15.74s1.74-15.71 1.88-15.69-.47 7.06-1.37 15.74-1.74 15.71-1.88 15.69Z" class="animable" opacity="0" style="animation:1s 1 forwards cubic-bezier(.36,-0.01,.5,1.38) slideRight;animation-delay:0.8936170212765957s" transform-origin="103.834px 273.615px"/>
    <path id="elgco1k7z12sw" fill="#263238" d="M116 319.07a2.27 2.27 0 0 1-.22-.55l-.53-1.61c-.46-1.4-1-3.45-1.72-6a146.43 146.43 0 0 1-4.58-40.84c.09-2.63.21-4.76.35-6.23.06-.69.11-1.25.16-1.69a2.33 2.33 0 0 1 .09-.59 3.46 3.46 0 0 1 0 .6c0 .44 0 1-.06 1.69-.08 1.47-.14 3.6-.18 6.23a166.37 166.37 0 0 0 1 20.52 169.09 169.09 0 0 0 3.58 20.22c.62 2.55 1.16 4.62 1.56 6 .18.67.32 1.21.43 1.64a2.17 2.17 0 0 1 .12.61Z" class="animable" opacity="0" style="animation:1s 1 forwards cubic-bezier(.36,-0.01,.5,1.38) slideRight;animation-delay:0.9148936170212766s" transform-origin="112.444px 290.315px"/>
    <path id="elr5mddfptdjb" fill="#263238" d="M210.14 160.25h1.37v50.81h-1.37z" class="animable" opacity="0" style="animation:1s 1 forwards cubic-bezier(.36,-0.01,.5,1.38) slideRight;animation-delay:0.9361702127659575s" transform-origin="210.825px 185.655px"/>
    <path id="elky4n5ou4dbo" fill="#263238" d="M213.37 211.36a2.54 2.54 0 1 1-2.54-2.54 2.54 2.54 0 0 1 2.54 2.54Z" class="animable" opacity="0" style="animation:1s 1 forwards cubic-bezier(.36,-0.01,.5,1.38) slideRight;animation-delay:0.9574468085106382s" transform-origin="210.83px 211.36px"/>
    <path id="elkxet8f2voi" fill="#455A64" d="m193.39 181.68 10.88-10.89 7.16.26 1.16 2.65s2.35 3 2.1 3.62a3.94 3.94 0 0 0-.28 1.21s1.44 2.42 1.14 3.18a8.75 8.75 0 0 0-.41 1.79l-1.23 1.69s-1.84.78-2.24 0 .42-1.79.42-1.79-4.2 2.79-5.19 3.5-3.3 3.48-4.68 2.33l-1.61 1.1Z" class="animable" opacity="0" style="animation:1s 1 forwards cubic-bezier(.36,-0.01,.5,1.38) slideRight;animation-delay:0.9787234042553191s" transform-origin="204.491px 180.56px"/>
  </g>
  <defs>
    <filter id="active" height="200%">
      <feMorphology in="SourceAlpha" operator="dilate" radius="2" result="DILATED"/>
      <feFlood flood-color="#32DFEC" flood-opacity="1" result="PINK"/>
      <feComposite in="PINK" in2="DILATED" operator="in" result="OUTLINE"/>
      <feMerge>
        <feMergeNode in="OUTLINE"/>
        <feMergeNode in="SourceGraphic"/>
      </feMerge>
    </filter>
    <filter id="hover" height="200%">
      <feMorphology in="SourceAlpha" operator="dilate" radius="2" result="DILATED"/>
      <feFlood flood-color="red" flood-opacity=".5" result="PINK"/>
      <feComposite in="PINK" in2="DILATED" operator="in" result="OUTLINE"/>
      <feMerge>
        <feMergeNode in="OUTLINE"/>
        <feMergeNode in="SourceGraphic"/>
      </feMerge>
      <feColorMatrix values="0 0 0 0 0 0 1 0 0 0 0 0 0 0 0 0 0 0 1 0"/>
    </filter>
  </defs>
</svg>
