<svg xmlns="http://www.w3.org/2000/svg" id="freepik_stories-medical-prescription" class="animated" version="1.1" viewBox="0 0 500 500">
  <style>
    svg#freepik_stories-medical-prescription:not(.animated) .animable{opacity:0}@keyframes lightSpeedLeft{from{transform:translate3d(-50%, 0, 0) skewX(20deg);opacity:0}60%{transform:skewX(-10deg);opacity:1}80%{transform:skewX(2deg)}to{opacity:1;transform:translate3d(0, 0, 0)}}@keyframes fadeIn{0%{opacity:0}100%{opacity:1}}.animator-hidden{display:none}
  </style>
  <g id="freepik--background-complete--inject-29" class="animable animator-hidden">
    <path id="elogyicjjnhq" fill="#EBEBEB" d="M416.78 398.49h33.12v.25h-33.12z" class="animable" transform-origin="433.34px 398.615px"/>
    <path id="elsrwqefa2y3b" fill="#EBEBEB" d="M322.53 401.21h8.69v.25h-8.69z" class="animable" transform-origin="326.875px 401.335px"/>
    <path id="el5801gnk2jq" fill="#EBEBEB" d="M396.59 389.21h19.19v.25h-19.19z" class="animable" transform-origin="406.185px 389.335px"/>
    <path id="elosebihg5wm" fill="#EBEBEB" d="M52.46 390.89h43.19v.25H52.46z" class="animable" transform-origin="74.055px 391.015px"/>
    <path id="eltjoi9nlko9" fill="#EBEBEB" d="M104.56 390.89h6.33v.25h-6.33z" class="animable" transform-origin="107.725px 391.015px"/>
    <path id="elaij1jdlpwec" fill="#EBEBEB" d="M131.47 395.11h93.68v.25h-93.68z" class="animable" transform-origin="178.31px 395.235px"/>
    <path id="elzpg6gg9by3" fill="#EBEBEB" d="M237 337.8H43.92a5.71 5.71 0 0 1-5.71-5.71V60.66A5.71 5.71 0 0 1 43.92 55H237a5.71 5.71 0 0 1 5.71 5.71v271.38a5.71 5.71 0 0 1-5.71 5.71ZM43.92 55.2a5.47 5.47 0 0 0-5.46 5.46v271.43a5.47 5.47 0 0 0 5.46 5.46H237a5.47 5.47 0 0 0 5.46-5.46V60.66A5.47 5.47 0 0 0 237 55.2Z" class="animable" transform-origin="140.46px 196.4px"/>
    <path id="elhok2mrsn4wd" fill="#EBEBEB" d="M453.31 337.8h-193.1a5.72 5.72 0 0 1-5.71-5.71V60.66a5.72 5.72 0 0 1 5.71-5.66h193.1a5.71 5.71 0 0 1 5.69 5.66v271.43a5.71 5.71 0 0 1-5.69 5.71ZM260.21 55.2a5.47 5.47 0 0 0-5.46 5.46v271.43a5.47 5.47 0 0 0 5.46 5.46h193.1a5.47 5.47 0 0 0 5.46-5.46V60.66a5.47 5.47 0 0 0-5.46-5.46Z" class="animable" transform-origin="356.75px 196.4px"/>
    <path id="el878iwg5pg9v" fill="#EBEBEB" d="M0 382.4h500v.25H0z" class="animable" transform-origin="250px 382.525px"/>
    <path id="elqccqu063yj" fill="#F0F0F0" d="M248.64 260.35h-3v-35.9a15 15 0 0 0-14-15.16 14.75 14.75 0 0 0-15.47 14 .74.74 0 0 1-.73.71h-1.54a.74.74 0 0 1-.74-.75 17.79 17.79 0 0 1 17.44-17c9.92-.17 18 8.29 18 18.22Z" class="animable" transform-origin="230.9px 233.299px"/>
    <path id="elm1jr6c38wrr" fill="#E6E6E6" d="M421.37 264.27h21.32v118.09h-21.32z" class="animable" transform-origin="432.03px 323.315px"/>
    <path id="el77xh5vh985o" fill="#F5F5F5" d="M196.19 264.27h231v118.09h-231z" class="animable" transform-origin="311.69px 323.315px"/>
    <path id="elubzavfccjt" fill="#E0E0E0" d="M427.19 288.86h-231v2h56.75v91.5h2v-91.5h55.2v91.5h2v-91.5h55.21v91.5h2v-91.5h57.84v-2z" class="animable" transform-origin="311.69px 335.61px"/>
    <path id="eln8yzvkxvt4" fill="#E6E6E6" d="M247.19 341.36a2 2 0 0 1-2-2v-9a2 2 0 0 1 2-2 2 2 0 0 1 2 2v9a2 2 0 0 1-2 2Z" class="animable" transform-origin="247.19px 334.86px"/>
    <path id="ely3aiv9k8g3" fill="#E6E6E6" d="M260.69 341.36a2 2 0 0 1-2-2v-9a2 2 0 0 1 2-2 2 2 0 0 1 2 2v9a2 2 0 0 1-2 2Z" class="animable" transform-origin="260.69px 334.86px"/>
    <path id="elyfc4p9xhrsd" fill="#E6E6E6" d="M361.6 341.36a2 2 0 0 1-2-2v-9a2 2 0 0 1 2-2 2 2 0 0 1 2 2v9a2 2 0 0 1-2 2Z" class="animable" transform-origin="361.6px 334.86px"/>
    <path id="elslmostgsmh" fill="#E6E6E6" d="M375.1 341.36a2 2 0 0 1-2-2v-9a2 2 0 0 1 2-2 2 2 0 0 1 2 2v9a2 2 0 0 1-2 2Z" class="animable" transform-origin="375.1px 334.86px"/>
    <path id="elk0sw5mupwwk" fill="#E0E0E0" d="M421.19 261.68h26.5v5.17h-26.5z" class="animable" transform-origin="434.44px 264.265px"/>
    <path id="elsun2im9bacp" fill="#EBEBEB" d="M191.19 261.68h238v5.17h-238z" class="animable" transform-origin="310.19px 264.265px"/>
    <path id="elkqyt0xcxkxg" fill="#E6E6E6" d="M276.22 262.27h-78.89a1.92 1.92 0 0 1-1.92-1.92 1.92 1.92 0 0 1 1.92-1.92h78.89a1.92 1.92 0 0 1 1.92 1.92 1.92 1.92 0 0 1-1.92 1.92Z" class="animable" transform-origin="236.775px 260.35px"/>
    <path id="elg810bqudl98" fill="#E0E0E0" d="M253.19 255.2h2.99v3.8h-2.99z" class="animable" transform-origin="254.685px 257.1px"/>
    <path id="el5avlys285tx" fill="#F0F0F0" d="M257.46 256.15h-5.56l1.08-6.65h3.4l1.08 6.65z" class="animable" transform-origin="254.68px 252.825px"/>
    <path id="eljdvdo8gdo9q" fill="#E0E0E0" d="M238.06 255.2h2.99v3.8h-2.99z" class="animable" transform-origin="239.555px 257.1px"/>
    <path id="ela8pmxonvbxw" fill="#F0F0F0" d="M242.34 256.15h-5.57l1.09-6.65h3.39l1.09 6.65z" class="animable" transform-origin="239.555px 252.825px"/>
    <path id="el9eyfd58kzfo" fill="#E0E0E0" d="M302.67 72.41h1.8v140.37h-1.8z" class="animable" transform-origin="303.57px 142.595px"/>
    <path id="elu8il35xdax" fill="#E0E0E0" d="M414.72 72.41h1.8v140.37h-1.8z" class="animable" transform-origin="415.62px 142.595px"/>
    <path id="elol2iz82cc1" fill="#EBEBEB" d="M423.57 81.24H295.62l-2.7-6.3h133.35l-2.7 6.3z" class="animable" transform-origin="359.595px 78.09px"/>
    <path id="el18oj00c4ygu" fill="#EBEBEB" d="M423.57 89.89H295.62l-2.7-6.3h133.35l-2.7 6.3z" class="animable" transform-origin="359.595px 86.74px"/>
    <path id="el5nd5ry3191s" fill="#EBEBEB" d="M423.57 98.54H295.62l-2.7-6.3h133.35l-2.7 6.3z" class="animable" transform-origin="359.595px 95.39px"/>
    <path id="el13tqug4ceg5" fill="#EBEBEB" d="M423.57 107.19H295.62l-2.7-6.3h133.35l-2.7 6.3z" class="animable" transform-origin="359.595px 104.04px"/>
    <path id="el5lqbvs8evvv" fill="#EBEBEB" d="M423.57 115.84H295.62l-2.7-6.3h133.35l-2.7 6.3z" class="animable" transform-origin="359.595px 112.69px"/>
    <path id="el587mbgltkd7" fill="#EBEBEB" d="M423.57 124.49H295.62l-2.7-6.3h133.35l-2.7 6.3z" class="animable" transform-origin="359.595px 121.34px"/>
    <path id="elencbbbet7gt" fill="#EBEBEB" d="M423.57 133.14H295.62l-2.7-6.3h133.35l-2.7 6.3z" class="animable" transform-origin="359.595px 129.99px"/>
    <path id="ela0zdhndo21r" fill="#EBEBEB" d="M423.57 141.78H295.62l-2.7-6.29h133.35l-2.7 6.29z" class="animable" transform-origin="359.595px 138.635px"/>
    <path id="ele04urvhucup" fill="#EBEBEB" d="M423.57 150.44H295.62l-2.7-6.31h133.35l-2.7 6.31z" class="animable" transform-origin="359.595px 147.285px"/>
    <path id="el8izrk62ecbl" fill="#EBEBEB" d="M423.57 159.08H295.62l-2.7-6.3h133.35l-2.7 6.3z" class="animable" transform-origin="359.595px 155.93px"/>
    <path id="el0a2vt3q29itc" fill="#EBEBEB" d="M423.57 167.73H295.62l-2.7-6.3h133.35l-2.7 6.3z" class="animable" transform-origin="359.595px 164.58px"/>
    <path id="el7xcq42prooe" fill="#EBEBEB" d="M423.57 176.38H295.62l-2.7-6.3h133.35l-2.7 6.3z" class="animable" transform-origin="359.595px 173.23px"/>
    <path id="elbd47p7p8e85" fill="#EBEBEB" d="M423.57 185.03H295.62l-2.7-6.3h133.35l-2.7 6.3z" class="animable" transform-origin="359.595px 181.88px"/>
    <path id="el5pef38hoqlm" fill="#EBEBEB" d="M423.57 193.68H295.62l-2.7-6.3h133.35l-2.7 6.3z" class="animable" transform-origin="359.595px 190.53px"/>
    <path id="elvp1blsmpte" fill="#EBEBEB" d="M423.57 202.33H295.62l-2.7-6.3h133.35l-2.7 6.3z" class="animable" transform-origin="359.595px 199.18px"/>
    <path id="elu4j84aa61h9" fill="#EBEBEB" d="M423.57 210.98H295.62l-2.7-6.3h133.35l-2.7 6.3z" class="animable" transform-origin="359.595px 207.83px"/>
    <path id="el51zyuku9d7u" fill="#E0E0E0" d="M292.92 210.98h133.35v3.6H292.92z" class="animable" transform-origin="359.595px 212.78px"/>
    <path id="el6lr2wf0ynzt" fill="#E0E0E0" d="M288.27 67.05h142.65v8.4H288.27z" class="animable" transform-origin="359.595px 71.25px"/>
    <path id="elnnzppkbyc4" fill="#E0E0E0" d="M289.74 151.61a1.45 1.45 0 0 1-1.45-1.45v-49a1.45 1.45 0 0 1 1.45-1.45 1.45 1.45 0 0 1 1.45 1.45v49a1.45 1.45 0 0 1-1.45 1.45Z" class="animable" transform-origin="289.74px 125.66px"/>
    <path id="elz13c2orkrfr" fill="#E0E0E0" d="M289.21 73.77h1.05v29.1h-1.05z" class="animable" transform-origin="289.735px 88.32px"/>
    <g id="eltf8im70g4aa">
      <path id="elwezniafhrj" fill="#E0E0E0" d="M122.02 311.61h42.25v6.5h-42.25z" class="animable" transform="rotate(180)" transform-origin="143.145px 314.86px"/>
    </g>
    <g id="elzlznad6mbzf">
      <path id="elbgxvvdy35dm" fill="#F0F0F0" d="M120.77 315.36h46v63.73a3.27 3.27 0 0 1-3.27 3.27H124a3.27 3.27 0 0 1-3.27-3.27v-63.73h.04Z" class="animable" transform="rotate(180)" transform-origin="143.75px 348.86px"/>
    </g>
    <g id="el6ab707eejxl">
      <rect id="elaozucsdzu15" width="46" height="10" x="120.77" y="303.61" fill="#F0F0F0" class="animable" rx="3.61" transform="rotate(180)" transform-origin="143.77px 308.61px"/>
    </g>
    <path id="elra3e61mie2" fill="#E0E0E0" d="M153.27 382.36h21.5v-3l-21.5-2v5z" class="animable" transform-origin="164.02px 379.86px"/>
    <path id="elvxj4wwqpo8" fill="#E0E0E0" d="M408.11 222.12H389.5a6.9 6.9 0 0 0-6.89 6.89v2.3h3.71V229a3.18 3.18 0 0 1 3.18-3.19h18.61a3.19 3.19 0 0 1 3.18 3.19v2.3H415V229a6.89 6.89 0 0 0-6.89-6.88Z" class="animable" transform-origin="398.805px 226.715px"/>
    <path id="elfnrs53t4r8h" fill="#E6E6E6" d="M430.16 236.34v20.85a5 5 0 0 1-5 5h-45.28a5 5 0 0 1-5-5v-20.85a5 5 0 0 1 5-5h45.24a5 5 0 0 1 5.04 5Z" class="animable" transform-origin="402.52px 246.765px"/>
    <path id="el5e8p27euwse" fill="#F5F5F5" d="M423.11 236.34v20.85a5 5 0 0 1-5 5h-45.28a5 5 0 0 1-5-5v-20.85a5 5 0 0 1 5-5h45.24a5 5 0 0 1 5.04 5Z" class="animable" transform-origin="395.47px 246.765px"/>
    <path id="el6ifgr40ddex" fill="#FFF" d="M383.82 234.89h23.61v23.61h-23.61z" class="animable" transform-origin="395.625px 246.695px"/>
    <path id="el2gzuphauq4n" fill="#E0E0E0" d="M393.65 240.2h3.99v13.73h-3.99z" class="animable" transform-origin="395.645px 247.065px"/>
    <g id="elbxdwxhepkb9">
      <path id="el92b8gb321t" fill="#E0E0E0" d="M393.65 240.2h3.99v13.73h-3.99z" class="animable" transform="rotate(-90)" transform-origin="395.645px 247.065px"/>
    </g>
  </g>
  <g id="freepik--Shadow--inject-29" class="animable animator-hidden">
    <ellipse id="freepik--path--inject-29" cx="245.18" cy="412.39" fill="#F5F5F5" class="animable" rx="193.89" ry="11.32" transform-origin="245.18px 412.39px"/>
  </g>
  <g id="freepik--Character--inject-29" class="animable animator-hidden">
    <path id="elrtk4ia0nxbc" fill="#263238" d="M346.77 237.11c.66-.08 19.78 1.81 21 22.3l-3.27 14.2a66.26 66.26 0 0 0-47.79.64l-.23.1 1.33-16.22s4.9-18.2 28.96-21.02Z" class="animable" transform-origin="342.125px 255.729px"/>
    <path id="el214c08p0lma" fill="#263238" d="m306.62 336.07 3.84.33a660.41 660.41 0 0 1 8.25-72.75 29.92 29.92 0 0 1 12.7-19.26 19.75 19.75 0 0 1 4.5-2.43 24.81 24.81 0 0 1 9.29-2 28.05 28.05 0 0 1 3.88.27 20.1 20.1 0 0 1 8.11 3.15 39.15 39.15 0 0 1 3.28 2.81A17.69 17.69 0 0 1 362 248a21.19 21.19 0 0 1 3.28 16.81 602.77 602.77 0 0 0-8.51 66.56l3.84.26a599 599 0 0 1 8.39-66.04 25 25 0 0 0-3.93-19.87 23.24 23.24 0 0 0-17.2-9.72c-15-1-30.61 11.19-32.92 26.83a666.75 666.75 0 0 0-8.33 73.24Z" class="animable" transform-origin="338.116px 286.171px"/>
    <g id="elybsvuux7wr">
      <path id="elosto0h8nusl" fill="#FFF" d="m306.62 336.07 3.84.33a660.41 660.41 0 0 1 8.25-72.75 29.92 29.92 0 0 1 12.7-19.26 19.75 19.75 0 0 1 4.5-2.43 24.81 24.81 0 0 1 9.29-2 28.05 28.05 0 0 1 3.88.27 20.1 20.1 0 0 1 8.11 3.15 39.15 39.15 0 0 1 3.28 2.81A17.69 17.69 0 0 1 362 248a21.19 21.19 0 0 1 3.28 16.81 602.77 602.77 0 0 0-8.51 66.56l3.84.26a599 599 0 0 1 8.39-66.04 25 25 0 0 0-3.93-19.87 23.24 23.24 0 0 0-17.2-9.72c-15-1-30.61 11.19-32.92 26.83a666.75 666.75 0 0 0-8.33 73.24Z" class="animable" opacity=".3" transform-origin="338.116px 286.171px"/>
    </g>
    <g id="elxnkwm9m0wz8">
      <path id="el7bhuwv5r8nh" fill="#263238" d="M272.34 324.37h88.34v2.05a7.33 7.33 0 0 1-7.33 7.33h-73.67a7.33 7.33 0 0 1-7.33-7.33v-2.05h-.01Z" class="animable" transform="rotate(180)" transform-origin="316.51px 329.06px"/>
    </g>
    <path id="eltfc8faqn0a9" fill="#263238" d="M357.69 410.92h4.69l-3.84-77.16h-5.98l5.13 77.16z" class="animable" transform-origin="357.47px 372.34px"/>
    <g id="elej6300wg9wp">
      <path id="ele1zsluxclij" fill="#FFF" d="M357.69 410.92h4.69l-3.84-77.16h-5.98l5.13 77.16z" class="animable" opacity=".3" transform-origin="357.47px 372.34px"/>
    </g>
    <path id="elxcnd3dtvn8c" fill="#263238" d="M326.32 410.92h4.69l-2.56-77.16h-5.97l3.84 77.16z" class="animable" transform-origin="326.745px 372.34px"/>
    <g id="elprghxu90h">
      <path id="el57uanvdwdpx" fill="#FFF" d="M326.32 410.92h4.69l-2.56-77.16h-5.97l3.84 77.16z" class="animable" opacity=".3" transform-origin="326.745px 372.34px"/>
    </g>
    <path id="el1v6zvz1kwsv" fill="#263238" d="M302 410.92h4.69l3.84-77.16h-5.97L302 410.92z" class="animable" transform-origin="306.265px 372.34px"/>
    <g id="elu5st121yx6q">
      <path id="elnzl8bgo044o" fill="#FFF" d="M302 410.92h4.69l3.84-77.16h-5.97L302 410.92z" class="animable" opacity=".3" transform-origin="306.265px 372.34px"/>
    </g>
    <path id="elpnji93lby6s" fill="#263238" d="M270.63 410.92h4.7l5.12-77.16h-5.98l-3.84 77.16z" class="animable" transform-origin="275.54px 372.34px"/>
    <g id="eltk7uqj8jqz">
      <path id="el8bwoq3t5qh3" fill="#FFF" d="M270.63 410.92h4.7l5.12-77.16h-5.98l-3.84 77.16z" class="animable" opacity=".3" transform-origin="275.54px 372.34px"/>
    </g>
    <g id="el082wah2rgfb">
      <path id="elmw7beg9gu1h" fill="#263238" d="M268.49 330.34h52.49v6.83h-52.49z" class="animable" transform="rotate(180)" transform-origin="294.735px 333.755px"/>
    </g>
    <g id="el881jilwqge6">
      <path id="elu2nj06eez1p" fill="#FFF" d="M268.49 330.34h52.49v6.83h-52.49z" class="animable" opacity=".7" transform="rotate(180)" transform-origin="294.735px 333.755px"/>
    </g>
    <g id="elx9goxnpuw5">
      <path id="el4al91utvzh2" fill="#263238" d="M320.98 330.34h43.55v6.83h-43.55z" class="animable" transform="rotate(180)" transform-origin="342.755px 333.755px"/>
    </g>
    <g id="elcew5jq42iui">
      <path id="el1vtgvxtp3pb" fill="#FFF" d="M320.98 330.34h43.55v6.83h-43.55z" class="animable" opacity=".4" transform="rotate(180)" transform-origin="342.755px 333.755px"/>
    </g>
    <path id="el2zw013h65pa" fill="#BA68C8" d="M305.2 224.87c-9.54 1.88-28.44 10-28.56 9.56 0 0-15.91-3.77-22.45-11 0 0-6.25-.77-9.52-1.42 2.37 5.59 7 12.37 12.14 15.6 6.53 4.1 8.31 5.34 14.77 7.8 8.08 3.08 20.45-.19 28.46-3.47 2.95-1.21 6-2.75 7.71-5.43s.1-9.85-2.55-11.64Z" class="animable" transform-origin="276.563px 234.326px"/>
    <g id="elhqu4ugtbsgp">
      <path id="elvor89k8od5d" fill="#FFF" d="M305.2 224.87c-9.54 1.88-28.44 10-28.56 9.56 0 0-15.91-3.77-22.45-11 0 0-6.25-.77-9.52-1.42 2.37 5.59 7 12.37 12.14 15.6 6.53 4.1 8.31 5.34 14.77 7.8 8.08 3.08 20.45-.19 28.46-3.47 2.95-1.21 6-2.75 7.71-5.43s.1-9.85-2.55-11.64Z" class="animable" opacity=".7" transform-origin="276.563px 234.326px"/>
    </g>
    <path id="elhrjm99sgnkp" fill="#BA68C8" d="M279.86 224.4h-23.77c-3.32-12 3.33-24.07 0-36.1h23.77c3.33 12.03-3.33 24.07 0 36.1Z" class="animable" transform-origin="267.977px 206.35px"/>
    <g id="el4sdz7mefyai">
      <g id="el0xfvgqj3fufk" class="animable" opacity=".7">
        <path id="eleo87ytbwbbq" fill="#FFF" d="M279.86 224.4h-23.77c-3.32-12 3.33-24.07 0-36.1h23.77c3.33 12.03-3.33 24.07 0 36.1Z" class="animable" transform-origin="267.977px 206.35px"/>
      </g>
    </g>
    <path id="elug7lh6t4yei" fill="#CE7A63" d="m259.81 218-3.81 1.83a6.26 6.26 0 0 1-2.3 3.09 16.21 16.21 0 0 1-3.38 1.43 4.58 4.58 0 0 1-4.8-1.33 1.82 1.82 0 0 1-.38-2l3.65-6.82a2.81 2.81 0 0 1 2.05-1.45l6-.95a2.08 2.08 0 0 1 2 .79l1.76 2.31a2.07 2.07 0 0 1-.79 3.1Z" class="animable" transform-origin="252.997px 218.166px"/>
    <path id="elu9he7jrix4s" fill="#BA68C8" d="m339.82 281.31 5.63 20.54-30.92 6.63-18.67-9.89 5.22-17.67 38.74.39z" class="animable" transform-origin="320.655px 294.7px"/>
    <g id="elulrbftiatn">
      <path id="el5c3uk5lo12q" d="m339.82 281.31 5.63 20.54-30.92 6.63-18.67-9.89 5.22-17.67 38.74.39z" class="animable" opacity=".1" transform-origin="320.655px 294.7px"/>
    </g>
    <g id="freepik--freepik--Character--inject-5--inject-29" class="animable">
      <path id="elrktle76q2z" fill="#BA68C8" d="M298.07 236.68a77.77 77.77 0 0 0-.07 15.84c.29 7.08 1.83 14.52 3.76 26 3.87 2.27 23.48 1.33 36-.29-.76-10 .49-21.52 7.29-44.11 1.58-5.24-1.94-10.27-7.56-10.8-1.5-.15-3.1-.27-4.73-.34a129.9 129.9 0 0 0-17.2 0c-1.83.17-3.81.39-5.66.62-6.67.85-10.6 5.99-11.83 13.08Z" class="animable" transform-origin="321.53px 251.282px"/>
      <path id="elffis3xpqwue" fill="#BA68C8" d="M301.08 280.92a170.46 170.46 0 0 0 38.05-.08.91.91 0 0 0 .69-1.09v-.12c-.31-.73-.63-1.46-.92-2.19a.8.8 0 0 0-.82-.5 168.18 168.18 0 0 1-36.58 0 .81.81 0 0 0-.91.7.13.13 0 0 1 0 .06c-.08.76-.15 1.51-.22 2.27a.85.85 0 0 0 .75.95Z" class="animable" transform-origin="320.103px 279.439px"/>
      <path id="el3vnkocyckif" fill="#BA68C8" d="M315.11 222.67c-9.35 12-10 41.66-7.65 99.92.21 5.08-4.66 4.71-9.43 3.73-7.1-1.47-9.92-.94-9.92-.94s11.33-29.75 9.49-56.43-.56-36.11 3.77-41 13.74-5.28 13.74-5.28Z" class="animable" transform-origin="301.61px 274.794px"/>
      <g id="el37tndm890jo">
        <path id="elpqcz05abiyi" fill="#FFF" d="M315.11 222.67c-9.35 12-10 41.66-7.65 99.92.2 5.08-4.42 4.53-9.44 3.73a58.13 58.13 0 0 0-9.91-.94s11.33-29.75 9.49-56.43-.56-36.11 3.77-41 13.74-5.28 13.74-5.28Z" class="animable" opacity=".7" transform-origin="301.61px 274.754px"/>
      </g>
      <path id="elxcyeuh64u8" fill="#CE7A63" d="M331.57 203.6c-1.49 5.51-3.33 15.68.27 19.38 0 0-4.75 3.81-14.82 7.48-3-.77-2.37-7.48-2.37-7.48 6.29-1.48 6.47-6 5.71-10.35Z" class="animable" transform-origin="323.217px 217.03px"/>
      <g id="el39zkunszof3">
        <path id="el14g2fut0lmb" d="m327 207.28-6.65 5.34a17.32 17.32 0 0 1 .3 3c2.39-.34 5.82-2.92 6.26-5.4a8.58 8.58 0 0 0 .09-2.94Z" class="animable" opacity=".2" transform-origin="323.718px 211.45px"/>
      </g>
      <path id="elszcbbng6zfo" fill="#263238" d="M321.25 183.35a42.15 42.15 0 0 0-7.87 30.82c-3.16-6-6-2.73-6.23-9.49-.1-3.4 1.67-17.19 3.18-20.24s4.6-5.51 8-5.37a4.78 4.78 0 0 1 3.29 1.34c.83.89.38 1.97-.37 2.94Z" class="animable" transform-origin="314.606px 196.617px"/>
      <path id="elcyu0ade279e" fill="#CE7A63" d="M336.3 192.49c-1.67 8.94-2.2 12.76-7.33 17-7.68 6.42-18.22 3-19.26-6.07-.91-8.21 2-21.45 11.21-24.4a11.65 11.65 0 0 1 15.38 13.43Z" class="animable" transform-origin="323.06px 195.553px"/>
      <path id="el35ig879wxc3" fill="#263238" d="M320.78 194.54c-.21.73-.78 1.24-1.24 1.14s-.69-.78-.48-1.51.78-1.25 1.25-1.15.69.78.47 1.52Z" class="animable" transform-origin="319.924px 194.35px"/>
      <path id="eldepr7r0eyg" fill="#263238" d="M313.18 192.71c-.21.73-.77 1.24-1.24 1.14s-.69-.79-.47-1.51.77-1.25 1.24-1.14.69.8.47 1.51Z" class="animable" transform-origin="312.325px 192.524px"/>
      <path id="elv9ur7m1x9w" fill="#263238" d="m312.91 191.28-1.6-.89s.5 1.61 1.6.89Z" class="animable" transform-origin="312.11px 190.928px"/>
      <path id="elclmzgrac5xk" fill="#BA4D3C" d="M315.31 194.46a22.61 22.61 0 0 1-3.95 4.11 3 3 0 0 0 2.44 1.06Z" class="animable" transform-origin="313.335px 197.047px"/>
      <path id="el0tll626sg3jh" fill="#263238" d="M317.18 203.25a6.51 6.51 0 0 1-1.24-.18.2.2 0 0 1-.16-.25.24.24 0 0 1 .28-.16 6.36 6.36 0 0 0 5.35-1.25.22.22 0 0 1 .31 0 .23.23 0 0 1 0 .31 6.69 6.69 0 0 1-4.54 1.53Z" class="animable" transform-origin="318.777px 202.301px"/>
      <path id="el5vf1brujb5d" fill="#263238" d="M314.5 180.22c2.8-3.85 10.41-4.9 14.87-3.84 15.8 3.77 8.55 16.9 17.7 24.28-2.66 4.77-5.22 3.76-8.32 5.91-1.81 1.26-6.61 5.19-8.78 5 .11-4.47 2.07-9.61 1.16-14a25.32 25.32 0 0 0-5.59-11.84c-2.91-3.2-6.84-5.73-11.04-5.51Z" class="animable" transform-origin="330.785px 193.784px"/>
      <g id="elyiuk9ztw43a">
        <path id="el7s09zckq1h5" d="M314.5 180.22c2.8-3.85 10.41-4.9 14.87-3.84 15.8 3.77 8.55 16.9 17.7 24.28-2.66 4.77-5.22 3.76-8.32 5.91-1.81 1.26-6.61 5.19-8.78 5 .11-4.47 2.07-9.61 1.16-14a25.32 25.32 0 0 0-5.59-11.84c-2.91-3.2-6.84-5.73-11.04-5.51Z" class="animable" opacity=".2" transform-origin="330.785px 193.784px"/>
      </g>
      <path id="eltbpbrfar2v8" fill="#263238" d="M314.5 180.22c2.8-3.85 10.41-4.9 14.87-3.84 15.8 3.77 8.55 16.9 17.7 24.28-2.66 4.77-5.22 3.76-8.32 5.91-1.81 1.26-6.61 5.19-8.78 5 .11-4.47 2.07-9.61 1.16-14a25.32 25.32 0 0 0-5.59-11.84c-2.91-3.2-6.84-5.73-11.04-5.51Z" class="animable" transform-origin="330.785px 193.784px"/>
      <g id="el2vvtosuxxe">
        <path id="elp9yp80b879l" d="M314.5 180.22c2.8-3.85 10.41-4.9 14.87-3.84 15.8 3.77 8.55 16.9 17.7 24.28-2.66 4.77-5.22 3.76-8.32 5.91-1.81 1.26-6.61 5.19-8.78 5 .11-4.47 2.07-9.61 1.16-14a25.32 25.32 0 0 0-5.59-11.84c-2.91-3.2-6.84-5.73-11.04-5.51Z" class="animable" opacity=".1" transform-origin="330.785px 193.784px"/>
      </g>
      <path id="elpx1d2vgv46k" fill="#CE7A63" d="M335.77 201.54a6.21 6.21 0 0 1-4.18 2.84c-2.13.3-2.75-2.18-1.76-4.46.92-2 3.05-4.68 5-3.92s2.17 3.59.94 5.54Z" class="animable" transform-origin="332.951px 200.136px"/>
      <path id="ele8loyp6ux1" fill="#263238" d="M324.19 191.62a.35.35 0 0 1-.23-.23 3.28 3.28 0 0 0-2.31-2.07.4.4 0 0 1-.34-.45.09.09 0 0 1 0-.05.47.47 0 0 1 .54-.36 4.05 4.05 0 0 1 2.94 2.59.45.45 0 0 1-.27.57.45.45 0 0 1-.33 0Z" class="animable" transform-origin="323.061px 190.052px"/>
      <path id="elqgrnrisw2hp" fill="#263238" d="M311.5 188.38a.41.41 0 0 1-.4-.43.41.41 0 0 1 .18-.32 4.68 4.68 0 0 1 4-1.14.43.43 0 0 1 .3.51.49.49 0 0 1-.57.31 3.73 3.73 0 0 0-3.14.93.48.48 0 0 1-.37.14Z" class="animable" transform-origin="313.345px 187.396px"/>
      <path id="elgqc3dzqyxjl" fill="#263238" d="m320.51 193.11-1.6-.89s.5 1.57 1.6.89Z" class="animable" transform-origin="319.71px 192.75px"/>
    </g>
    <path id="elep63tugvgzo" fill="#263238" d="M315.86 179.84a8.43 8.43 0 0 0-1.6 2.52 3.39 3.39 0 0 0 .16 2.89 4.23 4.23 0 0 0 2.06 1.58 12 12 0 0 0 2.55.79 3.1 3.1 0 0 1-1-3.23 4 4 0 0 0 1.88 2.75c.9.53 1.91.82 2.84 1.29 2.93 1.47 8.39 9.17 4.35 25.18 3.57-1.32 8.58-13.89 7.75-17.61s-1-13.28-10.51-16.62c-2.57-.89-5.87-.28-8.48.46Z" class="animable" transform-origin="324.476px 196.274px"/>
    <path id="elpfuuo10a71" fill="#CE7A63" d="m269.67 402.38-8.59.83-5.09-24.2 10.13-1.17 3.55 24.54z" class="animable" transform-origin="262.83px 390.525px"/>
    <path id="el8qjrynf8pmr" fill="#263238" d="M257.53 401.21a4.57 4.57 0 0 1 3-1.36l9.21-.64a.81.81 0 0 1 .9.67l1.78 8.55a1.82 1.82 0 0 1-1.38 2.16H271c-3.48.9-5.67.17-11 .54-3.28.23-10.25 1.53-14.72.79s-3.9-5.17-2-5.26c6.86-.22 12.48-3.66 14.25-5.45Z" class="animable" transform-origin="257.161px 405.674px"/>
    <g id="elbvbjef0obr9">
      <g id="elp4hvkjrh9dp" class="animable" opacity=".2">
        <path id="el04uxzitru1r" d="m255.99 379.02 2.96 14.07 9.11-1.9-1.93-13.34-10.14 1.17z" class="animable" transform-origin="262.025px 385.47px"/>
      </g>
    </g>
    <path id="el7i6sma5imaw" fill="#BA68C8" d="M309.83 328.84h-1.05a14.72 14.72 0 0 1-1.75-.13l-46-2.46c7.43 6.81 8.65 61.38 8.65 61.38l-2.2.47-10 2.13-1.83.39s-4.17-17.87-9-38.37c-2.44-10.38-5.6-21.11-7-31.41a71 71 0 0 1-.66-8.26v-2.53a2.26 2.26 0 0 1 0-.26c0-.36 0-.7.08-1a9 9 0 0 1 2-4.52l.34-.39a4.17 4.17 0 0 1 .36-.37 10.28 10.28 0 0 1 .76-.71c.28-.23.56-.46.86-.68l.77-.53c.32-.2.64-.39 1-.58a5.12 5.12 0 0 1 .52-.27c.52-.28 1.06-.54 1.63-.78l.49-.21.67-.25c.2-.09.4-.16.6-.23.61-.22 1.24-.43 1.89-.6l.33-.1h.09c17.45-4.94 47.13-1.13 47.13-1.13s7.84-5.8 16.17-6.9l1.18.13 3.71.41a.9.9 0 0 1 .16 0c12.27 21.37 4.66 37.6-9.9 37.76Z" class="animable" transform-origin="282.424px 340.58px"/>
    <g id="eln137tk0bq4s">
      <g id="el5md313xm3g" class="animable" opacity=".1">
        <path id="eleuale4jsoyn" d="M309.83 328.84h-1.05a14.72 14.72 0 0 1-1.75-.13l-46-2.46c7.43 6.81 8.65 61.38 8.65 61.38l-2.2.47-10 2.13-1.83.39s-4.17-17.87-9-38.37c-2.44-10.38-5.6-21.11-7-31.41a71 71 0 0 1-.66-8.26v-2.53a2.26 2.26 0 0 1 0-.26c0-.36 0-.7.08-1a9 9 0 0 1 2-4.52l.34-.39a4.17 4.17 0 0 1 .36-.37 10.28 10.28 0 0 1 .76-.71c.28-.23.56-.46.86-.68l.77-.53c.32-.2.64-.39 1-.58a5.12 5.12 0 0 1 .52-.27c.52-.28 1.06-.54 1.63-.78l.49-.21.67-.25c.2-.09.4-.16.6-.23.61-.22 1.24-.43 1.89-.6l.33-.1h.09c17.45-4.94 47.13-1.13 47.13-1.13s7.84-5.8 16.17-6.9l1.18.13 3.71.41a.9.9 0 0 1 .16 0c12.27 21.37 4.66 37.6-9.9 37.76Z" class="animable" transform-origin="282.424px 340.58px"/>
      </g>
    </g>
    <path id="elny29rz5zmq" fill="#CE7A63" d="m212.8 361.29-2.46 3.77-5.48 8.4-9.17.96 6.95-14.6 4.72-9.94 5.44 11.41z" class="animable" transform-origin="204.245px 362.15px"/>
    <path id="elmmh00iysraa" fill="#263238" d="m198 368.13 7.59 4.74a.8.8 0 0 1 .35 1l-3.72 8.68a1.77 1.77 0 0 1-2.38.78h-.05c-3.54-2.15-5.13-3.36-9.62-6L179 370.85c-3.82-2.24-1.76-6.1.05-5.51 8 2.66 13.43 3 17 2.44a2.87 2.87 0 0 1 1.95.35Z" class="animable" transform-origin="191.422px 374.4px"/>
    <g id="el734ck7ytl1r">
      <g id="el94jfswwo1kf" class="animable" opacity=".2">
        <path id="el7k1tztsfvpb" d="m212.8 361.29-2.45 3.77h-.01l-7.7-5.24 4.72-9.94 5.44 11.41z" class="animable" transform-origin="207.72px 357.47px"/>
      </g>
    </g>
    <path id="elssc2ll8fa1b" fill="#BA68C8" d="M312.79 329.68a21.38 21.38 0 0 1-3-.58c-.34-.08-.69-.18-1.05-.29-8.44-2.43-20.59-9.08-31.9-15.63-10.42-6-20.09-12-25.45-14.44h-.09l-.33.1c-.65.18-1.28.39-1.89.61a4.84 4.84 0 0 0-.6.22l-.67.25-.49.21c-.57.24-1.11.51-1.63.78-.18.08-.35.18-.52.27-.34.19-.66.38-1 .58l-.77.54c-.3.22-.58.44-.86.67a10.28 10.28 0 0 0-.76.71c-.13.12-.25.25-.36.37l-.34.39a9 9 0 0 0-2 4.52c0 .34-.07.69-.08 1v2.53a71.89 71.89 0 0 0 .63 8.31v.21c-12.56 22.65-25.62 43.19-25.62 43.19l-2.22-1.53-8-5.48-1.38-1s13.94-32.66 23.53-61.76a26.55 26.55 0 0 1 25.44-18.28c23.67.21 54.75 13.29 54.75 13.29l8.53.91 1.18.13 3.71.41a.9.9 0 0 1 .16 0c2 .22 4.24.38 6.41.54a11.6 11.6 0 0 1 10.36 8.53c6.36 23.18-8.77 31.55-23.69 29.72Z" class="animable" transform-origin="270.191px 320.175px"/>
    <path id="el3speei9o9bw" fill="#BA68C8" d="M312.79 329.68a21.38 21.38 0 0 1-3-.58c-.34-.08-.69-.18-1.05-.29-8.44-2.43-20.59-9.08-31.9-15.63-10.42-6-20.09-12-25.45-14.44h-.09l-.33.1c-.65.18-1.28.39-1.89.61a4.84 4.84 0 0 0-.6.22l-.67.25-.49.21c-.57.24-1.11.51-1.63.78-.18.08-.35.18-.52.27-.34.19-.66.38-1 .58l-.77.54c-.3.22-.58.44-.86.67a10.28 10.28 0 0 0-.76.71c-.13.12-.25.25-.36.37l-.34.39a9 9 0 0 0-2 4.52c0 .34-.07.69-.08 1v2.53a71.89 71.89 0 0 0 .63 8.31v.21c-12.56 22.65-25.62 43.19-25.62 43.19l-2.22-1.53-8-5.48-1.38-1s13.94-32.66 23.53-61.76a26.55 26.55 0 0 1 25.44-18.28c23.67.21 54.75 13.29 54.75 13.29l8.53.91 1.18.13 3.71.41a.9.9 0 0 1 .16 0c2 .22 4.24.38 6.41.54a11.6 11.6 0 0 1 10.36 8.53c6.36 23.18-8.77 31.55-23.69 29.72Z" class="animable" transform-origin="270.191px 320.175px"/>
    <path id="el4mshsp095n4" fill="#BA68C8" d="m251.34 298.49-.33.09Z" class="animable" transform-origin="251.175px 298.535px"/>
    <path id="ely4h21vuqhb" fill="#BA68C8" d="M332.23 222.12s-6.51 5.78-8.45 19.73c-3.1 22.49-1.48 65.85-.32 90.62a5.37 5.37 0 0 0 7.26 4.76c7.73-2.88 20.36-.62 26-5.51.41-7.46-12.57-45.58-11.31-65.31s3.72-36.92 1.17-40.64-14.35-3.65-14.35-3.65Z" class="animable" transform-origin="339.358px 279.848px"/>
    <g id="elo93apyw3t5l">
      <path id="el6inqgr6rblv" fill="#FFF" d="M332.23 222.12s-6.51 5.78-8.45 19.73c-3.1 22.49-1.31 65.85-.14 90.62a5.36 5.36 0 0 0 7.25 4.76c7.73-2.88 20.19-.62 25.86-5.51.41-7.46-12.57-45.58-11.31-65.31s3.72-36.92 1.17-40.64-14.38-3.65-14.38-3.65Z" class="animable" opacity=".7" transform-origin="339.406px 279.848px"/>
    </g>
    <path id="eleiiaerg95i4" fill="#263238" d="M331.94 251.72a.33.33 0 0 1-.31-.35.33.33 0 0 1 .18-.28l1.39-.68a7.09 7.09 0 0 0 4-7l-1.13-13.53a4.5 4.5 0 0 0-8.65-1.33l-5.16 12.54a7.11 7.11 0 0 0 1.67 7.89l1.13 1.07a.34.34 0 0 1 0 .47.33.33 0 0 1-.47 0l-1.13-1.07a7.76 7.76 0 0 1-1.8-8.63l5.2-12.51a5.17 5.17 0 0 1 9.93 1.54l1.12 13.51a7.75 7.75 0 0 1-4.41 7.64l-1.39.67a.25.25 0 0 1-.17.05Z" class="animable" transform-origin="329.494px 238.417px"/>
    <path id="elckt2snr3twt" fill="#263238" d="M336.6 232.84a.34.34 0 0 1-.32-.3 5.35 5.35 0 0 0-9.88-1.54.34.34 0 1 1-.63-.23 6 6 0 0 1 11.15 1.73.33.33 0 0 1-.29.36Z" class="animable" transform-origin="331.324px 230.257px"/>
    <path id="elzqzxe3w3w7q" fill="#263238" d="M332.29 225.8a.32.32 0 0 1-.3-.35c.14-1.63 0-4.61-1.53-5.42a.33.33 0 1 1 .32-.58c2.2 1.2 1.88 5.56 1.83 6.06a.32.32 0 0 1-.32.29Z" class="animable" transform-origin="331.472px 222.604px"/>
    <path id="elo59ifs3sy2" fill="#263238" d="M325.56 250.39c-.1.63-.51 1.08-.92 1s-.66-.61-.56-1.23.5-1.08.91-1 .66.62.57 1.23Z" class="animable" transform-origin="324.818px 250.275px"/>
    <path id="eltl1rio2ndd9" fill="#263238" d="M332.69 251.51c-.09.61-.5 1.06-.91 1s-.66-.62-.56-1.24.5-1.06.91-1 .66.61.56 1.24Z" class="animable" transform-origin="331.955px 251.39px"/>
    <path id="elk1enhsogsp" fill="#263238" d="M314.66 238.54c-.34 1.39-1.36 2.34-2.24 2.12s-1.38-1.5-1-2.93 1.36-2.34 2.24-2.11 1.34 1.53 1 2.92Z" class="animable" transform-origin="313.032px 238.138px"/>
    <path id="elz443pxpueg" fill="#263238" d="M311.82 238.06h-.07a.33.33 0 0 1-.31-.35c.35-5.6 3.68-14.87 7.33-17.9a.32.32 0 0 1 .47 0 .33.33 0 0 1 0 .47.24.24 0 0 1-.08.06c-3.52 3-6.76 11.91-7.09 17.42a.32.32 0 0 1-.25.3Z" class="animable" transform-origin="315.389px 228.884px"/>
    <path id="el3ugi2mxyyad" fill="#FFF" d="M315.65 238.68c-.23 1.19-1.11 2-2 1.87a2 2 0 0 1-1.18-2.45c.22-1.2 1.11-2 2-1.87a2 2 0 0 1 1.18 2.45Z" class="animable" transform-origin="314.06px 238.39px"/>
    <path id="elhgma6zqb5p8" fill="#263238" d="M315.72 238.79c-.31 1.47-1.12 2.55-1.79 2.41s-1-1.46-.64-2.94 1.12-2.55 1.79-2.4.92 1.45.64 2.93Z" class="animable" transform-origin="314.488px 238.529px"/>
    <path id="el85imx0exgxf" fill="#263238" d="m302.22 270.77-20.86.38a1.63 1.63 0 0 1-1.62-1.41l-4-31.92a1.28 1.28 0 0 1 1.27-1.46l20.89-.36a1.63 1.63 0 0 1 1.62 1.41l4 31.92a1.28 1.28 0 0 1-1.3 1.44Z" class="animable" transform-origin="289.629px 253.575px"/>
    <path id="elis0aag6z58j" fill="#263238" d="m290.28 238.65-5 .09a2 2 0 0 1-2-1.76l-.38-2.98 8.6-.16.36 2.94a1.59 1.59 0 0 1-1.58 1.87Z" class="animable" transform-origin="287.392px 236.29px"/>
    <g id="elaiw58boptxw">
      <path id="elnefw6e4e56" fill="#FFF" d="m290.28 238.65-5 .09a2 2 0 0 1-2-1.76l-.38-2.98 8.6-.16.36 2.94a1.59 1.59 0 0 1-1.58 1.87Z" class="animable" opacity=".7" transform-origin="287.392px 236.29px"/>
    </g>
    <path id="el7zvg6pjxuhk" fill="#FFF" d="M298.86 236.05h-1a1.65 1.65 0 0 1 1.62 1.41l4 31.93a1.28 1.28 0 0 1-1.27 1.46h1a1.27 1.27 0 0 0 1.26-1.46l-4-31.93a1.65 1.65 0 0 0-1.61-1.41Z" class="animable" transform-origin="301.172px 253.45px"/>
    <g id="el6v4pouxgbcm">
      <path id="el2xjee3qkhrp" d="M339.41 230.46c.31.68-6.45 27.62-6.45 27.62l5.15 2.27Z" class="animable" opacity=".2" transform-origin="336.19px 245.405px"/>
    </g>
    <path id="el5b8dd630zhe" fill="#BA68C8" d="M350.5 247.86c-1.17 10.57-2.25 14.7-3 15.85-3.88 14.33-16.22 7.12-18 6.53-3.08-1-6.26-3.1-9.2-4.46-5.72-2.59-11.12-4.64-16.47-7.93l2.74-5.91s20.53 4.46 23.22 5c1.17.26 7 1.22 6.87-1.91.6-1.06 1.13-19.17 2.81-26.4a6.14 6.14 0 0 1 1.05-2.24l.17-.22c1.12-1.52 1.86-1.51 3.91-1.43 4.47.18 6.58 3.63 7.05 8.08.44 4.18-.65 10.92-1.15 15.04Z" class="animable" transform-origin="327.791px 248.642px"/>
    <g id="el9aqmd6li1pn">
      <g id="el0ru4mt5b2cm" class="animable" opacity=".7">
        <path id="el41yi1pq85e" fill="#FFF" d="M350.5 247.86c-1.17 10.57-2.25 14.7-3 15.85-3.88 14.33-16.22 7.12-18 6.53-3.08-1-6.26-3.1-9.2-4.46-5.72-2.59-11.12-4.64-16.47-7.93l2.74-5.91s20.53 4.46 23.22 5c1.17.26 7 1.22 6.87-1.91.6-1.06 1.13-19.17 2.81-26.4a6.14 6.14 0 0 1 1.05-2.24l.17-.22c1.12-1.52 1.86-1.51 3.91-1.43 4.47.18 6.58 3.63 7.05 8.08.44 4.18-.65 10.92-1.15 15.04Z" class="animable" transform-origin="327.791px 248.642px"/>
      </g>
    </g>
    <path id="ely3s1tbby0xi" fill="#CE7A63" d="M306.81 252.64a5.39 5.39 0 0 1-4.44 6.5 23 23 0 0 1-4.94.19l-.38-10.15 7.77 1.52a2.53 2.53 0 0 1 1.99 1.94Z" class="animable" transform-origin="301.995px 254.283px"/>
    <path id="ele3wf4c5961" fill="#CE7A63" d="m297.05 249.18.41 10.18-3.77.22a4.7 4.7 0 0 1-4.87-3.61l-.05-.24a4.7 4.7 0 0 1 3.72-5.7Z" class="animable" transform-origin="293.052px 254.385px"/>
  </g>
  <g id="freepik--Desk--inject-29" class="animable animator-hidden">
    <path id="elhybwqqbgmz" fill="#263238" d="m205.19 243.32-2.71 27.48h4.43l-1.72-27.48z" class="animable" transform-origin="204.695px 257.06px"/>
    <path id="elz2ypor8p5s" fill="#BA68C8" d="m238.26 270.64-31.81.13-1.55-27.44 31.8-.14 1.56 27.45z" class="animable" transform-origin="221.58px 256.98px"/>
    <g id="el0bogkq8atcla">
      <path id="elzb8xswuqe5g" fill="#FFF" d="m238.26 270.64-31.81.13-1.55-27.44 31.8-.14 1.56 27.45z" class="animable" opacity=".6" transform-origin="221.58px 256.98px"/>
    </g>
    <path id="elcg7o3dd5l4c" fill="#263238" d="m236.7 243.19-31.8.14-.3-5.14 31.81-.13.29 5.13z" class="animable" transform-origin="220.65px 240.695px"/>
    <path id="eljk3bk00b0i9" fill="#BA68C8" d="M209.36 236.47a.9.9 0 0 0-.89-.84.79.79 0 0 0-.8.85c0 .3.17 3.09.19 3.39a.91.91 0 0 0 .89.85.8.8 0 0 0 .8-.85c-.01-.24-.17-3.16-.19-3.4Z" class="animable" transform-origin="208.61px 238.175px"/>
    <path id="elh05mqnk1tmc" fill="#BA68C8" d="M215.48 236.45a.9.9 0 0 0-.89-.85.8.8 0 0 0-.8.86c0 .3.17 3.09.19 3.39a.91.91 0 0 0 .9.84.8.8 0 0 0 .8-.85c-.02-.24-.18-3.15-.2-3.39Z" class="animable" transform-origin="214.735px 238.145px"/>
    <path id="elyncup97xvf" fill="#BA68C8" d="M221.61 236.42a.91.91 0 0 0-.9-.84.79.79 0 0 0-.8.85c0 .3.18 3.09.19 3.39a.91.91 0 0 0 .9.85.81.81 0 0 0 .8-.86c-.02-.24-.18-3.15-.19-3.39Z" class="animable" transform-origin="220.855px 238.125px"/>
    <path id="elebjbyisr5n" fill="#BA68C8" d="M227.73 236.4a.91.91 0 0 0-.9-.85.81.81 0 0 0-.8.85c0 .3.18 3.1.2 3.4a.9.9 0 0 0 .89.84.79.79 0 0 0 .8-.85c-.01-.24-.18-3.15-.19-3.39Z" class="animable" transform-origin="226.976px 238.095px"/>
    <path id="ellb36of3l1ri" fill="#BA68C8" d="M233.85 236.37a.9.9 0 0 0-.89-.84.79.79 0 0 0-.8.85c0 .3.17 3.09.19 3.39a.88.88 0 0 0 .89.84.79.79 0 0 0 .8-.85c-.04-.24-.18-3.15-.19-3.39Z" class="animable" transform-origin="233.1px 238.07px"/>
    <g id="eltdcqla4njzh">
      <g id="elr8t0x79eplr" class="animable" opacity=".7">
        <path id="elr1y0cjdhulm" fill="#FFF" d="M209.36 236.47a.9.9 0 0 0-.89-.84.79.79 0 0 0-.8.85c0 .3.17 3.09.19 3.39a.91.91 0 0 0 .89.85.8.8 0 0 0 .8-.85c-.01-.24-.17-3.16-.19-3.4Z" class="animable" transform-origin="208.61px 238.175px"/>
        <path id="eld3n2o6dm60r" fill="#FFF" d="M215.48 236.45a.9.9 0 0 0-.89-.85.8.8 0 0 0-.8.86c0 .3.17 3.09.19 3.39a.91.91 0 0 0 .9.84.8.8 0 0 0 .8-.85c-.02-.24-.18-3.15-.2-3.39Z" class="animable" transform-origin="214.735px 238.145px"/>
        <path id="el18i6rro7echi" fill="#FFF" d="M221.61 236.42a.91.91 0 0 0-.9-.84.79.79 0 0 0-.8.85c0 .3.18 3.09.19 3.39a.91.91 0 0 0 .9.85.81.81 0 0 0 .8-.86c-.02-.24-.18-3.15-.19-3.39Z" class="animable" transform-origin="220.855px 238.125px"/>
        <path id="els8nf6u2sa3j" fill="#FFF" d="M227.73 236.4a.91.91 0 0 0-.9-.85.81.81 0 0 0-.8.85c0 .3.18 3.1.2 3.4a.9.9 0 0 0 .89.84.79.79 0 0 0 .8-.85c-.01-.24-.18-3.15-.19-3.39Z" class="animable" transform-origin="226.976px 238.095px"/>
        <path id="el0n95qtszlbap" fill="#FFF" d="M233.85 236.37a.9.9 0 0 0-.89-.84.79.79 0 0 0-.8.85c0 .3.17 3.09.19 3.39a.88.88 0 0 0 .89.84.79.79 0 0 0 .8-.85c-.04-.24-.18-3.15-.19-3.39Z" class="animable" transform-origin="233.1px 238.07px"/>
      </g>
    </g>
    <path id="elmbx86j9lmf" fill="#BA68C8" d="m239.15 269.87-31.81.13-2.44-26.67 31.8-.14 2.45 26.68z" class="animable" transform-origin="222.025px 256.595px"/>
    <g id="elo6sk3t1ee79">
      <path id="elbb8trju4bnp" fill="#FFF" d="m239.15 269.87-31.81.13-2.44-26.67 31.8-.14 2.45 26.68z" class="animable" opacity=".8" transform-origin="222.025px 256.595px"/>
    </g>
    <path id="elgfjoc2d2h97" fill="#BA68C8" d="m229.97 249.78-15.75.06-.43-4.69 15.75-.07.43 4.7z" class="animable" transform-origin="221.88px 247.46px"/>
    <g id="elhmj4fwc6s4b">
      <path id="eltpla3qeorjn" fill="#FFF" d="m229.97 249.78-15.75.06-.43-4.69 15.75-.07.43 4.7z" class="animable" opacity=".6" transform-origin="221.88px 247.46px"/>
    </g>
    <path id="eljuv28lr065p" fill="#FFF" d="m212.13 255.92-4.21.02-.39-4.21 4.21-.02.39 4.21z" class="animable" transform-origin="209.83px 253.825px"/>
    <path id="ely50kaeqrl3e" fill="#FFF" d="m218.09 255.89-4.2.02-.39-4.2 4.21-.02.38 4.2z" class="animable" transform-origin="215.795px 253.8px"/>
    <path id="eltmt9q5bocm" fill="#BA68C8" d="m212.64 261.59-4.2.02-.39-4.21 4.21-.02.38 4.21z" class="animable" transform-origin="210.345px 259.495px"/>
    <path id="el4fwysx392sa" fill="#BA68C8" d="m213.16 267.26-4.2.02-.39-4.21 4.21-.01.38 4.2z" class="animable" transform-origin="210.865px 265.17px"/>
    <path id="elfshzjfwcydr" fill="#BA68C8" d="m218.61 261.57-4.2.01-.39-4.2 4.2-.02.39 4.21z" class="animable" transform-origin="216.315px 259.47px"/>
    <g id="elgngyn5o1m1b">
      <path id="elafzjy63wsw" fill="#FFF" d="m218.61 261.57-4.2.01-.39-4.2 4.2-.02.39 4.21z" class="animable" opacity=".2" transform-origin="216.315px 259.47px"/>
    </g>
    <path id="elpe9730m4b0q" fill="#BA68C8" d="m224.58 261.54-4.21.02-.38-4.21 4.2-.02.39 4.21z" class="animable" transform-origin="222.285px 259.445px"/>
    <g id="el10tbyu55f64c">
      <path id="ely8m0fcij13r" fill="#FFF" d="m224.58 261.54-4.21.02-.38-4.21 4.2-.02.39 4.21z" class="animable" opacity=".2" transform-origin="222.285px 259.445px"/>
    </g>
    <path id="el14yblxuawtw" fill="#BA68C8" d="m230.54 261.52-4.2.01-.39-4.2 4.21-.02.38 4.21z" class="animable" transform-origin="228.245px 259.42px"/>
    <g id="ellwqgmrrt0nt">
      <path id="el9izurgvl6mq" fill="#FFF" d="m230.54 261.52-4.2.01-.39-4.2 4.21-.02.38 4.21z" class="animable" opacity=".2" transform-origin="228.245px 259.42px"/>
    </g>
    <path id="elvwxgb6y789" fill="#BA68C8" d="m236.51 261.49-4.21.02-.38-4.21 4.2-.01.39 4.2z" class="animable" transform-origin="234.215px 259.4px"/>
    <g id="elulhsesdp2ag">
      <path id="ele0lo5m3rbvt" fill="#FFF" d="m236.51 261.49-4.21.02-.38-4.21 4.2-.01.39 4.2z" class="animable" opacity=".2" transform-origin="234.215px 259.4px"/>
    </g>
    <path id="elora4pxh2u4" fill="#BA68C8" d="m219.13 267.24-4.21.02-.38-4.21 4.21-.02.38 4.21z" class="animable" transform-origin="216.835px 265.145px"/>
    <g id="elvc5ee43i76m">
      <path id="elaq67d37x27" fill="#FFF" d="m219.13 267.24-4.21.02-.38-4.21 4.21-.02.38 4.21z" class="animable" opacity=".2" transform-origin="216.835px 265.145px"/>
    </g>
    <path id="elr1fv1ipn81" fill="#BA68C8" d="m225.09 267.21-4.2.02-.39-4.21 4.21-.01.38 4.2z" class="animable" transform-origin="222.795px 265.12px"/>
    <g id="elimylhe6olc">
      <path id="eli81e34a6ys" fill="#FFF" d="m225.09 267.21-4.2.02-.39-4.21 4.21-.01.38 4.2z" class="animable" opacity=".2" transform-origin="222.795px 265.12px"/>
    </g>
    <path id="el8e9txv7pxj9" fill="#BA68C8" d="m231.06 267.19-4.2.02-.39-4.21 4.21-.02.38 4.21z" class="animable" transform-origin="228.765px 265.095px"/>
    <g id="elk0r9znt3ilr">
      <path id="elnrfzpf5ud2" fill="#FFF" d="m231.06 267.19-4.2.02-.39-4.21 4.21-.02.38 4.21z" class="animable" opacity=".2" transform-origin="228.765px 265.095px"/>
    </g>
    <path id="elygjosk5n61" fill="none" d="m224.06 255.87-4.21.02-.38-4.21 4.2-.02.39 4.21z" class="animable" transform-origin="221.765px 253.775px"/>
    <path id="elkzr7p1xoua" fill="#BA68C8" d="m224.06 255.87-4.21.02-.38-4.21 4.2-.02.39 4.21z" class="animable" transform-origin="221.765px 253.775px"/>
    <g id="el0ou7zjgutc6i">
      <path id="elkyzlc2tohwe" fill="#FFF" d="m224.06 255.87-4.21.02-.38-4.21 4.2-.02.39 4.21z" class="animable" opacity=".2" transform-origin="221.765px 253.775px"/>
    </g>
    <path id="el502by0q68lv" fill="none" d="m230.02 255.84-4.2.02-.39-4.2 4.21-.02.38 4.2z" class="animable" transform-origin="227.725px 253.75px"/>
    <path id="elenpgmk486ie" fill="#BA68C8" d="m230.02 255.84-4.2.02-.39-4.2 4.21-.02.38 4.2z" class="animable" transform-origin="227.725px 253.75px"/>
    <g id="elbo9gq9g4vsp">
      <path id="el4fcbqq3fn3c" fill="#FFF" d="m230.02 255.84-4.2.02-.39-4.2 4.21-.02.38 4.2z" class="animable" opacity=".2" transform-origin="227.725px 253.75px"/>
    </g>
    <path id="ele6k76ctrmxt" fill="none" d="m235.99 255.82-4.21.02-.38-4.21 4.2-.02.39 4.21z" class="animable" transform-origin="233.695px 253.725px"/>
    <path id="el5i7dxoc1a9l" fill="#BA68C8" d="m235.99 255.82-4.21.02-.38-4.21 4.2-.02.39 4.21z" class="animable" transform-origin="233.695px 253.725px"/>
    <g id="eliqz66rys339">
      <path id="el43ulmutiosz" fill="#FFF" d="m235.99 255.82-4.21.02-.38-4.21 4.2-.02.39 4.21z" class="animable" opacity=".2" transform-origin="233.695px 253.725px"/>
    </g>
    <path id="el1f6m5c8vxj4" fill="#FFF" d="m237.03 267.16-4.21.02-.38-4.2 4.2-.02.39 4.2z" class="animable" transform-origin="234.735px 265.07px"/>
    <path id="elrkvzlbnyohp" fill="#263238" d="M163.38 278.75v6.1h-35.84l-3.87 127.23h-3.29V278.75h43z" class="animable" transform-origin="141.88px 345.415px"/>
    <g id="el6yg331q3eot">
      <path id="el2mxszkgpviu" fill="#FFF" d="M163.38 278.75v6.1h-35.84l-3.87 127.23h-3.29V278.75h43z" class="animable" opacity=".7" transform-origin="141.88px 345.415px"/>
    </g>
    <g id="elh2fln6qui4t">
      <path id="el3epp6y2e425" fill="none" d="M163.38 278.75v6.1h-35.84l-3.87 127.23h-3.29V278.75h43z" class="animable" opacity=".3" transform-origin="141.88px 345.415px"/>
    </g>
    <path id="el391zz785pwe" fill="#263238" d="M120.38 412.08h-3.11l-1-133.33h4.11v133.33z" class="animable" transform-origin="118.325px 345.415px"/>
    <g id="el249gcn8icjz">
      <g id="el0dj2zf081uyn" class="animable" opacity=".3">
        <path id="el778x6m1wb6f" fill="#FFF" d="M120.38 412.08h-3.11l-1-133.33h4.11v133.33z" class="animable" transform-origin="118.325px 345.415px"/>
      </g>
    </g>
    <path id="elyukzf2pytqg" fill="#263238" d="M173.58 278.75v133.33h-3.26l-2.9-127.23h-3.84v-6.1h10z" class="animable" transform-origin="168.58px 345.415px"/>
    <path id="elnnzkgk4m9a" fill="#263238" d="M170.69 412.08h-3.11l-4-133.33h4.11l3 133.33z" class="animable" transform-origin="167.135px 345.415px"/>
    <g id="elzxmj1yuwdub">
      <g id="ellqu6splvx8" class="animable" opacity=".3">
        <path id="el4sx9nrmbz8s" fill="#FFF" d="M170.69 412.08h-3.11l-4-133.33h4.11l3 133.33z" class="animable" transform-origin="167.135px 345.415px"/>
      </g>
    </g>
    <g id="elufkzg63y2b">
      <path id="elq5r3m2xuzh7" fill="#FFF" d="M173.58 278.75v133.33h-3.26l-2.9-127.23h-3.84v-6.1h10z" class="animable" opacity=".7" transform-origin="168.58px 345.415px"/>
    </g>
    <path id="elgcipytqkkk7" fill="#263238" d="M369.15 412.08h-3.1l-4-133.33h4.1l3 133.33z" class="animable" transform-origin="365.6px 345.415px"/>
    <g id="elpx87cauxewq">
      <path id="elaa3fntf9ghi" fill="#FFF" d="M362.05 278.75h4.1l3 133.33h-3.1" class="animable" opacity=".3" transform-origin="365.6px 345.415px"/>
    </g>
    <path id="elixkfxbdact" fill="#263238" d="M120.4 278.75h195.47v10.11H120.4z" class="animable" transform-origin="218.135px 283.805px"/>
    <g id="el8amgws3lugv">
      <path id="elhrpizoqd3om" fill="#FFF" d="M120.4 278.75h195.47v10.11H120.4z" class="animable" opacity=".5" transform-origin="218.135px 283.805px"/>
    </g>
    <path id="eloyalh0jtten" fill="#263238" d="M319.05 278.75v133.33h3.28l3.87-127.24h39.69l2.9 127.24h3.26V278.75h-53z" class="animable" transform-origin="345.55px 345.415px"/>
    <g id="el2z9zqg5lapy">
      <path id="elnt5212w3bvj" fill="#FFF" d="M319.05 278.75v133.33h3.28l3.87-127.24h39.69l2.9 127.24h3.26V278.75h-53z" class="animable" opacity=".7" transform-origin="345.55px 345.415px"/>
    </g>
    <path id="elk1abyigeupf" fill="#263238" d="M319.05 412.08h-3.11l-1-133.33h4.11v133.33z" class="animable" transform-origin="316.995px 345.415px"/>
    <g id="eleaqoesc4sj">
      <path id="eln14hn9rs7ie" fill="#FFF" d="M319.05 412.08h-3.11l-1-133.33h4.11v133.33z" class="animable" opacity=".3" transform-origin="316.995px 345.415px"/>
    </g>
    <path id="elarn9d3rk80p" fill="#263238" d="M110.83 271.08h205.65v7.67H110.83z" class="animable" transform-origin="213.655px 274.915px"/>
    <g id="elzs5daixp6kf">
      <path id="elxj1a4xliu3j" fill="#FFF" d="M110.83 271.08h205.65v7.67H110.83z" class="animable" opacity=".6" transform-origin="213.655px 274.915px"/>
    </g>
    <path id="el4of1anwygl6" fill="#263238" d="M311.71 271.08h65.78v7.67h-65.78z" class="animable" transform-origin="344.6px 274.915px"/>
    <g id="elzoyga9wfs3">
      <path id="eldl6xwhamt2c" fill="#FFF" d="M311.71 271.08h65.78v7.67h-65.78z" class="animable" opacity=".7" transform-origin="344.6px 274.915px"/>
    </g>
  </g>
  <g id="freepik--Document--inject-29" class="animable" opacity="0" style="animation:1s 1 forwards cubic-bezier(.36,-0.01,.5,1.38) lightSpeedLeft;animation-delay:0.2s">
    <path id="el2f1qsv7o0ch" fill="#BA68C8" d="M195.15 254.8H75.09c16.81-60.8-16.81-121.57 0-182.36h120.06c-16.81 60.79 16.85 121.56 0 182.36Z" class="animable" opacity="0" style="animation:1s 1 forwards cubic-bezier(.36,-0.01,.5,1.38) lightSpeedLeft;animation-delay:0.2s" transform-origin="135.128px 163.62px"/>
    <g id="el77iubsd5m4m" opacity="0" style="animation:1s 1 forwards cubic-bezier(.36,-0.01,.5,1.38) lightSpeedLeft;animation-delay:0.043478260869565216s">
      <path id="elglsfsu2pp4o" fill="#FFF" d="M195.15 254.8H75.09c16.81-60.8-16.81-121.57 0-182.36h120.06c-16.81 60.79 16.85 121.56 0 182.36Z" class="animable" opacity=".7" transform-origin="135.128px 163.62px"/>
    </g>
    <path id="el0ao60uygw1ch" fill="#263238" d="M181.19 110.62h-54.25a.53.53 0 0 1-.53-.53.53.53 0 0 1 .53-.53h54.25a.53.53 0 0 1 .53.53.53.53 0 0 1-.53.53Z" class="animable" opacity="0" style="animation:1s 1 forwards cubic-bezier(.36,-0.01,.5,1.38) lightSpeedLeft;animation-delay:0.08695652173913043s" transform-origin="154.065px 110.09px"/>
    <path id="eldftpi9wk47r" fill="#263238" d="M181.45 121.4H127.2a.56.56 0 0 1-.55-.53.5.5 0 0 1 .5-.53h54.25a.57.57 0 0 1 .56.53.51.51 0 0 1-.51.53Z" class="animable" opacity="0" style="animation:1s 1 forwards cubic-bezier(.36,-0.01,.5,1.38) lightSpeedLeft;animation-delay:0.13043478260869565s" transform-origin="154.305px 120.87px"/>
    <path id="elpd26mnoenz" fill="#263238" d="M182.15 132.23h-102a.6.6 0 0 1-.58-.53.48.48 0 0 1 .48-.53h102a.58.58 0 0 1 .57.53.48.48 0 0 1-.47.53Z" class="animable" opacity="0" style="animation:1s 1 forwards cubic-bezier(.36,-0.01,.5,1.38) lightSpeedLeft;animation-delay:0.17391304347826086s" transform-origin="131.095px 131.7px"/>
    <path id="elj2uxopnmp9a" fill="#263238" d="M190.63 224.67H88.6a.5.5 0 0 1-.51-.53.56.56 0 0 1 .56-.52h102a.49.49 0 0 1 .5.52.55.55 0 0 1-.52.53Z" class="animable" opacity="0" style="animation:1s 1 forwards cubic-bezier(.36,-0.01,.5,1.38) lightSpeedLeft;animation-delay:0.21739130434782608s" transform-origin="139.62px 224.145px"/>
    <path id="el6kyhla218et" fill="#263238" d="M121 243.2H86.56a.43.43 0 0 1-.43-.53.66.66 0 0 1 .62-.53h34.41a.43.43 0 0 1 .43.53.66.66 0 0 1-.59.53Z" class="animable" opacity="0" style="animation:1s 1 forwards cubic-bezier(.36,-0.01,.5,1.38) lightSpeedLeft;animation-delay:0.2608695652173913s" transform-origin="103.86px 242.67px"/>
    <path id="elfqno95zzi5o" fill="#263238" d="M188.94 243.2h-34.41a.43.43 0 0 1-.43-.53.65.65 0 0 1 .62-.53h34.41a.43.43 0 0 1 .43.53.66.66 0 0 1-.62.53Z" class="animable" opacity="0" style="animation:1s 1 forwards cubic-bezier(.36,-0.01,.5,1.38) lightSpeedLeft;animation-delay:0.30434782608695654s" transform-origin="171.83px 242.67px"/>
    <path id="el5b755q1t2hg" fill="#BA68C8" d="M107.21 97.12c0 4.53-3.41 7.35-8.84 7.35h-4.1v5.61h-4.71V89.73h8.81c5.43 0 8.84 2.82 8.84 7.39Zm-4.77 0c0-2.24-1.46-3.55-4.33-3.55h-3.84v7.06h3.84c2.89 0 4.33-1.3 4.33-3.51Z" class="animable" opacity="0" style="animation:1s 1 forwards cubic-bezier(.36,-0.01,.5,1.38) lightSpeedLeft;animation-delay:0.34782608695652173s" transform-origin="98.385px 99.905px"/>
    <path id="elfiddtdx5pwi" fill="#BA68C8" d="m110.44 121.71-4.91-7.06-4.83 7.06h-5.41l7.53-10.35-7.15-10H101l4.68 6.6 4.6-6.6h5.09l-7.1 9.83 7.59 10.52Z" class="animable" opacity="0" style="animation:1s 1 forwards cubic-bezier(.36,-0.01,.5,1.38) lightSpeedLeft;animation-delay:0.3913043478260869s" transform-origin="105.575px 111.535px"/>
    <path id="eloxp56qqmo9p" fill="#263238" d="M86.58 139c0 1.12-.84 1.82-2.19 1.82h-1v1.39h-1.18v-5h2.18c1.35-.09 2.19.61 2.19 1.79Zm-1.18 0c0-.55-.36-.88-1.07-.88h-1v1.75h1c.67-.05 1.07-.37 1.07-.87Z" class="animable" opacity="0" style="animation:1s 1 forwards cubic-bezier(.36,-0.01,.5,1.38) lightSpeedLeft;animation-delay:0.43478260869565216s" transform-origin="84.395px 139.706px"/>
    <path id="elmnl7gurtwa" fill="#263238" d="M89.73 138.23v1h-.26a1 1 0 0 0-1 1.08v1.83h-1.15v-3.87h1.07v.51a1.57 1.57 0 0 1 1.34-.55Z" class="animable" opacity="0" style="animation:1s 1 forwards cubic-bezier(.36,-0.01,.5,1.38) lightSpeedLeft;animation-delay:0.4782608695652174s" transform-origin="88.525px 140.182px"/>
    <path id="el131swdk63wih" fill="#263238" d="M94.12 140.54H91.2a1 1 0 0 0 1.1.78 1.31 1.31 0 0 0 1-.38l.6.65a2.25 2.25 0 0 1-3.8-1.37 2 2 0 0 1 2.06-2 1.92 1.92 0 0 1 2 2c-.01.1-.03.23-.04.32Zm-2.94-.66h1.91a1 1 0 0 0-1.91 0Z" class="animable" opacity="0" style="animation:1s 1 forwards cubic-bezier(.36,-0.01,.5,1.38) lightSpeedLeft;animation-delay:0.5217391304347826s" transform-origin="92.1309px 140.22px"/>
    <path id="elw5vuyqoo6ja" fill="#263238" d="m94.51 141.8.38-.81a2.56 2.56 0 0 0 1.34.38c.52 0 .72-.14.72-.36 0-.63-2.34 0-2.34-1.53 0-.73.66-1.25 1.79-1.25a3.15 3.15 0 0 1 1.49.34l-.38.8a2.17 2.17 0 0 0-1.11-.29c-.5 0-.72.16-.72.36 0 .66 2.34 0 2.34 1.55 0 .71-.67 1.23-1.83 1.23a3.32 3.32 0 0 1-1.68-.42Z" class="animable" opacity="0" style="animation:1s 1 forwards cubic-bezier(.36,-0.01,.5,1.38) lightSpeedLeft;animation-delay:0.5652173913043478s" transform-origin="96.265px 140.225px"/>
    <path id="el8cxqno8uc3s" fill="#263238" d="M98.42 140.22a2 2 0 0 1 2.15-2 1.77 1.77 0 0 1 1.74 1l-.87.46a1 1 0 0 0-.87-.53 1.07 1.07 0 0 0 0 2.14.94.94 0 0 0 .87-.53l.87.48a1.8 1.8 0 0 1-1.74 1 2 2 0 0 1-2.15-2.02Z" class="animable" opacity="0" style="animation:1s 1 forwards cubic-bezier(.36,-0.01,.5,1.38) lightSpeedLeft;animation-delay:0.6086956521739131s" transform-origin="100.365px 140.23px"/>
    <path id="elhxlgt7w6qui" fill="#263238" d="M105.35 138.23v1h-.25a1 1 0 0 0-1 1.08v1.83H103v-3.87h1v.51a1.56 1.56 0 0 1 1.35-.55Z" class="animable" opacity="0" style="animation:1s 1 forwards cubic-bezier(.36,-0.01,.5,1.38) lightSpeedLeft;animation-delay:0.6521739130434783s" transform-origin="104.175px 140.181px"/>
    <path id="el6j06zwkjtcm" fill="#263238" d="M105.88 137.12a.64.64 0 0 1 .7-.62.63.63 0 0 1 .7.6.7.7 0 0 1-1.4 0Zm.14 1.17h1.12v3.87H106Z" class="animable" opacity="0" style="animation:1s 1 forwards cubic-bezier(.36,-0.01,.5,1.38) lightSpeedLeft;animation-delay:0.6956521739130435s" transform-origin="106.58px 139.328px"/>
    <path id="elqurgqc5f2f8" fill="#263238" d="M112.4 140.22a1.89 1.89 0 0 1-1.93 2 1.54 1.54 0 0 1-1.17-.47v1.8h-1.12v-5.26h1.07v.44a1.53 1.53 0 0 1 1.22-.5 1.89 1.89 0 0 1 1.93 1.99Zm-1.14 0a1 1 0 1 0-1 1.07 1 1 0 0 0 1-1.07Z" class="animable" opacity="0" style="animation:1s 1 forwards cubic-bezier(.36,-0.01,.5,1.38) lightSpeedLeft;animation-delay:0.7391304347826086s" transform-origin="110.292px 140.889px"/>
    <path id="elbu3txfaay7" fill="#263238" d="M115.64 142a1.6 1.6 0 0 1-.92.25 1.27 1.27 0 0 1-1.44-1.39v-1.59h-.6v-.87h.6v-.94h1.12v.94h1v.87h-1v1.57a.45.45 0 0 0 .48.51.75.75 0 0 0 .45-.14Z" class="animable" opacity="0" style="animation:1s 1 forwards cubic-bezier(.36,-0.01,.5,1.38) lightSpeedLeft;animation-delay:0.7826086956521738s" transform-origin="114.16px 139.861px"/>
    <path id="elil6xp2ah7di" fill="#263238" d="M116.13 137.12a.64.64 0 0 1 .7-.62.63.63 0 0 1 .69.6.7.7 0 0 1-1.39 0Zm.13 1.17h1.13v3.87h-1.13Z" class="animable" opacity="0" style="animation:1s 1 forwards cubic-bezier(.36,-0.01,.5,1.38) lightSpeedLeft;animation-delay:0.8260869565217391s" transform-origin="116.825px 139.329px"/>
    <path id="elyscxu8tkuy" fill="#263238" d="M118.14 140.22a2.13 2.13 0 1 1 2.13 2 2 2 0 0 1-2.13-2Zm3.11 0a1 1 0 1 0-1 1.07 1 1 0 0 0 1-1.07Z" class="animable" opacity="0" style="animation:1s 1 forwards cubic-bezier(.36,-0.01,.5,1.38) lightSpeedLeft;animation-delay:0.8695652173913043s" transform-origin="120.266px 140.092px"/>
    <path id="elt4qyqeib6aj" fill="#263238" d="M127.09 139.94v2.22H126v-2c0-.62-.29-.91-.79-.91s-.92.33-.92 1v1.92h-1.13v-3.87h1.08v.45a1.69 1.69 0 0 1 1.28-.51 1.51 1.51 0 0 1 1.57 1.7Z" class="animable" opacity="0" style="animation:1s 1 forwards cubic-bezier(.36,-0.01,.5,1.38) lightSpeedLeft;animation-delay:0.9130434782608695s" transform-origin="125.131px 140.204px"/>
    <path id="el0vjkr9e79jw" fill="#263238" d="M127.83 138.93a.66.66 0 0 1 .69-.69.67.67 0 0 1 .7.69.68.68 0 0 1-.7.7.68.68 0 0 1-.69-.7Zm0 2.58a.66.66 0 0 1 .69-.69.67.67 0 0 1 .7.69.69.69 0 0 1-.7.71.68.68 0 0 1-.69-.71Z" class="animable" opacity="0" style="animation:1s 1 forwards cubic-bezier(.36,-0.01,.5,1.38) lightSpeedLeft;animation-delay:0.9565217391304348s" transform-origin="128.525px 140.23px"/>
  </g>
  <g id="freepik--Medicine--inject-29" class="animable animator-active" style="animation:1s 1 forwards cubic-bezier(.36,-0.01,.5,1.38) fadeIn;animation-delay:0s">
    <g id="elbwj3inuqgns" style="animation:1s 1 forwards cubic-bezier(.36,-0.01,.5,1.38) fadeIn;animation-delay:0s">
      <rect id="el11zuybn7xsrq" width="30.88" height="76.21" x="184.6" y="133.34" class="animable" rx="6.11" transform="rotate(17.66)" transform-origin="200.04px 171.445px"/>
    </g>
    <g id="el50lqhcsbp3v" opacity="0" style="animation:1s 1 forwards cubic-bezier(.36,-0.01,.5,1.38) fadeIn;animation-delay:0.045454545454545456s">
      <path id="el65eowq0dkbm" fill="#FFF" d="M224.74 144a5.79 5.79 0 0 1-.28 1.67l-19.41 61a6.37 6.37 0 0 1-.23.61 6.1 6.1 0 0 1-7.44 3.36l-17.79-5.66a6.11 6.11 0 0 1-4-7.53l11.2-35.17 8.21-26.01a6.11 6.11 0 0 1 7.67-4L220.5 138a5.93 5.93 0 0 1 1.12.49 6.08 6.08 0 0 1 3.12 5.51Z" class="animable" opacity=".8" transform-origin="200.044px 171.458px"/>
    </g>
    <g id="eluonx96br9i8" opacity="0" style="animation:1s 1 forwards cubic-bezier(.36,-0.01,.5,1.38) fadeIn;animation-delay:0.09090909090909091s">
      <g id="elui7i2ngk3tg" class="animable" opacity=".6">
        <g id="elwaxbpbrwgsf">
          <path id="eltl22nfjc93d" fill="#FFF" d="m181.72 178.11 8.07-25.33 22.85-17.32 9 3a6.08 6.08 0 0 1 3.12 5.52Z" class="animable" opacity=".5" transform-origin="203.242px 156.785px"/>
        </g>
      </g>
    </g>
    <g id="eldo35z0vj8yt" opacity="0" style="animation:1s 1 forwards cubic-bezier(.36,-0.01,.5,1.38) fadeIn;animation-delay:0.13636363636363635s">
      <path id="el5gzgkmyjot" fill="#FFF" d="m193 142.6 2-6.33a6.11 6.11 0 0 1 7.67-4l2.67.85Z" class="animable" opacity=".5" transform-origin="199.17px 137.293px"/>
    </g>
    <path id="el2o2jy3kvn4x" fill="#BA68C8" d="M205.27 142.35a2.34 2.34 0 1 1-1.52-2.94 2.33 2.33 0 0 1 1.52 2.94Z" class="animable" opacity="0" style="animation:1s 1 forwards cubic-bezier(.36,-0.01,.5,1.38) fadeIn;animation-delay:0.18181818181818182s" transform-origin="203.042px 141.64px"/>
    <path id="el5n22hinu9n5" fill="#BA68C8" d="M200.81 156.33a2.33 2.33 0 1 1-1.51-2.93 2.33 2.33 0 0 1 1.51 2.93Z" class="animable" opacity="0" style="animation:1s 1 forwards cubic-bezier(.36,-0.01,.5,1.38) fadeIn;animation-delay:0.2272727272727273s" transform-origin="198.591px 155.62px"/>
    <path id="elkpfxd7ofk9m" fill="#BA68C8" d="M196.36 170.32a2.34 2.34 0 1 1-1.52-2.93 2.33 2.33 0 0 1 1.52 2.93Z" class="animable" opacity="0" style="animation:1s 1 forwards cubic-bezier(.36,-0.01,.5,1.38) fadeIn;animation-delay:0.2727272727272727s" transform-origin="194.129px 169.619px"/>
    <path id="elc4awcabb0ie" fill="#BA68C8" d="M191.91 184.31a2.34 2.34 0 1 1-1.52-2.94 2.33 2.33 0 0 1 1.52 2.94Z" class="animable" opacity="0" style="animation:1s 1 forwards cubic-bezier(.36,-0.01,.5,1.38) fadeIn;animation-delay:0.3181818181818182s" transform-origin="189.682px 183.6px"/>
    <path id="eltudmv2vsmgf" fill="#BA68C8" d="M187.46 198.29a2.34 2.34 0 1 1-1.52-2.93 2.35 2.35 0 0 1 1.52 2.93Z" class="animable" opacity="0" style="animation:1s 1 forwards cubic-bezier(.36,-0.01,.5,1.38) fadeIn;animation-delay:0.36363636363636365s" transform-origin="185.226px 197.589px"/>
    <path id="elol7jyywnrw8" fill="#BA68C8" d="M216.51 145.93a2.34 2.34 0 0 1-4.45-1.42 2.34 2.34 0 1 1 4.45 1.42Z" class="animable" opacity="0" style="animation:1s 1 forwards cubic-bezier(.36,-0.01,.5,1.38) fadeIn;animation-delay:0.4090909090909091s" transform-origin="214.329px 145.082px"/>
    <path id="eltyrum0i4deg" fill="#BA68C8" d="M212.06 159.91a2.33 2.33 0 1 1-1.52-2.93 2.34 2.34 0 0 1 1.52 2.93Z" class="animable" opacity="0" style="animation:1s 1 forwards cubic-bezier(.36,-0.01,.5,1.38) fadeIn;animation-delay:0.4545454545454546s" transform-origin="209.839px 159.202px"/>
    <path id="elu9huhco7ezo" fill="#BA68C8" d="M207.61 173.9a2.34 2.34 0 1 1-1.52-2.93 2.35 2.35 0 0 1 1.52 2.93Z" class="animable" opacity="0" style="animation:1s 1 forwards cubic-bezier(.36,-0.01,.5,1.38) fadeIn;animation-delay:0.5s" transform-origin="205.376px 173.199px"/>
    <path id="el16f80o8xnsd" fill="#BA68C8" d="M203.15 187.89a2.34 2.34 0 0 1-4.45-1.42 2.34 2.34 0 1 1 4.45 1.42Z" class="animable" opacity="0" style="animation:1s 1 forwards cubic-bezier(.36,-0.01,.5,1.38) fadeIn;animation-delay:0.5454545454545454s" transform-origin="200.969px 187.042px"/>
    <path id="elkgjxpamgw5" fill="#BA68C8" d="M198.7 201.87a2.33 2.33 0 1 1-1.52-2.93 2.34 2.34 0 0 1 1.52 2.93Z" class="animable" opacity="0" style="animation:1s 1 forwards cubic-bezier(.36,-0.01,.5,1.38) fadeIn;animation-delay:0.5909090909090909s" transform-origin="196.479px 201.162px"/>
    <g id="elvhs5c47tiac" opacity="0" style="animation:1s 1 forwards cubic-bezier(.36,-0.01,.5,1.38) fadeIn;animation-delay:0.6363636363636364s">
      <g id="eltyz8771o5mf" class="animable" opacity=".4">
        <path id="el989kal0hfzc" fill="#FFF" d="M205.27 142.35a2.34 2.34 0 1 1-1.52-2.94 2.33 2.33 0 0 1 1.52 2.94Z" class="animable" transform-origin="203.042px 141.64px"/>
        <path id="el62sxz1z6bb7" fill="#FFF" d="M200.81 156.33a2.33 2.33 0 1 1-1.51-2.93 2.33 2.33 0 0 1 1.51 2.93Z" class="animable" transform-origin="198.591px 155.62px"/>
        <path id="elnwf41wbm0ai" fill="#FFF" d="M196.36 170.32a2.34 2.34 0 1 1-1.52-2.93 2.33 2.33 0 0 1 1.52 2.93Z" class="animable" transform-origin="194.129px 169.619px"/>
        <path id="el0lstyztuzek" fill="#FFF" d="M191.91 184.31a2.34 2.34 0 1 1-1.52-2.94 2.33 2.33 0 0 1 1.52 2.94Z" class="animable" transform-origin="189.682px 183.6px"/>
        <path id="el84xhp7v6a4d" fill="#FFF" d="M187.46 198.29a2.34 2.34 0 1 1-1.52-2.93 2.35 2.35 0 0 1 1.52 2.93Z" class="animable" transform-origin="185.226px 197.589px"/>
      </g>
    </g>
    <g id="el1g9q8y0rra6" opacity="0" style="animation:1s 1 forwards cubic-bezier(.36,-0.01,.5,1.38) fadeIn;animation-delay:0.6818181818181819s">
      <g id="elxlo5u09493d" class="animable" opacity=".4">
        <path id="elwt7kza7xnn" fill="#FFF" d="M216.51 145.93a2.34 2.34 0 0 1-4.45-1.42 2.34 2.34 0 1 1 4.45 1.42Z" class="animable" transform-origin="214.329px 145.082px"/>
        <path id="elh358anog2" fill="#FFF" d="M212.06 159.91a2.33 2.33 0 1 1-1.52-2.93 2.34 2.34 0 0 1 1.52 2.93Z" class="animable" transform-origin="209.839px 159.202px"/>
        <path id="elnxbyvopnze" fill="#FFF" d="M207.61 173.9a2.34 2.34 0 1 1-1.52-2.93 2.35 2.35 0 0 1 1.52 2.93Z" class="animable" transform-origin="205.376px 173.199px"/>
        <path id="eld16tqmfxw1c" fill="#FFF" d="M203.15 187.89a2.34 2.34 0 0 1-4.45-1.42 2.34 2.34 0 1 1 4.45 1.42Z" class="animable" transform-origin="200.969px 187.042px"/>
        <path id="elyq6am6y1q8" fill="#FFF" d="M198.7 201.87a2.33 2.33 0 1 1-1.52-2.93 2.34 2.34 0 0 1 1.52 2.93Z" class="animable" transform-origin="196.479px 201.162px"/>
      </g>
    </g>
    <g id="elgxqk19gylts" opacity="0" style="animation:1s 1 forwards cubic-bezier(.36,-0.01,.5,1.38) fadeIn;animation-delay:0.7272727272727273s">
      <path id="elzwu8c17gjr" fill="#FFF" d="m186.84 208-30.72 6.34a5.45 5.45 0 0 1-6.43-4.23l-8.84-42.86a13 13 0 0 1 6.66-14.15 12.89 12.89 0 0 1 3.45-1.24l15.87-3.27a13 13 0 0 1 15.38 10.12l8.85 42.86a5.43 5.43 0 0 1-4.22 6.43Z" class="animable" opacity=".7" transform-origin="165.876px 181.385px"/>
    </g>
    <g id="el5x51ojfe95q" opacity="0" style="animation:1s 1 forwards cubic-bezier(.36,-0.01,.5,1.38) fadeIn;animation-delay:0.7727272727272727s">
      <path id="elxvayv9ashj" fill="#BA68C8" d="M144.09 164.6h42.24v32.48h-42.24z" class="animable" transform="rotate(-11.66)" transform-origin="165.21px 180.84px"/>
    </g>
    <g id="el6pe6cm4zcq3" opacity="0" style="animation:1s 1 forwards cubic-bezier(.36,-0.01,.5,1.38) fadeIn;animation-delay:0.8181818181818182s">
      <path id="el7kjh0y9hjos" fill="#FFF" d="M144.09 164.6h42.24v32.48h-42.24z" class="animable" opacity=".4" transform="rotate(-11.66)" transform-origin="165.21px 180.84px"/>
    </g>
    <g id="elxui9bg3rwp" opacity="0" style="animation:1s 1 forwards cubic-bezier(.36,-0.01,.5,1.38) fadeIn;animation-delay:0.8636363636363636s">
      <path id="elglv41zc2lkf" fill="#BA68C8" d="M146.56 140.21h23a2.83 2.83 0 0 1 2.83 2.83v4.35h-28.7V143a2.83 2.83 0 0 1 2.87-2.79Z" class="animable" transform="rotate(-11.66)" transform-origin="158.04px 143.8px"/>
    </g>
    <g id="eljgtmogwkm7" opacity="0" style="animation:1s 1 forwards cubic-bezier(.36,-0.01,.5,1.38) fadeIn;animation-delay:0.9090909090909092s">
      <path id="el3jj5vzr3exm" fill="#FFF" d="M171.67 148.5a13.16 13.16 0 0 0-4.84.09L151 151.86a12.89 12.89 0 0 0-3.45 1.24l-.68-3.31 24.08-5Z" class="animable" opacity=".7" transform-origin="159.27px 148.945px"/>
    </g>
    <g id="elzg5owgsdkar" opacity="0" style="animation:1s 1 forwards cubic-bezier(.36,-0.01,.5,1.38) fadeIn;animation-delay:0.9545454545454546s">
      <path id="elstn9a8zybig" fill="#FFF" d="M147.1 155.46a.77.77 0 0 0-1.43-.33 9.85 9.85 0 0 0-1.46 6c.54 3.6 8.22 42.85 9.4 48.86a2.21 2.21 0 0 0 .76 1.26 2.17 2.17 0 0 0 1.87.41l1.17-.29-10-51.31s-.18-2.46-.31-4.6Z" class="animable" opacity=".3" transform-origin="150.794px 183.238px"/>
    </g>
  </g>
  <defs>
    <filter id="active" height="200%">
      <feMorphology in="SourceAlpha" operator="dilate" radius="2" result="DILATED"/>
      <feFlood flood-color="#32DFEC" flood-opacity="1" result="PINK"/>
      <feComposite in="PINK" in2="DILATED" operator="in" result="OUTLINE"/>
      <feMerge>
        <feMergeNode in="OUTLINE"/>
        <feMergeNode in="SourceGraphic"/>
      </feMerge>
    </filter>
    <filter id="hover" height="200%">
      <feMorphology in="SourceAlpha" operator="dilate" radius="2" result="DILATED"/>
      <feFlood flood-color="red" flood-opacity=".5" result="PINK"/>
      <feComposite in="PINK" in2="DILATED" operator="in" result="OUTLINE"/>
      <feMerge>
        <feMergeNode in="OUTLINE"/>
        <feMergeNode in="SourceGraphic"/>
      </feMerge>
      <feColorMatrix values="0 0 0 0 0 0 1 0 0 0 0 0 0 0 0 0 0 0 1 0"/>
    </filter>
  </defs>
</svg>
