<svg xmlns="http://www.w3.org/2000/svg" id="freepik_stories-medical-prescription" class="animated" version="1.1" viewBox="0 0 500 500">
  <style>
    svg#freepik_stories-medical-prescription:not(.animated) .animable{opacity:0}@keyframes wind{0%{transform:rotate( 0deg )}25%{transform:rotate( 1deg )}75%{transform:rotate( -1deg )}}@keyframes zoomIn{0%{opacity:0;transform:scale(0.5)}100%{opacity:1;transform:scale(1)}}@keyframes slideRight{0%{opacity:0;transform:translateX(30px)}100%{opacity:1;transform:translateX(0)}}
  </style>
  <g id="freepik--background-complete--inject-62" class="animable" style="animation:1.5s Infinite linear wind;animation-delay:0s">
    <g id="elcqdafez8y7u">
      <rect id="elx26g0jjc56j" width="55.25" height="105.44" x="53.82" y="25.54" fill="#F5F5F5" class="animable" rx="5.21" transform="rotate(38.06)" transform-origin="81.445px 78.26px"/>
    </g>
    <path id="elcgdpu8xz30f" fill="#E0E0E0" d="M67.79 123.56c-.06.06-5.79-4.33-12.8-9.82s-12.65-10-12.6-10.07 5.78 4.33 12.8 9.82 12.65 10 12.6 10.07Z" class="animable" transform-origin="55.09px 113.615px"/>
    <path id="elb7z0k4ly9km" fill="#E0E0E0" d="M120.88 52.82c-.06.07-5.79-4.33-12.8-9.82s-12.66-10-12.6-10.07 5.78 4.33 12.8 9.82 12.65 10 12.6 10.07Z" class="animable" transform-origin="108.18px 42.875px"/>
    <path id="eluzbi93xra9" fill="#E0E0E0" d="M54.37 112.84c-.07-.06 12.06-15.66 27.08-34.84s27.26-34.7 27.33-34.65S96.73 59 81.7 78.19s-27.26 34.7-27.33 34.65Z" class="animable" transform-origin="81.575px 78.095px"/>
    <path id="elyx6ljm0csmp" fill="#EBEBEB" d="m87.88 48.13 3.19-4.28 4 3a2.66 2.66 0 0 1 .54 3.73 2.67 2.67 0 0 1-3.73.55Z" class="animable" transform-origin="92.011px 47.7522px"/>
    <path id="elawse8dw9qjf" fill="#E0E0E0" d="m91.79 44.39-3.19 4.27-4-3a2.68 2.68 0 0 1-.6-3.74 2.66 2.66 0 0 1 3.73-.54Z" class="animable" transform-origin="87.6411px 44.754px"/>
    <path id="elrg4k9kiu7k" fill="#EBEBEB" d="m108.54 63.91 3.19-4.28 4 3a2.68 2.68 0 0 1 .55 3.74 2.68 2.68 0 0 1-3.74.54Z" class="animable" transform-origin="112.673px 63.5344px"/>
    <path id="elb35r0hdq6mr" fill="#E0E0E0" d="m112.45 60.16-3.19 4.28-4-3a2.66 2.66 0 0 1-.54-3.73 2.66 2.66 0 0 1 3.73-.54Z" class="animable" transform-origin="108.319px 60.539px"/>
    <path id="el8vln3ybh4k9" fill="#EBEBEB" d="m78.93 59.93 3.19-4.28 4 3a2.68 2.68 0 0 1 .55 3.74 2.68 2.68 0 0 1-3.74.54Z" class="animable" transform-origin="83.0626px 59.5544px"/>
    <path id="elbd9p9lqbyoh" fill="#E0E0E0" d="m82.83 56.18-3.18 4.28-4-3a2.66 2.66 0 0 1-.54-3.73 2.66 2.66 0 0 1 3.73-.54Z" class="animable" transform-origin="78.704px 56.559px"/>
    <path id="el5peg3hbrf6w" fill="#EBEBEB" d="m100.06 76.05 3.19-4.27 4 3a2.67 2.67 0 0 1 .55 3.73 2.67 2.67 0 0 1-3.74.55Z" class="animable" transform-origin="104.192px 75.6846px"/>
    <path id="elx3jw8op1b3l" fill="#E0E0E0" d="m104 72.31-3.18 4.28-4-3a2.66 2.66 0 0 1-.54-3.73 2.67 2.67 0 0 1 3.73-.55Z" class="animable" transform-origin="99.874px 72.6878px"/>
    <path id="eln72jiz4ilr" fill="#EBEBEB" d="m70 71.72 3.19-4.28 4 3a2.66 2.66 0 0 1 .54 3.73 2.67 2.67 0 0 1-3.73.55Z" class="animable" transform-origin="74.131px 71.3422px"/>
    <path id="el95znyupg1ft" fill="#E0E0E0" d="m73.88 68-3.19 4.28-4-3a2.66 2.66 0 0 1-.55-3.73 2.67 2.67 0 0 1 3.7-.55Z" class="animable" transform-origin="69.7458px 68.3849px"/>
    <path id="el3gbuxm5djib" fill="#EBEBEB" d="m91.58 88.2 3.18-4.28 4 3a2.66 2.66 0 0 1 .54 3.73 2.67 2.67 0 0 1-3.73.55Z" class="animable" transform-origin="95.706px 87.8222px"/>
    <path id="el8jeutzcaq7n" fill="#E0E0E0" d="m95.48 84.46-3.19 4.28-4-3a2.67 2.67 0 0 1-.58-3.74 2.68 2.68 0 0 1 3.74-.55Z" class="animable" transform-origin="91.3357px 84.8324px"/>
    <path id="elci0n3nckyx" fill="#EBEBEB" d="M59.82 83.84 63 79.56l4 3a2.66 2.66 0 0 1 .54 3.73 2.66 2.66 0 0 1-3.73.54Z" class="animable" transform-origin="63.946px 83.461px"/>
    <path id="eldhjtl8borl8" fill="#E0E0E0" d="m63.72 80.09-3.19 4.28-4-3a2.68 2.68 0 0 1-.53-3.74 2.68 2.68 0 0 1 3.74-.54Z" class="animable" transform-origin="59.5938px 80.4656px"/>
    <path id="elsiuyy9dvr2" fill="#EBEBEB" d="m81.6 100.07 3.19-4.28 4 3a2.66 2.66 0 0 1 .55 3.73 2.66 2.66 0 0 1-3.73.54Z" class="animable" transform-origin="85.7342px 99.691px"/>
    <path id="elt5a8u8ctb8h" fill="#E0E0E0" d="m85.51 96.33-3.19 4.27-4-3a2.68 2.68 0 0 1-.54-3.74 2.66 2.66 0 0 1 3.73-.54Z" class="animable" transform-origin="81.3806px 96.694px"/>
    <path id="el1xqhc9yj3uh" fill="#EBEBEB" d="M50.84 97.49 54 93.21l4 3a2.68 2.68 0 0 1 .54 3.74 2.66 2.66 0 0 1-3.73.54Z" class="animable" transform-origin="54.9544px 97.116px"/>
    <path id="elsse04owmpl" fill="#E0E0E0" d="M54.75 93.74 51.56 98l-4-3a2.67 2.67 0 0 1-.56-3.72 2.66 2.66 0 0 1 3.73-.54Z" class="animable" transform-origin="50.6169px 94.104px"/>
    <path id="elr6cthofbdln" fill="#EBEBEB" d="m71.57 112.93 3.19-4.28 4 3a2.66 2.66 0 0 1 .55 3.73 2.66 2.66 0 0 1-3.73.54Z" class="animable" transform-origin="75.7042px 112.551px"/>
    <path id="ele8kgx1ns6v8" fill="#E0E0E0" d="m75.48 109.18-3.19 4.28-4-3a2.68 2.68 0 0 1-.54-3.74 2.66 2.66 0 0 1 3.73-.54Z" class="animable" transform-origin="71.3506px 109.554px"/>
    <path id="el6hverkwgmtw" fill="#EBEBEB" d="m469.46 301.46-64.24 21.89a5.21 5.21 0 0 1-6.61-3.26L353.8 188.55a5.21 5.21 0 0 1 3.25-6.62l64.24-21.88a5.21 5.21 0 0 1 6.61 3.25l44.81 131.55a5.2 5.2 0 0 1-3.25 6.61Z" class="animable" transform-origin="413.255px 241.699px"/>
    <path id="eli79ks1osth" fill="#FAFAFA" d="M386.42 200.14a5.73 5.73 0 1 1-7.27-3.57 5.73 5.73 0 0 1 7.27 3.57Z" class="animable" transform-origin="380.998px 201.994px"/>
    <path id="el8adrvd6gd" fill="#FAFAFA" d="M417.92 189.41a5.72 5.72 0 1 1-7.26-3.57 5.72 5.72 0 0 1 7.26 3.57Z" class="animable" transform-origin="412.505px 191.254px"/>
    <path id="elggb3r7wj8xl" fill="#FAFAFA" d="M396.39 229.43a5.72 5.72 0 1 1-7.26-3.57 5.71 5.71 0 0 1 7.26 3.57Z" class="animable" transform-origin="390.975px 231.273px"/>
    <path id="elmpnl6depwwi" fill="#FAFAFA" d="M427.9 218.7a5.72 5.72 0 1 1-7.26-3.57 5.72 5.72 0 0 1 7.26 3.57Z" class="animable" transform-origin="422.485px 220.544px"/>
    <path id="elpukt4nqib7a" fill="#FAFAFA" d="M406.37 258.73a5.72 5.72 0 1 1-7.26-3.57 5.72 5.72 0 0 1 7.26 3.57Z" class="animable" transform-origin="400.955px 260.574px"/>
    <path id="elylaknq4mbjl" fill="#FAFAFA" d="M437.88 248a5.72 5.72 0 1 1-7.26-3.57 5.72 5.72 0 0 1 7.26 3.57Z" class="animable" transform-origin="432.465px 249.844px"/>
    <path id="elsezxg9echg" fill="#FAFAFA" d="M416.35 288a5.72 5.72 0 1 1-7.26-3.57 5.72 5.72 0 0 1 7.26 3.57Z" class="animable" transform-origin="410.935px 289.844px"/>
    <path id="el6xkxtybufzp" fill="#FAFAFA" d="M447.86 277.29a5.72 5.72 0 1 1-7.26-3.57 5.72 5.72 0 0 1 7.26 3.57Z" class="animable" transform-origin="442.445px 279.134px"/>
    <path id="eld0rscjb700o" fill="#E0E0E0" d="M383.35 197.07a32.55 32.55 0 0 1-2.24 4.9 31 31 0 0 1-2.64 4.7 32.55 32.55 0 0 1 2.24-4.9 30.6 30.6 0 0 1 2.64-4.7Z" class="animable" transform-origin="380.91px 201.87px"/>
    <path id="elrxq211kscpe" fill="#E0E0E0" d="M414.2 186.3a32.38 32.38 0 0 1-2.23 4.91 32.71 32.71 0 0 1-2.64 4.7 32.89 32.89 0 0 1 2.23-4.91 33.41 33.41 0 0 1 2.64-4.7Z" class="animable" transform-origin="411.765px 191.105px"/>
    <path id="elzoq67baqk7r" fill="#E0E0E0" d="M393.62 226.36a33.93 33.93 0 0 1-2 5.15 32.73 32.73 0 0 1-2.4 5 34.84 34.84 0 0 1 2-5.15 33.33 33.33 0 0 1 2.4-5Z" class="animable" transform-origin="391.42px 231.435px"/>
    <path id="ellt9zzkniq8p" fill="#E0E0E0" d="M424.74 215.56a30.17 30.17 0 0 1-1.7 5 31.3 31.3 0 0 1-2.13 4.85 30.51 30.51 0 0 1 1.7-5 32.42 32.42 0 0 1 2.13-4.85Z" class="animable" transform-origin="422.825px 220.485px"/>
    <path id="elhxkb9c6k2yt" fill="#E0E0E0" d="M402.66 255.53a56 56 0 0 1-4 9.26 56 56 0 0 1 4-9.26Z" class="animable" transform-origin="400.66px 260.16px"/>
    <path id="elfry8ia27axw" fill="#E0E0E0" d="M434.93 245.29a57.59 57.59 0 0 1-4.78 9.06 28.13 28.13 0 0 1 2.19-4.63 30.15 30.15 0 0 1 2.59-4.43Z" class="animable" transform-origin="432.54px 249.82px"/>
    <path id="elrjs2v8vn5" fill="#E0E0E0" d="M413.49 285.24a31.88 31.88 0 0 1-2.37 4.81 31.49 31.49 0 0 1-2.77 4.59 63 63 0 0 1 5.14-9.4Z" class="animable" transform-origin="410.92px 289.94px"/>
    <path id="elnwtt47jrxae" fill="#E0E0E0" d="M444.93 273.56a37.53 37.53 0 0 1-2 5.49 36.9 36.9 0 0 1-2.42 5.31 37.4 37.4 0 0 1 2-5.49 36.28 36.28 0 0 1 2.42-5.31Z" class="animable" transform-origin="442.72px 278.96px"/>
    <path id="el5zwdmzyw2uj" fill="#E0E0E0" d="M456.42 293c0 .12-9.61 3.51-21.55 7.58s-21.67 7.27-21.71 7.15 9.61-3.51 21.56-7.58 21.66-7.29 21.7-7.15Z" class="animable" transform-origin="434.79px 300.364px"/>
    <path id="elw1hx6ezbip9" fill="#E0E0E0" d="M413.6 175.21c0 .11-9.61 3.51-21.56 7.58s-21.66 7.27-21.7 7.15 9.61-3.51 21.56-7.58 21.66-7.27 21.7-7.15Z" class="animable" transform-origin="391.97px 182.575px"/>
    <path id="ely5mf0r7oydg" fill="#E0E0E0" d="M392.59 188.45a.33.33 0 0 1-.17 0h-.06l.44-.14c0 .07 0 .17-.16.21s-.24 0-.27-.07l.44-.14v.06a.27.27 0 0 1-.22.08Z" class="animable" transform-origin="392.585px 188.423px"/>
    <path id="elbv9xtd9cm6f" fill="#E0E0E0" d="M433.32 300.59c-.12 0-9.24-26.42-20.38-59.1s-20.06-59.22-19.94-59.26 9.24 26.42 20.37 59.11 20.07 59.21 19.95 59.25Z" class="animable" transform-origin="413.16px 241.41px"/>
    <g id="elemi6d9m0r4n">
      <path id="elt56x5e8m66" fill="#F5F5F5" d="M224.65 397.32h51.62v100.89a6.28 6.28 0 0 1-6.28 6.28h-39.06a6.28 6.28 0 0 1-6.28-6.28V397.32Z" class="animable" transform="rotate(-86.19)" transform-origin="250.46px 450.905px"/>
    </g>
    <g id="elvdfrpjdksl">
      <path id="elhx70kk2e0lg" fill="#E0E0E0" d="M232.61 437.22h32.44v46.38h-32.44z" class="animable" transform="rotate(-86.19)" transform-origin="248.83px 460.41px"/>
    </g>
    <g id="els6ffpvrw5ss">
      <rect id="elj38xtanhgxf" width="62.04" height="17.92" x="165.33" y="439.09" fill="#EBEBEB" class="animable" rx="2.1" transform="rotate(-86.19)" transform-origin="196.35px 448.05px"/>
    </g>
    <path id="elzt0mry45qus" fill="#E0E0E0" d="M203.56 474.66a73.21 73.21 0 0 1-9-.32 74 74 0 0 1-8.92-.87 73.21 73.21 0 0 1 9 .32 73.72 73.72 0 0 1 8.92.87Z" class="animable" transform-origin="194.6px 474.065px"/>
    <path id="el0ly7iw95hra" fill="#E0E0E0" d="M203.89 469.66a70.71 70.71 0 0 1-8.95-.32 73.72 73.72 0 0 1-8.92-.87 75.51 75.51 0 0 1 8.95.32 73.72 73.72 0 0 1 8.92.87Z" class="animable" transform-origin="194.955px 469.068px"/>
    <path id="elrkk7pcuxavi" fill="#E0E0E0" d="M204.23 464.67a73.21 73.21 0 0 1-9-.32 73.72 73.72 0 0 1-8.92-.87 73.21 73.21 0 0 1 9 .32 74 74 0 0 1 8.92.87Z" class="animable" transform-origin="195.27px 464.075px"/>
    <path id="el161keun1rmx" fill="#E0E0E0" d="M204.56 459.67a73.21 73.21 0 0 1-9-.32 73.72 73.72 0 0 1-8.92-.87 75.7 75.7 0 0 1 9 .32 73.72 73.72 0 0 1 8.92.87Z" class="animable" transform-origin="195.6px 459.076px"/>
    <path id="eliiseq6bd9m" fill="#E0E0E0" d="M204.89 454.68a73 73 0 0 1-8.95-.32 74 74 0 0 1-8.93-.87 73.21 73.21 0 0 1 9 .32 73.72 73.72 0 0 1 8.88.87Z" class="animable" transform-origin="195.95px 454.085px"/>
    <path id="elwyr7zovlodq" fill="#E0E0E0" d="M205.23 449.68a73.18 73.18 0 0 1-9-.32 73.72 73.72 0 0 1-8.92-.87 75.51 75.51 0 0 1 9 .32 74 74 0 0 1 8.92.87Z" class="animable" transform-origin="196.27px 449.086px"/>
    <path id="elu6ynskxr40s" fill="#E0E0E0" d="M205.56 444.69a73.21 73.21 0 0 1-9-.32 73.72 73.72 0 0 1-8.92-.87 73.21 73.21 0 0 1 9 .32 74 74 0 0 1 8.92.87Z" class="animable" transform-origin="196.6px 444.095px"/>
    <path id="el1mgdose0iim" fill="#E0E0E0" d="M205.89 439.69a73.21 73.21 0 0 1-9-.32 74 74 0 0 1-8.92-.87 75.7 75.7 0 0 1 9 .32 73.72 73.72 0 0 1 8.92.87Z" class="animable" transform-origin="196.93px 439.096px"/>
    <path id="elquvo6yv5td" fill="#E0E0E0" d="M206.22 434.7a73 73 0 0 1-8.95-.32 73.72 73.72 0 0 1-8.92-.87 73 73 0 0 1 9 .32 73.72 73.72 0 0 1 8.87.87Z" class="animable" transform-origin="197.285px 434.105px"/>
    <path id="el8xqmek1m1n3" fill="#E0E0E0" d="M206.56 429.7a73.21 73.21 0 0 1-9-.32 73.72 73.72 0 0 1-8.92-.87 75.7 75.7 0 0 1 9 .32 74 74 0 0 1 8.92.87Z" class="animable" transform-origin="197.6px 429.107px"/>
    <path id="eloqovs99zsh8" fill="#E0E0E0" d="M206.89 424.71a73.21 73.21 0 0 1-9-.32 73.72 73.72 0 0 1-8.92-.87 73.21 73.21 0 0 1 9 .32 73.72 73.72 0 0 1 8.92.87Z" class="animable" transform-origin="197.93px 424.115px"/>
    <path id="elo6kmdy95tnn" fill="#E0E0E0" d="M207.22 419.71a73 73 0 0 1-8.95-.32 74 74 0 0 1-8.93-.87 73.21 73.21 0 0 1 9 .32 73.72 73.72 0 0 1 8.88.87Z" class="animable" transform-origin="198.28px 419.115px"/>
    <g id="elr1u41czc49n">
      <path id="elj80otxpj7yo" fill="#EBEBEB" d="M290.29 456.65h2.91a3 3 0 0 1 3 3v9.9h-9v-9.9a3 3 0 0 1 3.09-3Z" class="animable" transform="rotate(-176.19)" transform-origin="291.7px 463.099px"/>
    </g>
    <g id="elncp5177ug5">
      <path id="elqlsed6wf45" fill="#E0E0E0" d="M291 445.26h3a3 3 0 0 1 3 3v9.9h-9v-9.9a3 3 0 0 1 3-3Z" class="animable" transform="rotate(4.004)" transform-origin="292.5px 451.71px"/>
    </g>
    <g id="elysi4bzowe5">
      <path id="el3z9n91wpcte" fill="#EBEBEB" d="M265.72 430.82h2.91a3 3 0 0 1 3 3v9.9h-9v-9.9a3 3 0 0 1 3.09-3Z" class="animable" transform="rotate(-254.995)" transform-origin="267.13px 437.269px"/>
    </g>
    <g id="elzhpnejfowml">
      <path id="el865g39ksfrs" fill="#E0E0E0" d="M254.68 427.87h2.91a3 3 0 0 1 3 3v9.9h-9v-9.9a3 3 0 0 1 3.09-3Z" class="animable" transform="rotate(-75.01)" transform-origin="256.09px 434.319px"/>
    </g>
    <g id="elscf7xl65i7n">
      <path id="el1mh9474tl4n" fill="#EBEBEB" d="M290.21 430h2.91a3 3 0 0 1 3 3v9.9h-9V433a3 3 0 0 1 3.09-3Z" class="animable" transform="rotate(74.291)" transform-origin="291.62px 436.449px"/>
    </g>
    <g id="el07y0njy80eax">
      <path id="elzr97s46z1xh" fill="#E0E0E0" d="M279.2 433.06h2.91a3 3 0 0 1 3 3V446h-9v-9.9a3 3 0 0 1 3.09-3.04Z" class="animable" transform="rotate(-105.709)" transform-origin="280.61px 439.529px"/>
    </g>
    <g id="elnjt4jxk3sc">
      <path id="elso32h5yak4" fill="#EBEBEB" d="M276.34 456.19h2.91a3 3 0 0 1 3 3v9.9h-9v-9.9a3 3 0 0 1 3-3Z" class="animable" transform="rotate(-157.81)" transform-origin="277.75px 462.64px"/>
    </g>
    <g id="eln1tkksfm5ki">
      <path id="eln7j2fhqzfy" fill="#E0E0E0" d="M280.66 445.61h2.91a3 3 0 0 1 3 3v9.9h-9v-9.9a3 3 0 0 1 3.09-3Z" class="animable" transform="rotate(22.19)" transform-origin="282.07px 452.059px"/>
    </g>
    <path id="el6ej7t5moyv8" fill="#EBEBEB" d="m416.24 76 6.76 8.6a.78.78 0 0 1-.13 1.08l-8.69 6.75a6.23 6.23 0 0 1-8.75-1.09 6.24 6.24 0 0 1 1.09-8.76l8.69-6.75a.78.78 0 0 1 1.03.17Z" class="animable" transform-origin="413.636px 84.7269px"/>
    <path id="el64zkyd1tte9" fill="#E0E0E0" d="m421.3 85.88-6.72-8.63a.77.77 0 0 1 .14-1.08l8.68-6.75a6.23 6.23 0 0 1 8.75 1.09 6.24 6.24 0 0 1-1.09 8.76L422.38 86a.77.77 0 0 1-1.08-.12Z" class="animable" transform-origin="423.944px 77.1354px"/>
    <path id="elafs35buv3i6" fill="#EBEBEB" d="m31.32 280.76 10.29 3.74a.78.78 0 0 1 .46 1l-3.76 10.33a6.24 6.24 0 0 1-8 3.74 6.25 6.25 0 0 1-3.74-8l3.76-10.33a.77.77 0 0 1 .99-.48Z" class="animable" transform-origin="34.1575px 290.33px"/>
    <path id="elzdqks2i5xej" fill="#E0E0E0" d="m40.89 286.47-10.28-3.74a.76.76 0 0 1-.46-1l3.76-10.34a6.23 6.23 0 0 1 8-3.73 6.23 6.23 0 0 1 3.73 8L41.88 286a.78.78 0 0 1-.99.47Z" class="animable" transform-origin="38.058px 276.897px"/>
  </g>
  <g id="freepik--Floor--inject-62" class="animable">
    <path id="elb4a1p4zapq" fill="#263238" d="M463 478.94c0 .15-95.84.26-214 .26s-214-.11-214-.26 95.82-.26 214.05-.26 213.95.12 213.95.26Z" class="animable" transform-origin="249px 478.94px"/>
  </g>
  <g id="freepik--Clipboard--inject-62" class="animable" style="animation:1s 1 forwards cubic-bezier(.36,-0.01,.5,1.38) zoomIn;animation-delay:0s">
    <rect id="el0wuwdb6ltlno" width="261.17" height="344.95" x="130.22" y="37.17" fill="#455A64" class="animable" rx="10.1" style="animation:1s 1 forwards cubic-bezier(.36,-0.01,.5,1.38) zoomIn;animation-delay:0s" transform-origin="260.805px 209.645px"/>
    <path id="el5hqx516q1dt" fill="#FFF" d="M147.7 53.47h226.19v304.95H147.7z" class="animable" opacity="0" style="animation:1s 1 forwards cubic-bezier(.36,-0.01,.5,1.38) zoomIn;animation-delay:0.045454545454545456s" transform-origin="260.795px 205.945px"/>
    <path id="el2n51wr2mf8o" fill="#263238" d="M373.9 358.42c0-2.08-.1-124.39-.24-305l.24.23H147.73l.26-.26v305l-.22-.22 226.2.22-226.2.21h-.21v-.21c0-85.84 0-191.22-.05-305v-.26H374.2v.24c-.2 180.63-.3 302.97-.3 305.05Z" class="animable" opacity="0" style="animation:1s 1 forwards cubic-bezier(.36,-0.01,.5,1.38) zoomIn;animation-delay:0.09090909090909091s" transform-origin="260.855px 205.865px"/>
    <path id="elq1gy1cs5ipp" fill="#449032" d="m195.32 104.65-5.27-7.93h-5.83v7.93h-6.33V76.19h11.84a14.73 14.73 0 0 1 6.32 1.26 9.45 9.45 0 0 1 4.12 3.55 10.08 10.08 0 0 1 1.45 5.49 9.9 9.9 0 0 1-1.47 5.51 9.31 9.31 0 0 1-4.15 3.5l6.14 9.15Zm-1.6-21.81a6.44 6.44 0 0 0-4.34-1.28h-5.16v9.92h5.16a6.4 6.4 0 0 0 4.34-1.31 5.25 5.25 0 0 0 0-7.33Z" class="animable" opacity="0" style="animation:1s 1 forwards cubic-bezier(.36,-0.01,.5,1.38) zoomIn;animation-delay:0.13636363636363635s" transform-origin="190.015px 90.4179px"/>
    <path id="ela7j5t5uwall" fill="#449032" d="m209.17 124.32-6.26-9.32-6.15 9.36h-6.89l9.6-13.71-9.12-13.25h6.82l6 8.74 5.83-8.78h6.48l-9 13 9.67 13.94Z" class="animable" opacity="0" style="animation:1s 1 forwards cubic-bezier(.36,-0.01,.5,1.38) zoomIn;animation-delay:0.18181818181818182s" transform-origin="203.01px 110.86px"/>
    <path id="elcxc2brddcp" fill="#E0E0E0" d="M256.53 82.99h38.82v9.61h-38.82z" class="animable" opacity="0" style="animation:1s 1 forwards cubic-bezier(.36,-0.01,.5,1.38) zoomIn;animation-delay:0.2272727272727273s" transform-origin="275.94px 87.795px"/>
    <path id="elh31ahxr4bm" fill="#263238" d="M352.28 89.06c0 .15-10.62.26-23.72.26s-23.71-.11-23.71-.26 10.61-.26 23.71-.26 23.72.12 23.72.26Z" class="animable" opacity="0" style="animation:1s 1 forwards cubic-bezier(.36,-0.01,.5,1.38) zoomIn;animation-delay:0.2727272727272727s" transform-origin="328.565px 89.06px"/>
    <path id="elk74ge514alf" fill="#263238" d="M351.39 100.59c0 .14-21.24.26-47.43.26s-47.43-.12-47.43-.26 21.23-.27 47.43-.27 47.43.12 47.43.27Z" class="animable" opacity="0" style="animation:1s 1 forwards cubic-bezier(.36,-0.01,.5,1.38) zoomIn;animation-delay:0.3181818181818182s" transform-origin="303.96px 100.585px"/>
    <path id="el5bkadmw77ak" fill="#263238" d="M351.39 111.88c0 .14-21.24.26-47.43.26s-47.43-.12-47.43-.26 21.23-.26 47.43-.26 47.43.11 47.43.26Z" class="animable" opacity="0" style="animation:1s 1 forwards cubic-bezier(.36,-0.01,.5,1.38) zoomIn;animation-delay:0.36363636363636365s" transform-origin="303.96px 111.88px"/>
    <path id="ellff991kl6lt" fill="#263238" d="M366.19 142c0 .14-47.19.26-105.38.26s-105.39-.12-105.39-.26 47.17-.27 105.39-.27 105.38.1 105.38.27Z" class="animable" opacity="0" style="animation:1s 1 forwards cubic-bezier(.36,-0.01,.5,1.38) zoomIn;animation-delay:0.4090909090909091s" transform-origin="260.805px 141.995px"/>
    <path id="el84a8ccwxc4" fill="#263238" d="M366.19 312.46c0 .14-47.19.26-105.38.26s-105.39-.12-105.39-.26 47.17-.26 105.39-.26 105.38.11 105.38.26Z" class="animable" opacity="0" style="animation:1s 1 forwards cubic-bezier(.36,-0.01,.5,1.38) zoomIn;animation-delay:0.4545454545454546s" transform-origin="260.805px 312.46px"/>
    <path id="el08kq9e25jysi" fill="#E0E0E0" d="M172.78 159.23h65.03v12.2h-65.03z" class="animable" opacity="0" style="animation:1s 1 forwards cubic-bezier(.36,-0.01,.5,1.38) zoomIn;animation-delay:0.5s" transform-origin="205.295px 165.33px"/>
    <path id="el8a3pciox6kk" fill="#E0E0E0" d="M172.78 329.86h28.15v12.2h-28.15z" class="animable" opacity="0" style="animation:1s 1 forwards cubic-bezier(.36,-0.01,.5,1.38) zoomIn;animation-delay:0.5454545454545454s" transform-origin="186.855px 335.96px"/>
    <path id="el9cekfd7l2ml" fill="#E0E0E0" d="M267.3 329.86h28.15v12.2H267.3z" class="animable" opacity="0" style="animation:1s 1 forwards cubic-bezier(.36,-0.01,.5,1.38) zoomIn;animation-delay:0.5909090909090909s" transform-origin="281.375px 335.96px"/>
    <path id="elm4amy3p3uxq" fill="#263238" d="M248.11 338.31c0 .15-8.79.26-19.63.26s-19.64-.11-19.64-.26 8.79-.26 19.64-.26 19.63.12 19.63.26Z" class="animable" opacity="0" style="animation:1s 1 forwards cubic-bezier(.36,-0.01,.5,1.38) zoomIn;animation-delay:0.6363636363636364s" transform-origin="228.475px 338.31px"/>
    <path id="eloybbdlja14p" fill="#263238" d="M349.19 338.31c0 .15-8.79.26-19.63.26s-19.64-.11-19.64-.26 8.79-.26 19.64-.26 19.63.12 19.63.26Z" class="animable" opacity="0" style="animation:1s 1 forwards cubic-bezier(.36,-0.01,.5,1.38) zoomIn;animation-delay:0.6818181818181819s" transform-origin="329.555px 338.31px"/>
    <path id="el2sf9fxgl5t" fill="#263238" d="M346.86 189.8c0 .14-38.53.26-86 .26s-86-.12-86-.26 38.51-.26 86-.26 86 .11 86 .26Z" class="animable" opacity="0" style="animation:1s 1 forwards cubic-bezier(.36,-0.01,.5,1.38) zoomIn;animation-delay:0.7272727272727273s" transform-origin="260.86px 189.8px"/>
    <path id="elxs2amarry3d" fill="#263238" d="M350.2 203.72c0 .15-39.27.26-87.7.26s-87.71-.11-87.71-.26 39.26-.26 87.71-.26 87.7.12 87.7.26Z" class="animable" opacity="0" style="animation:1s 1 forwards cubic-bezier(.36,-0.01,.5,1.38) zoomIn;animation-delay:0.7727272727272727s" transform-origin="262.495px 203.72px"/>
    <path id="el4kc1kcl0e6t" fill="#263238" d="M259.82 217.65c0 .14-19.49.26-43.52.26s-43.52-.12-43.52-.26 19.48-.26 43.52-.26 43.52.11 43.52.26Z" class="animable" opacity="0" style="animation:1s 1 forwards cubic-bezier(.36,-0.01,.5,1.38) zoomIn;animation-delay:0.8181818181818182s" transform-origin="216.3px 217.65px"/>
    <path id="el3265slrwa9n" fill="#263238" d="M348.91 268.15s-.19.08-.58.2l-1.7.52a57.22 57.22 0 0 1-6.69 1.56 31.29 31.29 0 0 1-4.94.47 20.69 20.69 0 0 1-5.87-.73 15 15 0 0 1-5.93-3.29 11.37 11.37 0 0 1-3.57-6.67 7.85 7.85 0 0 1 .49-4.1 7.69 7.69 0 0 1 2.78-3.32 5.8 5.8 0 0 1 4.39-.93 5.91 5.91 0 0 1 2.12 1 6.46 6.46 0 0 1 1.52 1.85 10.06 10.06 0 0 1 1.07 4.72 13.48 13.48 0 0 1-.9 4.9 19.45 19.45 0 0 1-6.23 8.18 20.85 20.85 0 0 1-10 4.2 18.34 18.34 0 0 1-5.63-.07 18.89 18.89 0 0 1-2.79-.67 22.44 22.44 0 0 1-2.66-1.18 16.25 16.25 0 0 1-4.51-3.72 12.44 12.44 0 0 1-2.67-5.33 8.69 8.69 0 0 1 .71-6 9.09 9.09 0 0 1 4.41-4.22 6.29 6.29 0 0 1 3.09-.54 6 6 0 0 1 2.91 1.1 8.86 8.86 0 0 1 3.17 5.14 16.77 16.77 0 0 1 .32 5.94 23.86 23.86 0 0 1-1.29 5.69 21.61 21.61 0 0 1-6.28 9.37 17.13 17.13 0 0 1-10 4.09 14.41 14.41 0 0 1-15.38-10.61 13.69 13.69 0 0 1 .34-9 7.75 7.75 0 0 1 2.62-3.44 4.59 4.59 0 0 1 2-.83 3.2 3.2 0 0 1 2.06.39 4.43 4.43 0 0 1 2 3.38 10.79 10.79 0 0 1-.15 3.73 27.34 27.34 0 0 1-2 6.48 26.48 26.48 0 0 1-3 5.07 25.41 25.41 0 0 1-3.34 3.68 24.25 24.25 0 0 1-5.62 3.92 15.88 15.88 0 0 1-1.62.75l-.57.22.55-.27c.36-.18.92-.4 1.6-.79a25.45 25.45 0 0 0 5.53-4 27.81 27.81 0 0 0 6.24-8.72 26.71 26.71 0 0 0 2-6.41 11 11 0 0 0 .13-3.63 4.13 4.13 0 0 0-1.82-3.11 2.83 2.83 0 0 0-1.83-.34 4.21 4.21 0 0 0-1.79.78 7.32 7.32 0 0 0-2.48 3.27 13.25 13.25 0 0 0-.29 8.74 14 14 0 0 0 14.92 10.26 16.69 16.69 0 0 0 9.69-4 21.05 21.05 0 0 0 6.12-9.16 23.8 23.8 0 0 0 1.26-5.58 16.21 16.21 0 0 0-.32-5.76 8.25 8.25 0 0 0-3-4.83 5.44 5.44 0 0 0-5.49-.51 8.6 8.6 0 0 0-4.16 4 8.14 8.14 0 0 0-.66 5.63 13.77 13.77 0 0 0 6.92 8.72 22.59 22.59 0 0 0 2.57 1.14 18.34 18.34 0 0 0 8.19.73 20.67 20.67 0 0 0 5.19-1.43 21 21 0 0 0 4.55-2.66 19 19 0 0 0 6.09-8 13.14 13.14 0 0 0 .89-4.73 9.69 9.69 0 0 0-1-4.51 6.38 6.38 0 0 0-1.4-1.73 5.47 5.47 0 0 0-1.95-1 5.39 5.39 0 0 0-4.08.86 7.2 7.2 0 0 0-2.64 3.13 7.52 7.52 0 0 0-.49 3.91 11.08 11.08 0 0 0 3.44 6.47 14.75 14.75 0 0 0 5.79 3.25 20.39 20.39 0 0 0 5.78.76 31.33 31.33 0 0 0 4.91-.42 65.16 65.16 0 0 0 6.69-1.46l1.72-.47Z" class="animable" opacity="0" style="animation:1s 1 forwards cubic-bezier(.36,-0.01,.5,1.38) zoomIn;animation-delay:0.8636363636363636s" transform-origin="309.95px 270.904px"/>
    <path id="eluabax4kc2k" fill="#E0E0E0" d="M223.06 34.24h75.48V63.1h-75.48z" class="animable" opacity="0" style="animation:1s 1 forwards cubic-bezier(.36,-0.01,.5,1.38) zoomIn;animation-delay:0.9090909090909092s" transform-origin="260.8px 48.67px"/>
    <path id="el36x6clg7gom" fill="#263238" d="M298.54 63.09v-7.75c0-5-.06-12.17-.1-21.1l.18.18-75.47.08.26-.26v28.85l-.25-.25 54 .12 15.73.07h5.71a2.06 2.06 0 0 1-.35 0h-5.24l-15.68.07-54.21.11h-.25v-29.1l.26-.26 75.47.08h.18v.18c0 9-.07 16.2-.1 21.21v7.16c0 .35-.14.61-.14.61Z" class="animable" opacity="0" style="animation:1s 1 forwards cubic-bezier(.36,-0.01,.5,1.38) zoomIn;animation-delay:0.9545454545454546s" transform-origin="260.825px 48.53px"/>
  </g>
  <g id="freepik--Medication--inject-62" class="animable" style="animation:1.5s Infinite linear wind;animation-delay:0s">
    <path id="elwo9c7cv9mn" fill="#449032" d="M388.94 478.5h-48.88a4 4 0 0 1-4-3.93l-1.18-131.83h56.82l1.18 131.75a4 4 0 0 1-3.94 4.01Z" class="animable" transform-origin="363.88px 410.62px"/>
    <g id="elkbzc1lnilri">
      <g id="elqy5m9nqpzf" class="animable" opacity=".3">
        <path id="ell9659bxrsgd" fill="#FFF" d="M381.75 372v101.49s8 2.66 8.39-4.34.18-97.17.18-97.17Z" class="animable" transform-origin="386.063px 422.983px"/>
      </g>
    </g>
    <path id="el3l8r54185yi" fill="#FAFAFA" d="M386.34 336.05h-46a3 3 0 0 0-3 3V342h52v-3a3 3 0 0 0-3-2.95Z" class="animable" transform-origin="363.34px 339.025px"/>
    <path id="elabz5a8nawep" fill="#263238" d="M386.34 336.05a1.72 1.72 0 0 1 .5 0 2.85 2.85 0 0 1 1.36.55 3.05 3.05 0 0 1 1.21 2.06v3.4h-.13c-9.53.07-27.94.13-49 .13h-3.25v-3.05a3.29 3.29 0 0 1 1.17-2.62 3.25 3.25 0 0 1 1.31-.66 6.21 6.21 0 0 1 1.4-.09h12.77l17 .06 11.43.08h4.17-4.17l-11.43.08-17 .06h-12.77a5.28 5.28 0 0 0-1.28.08 2.85 2.85 0 0 0-1.1.55c-1.44 1.09-.86 3.19-1 5l-.26-.26h3c21.09 0 39.5.05 49 .13l-.13.13v-3.25a2.92 2.92 0 0 0-1.09-2 3.4 3.4 0 0 0-1.71-.38Z" class="animable" transform-origin="363.219px 338.976px"/>
    <rect id="elbivgu0ytueb" width="68.79" height="31.41" x="328.92" y="340.57" fill="#FAFAFA" class="animable" rx="2.64" transform-origin="363.315px 356.275px"/>
    <path id="el5x8hj5tvw8u" fill="#263238" d="M395.07 372s.18 0 .5-.08a2.56 2.56 0 0 0 1.27-.68c1.17-.88.7-3 .77-5.43 0-5-.05-12.15-.08-21v-1.68a2.42 2.42 0 0 0-.55-1.46 2.55 2.55 0 0 0-1.37-.84 11 11 0 0 0-1.74-.05h-62.29a2.37 2.37 0 0 0-1.95 1 2.3 2.3 0 0 0-.41 1 12 12 0 0 0 0 1.22v25.23a2.43 2.43 0 0 0 .22 1 2.39 2.39 0 0 0 1.5 1.3 3 3 0 0 0 1.05.1h3.32l31.13.05 21 .09h7.69-1.99l-5.7.05-21 .08-31.13.06h-3.32a3.46 3.46 0 0 1-1.18-.12 2.89 2.89 0 0 1-1.82-1.56 3 3 0 0 1-.26-1.21v-26.55a3 3 0 0 1 .51-1.28 2.89 2.89 0 0 1 2.37-1.22h62.29a10.33 10.33 0 0 1 1.83.07 3 3 0 0 1 1.58 1 2.89 2.89 0 0 1 .63 1.7v1.69c0 8.84-.07 16-.09 21v3.29a2.74 2.74 0 0 1-.88 2.22 2.52 2.52 0 0 1-1.33.65 1.65 1.65 0 0 1-.57.36Z" class="animable" transform-origin="363.335px 356.003px"/>
    <path id="el7vc2lydizdd" fill="#263238" d="M332.92 371.46c-.15 0-.26-6.69-.26-14.93s.11-14.94.26-14.94.26 6.69.26 14.94-.12 14.93-.26 14.93Z" class="animable" transform-origin="332.92px 356.525px"/>
    <path id="elfda3t2r6h" fill="#263238" d="M338.12 371.46c-.15 0-.26-6.69-.26-14.93s.11-14.94.26-14.94.26 6.69.26 14.94-.12 14.93-.26 14.93Z" class="animable" transform-origin="338.12px 356.525px"/>
    <path id="elgmfgry5axbo" fill="#263238" d="M343.32 371.46c-.14 0-.26-6.69-.26-14.93s.12-14.94.26-14.94.26 6.69.26 14.94-.12 14.93-.26 14.93Z" class="animable" transform-origin="343.32px 356.525px"/>
    <path id="elooihb1ck" fill="#263238" d="M348.52 371.46c-.14 0-.26-6.69-.26-14.93s.12-14.94.26-14.94.26 6.69.26 14.94-.11 14.93-.26 14.93Z" class="animable" transform-origin="348.52px 356.525px"/>
    <path id="elqpz3fddp0va" fill="#263238" d="M353.73 371.46c-.15 0-.26-6.69-.26-14.93s.11-14.94.26-14.94.26 6.69.26 14.94-.12 14.93-.26 14.93Z" class="animable" transform-origin="353.73px 356.525px"/>
    <path id="elopzfv41iipq" fill="#263238" d="M358.93 371.46c-.15 0-.26-6.69-.26-14.93s.11-14.94.26-14.94.26 6.69.26 14.94-.12 14.93-.26 14.93Z" class="animable" transform-origin="358.93px 356.525px"/>
    <path id="elzshh03b91la" fill="#263238" d="M364.13 371.46c-.14 0-.26-6.69-.26-14.93s.12-14.94.26-14.94.26 6.69.26 14.94-.12 14.93-.26 14.93Z" class="animable" transform-origin="364.13px 356.525px"/>
    <path id="elpzm2lepajeq" fill="#263238" d="M369.33 371.46c-.14 0-.26-6.69-.26-14.93s.12-14.94.26-14.94.26 6.69.26 14.94-.11 14.93-.26 14.93Z" class="animable" transform-origin="369.33px 356.525px"/>
    <path id="el1isxkg2irng" fill="#263238" d="M374.53 371.46c-.14 0-.26-6.69-.26-14.93s.12-14.94.26-14.94.27 6.69.27 14.94-.12 14.93-.27 14.93Z" class="animable" transform-origin="374.535px 356.525px"/>
    <path id="elm7vgmw3atzn" fill="#263238" d="M379.74 371.46c-.15 0-.26-6.69-.26-14.93s.11-14.94.26-14.94.26 6.69.26 14.94-.12 14.93-.26 14.93Z" class="animable" transform-origin="379.74px 356.525px"/>
    <path id="el7d840jeaakt" fill="#263238" d="M384.94 371.46c-.14 0-.26-6.69-.26-14.93s.12-14.94.26-14.94.26 6.69.26 14.94-.12 14.93-.26 14.93Z" class="animable" transform-origin="384.94px 356.525px"/>
    <path id="el5ptsd4q2o74" fill="#263238" d="M390.14 371.46c-.14 0-.26-6.69-.26-14.93s.12-14.94.26-14.94.26 6.69.26 14.94-.11 14.93-.26 14.93Z" class="animable" transform-origin="390.14px 356.525px"/>
    <path id="el6aep6o6iy9x" fill="#263238" d="M395.34 371.46c-.14 0-.26-6.69-.26-14.93s.12-14.94.26-14.94.26 6.69.26 14.94-.11 14.93-.26 14.93Z" class="animable" transform-origin="395.34px 356.525px"/>
    <path id="el574skaco4or" fill="#FFF" d="M339.36 395.64h49.19v39.39h-49.19z" class="animable" transform-origin="363.955px 415.335px"/>
    <path id="elqnfsdpa6q5" fill="#263238" d="m347.81 408.18-1.15-1.66h-1.26v1.66H344v-5.94h2.57a3.17 3.17 0 0 1 1.36.27 2 2 0 0 1 .9.74 2.06 2.06 0 0 1 .31 1.15 2 2 0 0 1-.32 1.14 2 2 0 0 1-.9.73l1.33 1.91Zm-.35-4.55a1.44 1.44 0 0 0-.94-.27h-1.12v2.07h1.12a1.44 1.44 0 0 0 .94-.27 1.07 1.07 0 0 0 0-1.53Z" class="animable" transform-origin="346.625px 405.21px"/>
    <path id="elbjevdom18au" fill="#263238" d="m350.81 412.28-1.36-1.95-1.33 1.95h-1.49l2.08-2.86-2-2.76h1.48l1.29 1.82 1.27-1.82h1.41l-2 2.71 2.09 2.91Z" class="animable" transform-origin="349.44px 409.47px"/>
    <path id="elcg6vh5ftts" fill="#E0E0E0" d="M356.85 402.23h28.09v4.27h-28.09z" class="animable" transform-origin="370.895px 404.365px"/>
    <path id="elfcl4m2c42e" fill="#263238" d="M381.75 417.1c0 .14-8.2.26-18.32.26s-18.32-.12-18.32-.26 8.2-.26 18.32-.26 18.32.16 18.32.26Z" class="animable" transform-origin="363.43px 417.1px"/>
    <path id="el68b3p4utqwd" fill="#263238" d="M381.75 421.54c0 .15-8.2.26-18.32.26s-18.32-.11-18.32-.26 8.2-.26 18.32-.26 18.32.12 18.32.26Z" class="animable" transform-origin="363.43px 421.54px"/>
    <path id="ely9n76xu509" fill="#E0E0E0" d="M342.46 427.11h18.98v3.66h-18.98z" class="animable" transform-origin="351.95px 428.94px"/>
    <path id="el1hb4afl6b8g" fill="#263238" d="M387.43 433.81v-2.7c0-1.77 0-4.32-.05-7.57 0-6.52-.07-15.8-.11-27l.21.22h-47.15c-.06.05.49-.49.26-.25v37.26l-.23-.23 34 .12 9.66.06h3.48-3.38l-9.61.06-34.16.12h-.23v-37.5c-.23.22.32-.33.26-.27h47.37v.22c0 11.25-.09 20.59-.11 27.14 0 3.22-.05 5.76-.06 7.52v2c0 .51-.15.8-.15.8Z" class="animable" transform-origin="363.907px 415.013px"/>
    <path id="elj5az9je0em" fill="#FFF" d="M338.12 467.75c-.15 0-.26-20.56-.26-45.92s.11-45.92.26-45.92.26 20.56.26 45.92-.12 45.92-.26 45.92Z" class="animable" transform-origin="338.12px 421.83px"/>
    <path id="elqckp7cqycf" fill="#263238" d="M388.6 476.36c0 .14-10.73.26-24 .26s-24-.12-24-.26 10.73-.26 24-.26 24 .12 24 .26Z" class="animable" transform-origin="364.6px 476.36px"/>
    <path id="elgu69bclpya9" fill="#455A64" d="M437.35 478.44h-39.6a3.22 3.22 0 0 1-3.22-3.19l-1-106.79h46l.95 106.73a3.21 3.21 0 0 1-3.13 3.25Z" class="animable" transform-origin="417.005px 423.45px"/>
    <g id="eln11r4plhf2m">
      <g id="el8d98dptua39" class="animable" opacity=".3">
        <path id="el0ah932khaou" fill="#FFF" d="M431.52 392.14v82.24s6.48 2.15 6.8-3.52.14-78.72.14-78.72Z" class="animable" transform-origin="435.015px 433.46px"/>
      </g>
    </g>
    <path id="ela4ii7bcoovj" fill="#FAFAFA" d="M434.67 363H398.5a3 3 0 0 0-3 3v1.79h42.14V366a3 3 0 0 0-2.97-3Z" class="animable" transform-origin="416.57px 365.395px"/>
    <path id="elt4v2217j9o" fill="#263238" d="M434.67 363a1.57 1.57 0 0 1 .43 0 2.69 2.69 0 0 1 1.2.4 3.09 3.09 0 0 1 1.3 1.59 3.75 3.75 0 0 1 .18 1.31v1.7h-.13c-7.79.08-22.42.13-39.15.13h-3.26v-2.51a3.25 3.25 0 0 1 3.29-2.78h10.17l13.54.05 9.07.08 2.46.05a5.58 5.58 0 0 1 .85.05 5.58 5.58 0 0 1-.85 0l-2.46.05-9.07.08-13.54.06h-10.12a2.75 2.75 0 0 0-1.82.63 2.66 2.66 0 0 0-.95 1.71c-.06.66 0 1.45 0 2.18l-.26-.26h3c16.73 0 31.36.05 39.15.13l-.13.13v-1.48a3.29 3.29 0 0 0-.14-1.24 2.91 2.91 0 0 0-1.17-1.54 3.59 3.59 0 0 0-1.59-.52Z" class="animable" transform-origin="416.512px 365.485px"/>
    <rect id="el3u7xrguom55" width="55.73" height="25.45" x="388.73" y="366.7" fill="#FAFAFA" class="animable" rx="2.64" transform-origin="416.595px 379.425px"/>
    <path id="el6mnn1pmca8u" fill="#263238" d="M441.81 392.14a3 3 0 0 0 1.48-.52 2.63 2.63 0 0 0 1-1.54 5.31 5.31 0 0 0 .05-1.22v-1.41c0-4-.05-9.79-.08-16.91v-1.35a2.4 2.4 0 0 0-.41-1.2 2.48 2.48 0 0 0-2.29-1.09h-50.19a2.39 2.39 0 0 0-2.38 2.3v19.4a4.57 4.57 0 0 0 .17 1.73 2.5 2.5 0 0 0 1.07 1.22 3 3 0 0 0 1.63.3h1.78l25.08.06 16.91.08h6.2-1.6l-4.6.05-16.91.08-25.08.06h-1.78A3.47 3.47 0 0 1 390 392a3 3 0 0 1-1.29-1.47 3 3 0 0 1-.2-1v-20.29a2.91 2.91 0 0 1 2.9-2.8h50.19a3 3 0 0 1 2.62 1.29 2.79 2.79 0 0 1 .45 1.39v1.37c0 7.12-.07 12.89-.09 16.91v1.41a5.64 5.64 0 0 1-.08 1.25 2.67 2.67 0 0 1-1.11 1.6 2.51 2.51 0 0 1-1.13.42 1.28 1.28 0 0 1-.45.06Z" class="animable" transform-origin="416.59px 379.335px"/>
    <path id="ele6fjdild42n" fill="#263238" d="M392 391.72c-.14 0-.26-5.41-.26-12.09s.12-12.1.26-12.1.26 5.41.26 12.1-.16 12.09-.26 12.09Z" class="animable" transform-origin="392px 379.625px"/>
    <path id="el51fa9w6mkbi" fill="#263238" d="M396.17 391.72c-.14 0-.26-5.41-.26-12.09s.12-12.1.26-12.1.26 5.41.26 12.1-.11 12.09-.26 12.09Z" class="animable" transform-origin="396.17px 379.625px"/>
    <path id="elw3dtzh71fp" fill="#263238" d="M400.39 391.72c-.15 0-.26-5.41-.26-12.09s.11-12.1.26-12.1.26 5.41.26 12.1-.12 12.09-.26 12.09Z" class="animable" transform-origin="400.39px 379.625px"/>
    <path id="el4x5vqrueeur" fill="#263238" d="M404.6 391.72c-.14 0-.26-5.41-.26-12.09s.12-12.1.26-12.1.26 5.41.26 12.1-.11 12.09-.26 12.09Z" class="animable" transform-origin="404.6px 379.625px"/>
    <path id="el8mfecvga5gj" fill="#263238" d="M408.82 391.72c-.15 0-.26-5.41-.26-12.09s.11-12.1.26-12.1.26 5.41.26 12.1-.08 12.09-.26 12.09Z" class="animable" transform-origin="408.82px 379.625px"/>
    <path id="elb0fxr769609" fill="#263238" d="M413 391.72c-.14 0-.26-5.41-.26-12.09s.12-12.1.26-12.1.26 5.41.26 12.1-.08 12.09-.26 12.09Z" class="animable" transform-origin="413px 379.625px"/>
    <path id="eltxx65qs9m9" fill="#263238" d="M417.25 391.72c-.15 0-.26-5.41-.26-12.09s.11-12.1.26-12.1.26 5.41.26 12.1-.12 12.09-.26 12.09Z" class="animable" transform-origin="417.25px 379.625px"/>
    <path id="el85smz3a85zi" fill="#263238" d="M421.46 391.72c-.14 0-.26-5.41-.26-12.09s.12-12.1.26-12.1.26 5.41.26 12.1-.12 12.09-.26 12.09Z" class="animable" transform-origin="421.46px 379.625px"/>
    <path id="elt80ne26645" fill="#263238" d="M425.68 391.72c-.15 0-.27-5.41-.27-12.09s.12-12.1.27-12.1.26 5.41.26 12.1-.12 12.09-.26 12.09Z" class="animable" transform-origin="425.675px 379.625px"/>
    <path id="elkf990w8fcl" fill="#263238" d="M429.89 391.72c-.14 0-.26-5.41-.26-12.09s.12-12.1.26-12.1.26 5.41.26 12.1-.15 12.09-.26 12.09Z" class="animable" transform-origin="429.89px 379.625px"/>
    <path id="el2dfgc2rna7s" fill="#263238" d="M434.1 391.72c-.14 0-.26-5.41-.26-12.09s.12-12.1.26-12.1.26 5.41.26 12.1-.11 12.09-.26 12.09Z" class="animable" transform-origin="434.1px 379.625px"/>
    <path id="eldavccpztlmk" fill="#263238" d="M438.32 391.72c-.15 0-.26-5.41-.26-12.09s.11-12.1.26-12.1.26 5.41.26 12.1-.12 12.09-.26 12.09Z" class="animable" transform-origin="438.32px 379.625px"/>
    <path id="elzy1cgxawde" fill="#263238" d="M442.53 391.72c-.14 0-.26-5.41-.26-12.09s.12-12.1.26-12.1.26 5.41.26 12.1-.11 12.09-.26 12.09Z" class="animable" transform-origin="442.53px 379.625px"/>
    <path id="elchng29yrv36" fill="#FFF" d="M397.18 411.31h39.85v31.91h-39.85z" class="animable" transform-origin="417.105px 427.265px"/>
    <path id="elwvb3jbxt21" fill="#263238" d="m404 421.47-.92-1.34h-1v1.34H401v-4.81h2a2.68 2.68 0 0 1 1.11.21 1.61 1.61 0 0 1 .72.61 1.78 1.78 0 0 1 0 1.85 1.6 1.6 0 0 1-.73.59l1.08 1.55Zm-.28-3.69a1.19 1.19 0 0 0-.76-.21h-.91v1.67h.95a1.13 1.13 0 0 0 .76-.22.74.74 0 0 0 .26-.62.75.75 0 0 0-.28-.62Z" class="animable" transform-origin="403.09px 419.065px"/>
    <path id="elptmg9gckop" fill="#263238" d="m406.46 424.79-1.1-1.58-1.08 1.58h-1.21l1.68-2.32-1.6-2.23h1.2l1 1.47 1-1.47h1.14l-1.49 2.19 1.69 2.36Z" class="animable" transform-origin="405.38px 422.515px"/>
    <path id="el833dkx0vkjc" fill="#E0E0E0" d="M411.35 416.65h22.75v3.46h-22.75z" class="animable" transform-origin="422.725px 418.38px"/>
    <path id="elnq6wtrlx7p" fill="#263238" d="M431.52 428.69c0 .15-6.64.26-14.84.26s-14.84-.11-14.84-.26 6.64-.26 14.84-.26 14.84.12 14.84.26Z" class="animable" transform-origin="416.68px 428.69px"/>
    <path id="elg24bmqyoju6" fill="#263238" d="M431.52 432.3c0 .14-6.64.26-14.84.26s-14.84-.12-14.84-.26 6.64-.26 14.84-.26 14.84.11 14.84.26Z" class="animable" transform-origin="416.68px 432.3px"/>
    <path id="elw0vh8f6zz3j" fill="#E0E0E0" d="M399.69 436.8h15.38v2.96h-15.38z" class="animable" transform-origin="407.38px 438.28px"/>
    <path id="elk0bwyb606r" fill="#263238" d="M436.12 442.24v-2.2c0-1.45 0-3.52-.05-6.14 0-5.29-.07-12.8-.11-21.86l.21.22h-38.19l.26-.26v30.15l-.23-.24 27.53.12 7.84.06h2.82-2.68l-7.79.06-27.68.12h-.24v-30.42c-.23.23.32-.32.27-.26h38.41v.41c0 9.11-.09 16.68-.11 22 0 2.6-.05 4.65-.06 6.08v1.59a3.6 3.6 0 0 1-.2.57Z" class="animable" transform-origin="417.122px 426.928px"/>
    <path id="el8s5de0tw17o" fill="#FFF" d="M396.17 469.73c-.14 0-.26-16.66-.26-37.2s.12-37.2.26-37.2.26 16.65.26 37.2-.11 37.2-.26 37.2Z" class="animable" transform-origin="396.17px 432.53px"/>
    <path id="el2duh7k8u5a3" fill="#263238" d="M437.07 476.7c0 .15-8.7.26-19.42.26s-19.41-.11-19.41-.26 8.69-.26 19.41-.26 19.42.12 19.42.26Z" class="animable" transform-origin="417.655px 476.7px"/>
  </g>
  <g id="freepik--Character--inject-62" class="animable animator-active" style="animation:1s 1 forwards cubic-bezier(.36,-0.01,.5,1.38) slideRight;animation-delay:0s">
    <path id="elw0qdcbgbs4" fill="#455A64" d="m117.31 435.73-6.63 23.55s21.13 14.82 20.32 19.29L86 467l8.87-37.12Z" class="animable" style="animation:1s 1 forwards cubic-bezier(.36,-0.01,.5,1.38) slideRight;animation-delay:0s" transform-origin="108.511px 454.225px"/>
    <path id="el2paylw3xxxd" fill="#E0E0E0" d="M97.24 453.71a1.92 1.92 0 0 0-1.79 1.83 1.85 1.85 0 0 0 1.75 1.84 2 2 0 0 0 1.89-1.94c-.09-.95-1.12-1.94-2-1.71" class="animable" opacity="0" style="animation:1s 1 forwards cubic-bezier(.36,-0.01,.5,1.38) slideRight;animation-delay:0.014285714285714285s" transform-origin="97.27px 455.538px"/>
    <path id="elscmv9ygd9a" fill="#263238" d="M111.47 459.23c-.07.23-1.19 0-2.45.49s-2.07 1.25-2.25 1.11.47-1.36 2-1.87 2.79.04 2.7.27Z" class="animable" opacity="0" style="animation:1s 1 forwards cubic-bezier(.36,-0.01,.5,1.38) slideRight;animation-delay:0.04285714285714286s" transform-origin="109.108px 459.798px"/>
    <path id="eljtwv1qjduzs" fill="#263238" d="M115.7 462.44c0 .24-1 .37-2 1.14s-1.44 1.71-1.66 1.64 0-1.37 1.19-2.29 2.52-.7 2.47-.49Z" class="animable" opacity="0" style="animation:1s 1 forwards cubic-bezier(.36,-0.01,.5,1.38) slideRight;animation-delay:0.05714285714285714s" transform-origin="113.833px 463.739px"/>
    <path id="el34mpwf7ougk" fill="#263238" d="M117 468.92c-.21 0-.24-1.2.62-2.29s2-1.32 2.06-1.11-.75.71-1.45 1.62-1.04 1.86-1.23 1.78Z" class="animable" opacity="0" style="animation:1s 1 forwards cubic-bezier(.36,-0.01,.5,1.38) slideRight;animation-delay:0.07142857142857142s" transform-origin="118.28px 467.187px"/>
    <path id="elg77094gi8qk" fill="#263238" d="M112.4 453.7c-.15.18-1.08-.39-2.34-.62s-2.33-.08-2.4-.31 1.06-.78 2.54-.49 2.35 1.27 2.2 1.42Z" class="animable" opacity="0" style="animation:1s 1 forwards cubic-bezier(.36,-0.01,.5,1.38) slideRight;animation-delay:0.08571428571428572s" transform-origin="110.037px 452.966px"/>
    <path id="elcajnirn0pmj" fill="#455A64" d="m101.53 441.28-1 24.48s24 9.31 24.18 13.86l-46.41-.37.1-38.22Z" class="animable" opacity="0" style="animation:1s 1 forwards cubic-bezier(.36,-0.01,.5,1.38) slideRight;animation-delay:0.09999999999999999s" transform-origin="101.505px 460.325px"/>
    <path id="elkoqykannmsb" fill="#E0E0E0" d="M86.15 463.59a1.94 1.94 0 0 0-1.33 2.2 1.81 1.81 0 0 0 2.12 1.37 2.05 2.05 0 0 0 1.4-2.34 1.87 1.87 0 0 0-2.34-1.17" class="animable" opacity="0" style="animation:1s 1 forwards cubic-bezier(.36,-0.01,.5,1.38) slideRight;animation-delay:0.11428571428571428s" transform-origin="86.5824px 465.378px"/>
    <path id="elyl8im8dy7sb" fill="#263238" d="M101.24 465.53c0 .23-1.14.33-2.27 1.06s-1.72 1.71-1.93 1.62.14-1.43 1.52-2.3 2.73-.6 2.68-.38Z" class="animable" opacity="0" style="animation:1s 1 forwards cubic-bezier(.36,-0.01,.5,1.38) slideRight;animation-delay:0.14285714285714285s" transform-origin="99.1125px 466.763px"/>
    <path id="el6wju66lg5z4" fill="#263238" d="M106.09 467.63c0 .22-.93.61-1.71 1.59s-1 2-1.23 2-.36-1.33.63-2.52 2.31-1.29 2.31-1.07Z" class="animable" opacity="0" style="animation:1s 1 forwards cubic-bezier(.36,-0.01,.5,1.38) slideRight;animation-delay:0.15714285714285714s" transform-origin="104.539px 469.378px"/>
    <path id="elbth6g14kvnp" fill="#263238" d="M108.81 473.62c-.21.05-.51-1.11.08-2.38s1.65-1.77 1.75-1.57-.57.87-1 1.91-.64 2.02-.83 2.04Z" class="animable" opacity="0" style="animation:1s 1 forwards cubic-bezier(.36,-0.01,.5,1.38) slideRight;animation-delay:0.17142857142857143s" transform-origin="109.597px 471.624px"/>
    <path id="el0805z8xafxp2" fill="#263238" d="M100.87 459.92c-.09.21-1.13-.12-2.41 0s-2.29.49-2.4.29.85-1 2.36-1.1 2.58.63 2.45.81Z" class="animable" opacity="0" style="animation:1s 1 forwards cubic-bezier(.36,-0.01,.5,1.38) slideRight;animation-delay:0.18571428571428572s" transform-origin="98.4661px 459.684px"/>
    <path id="elad2urgcdweh" fill="#263238" d="M72.82 262.11v19.36l5.07 75.42s-3.16 36.59-5.1 57.25c-1.68 17.93 1.07 49.17 1.07 49.17h29.54L114 359.14l6.56-65L132 264.6Z" class="animable" opacity="0" style="animation:1s 1 forwards cubic-bezier(.36,-0.01,.5,1.38) slideRight;animation-delay:0.19999999999999998s" transform-origin="102.123px 362.71px"/>
    <path id="el3wwetnd7e8k" fill="#263238" d="m150.61 265.48-5.66 105.23-29.88 78.79-1.38 4.74-17.64-4.37 13.12-186.44 41.44 2.05z" class="animable" opacity="0" style="animation:1s 1 forwards cubic-bezier(.36,-0.01,.5,1.38) slideRight;animation-delay:0.21428571428571427s" transform-origin="123.33px 358.835px"/>
    <path id="elt6bk08rhzhs" fill="#455A64" d="M120.46 294.94a3 3 0 0 1 0 .44v1.28c0 1.16-.08 2.82-.15 4.94-.12 4.28-.42 10.47-.84 18.12-.89 15.3-2.55 36.41-5.15 59.65s-5.37 44.22-7.43 59.4c-1 7.56-1.89 13.69-2.48 18-.3 2.1-.54 3.74-.7 4.88-.09.54-.15 1-.2 1.27a2.39 2.39 0 0 1-.09.43v-.44c0-.31.09-.73.15-1.27.14-1.15.34-2.79.6-4.9.54-4.27 1.33-10.41 2.31-18 2-15.19 4.71-36.17 7.27-59.41s4.31-44.31 5.3-59.6c.47-7.64.83-13.83 1-18.11.11-2.12.19-3.77.25-4.93 0-.54.06-1 .08-1.28a2.19 2.19 0 0 1 .08-.47Z" class="animable" opacity="0" style="animation:1s 1 forwards cubic-bezier(.36,-0.01,.5,1.38) slideRight;animation-delay:0.22857142857142856s" transform-origin="111.944px 379.145px"/>
    <path id="el5e6u8qqlaca" fill="#455A64" d="M122.33 268.62a1.52 1.52 0 1 1-1.52-1.56 1.53 1.53 0 0 1 1.52 1.56Z" class="animable" opacity="0" style="animation:1s 1 forwards cubic-bezier(.36,-0.01,.5,1.38) slideRight;animation-delay:0.24285714285714285s" transform-origin="120.81px 268.58px"/>
    <path id="el1cj9bjd3se1" fill="#455A64" d="M148.3 283.32a10 10 0 0 1-2.08-2 24.11 24.11 0 0 1-3.72-6 24.55 24.55 0 0 1-1.86-6.81 9.91 9.91 0 0 1-.07-2.92c.09 0 .15 1.11.45 2.87a29.44 29.44 0 0 0 2 6.63 29 29 0 0 0 3.51 5.93c1.06 1.44 1.83 2.23 1.77 2.3Z" class="animable" opacity="0" style="animation:1s 1 forwards cubic-bezier(.36,-0.01,.5,1.38) slideRight;animation-delay:0.2571428571428571s" transform-origin="144.399px 274.455px"/>
    <path id="elzd81vfh0lpb" fill="#E0E0E0" d="M144.77 167.18s5.65 2.22 8.27 10.5c1.82 5.76 10.34 48.64 10.34 48.64l-11.88 7.83-4.83-40.15Z" class="animable" opacity="0" style="animation:1s 1 forwards cubic-bezier(.36,-0.01,.5,1.38) slideRight;animation-delay:0.2714285714285714s" transform-origin="154.075px 200.665px"/>
    <path id="eltp8nyr5sd2q" fill="#E0E0E0" d="m99.59 146.7-3.72 6.6S71 165.94 71.09 167.18c0 0 1.39 47.18 1.65 81.79.1 13.07-.38 25.08-.64 30.85-.69 15.15-1.23 74-1.23 74l90-2.13-16.1-184.51-12.7-5.55-1.62-3.31-5.83-4.74Z" class="animable" opacity="0" style="animation:1s 1 forwards cubic-bezier(.36,-0.01,.5,1.38) slideRight;animation-delay:0.2857142857142857s" transform-origin="115.87px 250.26px"/>
    <path id="elvo77tjuv07q" fill="#263238" d="M139 352.18a2 2 0 0 0 0-.4c0-.29 0-.68-.05-1.17-.06-1.07-.14-2.59-.25-4.53-.23-3.95-.57-9.63-1-16.62-.85-14.06-2-33.44-3.31-54.85s-2.35-40.79-3.16-54.86c-.37-7-.68-12.67-.89-16.63-.11-1.94-.19-3.45-.25-4.52 0-.49-.06-.88-.08-1.17a3 3 0 0 0-.05-.4 2.38 2.38 0 0 0 0 .4v1.18c0 1.06.08 2.58.15 4.52.14 3.93.39 9.62.72 16.64.66 14 1.72 33.45 3 54.88s2.52 40.8 3.47 54.83c.48 7 .88 12.66 1.15 16.62.15 1.93.27 3.45.35 4.51l.1 1.18a1.8 1.8 0 0 0 .1.39Z" class="animable" opacity="0" style="animation:1s 1 forwards cubic-bezier(.36,-0.01,.5,1.38) slideRight;animation-delay:0.3s" transform-origin="134.481px 274.605px"/>
    <path id="ellaat92rrit" fill="#449032" d="m124.62 153.58 2.09 14.45 3.74 29-16.3-27.98L100 150.51l23.32 16.34.29-13.54" class="animable" opacity="0" style="animation:1s 1 forwards cubic-bezier(.36,-0.01,.5,1.38) slideRight;animation-delay:0.3142857142857143s" transform-origin="115.225px 173.77px"/>
    <path id="eljbkhj5vcy1" fill="#263238" d="M95.76 154.18a6.37 6.37 0 0 0 .45 1.13c.35.79.81 1.84 1.39 3.13l5.06 11 .06.14h3.56l-.16-.46-2.5 2.05-.23.19.21.21 4.74 4.64L123.59 191l4.66 4.43 1.29 1.19a2.61 2.61 0 0 0 .47.39 2.15 2.15 0 0 0-.4-.47l-1.21-1.26-4.55-4.56-15.13-14.9c-1.63-1.6-3.23-3.15-4.75-4.63v.39l2.49-2.06.55-.46h-4.12l.22.14c-2.13-4.44-3.93-8.2-5.24-10.92-.63-1.27-1.13-2.3-1.51-3.07a7.61 7.61 0 0 0-.6-1.03Z" class="animable" opacity="0" style="animation:1s 1 forwards cubic-bezier(.36,-0.01,.5,1.38) slideRight;animation-delay:0.32857142857142857s" transform-origin="112.885px 175.595px"/>
    <path id="el0tmhq3trwqac" fill="#263238" d="M130.45 197a12.07 12.07 0 0 0 .33-1.8c.18-1.25.41-2.91.69-4.92.56-4.16 1.3-9.91 2.08-16.26l.72-5.92v-.23l-.23-.06-4.09-1v.48l4.1-.73.28-.05-.12-.25-2.7-5.87c-.31-.63-.56-1.16-.77-1.59a2 2 0 0 0-.31-.54 2.5 2.5 0 0 0 .2.59c.18.44.4 1 .66 1.64.64 1.5 1.5 3.51 2.53 5.94l.16-.29-4.11.67-1.18.19 1.16.29 4.08 1-.2-.28c-.24 1.88-.48 3.87-.74 5.91-.78 6.36-1.46 12.11-1.92 16.28-.21 2-.39 3.69-.52 5a11.61 11.61 0 0 0-.1 1.8Z" class="animable" opacity="0" style="animation:1s 1 forwards cubic-bezier(.36,-0.01,.5,1.38) slideRight;animation-delay:0.34285714285714286s" transform-origin="131.51px 177.63px"/>
    <path id="elegzo4oproi" fill="#263238" d="M116.54 274.21h-.58l-1.73.11-6.64.48-23.78 1.83h-.24v.24c.38 4.47.8 9.33 1.24 14.45q.33 3.86.68 7.89c.12 1.35.23 2.7.35 4.07a11 11 0 0 0 .33 2.1 7.37 7.37 0 0 0 .94 2 8.57 8.57 0 0 0 5.59 3.37 45.55 45.55 0 0 0 6.34.34 53.69 53.69 0 0 0 11.89-1.3 17.9 17.9 0 0 0 2.71-.89 8.3 8.3 0 0 0 1.26-.64 4.1 4.1 0 0 0 .57-.46 5.81 5.81 0 0 0 .45-.56 13.27 13.27 0 0 0 1.55-5.07 62.35 62.35 0 0 0 .47-9.41c-.09-5.76-.5-10.4-.81-13.6-.15-1.6-.3-2.83-.41-3.67 0-.4-.1-.71-.13-1a1 1 0 0 0-.07-.32s0 .11 0 .33 0 .56.08 1c.08.88.18 2.11.31 3.68.25 3.2.6 7.84.64 13.58a65.73 65.73 0 0 1-.53 9.34 13 13 0 0 1-1.51 4.87 4.07 4.07 0 0 1-2.08 1.48 17.2 17.2 0 0 1-2.63.85 53.69 53.69 0 0 1-11.77 1.26 45.09 45.09 0 0 1-6.24-.34 8.06 8.06 0 0 1-5.25-3.15 7.26 7.26 0 0 1-.86-1.8 10.86 10.86 0 0 1-.31-2c-.12-1.37-.24-2.73-.35-4.08-.24-2.68-.47-5.32-.7-7.88-.46-5.13-.89-10-1.29-14.45l-.21.26 23.61-2.06 6.68-.61 1.78-.17a4.68 4.68 0 0 0 .65-.07Z" class="animable" opacity="0" style="animation:1s 1 forwards cubic-bezier(.36,-0.01,.5,1.38) slideRight;animation-delay:0.35714285714285715s" transform-origin="100.765px 292.633px"/>
    <path id="elxi8czljxep" fill="#263238" d="M154.29 276.26a1.18 1.18 0 0 1 0-.25l-.09-.72q-.1-1-.3-2.79c-.24-2.48-.58-6-1-10.28-.82-8.68-1.92-20.68-3.08-33.93s-2.16-25.26-2.83-34c-.33-4.35-.57-7.87-.71-10.3-.08-1.22-.11-2.16-.13-2.81v-.73a.72.72 0 0 1 0-.25c.24 2.82 1.91 21.93 4.19 48 1.14 13.24 2.18 25.22 2.93 33.95.35 4.31.64 7.81.84 10.29.09 1.18.16 2.12.21 2.8v.73a1 1 0 0 1-.03.29Z" class="animable" opacity="0" style="animation:1s 1 forwards cubic-bezier(.36,-0.01,.5,1.38) slideRight;animation-delay:0.3857142857142857s" transform-origin="150.23px 228.23px"/>
    <path id="eljv7g063ly4" fill="#E0E0E0" d="M167.33 227.27a12.5 12.5 0 0 1 .42 4.26c-.21 2.19-.31 7.57-6.14 9.41s-8.66.08-10.45-2.39l-.89-10.7 6.24-4.12Z" class="animable" opacity="0" style="animation:1s 1 forwards cubic-bezier(.36,-0.01,.5,1.38) slideRight;animation-delay:0.39999999999999997s" transform-origin="159.027px 232.717px"/>
    <path id="elvu1k6yd8j9q" fill="#E0E0E0" d="M71.36 166.82s-9.47 8.78-6.77 29.57c2.5 19.32 7 46.22 12.88 49.35s18.73 1.56 28.1-3.75 36.52-19.67 36.52-19.67l-11.24-20-36.21 14s-4.68-32-7.49-37.56" class="animable" opacity="0" style="animation:1s 1 forwards cubic-bezier(.36,-0.01,.5,1.38) slideRight;animation-delay:0.42857142857142855s" transform-origin="103.098px 207.08px"/>
    <path id="elr4c4ysc7hi" fill="#263238" d="M87 178.39s.1.21.28.62c.08.2.2.45.32.76s.22.69.36 1.1c.53 1.66 1.16 4.15 1.85 7.39 1.4 6.47 3.09 15.91 4.87 27.67l-.26-.16 36.19-14.1.2-.08.11.19c3.55 6.32 7.33 13 11.25 20l.13.24-.24.13-23.22 12.51-11.39 6.13c-1.87 1-3.73 2.05-5.66 2.88a47.17 47.17 0 0 1-5.92 2.05 38.71 38.71 0 0 1-12.08 1.4 17.69 17.69 0 0 1-5.79-1.25l-.68-.3c-.22-.11-.43-.27-.65-.41a6.58 6.58 0 0 1-1-1.06 13.85 13.85 0 0 1-1.53-2.47 55.53 55.53 0 0 1-3.64-10.48c-.91-3.47-1.63-6.88-2.28-10.19-1.28-6.61-2.23-12.81-3-18.48s-1.5-10.83-1.29-15.4a38.37 38.37 0 0 1 2.06-11.47 25.44 25.44 0 0 1 3.43-6.52 15.19 15.19 0 0 1 1.24-1.47 5.85 5.85 0 0 1 .48-.44l-.44.48a17.29 17.29 0 0 0-1.19 1.49 26.13 26.13 0 0 0-3.32 6.53 38.34 38.34 0 0 0-2 11.41c-.18 4.54.54 9.67 1.36 15.33s1.79 11.86 3.09 18.46c.65 3.29 1.38 6.69 2.3 10.15a55.39 55.39 0 0 0 3.61 10.38 14.06 14.06 0 0 0 1.45 2.37 6.42 6.42 0 0 0 1 1 4.69 4.69 0 0 0 .58.35l.64.29a17.2 17.2 0 0 0 5.64 1.17 38.33 38.33 0 0 0 11.91-1.39 48.08 48.08 0 0 0 5.84-2c1.92-.83 3.74-1.86 5.62-2.86l11.39-6.14 23.23-12.5-.11.36-11.22-20 .31.11-36.23 14-.23.09v-.24c-1.73-11.75-3.36-21.2-4.69-27.68-.65-3.24-1.25-5.74-1.75-7.4-.12-.41-.23-.78-.33-1.1l-.29-.77c-.2-.46-.31-.68-.31-.68Z" class="animable" opacity="0" style="animation:1s 1 forwards cubic-bezier(.36,-0.01,.5,1.38) slideRight;animation-delay:0.44285714285714284s" transform-origin="103.097px 207.167px"/>
    <path id="eldzdchqm9tio" fill="#263238" d="M103.72 199a29.21 29.21 0 0 1 5.6-.27 29.28 29.28 0 0 1 5.61.27 30.86 30.86 0 0 1-5.61.26 30.79 30.79 0 0 1-5.6-.26Z" class="animable" opacity="0" style="animation:1s 1 forwards cubic-bezier(.36,-0.01,.5,1.38) slideRight;animation-delay:0.4714285714285714s" transform-origin="109.325px 198.994px"/>
    <path id="elmckx0ylgd" fill="#455A64" d="m96.87 172.18 1-.4c0-.05-2.17-5.22-4.3-10.7a10.58 10.58 0 0 1-.9-5.38 2.51 2.51 0 0 1 2.54-2l.7-.37.36-.64c-1.85-.4-4.33 1.15-4.63 2.86a11.61 11.61 0 0 0 1 5.94c2.05 5.51 4.2 10.64 4.23 10.69Z" class="animable" opacity="0" style="animation:1s 1 forwards cubic-bezier(.36,-0.01,.5,1.38) slideRight;animation-delay:0.5s" transform-origin="94.7285px 162.403px"/>
    <path id="elc7pcckgm3p8" fill="#455A64" d="m95.31 184.26 1.33-.52c-1.09-2.81-2.58-7.78-1.94-9.18a4.17 4.17 0 0 1 2.86-1.89 4.78 4.78 0 0 1 4.17.86c1.52 1.29 3.82 5.83 4.58 7.48l1.29-.6c-.11-.25-2.87-6.22-4.95-8a6.18 6.18 0 0 0-5.4-1.16 5.43 5.43 0 0 0-3.84 2.75c-1.08 2.32 1.39 9 1.9 10.26Z" class="animable" opacity="0" style="animation:1s 1 forwards cubic-bezier(.36,-0.01,.5,1.38) slideRight;animation-delay:0.5142857142857142s" transform-origin="100.37px 177.658px"/>
    <path id="eliq12wq42ica" fill="#263238" d="M109.67 205.94c1.64 0 3.26-.88 4.81-2.62l-.54-.48c-1.7 1.93-3.46 2.69-5.2 2.28-7.11-1.67-12.53-21.42-12.58-21.62l-.69.18c.23.83 5.58 20.37 13.1 22.13a4.59 4.59 0 0 0 1.1.13Z" class="animable" opacity="0" style="animation:1s 1 forwards cubic-bezier(.36,-0.01,.5,1.38) slideRight;animation-delay:0.5285714285714286s" transform-origin="104.975px 194.72px"/>
    <path id="elswy67il4y4" fill="#263238" d="M113.11 204.13a.85.85 0 0 0 1.11.08l1.54-1.15a1 1 0 0 0 .29-1.42 1 1 0 0 0-1.57-.15l-1.39 1.44a.85.85 0 0 0 .02 1.2Z" class="animable" opacity="0" style="animation:1s 1 forwards cubic-bezier(.36,-0.01,.5,1.38) slideRight;animation-delay:0.5428571428571428s" transform-origin="114.541px 202.778px"/>
    <path id="elluo3nut0c4o" fill="#263238" d="M106.65 206.59a5.57 5.57 0 0 0 4.85-2.17c4.37-6.13-3.87-23.15-4.22-23.87l-.64.31c.08.18 8.41 17.36 4.28 23.15-1.08 1.51-3 2.11-5.62 1.78l-.09.7a10.47 10.47 0 0 0 1.44.1Z" class="animable" opacity="0" style="animation:1s 1 forwards cubic-bezier(.36,-0.01,.5,1.38) slideRight;animation-delay:0.5571428571428572s" transform-origin="108.992px 193.578px"/>
    <path id="elmiwoipogiw" fill="#263238" d="M106.78 206.2a.85.85 0 0 1-.78.79l-1.92.16a1 1 0 0 1-1.15-.87 1 1 0 0 1 1.07-1.16l2 .17a.86.86 0 0 1 .78.91Z" class="animable" opacity="0" style="animation:1s 1 forwards cubic-bezier(.36,-0.01,.5,1.38) slideRight;animation-delay:0.5714285714285714s" transform-origin="104.849px 206.139px"/>
    <circle id="elchm7huai1ni" cx="141" cy="180.24" r="5.08" fill="#263238" class="animable" opacity="0" style="animation:1s 1 forwards cubic-bezier(.36,-0.01,.5,1.38) slideRight;animation-delay:0.5857142857142857s" transform-origin="141px 180.24px"/>
    <circle id="elxed0jjfuty" cx="141" cy="180.24" r="5.08" fill="#263238" class="animable" opacity="0" style="animation:1s 1 forwards cubic-bezier(.36,-0.01,.5,1.38) slideRight;animation-delay:0.6s" transform-origin="141px 180.24px"/>
    <path id="el00o5q0ly6pj3p" fill="#E0E0E0" d="M137.25 180.24a3.76 3.76 0 1 0 3.75-3.75 3.75 3.75 0 0 0-3.75 3.75Z" class="animable" opacity="0" style="animation:1s 1 forwards cubic-bezier(.36,-0.01,.5,1.38) slideRight;animation-delay:0.6142857142857142s" transform-origin="141.01px 180.25px"/>
    <path id="elyzxui91sd3p" fill="#455A64" d="M130.22 158.11c.48.69 5.79 11.9 8.69 17.55l.85-.44c-.43-.83-8.15-16.76-8.75-17.65l-5.62-4.57-.2 1.07Z" class="animable" opacity="0" style="animation:1s 1 forwards cubic-bezier(.36,-0.01,.5,1.38) slideRight;animation-delay:0.6285714285714286s" transform-origin="132.475px 164.33px"/>
    <path id="elgy3a35o90v9" fill="#263238" d="M128.09 180.12c3.68 3.67 13 13.22 13 13.22l2.49-1.5-13.12-14a1.64 1.64 0 0 0-2.11-.24 1.64 1.64 0 0 0-.26 2.52Z" class="animable" opacity="0" style="animation:1s 1 forwards cubic-bezier(.36,-0.01,.5,1.38) slideRight;animation-delay:0.6428571428571428s" transform-origin="135.598px 185.331px"/>
    <path id="el3gswjp9xgx7" fill="#FFBF9D" d="m130.74 201.91 3.13-8.82a5 5 0 0 1 4.51-3.38h.47c1.88.21 11.45.84 11.45.84l3.7 4.15a1.89 1.89 0 0 1 0 2.5l1.07 7.5-2.07 1.44.21 5.24s-1.87 1.24-2.7.83l-.84-.42-1.24-1.25-3.54 5-4.89 2.83Z" class="animable" opacity="0" style="animation:1s 1 forwards cubic-bezier(.36,-0.01,.5,1.38) slideRight;animation-delay:0.6571428571428571s" transform-origin="142.905px 204.04px"/>
    <path id="elko7i0qhbu78" fill="#FF9A6C" d="M154.06 197.62a17 17 0 0 0-1.34-1.45 6.31 6.31 0 0 0-1.79-1.08 13.41 13.41 0 0 0-2.59-.35 43.74 43.74 0 0 1-6.83-.92 43.69 43.69 0 0 1 6.88.38 11.37 11.37 0 0 1 2.71.42 6 6 0 0 1 1.88 1.26 3.18 3.18 0 0 1 1.08 1.74Z" class="animable" opacity="0" style="animation:1s 1 forwards cubic-bezier(.36,-0.01,.5,1.38) slideRight;animation-delay:0.6714285714285714s" transform-origin="147.785px 195.714px"/>
    <path id="el8a7w1xxisov" fill="#FF9A6C" d="M153.85 204.51a15.5 15.5 0 0 0-.77-1.91 7.43 7.43 0 0 0-3.7-3.1 14.06 14.06 0 0 0-4.9-.83 10.89 10.89 0 0 1-2.1-.06 6.25 6.25 0 0 1 2.1-.32 12.14 12.14 0 0 1 5.1.7 7.2 7.2 0 0 1 3.84 3.43 3.24 3.24 0 0 1 .43 2.09Z" class="animable" opacity="0" style="animation:1s 1 forwards cubic-bezier(.36,-0.01,.5,1.38) slideRight;animation-delay:0.6857142857142857s" transform-origin="148.129px 201.382px"/>
    <path id="elm4oirtckvs" fill="#FF9A6C" d="M152.91 210.94a4.06 4.06 0 0 1-.5-2.06 6.9 6.9 0 0 0-.47-2.15 2.64 2.64 0 0 0-2-1.49 37.2 37.2 0 0 0-5-.72 5.69 5.69 0 0 1-2.07-.48 14.88 14.88 0 0 1 2.11.1 24.8 24.8 0 0 1 5.09.57 4.07 4.07 0 0 1 1.4.65 2.82 2.82 0 0 1 .88 1.17 6.36 6.36 0 0 1 .39 2.32c.05 1.3.26 2.06.17 2.09Z" class="animable" opacity="0" style="animation:1s 1 forwards cubic-bezier(.36,-0.01,.5,1.38) slideRight;animation-delay:0.7s" transform-origin="147.901px 207.488px"/>
    <path id="elvxlmggzim4r" fill="#455A64" d="m158.13 194.4-41.28 42.63 1.59 1.61 29.57-3.33 39.79-37.91-.04-1.82-29.63-1.18z" class="animable" opacity="0" style="animation:1s 1 forwards cubic-bezier(.36,-0.01,.5,1.38) slideRight;animation-delay:0.7142857142857143s" transform-origin="152.325px 216.52px"/>
    <path id="ellwg6viv0o6f" fill="#263238" d="M187.64 197.32a3.85 3.85 0 0 1-.54 0h-1.58l-5.92-.07-20.6-.36.19-.08-10.34 10.73-21.45 22.07-6.54 6.64-1.8 1.79a6.67 6.67 0 0 1-.65.6 4.68 4.68 0 0 1 .59-.64l1.73-1.86 6.42-6.76c5.49-5.71 13-13.54 21.33-22.18 3.65-3.78 7.16-7.4 10.36-10.7l.08-.08h.08l20.57.59 5.91.21 1.58.08a2.64 2.64 0 0 1 .58.02Z" class="animable" opacity="0" style="animation:1s 1 forwards cubic-bezier(.36,-0.01,.5,1.38) slideRight;animation-delay:0.7428571428571429s" transform-origin="153.025px 217.53px"/>
    <path id="ellhtby2h52s" fill="#FFBF9D" d="M161.8 209.82s4 .08 5.31.73S172 215 172 215s0 2.6-1 2.7a9.09 9.09 0 0 1 .21 1.77c.1 1.46.31 2.29-1.67 3.54 0 0 .21 2.39-.52 3a14.22 14.22 0 0 1-1.56 1.14s-.11 2.63-3.64 2.6l-3.31 1.46s-7.36-.69-6.58-1.56 2.55-5.18 2.55-5.18-5-3.67-4.94-4.81.52-1.25.52-1.25-.2-2.18 1.56-2.39c0 0 1.36-2.71 2.71-2.81s10.51 3.22 10.51 3.22l-3.43-2.91s-3.44-.52-3.33-1.67 1.72-2.03 1.72-2.03Z" class="animable" opacity="0" style="animation:1s 1 forwards cubic-bezier(.36,-0.01,.5,1.38) slideRight;animation-delay:0.7571428571428571s" transform-origin="161.77px 220.515px"/>
    <path id="elbgxmgmymib" fill="#FF9A6C" d="M161.2 223.53a50 50 0 0 1-4.65-2.25 50.55 50.55 0 0 1-4.65-2.28 16.34 16.34 0 0 1 4.89 1.75 16.7 16.7 0 0 1 4.41 2.78Z" class="animable" opacity="0" style="animation:1s 1 forwards cubic-bezier(.36,-0.01,.5,1.38) slideRight;animation-delay:0.7714285714285714s" transform-origin="156.55px 221.265px"/>
    <path id="el3g3xksycn5v" fill="#FF9A6C" d="M166 220.35a37 37 0 0 1-6-1.94 36.08 36.08 0 0 1-5.78-2.45 37 37 0 0 1 6 1.94 36.08 36.08 0 0 1 5.78 2.45Z" class="animable" opacity="0" style="animation:1s 1 forwards cubic-bezier(.36,-0.01,.5,1.38) slideRight;animation-delay:0.7857142857142857s" transform-origin="160.11px 218.155px"/>
    <path id="el2ahmuifwvxi" fill="#263238" d="M100.82 128.2A83.51 83.51 0 0 1 98 114.33a28.74 28.74 0 0 1 1.84-13.91c.29-.66 2.65-5 3.35-4.94.51.07-1 4.2-.78 4.66 2.24 4.34 2.64 9.45 2 14.3a63.86 63.86 0 0 1-3.55 13.76" class="animable" opacity="0" style="animation:1s 1 forwards cubic-bezier(.36,-0.01,.5,1.38) slideRight;animation-delay:0.7999999999999999s" transform-origin="101.248px 111.84px"/>
    <path id="eligd919e78w9" fill="#FFBF9D" d="M101.29 110.17c.22-11.86 7.31-21.6 19.15-21l1.09.12a21.18 21.18 0 0 1 19 21.59c-.25 10.27-.66 21.61-1.3 27.07-1.33 11.29-12.83 11.86-12.83 11.86l-2.62 17.42-24.19-16.82Z" class="animable" opacity="0" style="animation:1s 1 forwards cubic-bezier(.36,-0.01,.5,1.38) slideRight;animation-delay:0.8142857142857143s" transform-origin="120.063px 128.187px"/>
    <path id="elo5syv1pt3c" fill="#FF9A6C" d="M126.36 149.85a27.52 27.52 0 0 1-14.27-5.91s2.26 9.67 13.65 9.84Z" class="animable" opacity="0" style="animation:1s 1 forwards cubic-bezier(.36,-0.01,.5,1.38) slideRight;animation-delay:0.8285714285714285s" transform-origin="119.225px 148.86px"/>
    <path id="elpggabsy7buf" fill="#263238" d="M136.18 120.29a1.62 1.62 0 0 1-1.73 1.46 1.55 1.55 0 0 1-1.51-1.63 1.63 1.63 0 0 1 1.73-1.47 1.56 1.56 0 0 1 1.51 1.64Z" class="animable" opacity="0" style="animation:1s 1 forwards cubic-bezier(.36,-0.01,.5,1.38) slideRight;animation-delay:0.8428571428571429s" transform-origin="134.56px 120.2px"/>
    <path id="eliu637xijxir" fill="#263238" d="M137.58 115.27c-.22.18-1.35-.85-3.09-1s-3.1.56-3.27.33.16-.47.76-.81a4.41 4.41 0 0 1 2.65-.52 4.3 4.3 0 0 1 2.43 1.07c.49.44.63.84.52.93Z" class="animable" opacity="0" style="animation:1s 1 forwards cubic-bezier(.36,-0.01,.5,1.38) slideRight;animation-delay:0.8571428571428571s" transform-origin="134.395px 114.265px"/>
    <path id="el92l3gudomjo" fill="#263238" d="M121.31 119.59a1.63 1.63 0 0 1-1.73 1.47 1.56 1.56 0 0 1-1.51-1.64 1.63 1.63 0 0 1 1.73-1.42 1.55 1.55 0 0 1 1.51 1.59Z" class="animable" opacity="0" style="animation:1s 1 forwards cubic-bezier(.36,-0.01,.5,1.38) slideRight;animation-delay:0.8714285714285714s" transform-origin="119.689px 119.53px"/>
    <path id="elbiqi5bki60v" fill="#263238" d="M120.48 114.17c-.22.19-1.35-.84-3.09-1s-3.1.56-3.27.32.16-.46.76-.8a4.41 4.41 0 0 1 2.65-.52 4.3 4.3 0 0 1 2.43 1.07c.49.45.63.85.52.93Z" class="animable" opacity="0" style="animation:1s 1 forwards cubic-bezier(.36,-0.01,.5,1.38) slideRight;animation-delay:0.8857142857142857s" transform-origin="117.295px 113.166px"/>
    <path id="elz6cgfrbt60o" fill="#263238" d="M125.31 128.19a11.06 11.06 0 0 1 2.88-.21c.44 0 .87 0 1-.34a2.28 2.28 0 0 0-.16-1.35l-.95-3.52c-1.32-5-2.22-9.1-2-9.15s1.43 4 2.75 9c.31 1.23.61 2.41.9 3.53a2.6 2.6 0 0 1 0 1.77 1.11 1.11 0 0 1-.79.57 3 3 0 0 1-.77 0 11.73 11.73 0 0 1-2.86-.3Z" class="animable" opacity="0" style="animation:1s 1 forwards cubic-bezier(.36,-0.01,.5,1.38) slideRight;animation-delay:0.9s" transform-origin="127.598px 121.067px"/>
    <path id="elp26dyig94rb" fill="#263238" d="M120.07 128.85c.28 0 .09 1.9 1.56 3.41s3.5 1.51 3.49 1.78-.49.32-1.34.25a4.69 4.69 0 0 1-2.92-1.38 4.08 4.08 0 0 1-1.19-2.84c.01-.8.27-1.24.4-1.22Z" class="animable" opacity="0" style="animation:1s 1 forwards cubic-bezier(.36,-0.01,.5,1.38) slideRight;animation-delay:0.9142857142857143s" transform-origin="122.395px 131.584px"/>
    <path id="elttpgl8zc4r8" fill="#263238" d="M121.13 107.11c-.22.45-1.93 0-4 .08s-3.77.41-4 0c-.1-.22.24-.63 1-1a6.64 6.64 0 0 1 3-.72 6.71 6.71 0 0 1 3 .69c.76.32 1.1.73 1 .95Z" class="animable" opacity="0" style="animation:1s 1 forwards cubic-bezier(.36,-0.01,.5,1.38) slideRight;animation-delay:0.9285714285714285s" transform-origin="117.13px 106.431px"/>
    <path id="elji5rr377slg" fill="#263238" d="M137.47 109.41c-.35.36-1.5-.17-2.94-.34s-2.68 0-2.92-.46c-.1-.21.13-.59.7-.91a4.12 4.12 0 0 1 2.46-.39 4 4 0 0 1 2.27 1c.46.5.59.92.43 1.1Z" class="animable" opacity="0" style="animation:1s 1 forwards cubic-bezier(.36,-0.01,.5,1.38) slideRight;animation-delay:0.9428571428571428s" transform-origin="134.561px 108.398px"/>
    <path id="eldy39ro1phwe" fill="#FFBF9D" d="M101.33 118.64c-.19-.11-7.53-3.12-8.1 4.64s7.34 6.73 7.37 6.51.73-11.15.73-11.15Z" class="animable" opacity="0" style="animation:1s 1 forwards cubic-bezier(.36,-0.01,.5,1.38) slideRight;animation-delay:0.9571428571428571s" transform-origin="97.2653px 123.966px"/>
    <path id="el2vktlo068q" fill="#FF9A6C" d="M98.44 126.67s-.14.09-.38.18a1.39 1.39 0 0 1-1-.06c-.79-.36-1.39-1.71-1.33-3.11a4.62 4.62 0 0 1 .52-1.91 1.56 1.56 0 0 1 1.1-1 .68.68 0 0 1 .77.43c.09.22 0 .37.07.39s.17-.12.13-.44a.86.86 0 0 0-.27-.51 1 1 0 0 0-.73-.25 1.87 1.87 0 0 0-1.5 1.1 4.66 4.66 0 0 0-.63 2.12c-.06 1.57.63 3.09 1.73 3.5a1.44 1.44 0 0 0 1.25-.12c.25-.13.3-.3.27-.32Z" class="animable" opacity="0" style="animation:1s 1 forwards cubic-bezier(.36,-0.01,.5,1.38) slideRight;animation-delay:0.9714285714285714s" transform-origin="96.8171px 123.794px"/>
    <path id="elh3yt93qmm" fill="#263238" d="M136.3 97.64c1.3-.61-2.21-4.92-5.21-6.52-4.53-2.42-11.57-4.18-16-3.24-5.28 1.14-9.75 3.44-12.65 8a30.6 30.6 0 0 0-4.43 15.37 9.29 9.29 0 0 0 .79 4.82c1 1.78 3 3 2.74 5.36a3.26 3.26 0 0 0 .65 2.42c1.33 1.61 3.15.3 4.05-1.07 1.9-2.94 2.32-6.55 2.7-10a22.74 22.74 0 0 0 0-7.41c-.3-1.32-.83-2.58-1-3.92a4.67 4.67 0 0 1 .8-3.84 4.84 4.84 0 0 1 .67-.59 8.11 8.11 0 0 1 8.13-1c4.27 1.83 11.59 4.62 13.64 3.26 2.94-1.95 3.7-3.3 3.7-3.3Z" class="animable" opacity="0" style="animation:1s 1 forwards cubic-bezier(.36,-0.01,.5,1.38) slideRight;animation-delay:0.9857142857142857s" transform-origin="117.269px 106.108px"/>
  </g>
  <defs>
    <filter id="active" height="200%">
      <feMorphology in="SourceAlpha" operator="dilate" radius="2" result="DILATED"/>
      <feFlood flood-color="#32DFEC" flood-opacity="1" result="PINK"/>
      <feComposite in="PINK" in2="DILATED" operator="in" result="OUTLINE"/>
      <feMerge>
        <feMergeNode in="OUTLINE"/>
        <feMergeNode in="SourceGraphic"/>
      </feMerge>
    </filter>
    <filter id="hover" height="200%">
      <feMorphology in="SourceAlpha" operator="dilate" radius="2" result="DILATED"/>
      <feFlood flood-color="red" flood-opacity=".5" result="PINK"/>
      <feComposite in="PINK" in2="DILATED" operator="in" result="OUTLINE"/>
      <feMerge>
        <feMergeNode in="OUTLINE"/>
        <feMergeNode in="SourceGraphic"/>
      </feMerge>
      <feColorMatrix values="0 0 0 0 0 0 1 0 0 0 0 0 0 0 0 0 0 0 1 0"/>
    </filter>
  </defs>
</svg>
